<?xml version="1.0" encoding="utf-8"?>
<!-- Generator: Adobe Illustrator 19.1.0, SVG Export Plug-In . SVG Version: 6.00 Build 0)  -->
<svg version="1.1" id="Layer_1" xmlns="http://www.w3.org/2000/svg" xmlns:xlink="http://www.w3.org/1999/xlink" x="0px" y="0px"
	 viewBox="999.4 1055.8 331.1 126.4" style="enable-background:new 999.4 1055.8 331.1 126.4;" xml:space="preserve">
<style type="text/css">
	.st0{fill:#6F1717;}
	.st1{fill:#CE7689;}
	.st2{fill:#FFFFFF;}
</style>
<g>
	<g>
		<polyline class="st0" points="999.4,1055.8 1330.5,1055.8 1330.5,1182.2 999.4,1182.2 999.4,1055.8 		"/>
	</g>
	<g>
		<path class="st1" d="M1031.1,1084.4l9.5,54.7l9.6-54.7l-1.8-6.8h15.8l-4.1,6.8l-13.9,79.6l2.2,3.7h-15.6l2.2-3.7l-13.9-79.6
			l-4.1-6.8h15.8L1031.1,1084.4z"/>
		<path class="st1" d="M1106.7,1167.7H1078l-2.9-6.8v-76.5l2.9-6.8h28.7l2.9,6.8v76.5L1106.7,1167.7z M1099.5,1087.6h-14.3v70.1
			h14.3V1087.6z"/>
		<path class="st1" d="M1136.8,1084.4v73.3h12.7l6.8-2.9l-2.9,12.9h-29.5l2.9-6.8v-76.5l-2.9-6.8h15.8L1136.8,1084.4z"/>
		<path class="st1" d="M1179.2,1084.4l9.5,54.7l9.6-54.7l-1.8-6.8h15.8l-4.1,6.8l-13.9,79.6l2.2,3.7h-15.6l2.2-3.7l-13.9-79.6
			l-4.1-6.8h15.8L1179.2,1084.4z"/>
		<path class="st1" d="M1224.4,1167.7l2.9-6.8v-76.5l-2.9-6.8h32.4v12.9l-6.8-2.9h-12.7v15h10.7l6.8-2.9v15.8l-6.8-2.9h-10.7v45.1
			h12.7l6.8-2.9l-2.9,12.9H1224.4z"/>
		<path class="st1" d="M1304.4,1160.9l4,6.8h-15.8l1.8-6.8l-7.6-48.3h-2.8v48.3l2.9,6.8h-15.8l2.9-6.8v-76.5l-2.9-6.8h34.4l2.9,6.8
			v21.4l-2.9,6.8h-8.7L1304.4,1160.9z M1284,1087.6v15h14.3v-15H1284z"/>
	</g>
	<g>
		<path class="st0" d="M1033.1,1082.4l9.5,54.7l9.6-54.7l-1.8-6.8h15.8l-4.1,6.8l-13.9,79.6l2.2,3.7h-15.6l2.2-3.7l-13.9-79.6
			l-4.1-6.8h15.8L1033.1,1082.4z"/>
		<path class="st0" d="M1108.7,1165.7H1080l-2.9-6.8v-76.5l2.9-6.8h28.7l2.9,6.8v76.5L1108.7,1165.7z M1101.5,1085.6h-14.3v70.1
			h14.3V1085.6z"/>
		<path class="st0" d="M1138.8,1082.4v73.3h12.7l6.8-2.9l-2.9,12.9h-29.5l2.9-6.8v-76.5l-2.9-6.8h15.8L1138.8,1082.4z"/>
		<path class="st0" d="M1181.2,1082.4l9.5,54.7l9.6-54.7l-1.8-6.8h15.8l-4.1,6.8l-13.9,79.6l2.2,3.7h-15.6l2.2-3.7l-13.9-79.6
			l-4.1-6.8h15.8L1181.2,1082.4z"/>
		<path class="st0" d="M1226.4,1165.7l2.9-6.8v-76.5l-2.9-6.8h32.4v12.9l-6.8-2.9h-12.7v15h10.7l6.8-2.9v15.8l-6.8-2.9h-10.7v45.1
			h12.7l6.8-2.9l-2.9,12.9H1226.4z"/>
		<path class="st0" d="M1306.4,1158.9l4,6.8h-15.8l1.8-6.8l-7.6-48.3h-2.8v48.3l2.9,6.8h-15.8l2.9-6.8v-76.5l-2.9-6.8h34.4l2.9,6.8
			v21.4l-2.9,6.8h-8.7L1306.4,1158.9z M1286,1085.6v15h14.3v-15H1286z"/>
	</g>
	<g>
		<path class="st2" d="M1035.1,1080.4l9.5,54.7l9.6-54.7l-1.8-6.8h15.8l-4.1,6.8l-13.9,79.6l2.2,3.7h-15.6l2.2-3.7l-13.9-79.6
			l-4.1-6.8h15.8L1035.1,1080.4z"/>
		<path class="st2" d="M1110.7,1163.7H1082l-2.9-6.8v-76.5l2.9-6.8h28.7l2.9,6.8v76.5L1110.7,1163.7z M1103.5,1083.6h-14.3v70.1
			h14.3V1083.6z"/>
		<path class="st2" d="M1140.8,1080.4v73.3h12.7l6.8-2.9l-2.9,12.9h-29.5l2.9-6.8v-76.5l-2.9-6.8h15.8L1140.8,1080.4z"/>
		<path class="st2" d="M1183.2,1080.4l9.5,54.7l9.6-54.7l-1.8-6.8h15.8l-4.1,6.8l-13.9,79.6l2.2,3.7h-15.6l2.2-3.7l-13.9-79.6
			l-4.1-6.8h15.8L1183.2,1080.4z"/>
		<path class="st2" d="M1228.4,1163.7l2.9-6.8v-76.5l-2.9-6.8h32.4v12.9l-6.8-2.9h-12.7v15h10.7l6.8-2.9v15.8l-6.8-2.9h-10.7v45.1
			h12.7l6.8-2.9l-2.9,12.9H1228.4z"/>
		<path class="st2" d="M1308.4,1156.9l4,6.8h-15.8l1.8-6.8l-7.6-48.3h-2.8v48.3l2.9,6.8h-15.8l2.9-6.8v-76.5l-2.9-6.8h34.4l2.9,6.8
			v21.4l-2.9,6.8h-8.7L1308.4,1156.9z M1288,1083.6v15h14.3v-15H1288z"/>
	</g>
</g>
</svg>
