<?xml version="1.0" encoding="utf-8"?>
<!-- Generator: Adobe Illustrator 19.1.0, SVG Export Plug-In . SVG Version: 6.00 Build 0)  -->
<svg version="1.1" id="Layer_1" xmlns="http://www.w3.org/2000/svg" xmlns:xlink="http://www.w3.org/1999/xlink" x="0px" y="0px"
	 viewBox="939.9 1620.8 450.1 126.4" style="enable-background:new 939.9 1620.8 450.1 126.4;" xml:space="preserve">
<style type="text/css">
	.st0{fill:#6F1717;}
	.st1{fill:#CE7689;}
	.st2{fill:#FFFFFF;}
</style>
<g>
	<g>
		<rect x="939.9" y="1620.8" class="st0" width="450.1" height="126.4"/>
	</g>
	<g>
		<path class="st1" d="M1038.8,1640.6h34.4l2.9,6.8v76.5l-2.9,6.8h-34.4l2.9-6.8v-76.5L1038.8,1640.6z M1051.7,1650.6v70.1h14.3
			v-70.1H1051.7z"/>
		<path class="st1" d="M1090.4,1730.7l2.9-6.8v-76.5l-2.9-6.8h32.4v12.9l-6.8-2.9h-12.7v15h10.7l6.8-2.9v15.8l-6.8-2.9h-10.7v45.1
			h12.7l6.8-2.9l-2.9,12.9H1090.4z"/>
		<path class="st1" d="M1160.7,1723.9l2.9,6.8h-15.8l2.9-6.8v-73.3h-6.7l-6.8,2.9v-12.9h37.2v12.9l-6.9-2.9h-6.7V1723.9z"/>
		<path class="st1" d="M1198.9,1730.7h-15.8l4.1-6.8l13.9-79.6l-2.2-3.7h15.6l-2.2,3.7l13.9,79.6l4.1,6.8h-15.8l1.8-6.8l-5-28.2
			h-9.3l-4.8,28.2L1198.9,1730.7z M1203.9,1685.6h5.7l-2.9-16.4L1203.9,1685.6z"/>
		<path class="st1" d="M1255.3,1647.4v73.3h12.7l6.8-2.9l-2.9,12.9h-29.5l2.9-6.8v-76.5l-2.9-6.8h15.8L1255.3,1647.4z"/>
		<path class="st1" d="M1299.9,1647.4v73.3h12.7l6.8-2.9l-2.9,12.9H1287l2.9-6.8v-76.5l-2.9-6.8h15.8L1299.9,1647.4z"/>
		<path class="st1" d="M1331.5,1730.7l2.9-6.8v-76.5l-2.9-6.8h32.4v12.9l-6.8-2.9h-12.7v15h10.7l6.8-2.9v15.8l-6.8-2.9h-10.7v45.1
			h12.7l6.8-2.9l-2.9,12.9H1331.5z"/>
	</g>
	<g>
		<path class="st0" d="M1040.8,1638.6h34.4l2.9,6.8v76.5l-2.9,6.8h-34.4l2.9-6.8v-76.5L1040.8,1638.6z M1053.7,1648.6v70.1h14.3
			v-70.1H1053.7z"/>
		<path class="st0" d="M1092.4,1728.7l2.9-6.8v-76.5l-2.9-6.8h32.4v12.9l-6.8-2.9h-12.7v15h10.7l6.8-2.9v15.8l-6.8-2.9h-10.7v45.1
			h12.7l6.8-2.9l-2.9,12.9H1092.4z"/>
		<path class="st0" d="M1162.7,1721.9l2.9,6.8h-15.8l2.9-6.8v-73.3h-6.7l-6.8,2.9v-12.9h37.2v12.9l-6.9-2.9h-6.7V1721.9z"/>
		<path class="st0" d="M1200.9,1728.7h-15.8l4.1-6.8l13.9-79.6l-2.2-3.7h15.6l-2.2,3.7l13.9,79.6l4.1,6.8h-15.8l1.8-6.8l-5-28.2
			h-9.3l-4.8,28.2L1200.9,1728.7z M1205.9,1683.6h5.7l-2.9-16.4L1205.9,1683.6z"/>
		<path class="st0" d="M1257.3,1645.4v73.3h12.7l6.8-2.9l-2.9,12.9h-29.5l2.9-6.8v-76.5l-2.9-6.8h15.8L1257.3,1645.4z"/>
		<path class="st0" d="M1301.9,1645.4v73.3h12.7l6.8-2.9l-2.9,12.9H1289l2.9-6.8v-76.5l-2.9-6.8h15.8L1301.9,1645.4z"/>
		<path class="st0" d="M1333.5,1728.7l2.9-6.8v-76.5l-2.9-6.8h32.4v12.9l-6.8-2.9h-12.7v15h10.7l6.8-2.9v15.8l-6.8-2.9h-10.7v45.1
			h12.7l6.8-2.9l-2.9,12.9H1333.5z"/>
	</g>
	<g>
		<path class="st2" d="M1042.8,1636.6h34.4l2.9,6.8v76.5l-2.9,6.8h-34.4l2.9-6.8v-76.5L1042.8,1636.6z M1055.7,1646.6v70.1h14.3
			v-70.1H1055.7z"/>
		<path class="st2" d="M1094.4,1726.7l2.9-6.8v-76.5l-2.9-6.8h32.4v12.9l-6.8-2.9h-12.7v15h10.7l6.8-2.9v15.8l-6.8-2.9h-10.7v45.1
			h12.7l6.8-2.9l-2.9,12.9H1094.4z"/>
		<path class="st2" d="M1164.7,1719.9l2.9,6.8h-15.8l2.9-6.8v-73.3h-6.7l-6.8,2.9v-12.9h37.2v12.9l-6.9-2.9h-6.7V1719.9z"/>
		<path class="st2" d="M1202.9,1726.7h-15.8l4.1-6.8l13.9-79.6l-2.2-3.7h15.6l-2.2,3.7l13.9,79.6l4.1,6.8h-15.8l1.8-6.8l-5-28.2
			h-9.3l-4.8,28.2L1202.9,1726.7z M1207.9,1681.6h5.7l-2.9-16.4L1207.9,1681.6z"/>
		<path class="st2" d="M1259.3,1643.4v73.3h12.7l6.8-2.9l-2.9,12.9h-29.5l2.9-6.8v-76.5l-2.9-6.8h15.8L1259.3,1643.4z"/>
		<path class="st2" d="M1303.9,1643.4v73.3h12.7l6.8-2.9l-2.9,12.9H1291l2.9-6.8v-76.5l-2.9-6.8h15.8L1303.9,1643.4z"/>
		<path class="st2" d="M1335.5,1726.7l2.9-6.8v-76.5l-2.9-6.8h32.4v12.9l-6.8-2.9h-12.7v15h10.7l6.8-2.9v15.8l-6.8-2.9h-10.7v45.1
			h12.7l6.8-2.9l-2.9,12.9H1335.5z"/>
	</g>
	<g>
		<g>
			<path class="st1" d="M970.4,1678.5h-7.5c-1.3,0-2.4-1.1-2.4-2.4v-6.4c0-1.3,1.1-2.4,2.4-2.4h7.5c1.3,0,2.4,1.1,2.4,2.4v6.4
				C972.8,1677.4,971.7,1678.5,970.4,1678.5z"/>
		</g>
		<g>
			<path class="st1" d="M1019.5,1678.5h-39.6c-1.3,0-2.4-1.1-2.4-2.4v-6.4c0-1.3,1.1-2.4,2.4-2.4h39.6c1.3,0,2.4,1.1,2.4,2.4v6.4
				C1021.9,1677.4,1020.8,1678.5,1019.5,1678.5z"/>
		</g>
		<g>
			<path class="st1" d="M970.4,1697.1h-7.5c-1.3,0-2.4-1.1-2.4-2.4v-6.4c0-1.3,1.1-2.4,2.4-2.4h7.5c1.3,0,2.4,1.1,2.4,2.4v6.4
				C972.8,1696.1,971.7,1697.1,970.4,1697.1z"/>
		</g>
		<g>
			<path class="st1" d="M1019.5,1697.1h-39.6c-1.3,0-2.4-1.1-2.4-2.4v-6.4c0-1.3,1.1-2.4,2.4-2.4h39.6c1.3,0,2.4,1.1,2.4,2.4v6.4
				C1021.9,1696.1,1020.8,1697.1,1019.5,1697.1z"/>
		</g>
		<g>
			<path class="st1" d="M970.4,1715.6h-7.5c-1.3,0-2.4-1.1-2.4-2.4v-6.4c0-1.3,1.1-2.4,2.4-2.4h7.5c1.3,0,2.4,1.1,2.4,2.4v6.4
				C972.8,1714.5,971.7,1715.6,970.4,1715.6z"/>
		</g>
		<g>
			<path class="st1" d="M1019.5,1715.6h-39.6c-1.3,0-2.4-1.1-2.4-2.4v-6.4c0-1.3,1.1-2.4,2.4-2.4h39.6c1.3,0,2.4,1.1,2.4,2.4v6.4
				C1021.9,1714.5,1020.8,1715.6,1019.5,1715.6z"/>
		</g>
	</g>
	<g>
		<g>
			<path class="st0" d="M971.1,1677.6h-7.5c-1.3,0-2.4-1.1-2.4-2.4v-6.4c0-1.3,1.1-2.4,2.4-2.4h7.5c1.3,0,2.4,1.1,2.4,2.4v6.4
				C973.5,1676.5,972.4,1677.6,971.1,1677.6z"/>
		</g>
		<g>
			<path class="st0" d="M1020.2,1677.6h-39.6c-1.3,0-2.4-1.1-2.4-2.4v-6.4c0-1.3,1.1-2.4,2.4-2.4h39.6c1.3,0,2.4,1.1,2.4,2.4v6.4
				C1022.6,1676.5,1021.5,1677.6,1020.2,1677.6z"/>
		</g>
		<g>
			<path class="st0" d="M971.1,1696.3h-7.5c-1.3,0-2.4-1.1-2.4-2.4v-6.4c0-1.3,1.1-2.4,2.4-2.4h7.5c1.3,0,2.4,1.1,2.4,2.4v6.4
				C973.5,1695.2,972.4,1696.3,971.1,1696.3z"/>
		</g>
		<g>
			<path class="st0" d="M1020.2,1696.3h-39.6c-1.3,0-2.4-1.1-2.4-2.4v-6.4c0-1.3,1.1-2.4,2.4-2.4h39.6c1.3,0,2.4,1.1,2.4,2.4v6.4
				C1022.6,1695.2,1021.5,1696.3,1020.2,1696.3z"/>
		</g>
		<g>
			<path class="st0" d="M971.1,1714.7h-7.5c-1.3,0-2.4-1.1-2.4-2.4v-6.4c0-1.3,1.1-2.4,2.4-2.4h7.5c1.3,0,2.4,1.1,2.4,2.4v6.4
				C973.5,1713.7,972.4,1714.7,971.1,1714.7z"/>
		</g>
		<g>
			<path class="st0" d="M1020.2,1714.7h-39.6c-1.3,0-2.4-1.1-2.4-2.4v-6.4c0-1.3,1.1-2.4,2.4-2.4h39.6c1.3,0,2.4,1.1,2.4,2.4v6.4
				C1022.6,1713.7,1021.5,1714.7,1020.2,1714.7z"/>
		</g>
	</g>
	<g>
		<g>
			<path class="st2" d="M972.3,1673.4h-7.5c-1.3,0-2.4-1.1-2.4-2.4v-6.4c0-1.3,1.1-2.4,2.4-2.4h7.5c1.3,0,2.4,1.1,2.4,2.4v6.4
				C974.7,1672.3,973.6,1673.4,972.3,1673.4z"/>
		</g>
		<g>
			<path class="st2" d="M1021.4,1673.4h-39.6c-1.3,0-2.4-1.1-2.4-2.4v-6.4c0-1.3,1.1-2.4,2.4-2.4h39.6c1.3,0,2.4,1.1,2.4,2.4v6.4
				C1023.8,1672.3,1022.7,1673.4,1021.4,1673.4z"/>
		</g>
		<g>
			<path class="st2" d="M972.3,1692.1h-7.5c-1.3,0-2.4-1.1-2.4-2.4v-6.4c0-1.3,1.1-2.4,2.4-2.4h7.5c1.3,0,2.4,1.1,2.4,2.4v6.4
				C974.7,1691,973.6,1692.1,972.3,1692.1z"/>
		</g>
		<g>
			<path class="st2" d="M1021.4,1692.1h-39.6c-1.3,0-2.4-1.1-2.4-2.4v-6.4c0-1.3,1.1-2.4,2.4-2.4h39.6c1.3,0,2.4,1.1,2.4,2.4v6.4
				C1023.8,1691,1022.7,1692.1,1021.4,1692.1z"/>
		</g>
		<g>
			<path class="st2" d="M972.3,1710.5h-7.5c-1.3,0-2.4-1.1-2.4-2.4v-6.4c0-1.3,1.1-2.4,2.4-2.4h7.5c1.3,0,2.4,1.1,2.4,2.4v6.4
				C974.7,1709.5,973.6,1710.5,972.3,1710.5z"/>
		</g>
		<g>
			<path class="st2" d="M1021.4,1710.5h-39.6c-1.3,0-2.4-1.1-2.4-2.4v-6.4c0-1.3,1.1-2.4,2.4-2.4h39.6c1.3,0,2.4,1.1,2.4,2.4v6.4
				C1023.8,1709.5,1022.7,1710.5,1021.4,1710.5z"/>
		</g>
	</g>
</g>
</svg>
