<?xml version="1.0" encoding="utf-8"?>
<!-- Generator: Adobe Illustrator 19.1.0, SVG Export Plug-In . SVG Version: 6.00 Build 0)  -->
<svg version="1.1" id="Layer_1" xmlns="http://www.w3.org/2000/svg" xmlns:xlink="http://www.w3.org/1999/xlink" x="0px" y="0px"
	 viewBox="938 1414.8 453.9 126.4" style="enable-background:new 938 1414.8 453.9 126.4;" xml:space="preserve">
<style type="text/css">
	.st0{fill:#6F1717;}
	.st1{fill:#CE7689;}
	.st2{fill:#FFFFFF;}
</style>
<g>
	<g>
		<rect x="938" y="1414.8" class="st0" width="453.9" height="126.4"/>
	</g>
	<g>
		<path class="st1" d="M1038,1524.7h-15.8l4.1-6.8l13.9-79.6l-2.2-3.7h15.6l-2.2,3.7l13.9,79.6l4.1,6.8h-15.8l1.8-6.8l-5-28.2h-9.3
			l-4.8,28.2L1038,1524.7z M1043,1479.6h5.7l-2.9-16.4L1043,1479.6z"/>
		<path class="st1" d="M1110,1434.6v12.9l-6.8-2.9h-12.7v70.1h12.3v-28.2l-2.8-6.8h12.8v38.2l-2.9,6.8h-26.7l-2.9-6.8v-76.5l2.9-6.8
			H1110z"/>
		<path class="st1" d="M1160.5,1517.9l4,6.8h-15.8l1.8-6.8l-7.6-48.3h-2.8v48.3l2.9,6.8h-15.8l2.9-6.8v-76.5l-2.9-6.8h34.4l2.9,6.8
			v21.4l-2.9,6.8h-8.7L1160.5,1517.9z M1140.1,1444.6v15h14.3v-15H1140.1z"/>
		<path class="st1" d="M1176.6,1524.7l2.9-6.8v-76.5l-2.9-6.8h32.4v12.9l-6.8-2.9h-12.7v15h10.7l6.8-2.9v15.8l-6.8-2.9h-10.7v45.1
			h12.7l6.8-2.9l-2.9,12.9H1176.6z"/>
		<path class="st1" d="M1255,1434.6v12.9l-6.8-2.9h-12.7v70.1h12.3v-28.2l-2.8-6.8h12.8v38.2l-2.9,6.8h-26.7l-2.9-6.8v-76.5l2.9-6.8
			H1255z"/>
		<path class="st1" d="M1285.8,1524.7H1270l4.1-6.8l13.9-79.6l-2.2-3.7h15.6l-2.2,3.7l13.9,79.6l4.1,6.8h-15.8l1.8-6.8l-5-28.2h-9.3
			l-4.8,28.2L1285.8,1524.7z M1290.7,1479.6h5.7l-2.9-16.4L1290.7,1479.6z"/>
		<path class="st1" d="M1362.6,1517.9l4,6.8h-15.8l1.8-6.8l-7.6-48.3h-2.8v48.3l2.9,6.8h-15.8l2.9-6.8v-76.5l-2.9-6.8h34.4l2.9,6.8
			v21.4l-2.9,6.8h-8.7L1362.6,1517.9z M1342.2,1444.6v15h14.3v-15H1342.2z"/>
	</g>
	<g>
		<path class="st0" d="M1040,1522.7h-15.8l4.1-6.8l13.9-79.6l-2.2-3.7h15.6l-2.2,3.7l13.9,79.6l4.1,6.8h-15.8l1.8-6.8l-5-28.2h-9.3
			l-4.8,28.2L1040,1522.7z M1045,1477.6h5.7l-2.9-16.4L1045,1477.6z"/>
		<path class="st0" d="M1112,1432.6v12.9l-6.8-2.9h-12.7v70.1h12.3v-28.2l-2.8-6.8h12.8v38.2l-2.9,6.8h-26.7l-2.9-6.8v-76.5l2.9-6.8
			H1112z"/>
		<path class="st0" d="M1162.5,1515.9l4,6.8h-15.8l1.8-6.8l-7.6-48.3h-2.8v48.3l2.9,6.8h-15.8l2.9-6.8v-76.5l-2.9-6.8h34.4l2.9,6.8
			v21.4l-2.9,6.8h-8.7L1162.5,1515.9z M1142.1,1442.6v15h14.3v-15H1142.1z"/>
		<path class="st0" d="M1178.6,1522.7l2.9-6.8v-76.5l-2.9-6.8h32.4v12.9l-6.8-2.9h-12.7v15h10.7l6.8-2.9v15.8l-6.8-2.9h-10.7v45.1
			h12.7l6.8-2.9l-2.9,12.9H1178.6z"/>
		<path class="st0" d="M1257,1432.6v12.9l-6.8-2.9h-12.7v70.1h12.3v-28.2l-2.8-6.8h12.8v38.2l-2.9,6.8h-26.7l-2.9-6.8v-76.5l2.9-6.8
			H1257z"/>
		<path class="st0" d="M1287.8,1522.7H1272l4.1-6.8l13.9-79.6l-2.2-3.7h15.6l-2.2,3.7l13.9,79.6l4.1,6.8h-15.8l1.8-6.8l-5-28.2h-9.3
			l-4.8,28.2L1287.8,1522.7z M1292.7,1477.6h5.7l-2.9-16.4L1292.7,1477.6z"/>
		<path class="st0" d="M1364.6,1515.9l4,6.8h-15.8l1.8-6.8l-7.6-48.3h-2.8v48.3l2.9,6.8h-15.8l2.9-6.8v-76.5l-2.9-6.8h34.4l2.9,6.8
			v21.4l-2.9,6.8h-8.7L1364.6,1515.9z M1344.2,1442.6v15h14.3v-15H1344.2z"/>
	</g>
	<g>
		<path class="st2" d="M1042,1520.7h-15.8l4.1-6.8l13.9-79.6l-2.2-3.7h15.6l-2.2,3.7l13.9,79.6l4.1,6.8h-15.8l1.8-6.8l-5-28.2h-9.3
			l-4.8,28.2L1042,1520.7z M1047,1475.6h5.7l-2.9-16.4L1047,1475.6z"/>
		<path class="st2" d="M1114,1430.6v12.9l-6.8-2.9h-12.7v70.1h12.3v-28.2l-2.8-6.8h12.8v38.2l-2.9,6.8h-26.7l-2.9-6.8v-76.5l2.9-6.8
			H1114z"/>
		<path class="st2" d="M1164.5,1513.9l4,6.8h-15.8l1.8-6.8l-7.6-48.3h-2.8v48.3l2.9,6.8h-15.8l2.9-6.8v-76.5l-2.9-6.8h34.4l2.9,6.8
			v21.4l-2.9,6.8h-8.7L1164.5,1513.9z M1144.1,1440.6v15h14.3v-15H1144.1z"/>
		<path class="st2" d="M1180.6,1520.7l2.9-6.8v-76.5l-2.9-6.8h32.4v12.9l-6.8-2.9h-12.7v15h10.7l6.8-2.9v15.8l-6.8-2.9h-10.7v45.1
			h12.7l6.8-2.9l-2.9,12.9H1180.6z"/>
		<path class="st2" d="M1259,1430.6v12.9l-6.8-2.9h-12.7v70.1h12.3v-28.2l-2.8-6.8h12.8v38.2l-2.9,6.8h-26.7l-2.9-6.8v-76.5l2.9-6.8
			H1259z"/>
		<path class="st2" d="M1289.8,1520.7H1274l4.1-6.8l13.9-79.6l-2.2-3.7h15.6l-2.2,3.7l13.9,79.6l4.1,6.8h-15.8l1.8-6.8l-5-28.2h-9.3
			l-4.8,28.2L1289.8,1520.7z M1294.7,1475.6h5.7l-2.9-16.4L1294.7,1475.6z"/>
		<path class="st2" d="M1366.6,1513.9l4,6.8h-15.8l1.8-6.8l-7.6-48.3h-2.8v48.3l2.9,6.8h-15.8l2.9-6.8v-76.5l-2.9-6.8h34.4l2.9,6.8
			v21.4l-2.9,6.8h-8.7L1366.6,1513.9z M1346.2,1440.6v15h14.3v-15H1346.2z"/>
	</g>
	<g>
		<g>
			<path class="st1" d="M1011.7,1473.5h-18v-18c0-1.7-1.4-3-3-3h-8.2c-1.7,0-3,1.4-3,3v18h-18c-1.7,0-3,1.4-3,3v8.2c0,1.7,1.4,3,3,3
				h18v18c0,1.7,1.4,3,3,3h8.2c1.7,0,3-1.4,3-3v-18h18c1.7,0,3-1.4,3-3v-8.2C1014.7,1474.8,1013.4,1473.5,1011.7,1473.5z"/>
		</g>
		<g>
			<path class="st0" d="M1013.5,1472.2h-18v-18c0-1.7-1.4-3-3-3h-8.2c-1.7,0-3,1.4-3,3v18h-18c-1.7,0-3,1.4-3,3v8.2c0,1.7,1.4,3,3,3
				h18v18c0,1.7,1.4,3,3,3h8.2c1.7,0,3-1.4,3-3v-18h18c1.7,0,3-1.4,3-3v-8.2C1016.6,1473.6,1015.2,1472.2,1013.5,1472.2z"/>
		</g>
		<g>
			<path class="st2" d="M1015.3,1471.2h-18v-18c0-1.7-1.4-3-3-3h-8.2c-1.7,0-3,1.4-3,3v18h-18c-1.7,0-3,1.4-3,3v8.2c0,1.7,1.4,3,3,3
				h18v18c0,1.7,1.4,3,3,3h8.2c1.7,0,3-1.4,3-3v-18h18c1.7,0,3-1.4,3-3v-8.2C1018.4,1472.5,1017,1471.2,1015.3,1471.2z"/>
		</g>
	</g>
</g>
</svg>
