<?xml version="1.0" encoding="utf-8"?>
<!-- Generator: Adobe Illustrator 19.1.0, SVG Export Plug-In . SVG Version: 6.00 Build 0)  -->
<svg version="1.1" id="Layer_1" xmlns="http://www.w3.org/2000/svg" xmlns:xlink="http://www.w3.org/1999/xlink" x="0px" y="0px"
	 viewBox="928.5 1222.8 472.8 126.4" style="enable-background:new 928.5 1222.8 472.8 126.4;" xml:space="preserve">
<style type="text/css">
	.st0{fill:#6F1717;}
	.st1{fill:#CE7689;}
	.st2{fill:#FFFFFF;}
</style>
<g>
	<g>
		<rect x="928.5" y="1222.8" class="st0" width="472.8" height="126.4"/>
	</g>
	<g>
		<path class="st1" d="M978.8,1244.6v12.9l-6.8-2.9h-15.5v70.1H972l6.8-2.9l-2.9,12.9h-26.7l-2.9-6.8v-76.5l2.9-6.8H978.8z"/>
		<path class="st1" d="M1024.6,1334.7H996l-2.9-6.8v-76.5l2.9-6.8h28.7l2.9,6.8v76.5L1024.6,1334.7z M1017.5,1254.6h-14.3v70.1h14.3
			V1254.6z"/>
		<path class="st1" d="M1055.8,1248.8l13.2,48.9v-46.3l-2.9-6.8h15.8l-2.9,6.8v76.5l2.9,6.8h-15.8l1.8-4.2l-13.2-48.8v46.2l2.9,6.8
			h-15.8l2.9-6.8v-76.5l-2.9-6.8h15.8L1055.8,1248.8z"/>
		<path class="st1" d="M1096.3,1334.7l2.9-6.8v-76.5l-2.9-6.8h32.4v12.9l-6.8-2.9h-12.7v15h10.7l6.8-2.9v15.8l-6.8-2.9h-10.7v48.3
			l2.9,6.8H1096.3z"/>
		<path class="st1" d="M1155.9,1251.4v76.5l2.9,6.8H1143l2.9-6.8v-76.5l-2.9-6.8h15.8L1155.9,1251.4z"/>
		<path class="st1" d="M1206.3,1327.9l4,6.8h-15.8l1.8-6.8l-7.6-48.3h-2.8v48.3l2.9,6.8h-15.8l2.9-6.8v-76.5l-2.9-6.8h34.4l2.9,6.8
			v21.4l-2.9,6.8h-8.7L1206.3,1327.9z M1186,1254.6v15h14.3v-15H1186z"/>
		<path class="st1" d="M1247.7,1271.1l7.3-26.6h15.8l-2.9,6.8v76.5l2.9,6.8h-15.8l2.9-6.8v-57.3l-10.1,37.7l-10.1-37.7v57.3l2.9,6.8
			h-15.8l2.9-6.8v-76.5l-2.9-6.8h15.8L1247.7,1271.1z"/>
		<path class="st1" d="M1298.6,1334.7h-15.8l4.1-6.8l13.9-79.6l-2.2-3.7h15.6l-2.2,3.7l13.9,79.6l4.1,6.8h-15.8l1.8-6.8l-5-28.2
			h-9.3l-4.8,28.2L1298.6,1334.7z M1303.5,1289.6h5.7l-2.9-16.4L1303.5,1289.6z"/>
		<path class="st1" d="M1375.4,1327.9l4,6.8h-15.8l1.8-6.8l-7.6-48.3h-2.8v48.3l2.9,6.8h-15.8l2.9-6.8v-76.5l-2.9-6.8h34.4l2.9,6.8
			v21.4l-2.9,6.8h-8.7L1375.4,1327.9z M1355,1254.6v15h14.3v-15H1355z"/>
	</g>
	<g>
		<path class="st0" d="M980.8,1242.6v12.9l-6.8-2.9h-15.5v70.1H974l6.8-2.9l-2.9,12.9h-26.7l-2.9-6.8v-76.5l2.9-6.8H980.8z"/>
		<path class="st0" d="M1026.6,1332.7H998l-2.9-6.8v-76.5l2.9-6.8h28.7l2.9,6.8v76.5L1026.6,1332.7z M1019.5,1252.6h-14.3v70.1h14.3
			V1252.6z"/>
		<path class="st0" d="M1057.8,1246.8l13.2,48.9v-46.3l-2.9-6.8h15.8l-2.9,6.8v76.5l2.9,6.8h-15.8l1.8-4.2l-13.2-48.8v46.2l2.9,6.8
			h-15.8l2.9-6.8v-76.5l-2.9-6.8h15.8L1057.8,1246.8z"/>
		<path class="st0" d="M1098.3,1332.7l2.9-6.8v-76.5l-2.9-6.8h32.4v12.9l-6.8-2.9h-12.7v15h10.7l6.8-2.9v15.8l-6.8-2.9h-10.7v48.3
			l2.9,6.8H1098.3z"/>
		<path class="st0" d="M1157.9,1249.4v76.5l2.9,6.8H1145l2.9-6.8v-76.5l-2.9-6.8h15.8L1157.9,1249.4z"/>
		<path class="st0" d="M1208.3,1325.9l4,6.8h-15.8l1.8-6.8l-7.6-48.3h-2.8v48.3l2.9,6.8h-15.8l2.9-6.8v-76.5l-2.9-6.8h34.4l2.9,6.8
			v21.4l-2.9,6.8h-8.7L1208.3,1325.9z M1188,1252.6v15h14.3v-15H1188z"/>
		<path class="st0" d="M1249.7,1269.1l7.3-26.6h15.8l-2.9,6.8v76.5l2.9,6.8h-15.8l2.9-6.8v-57.3l-10.1,37.7l-10.1-37.7v57.3l2.9,6.8
			h-15.8l2.9-6.8v-76.5l-2.9-6.8h15.8L1249.7,1269.1z"/>
		<path class="st0" d="M1300.6,1332.7h-15.8l4.1-6.8l13.9-79.6l-2.2-3.7h15.6l-2.2,3.7l13.9,79.6l4.1,6.8h-15.8l1.8-6.8l-5-28.2
			h-9.3l-4.8,28.2L1300.6,1332.7z M1305.5,1287.6h5.7l-2.9-16.4L1305.5,1287.6z"/>
		<path class="st0" d="M1377.4,1325.9l4,6.8h-15.8l1.8-6.8l-7.6-48.3h-2.8v48.3l2.9,6.8h-15.8l2.9-6.8v-76.5l-2.9-6.8h34.4l2.9,6.8
			v21.4l-2.9,6.8h-8.7L1377.4,1325.9z M1357,1252.6v15h14.3v-15H1357z"/>
	</g>
	<g>
		<path class="st2" d="M982.8,1240.6v12.9l-6.8-2.9h-15.5v70.1H976l6.8-2.9l-2.9,12.9h-26.7l-2.9-6.8v-76.5l2.9-6.8H982.8z"/>
		<path class="st2" d="M1028.6,1330.7H1000l-2.9-6.8v-76.5l2.9-6.8h28.7l2.9,6.8v76.5L1028.6,1330.7z M1021.5,1250.6h-14.3v70.1
			h14.3V1250.6z"/>
		<path class="st2" d="M1059.8,1244.8l13.2,48.9v-46.3l-2.9-6.8h15.8l-2.9,6.8v76.5l2.9,6.8h-15.8l1.8-4.2l-13.2-48.8v46.2l2.9,6.8
			h-15.8l2.9-6.8v-76.5l-2.9-6.8h15.8L1059.8,1244.8z"/>
		<path class="st2" d="M1100.3,1330.7l2.9-6.8v-76.5l-2.9-6.8h32.4v12.9l-6.8-2.9h-12.7v15h10.7l6.8-2.9v15.8l-6.8-2.9h-10.7v48.3
			l2.9,6.8H1100.3z"/>
		<path class="st2" d="M1159.9,1247.4v76.5l2.9,6.8H1147l2.9-6.8v-76.5l-2.9-6.8h15.8L1159.9,1247.4z"/>
		<path class="st2" d="M1210.3,1323.9l4,6.8h-15.8l1.8-6.8l-7.6-48.3h-2.8v48.3l2.9,6.8h-15.8l2.9-6.8v-76.5l-2.9-6.8h34.4l2.9,6.8
			v21.4l-2.9,6.8h-8.7L1210.3,1323.9z M1190,1250.6v15h14.3v-15H1190z"/>
		<path class="st2" d="M1251.7,1267.1l7.3-26.6h15.8l-2.9,6.8v76.5l2.9,6.8h-15.8l2.9-6.8v-57.3l-10.1,37.7l-10.1-37.7v57.3l2.9,6.8
			h-15.8l2.9-6.8v-76.5l-2.9-6.8h15.8L1251.7,1267.1z"/>
		<path class="st2" d="M1302.6,1330.7h-15.8l4.1-6.8l13.9-79.6l-2.2-3.7h15.6l-2.2,3.7l13.9,79.6l4.1,6.8h-15.8l1.8-6.8l-5-28.2
			h-9.3l-4.8,28.2L1302.6,1330.7z M1307.5,1285.6h5.7l-2.9-16.4L1307.5,1285.6z"/>
		<path class="st2" d="M1379.4,1323.9l4,6.8h-15.8l1.8-6.8l-7.6-48.3h-2.8v48.3l2.9,6.8h-15.8l2.9-6.8v-76.5l-2.9-6.8h34.4l2.9,6.8
			v21.4l-2.9,6.8h-8.7L1379.4,1323.9z M1359,1250.6v15h14.3v-15H1359z"/>
	</g>
</g>
</svg>
