<?xml version="1.0" encoding="utf-8"?>
<!-- Generator: Adobe Illustrator 19.1.0, SVG Export Plug-In . SVG Version: 6.00 Build 0)  -->
<svg version="1.1" id="Layer_1" xmlns="http://www.w3.org/2000/svg" xmlns:xlink="http://www.w3.org/1999/xlink" x="0px" y="0px"
	 viewBox="-528 355.9 217.6 90.1" style="enable-background:new -528 355.9 217.6 90.1;" xml:space="preserve">
<style type="text/css">
	.st0{fill:#76121C;}
	.st1{fill:#FFFFFF;}
</style>
<g>
	<g>
		<path class="st0" d="M-497,359.7v12.4l-6.5-2.8h-14.9v67.1h14.8l6.5-2.8l-2.8,12.4h-25.4l-2.8-6.5v-73.2l2.8-6.5H-497z"/>
		<path class="st0" d="M-477.6,446h-15.1l3.9-6.5l13.3-76.2l-2.1-3.5h14.9l-2.1,3.5l13.3,76.2l3.9,6.5h-15.1l1.7-6.5l-4.8-27h-8.9
			l-4.6,27L-477.6,446z M-472.9,402.9h5.5l-2.8-15.7L-472.9,402.9z"/>
		<path class="st0" d="M-410.4,439.5l3.8,6.5h-15.1l1.7-6.5l-7.4-46.2h-2.7v46.2l2.8,6.5h-15l2.8-6.5v-73.2l-2.8-6.5h32.9l2.8,6.5
			v20.5l-2.8,6.5h-8.3L-410.4,439.5z M-430,369.3v14.4h13.7v-14.4H-430z"/>
		<path class="st0" d="M-376.7,439.5l2.8,6.5h-15.1l2.8-6.5v-70.2h-6.4l-6.5,2.8v-12.4h35.6v12.4l-6.6-2.8h-6.5V439.5z"/>
		<path class="st0" d="M-346.4,446h-15.1l3.9-6.5l13.3-76.2l-2.1-3.5h14.9l-2.1,3.5l13.3,76.2l3.9,6.5h-15.1l1.7-6.5l-4.8-27h-8.9
			l-4.6,27L-346.4,446z M-341.7,402.9h5.5l-2.8-15.7L-341.7,402.9z"/>
	</g>
	<g>
		<path class="st1" d="M-494.1,357.8v12.4l-6.5-2.8h-14.9v67.1h14.8l6.5-2.8l-2.8,12.4h-25.4l-2.8-6.5v-73.2l2.8-6.5H-494.1z"/>
		<path class="st1" d="M-474.8,444.1h-15.1l3.9-6.5l13.3-76.2l-2.1-3.5h14.9l-2.1,3.5l13.3,76.2l3.9,6.5h-15.1l1.7-6.5l-4.8-27h-8.9
			l-4.6,27L-474.8,444.1z M-470.1,401h5.5l-2.8-15.7L-470.1,401z"/>
		<path class="st1" d="M-407.5,437.6l3.8,6.5h-15.1l1.7-6.5l-7.4-46.2h-2.7v46.2l2.8,6.5h-15l2.8-6.5v-73.2l-2.8-6.5h32.9l2.8,6.5
			v20.5l-2.8,6.5h-8.3L-407.5,437.6z M-427.1,367.4v14.4h13.7v-14.4H-427.1z"/>
		<path class="st1" d="M-373.8,437.6l2.8,6.5h-15.1l2.8-6.5v-70.2h-6.4l-6.5,2.8v-12.4h35.6v12.4l-6.6-2.8h-6.5V437.6z"/>
		<path class="st1" d="M-343.5,444.1h-15.1l3.9-6.5l13.3-76.2l-2.1-3.5h14.9l-2.1,3.5l13.3,76.2l3.9,6.5h-15.1l1.7-6.5l-4.8-27h-8.9
			l-4.6,27L-343.5,444.1z M-338.8,401h5.5l-2.8-15.7L-338.8,401z"/>
	</g>
	<g>
		<path class="st0" d="M-491.1,355.9v12.4l-6.5-2.8h-14.9v67.1h14.8l6.5-2.8l-2.8,12.4h-25.4l-2.8-6.5v-73.2l2.8-6.5H-491.1z"/>
		<path class="st0" d="M-471.7,442.2h-15.1l3.9-6.5l13.3-76.2l-2.1-3.5h14.9l-2.1,3.5l13.3,76.2l3.9,6.5h-15.1l1.7-6.5l-4.8-27h-8.9
			l-4.6,27L-471.7,442.2z M-467.1,399.1h5.5l-2.8-15.7L-467.1,399.1z"/>
		<path class="st0" d="M-404.5,435.7l3.8,6.5h-15.1l1.7-6.5l-7.4-46.2h-2.7v46.2l2.8,6.5h-15l2.8-6.5v-73.2l-2.8-6.5h32.9l2.8,6.5
			v20.5l-2.8,6.5h-8.3L-404.5,435.7z M-424.1,365.5v14.4h13.7v-14.4H-424.1z"/>
		<path class="st0" d="M-370.8,435.7l2.8,6.5h-15.1l2.8-6.5v-70.2h-6.4l-6.5,2.8v-12.4h35.6v12.4l-6.6-2.8h-6.5V435.7z"/>
		<path class="st0" d="M-340.5,442.2h-15.1l3.9-6.5l13.3-76.2l-2.1-3.5h14.9l-2.1,3.5l13.3,76.2l3.9,6.5h-15.1l1.7-6.5l-4.8-27h-8.9
			l-4.6,27L-340.5,442.2z M-335.8,399.1h5.5l-2.8-15.7L-335.8,399.1z"/>
	</g>
</g>
</svg>
