<?xml version="1.0" encoding="utf-8"?>
<!-- Generator: Adobe Illustrator 19.1.0, SVG Export Plug-In . SVG Version: 6.00 Build 0)  -->
<svg version="1.1" id="Layer_1" xmlns="http://www.w3.org/2000/svg" xmlns:xlink="http://www.w3.org/1999/xlink" x="0px" y="0px"
	 viewBox="0 0 221.1 90.1" style="enable-background:new 0 0 221.1 90.1;" xml:space="preserve">
<style type="text/css">
	.st0{fill:#D66F87;}
	.st1{fill:#711B1D;}
	.st2{fill:#FFFFFF;}
	.st3{fill:#292660;}
	.st4{fill:#00ACEC;}
	.st5{fill:#71B452;}
	.st6{fill:#AA252A;}
	.st7{fill-rule:evenodd;clip-rule:evenodd;fill:#00ACEC;}
	.st8{fill:#38673D;}
	.st9{fill:#9EC54C;}
	.st10{fill-rule:evenodd;clip-rule:evenodd;fill:#6BB476;}
	.st11{fill-rule:evenodd;clip-rule:evenodd;fill:#D66F87;}
	.st12{fill:#D35A2F;}
	.st13{fill:#E8AE4A;}
	.st14{fill-rule:evenodd;clip-rule:evenodd;fill:#E8AE4A;}
	.st15{fill:#38271B;}
	.st16{fill:#B8986D;}
	.st17{fill-rule:evenodd;clip-rule:evenodd;fill:#B8986D;}
	.st18{fill:#E0922E;}
	.st19{fill:#F9F2B6;}
	.st20{fill-rule:evenodd;clip-rule:evenodd;fill:#F9F2B6;}
	.st21{fill:#32338E;}
	.st22{fill-rule:evenodd;clip-rule:evenodd;fill:#D694BC;}
	.st23{fill-rule:evenodd;clip-rule:evenodd;fill:#38673D;}
	.st24{fill:#5AA69C;}
	.st25{fill:#39665D;}
	.st26{fill-rule:evenodd;clip-rule:evenodd;fill:#39665D;}
	.st27{fill-rule:evenodd;clip-rule:evenodd;fill:#5AA69C;}
	.st28{fill:#6C1E52;}
	.st29{fill-rule:evenodd;clip-rule:evenodd;fill:#6C1E52;}
	.st30{fill:#D694BC;}
	.st31{fill-rule:evenodd;clip-rule:evenodd;fill:#9EC54C;}
	.st32{fill-rule:evenodd;clip-rule:evenodd;fill:#D35A2F;}
	.st33{fill-rule:evenodd;clip-rule:evenodd;fill:#38271B;}
	.st34{fill-rule:evenodd;clip-rule:evenodd;fill:#292660;}
	.st35{fill-rule:evenodd;clip-rule:evenodd;fill:#711B1D;}
	.st36{fill-rule:evenodd;clip-rule:evenodd;fill:#E0922E;}
	.st37{fill-rule:evenodd;clip-rule:evenodd;}
	.st38{fill-rule:evenodd;clip-rule:evenodd;fill:#FFFFFF;}
</style>
<g>
	<path d="M32.4,0v12.9L25.6,10H10v70.1h15.5l6.8-2.9l-2.9,12.9H2.9L0,83.3V6.8L2.9,0H32.4z"/>
	<path d="M52.6,90.1H36.8l4.1-6.8L54.8,3.7L52.6,0h15.6L66,3.7l13.9,79.6l4.1,6.8H68.2l1.8-6.8l-5-28.2h-9.3l-4.8,28.2L52.6,90.1z
		 M57.5,45.1h5.7l-2.9-16.4L57.5,45.1z"/>
	<path d="M122.8,83.3l4,6.8H111l1.8-6.8L105.1,35h-2.8v48.3l2.9,6.8H89.5l2.9-6.8V6.8L89.5,0h34.4l2.9,6.8v21.4l-2.9,6.8h-8.7
		L122.8,83.3z M102.4,10v15h14.3V10H102.4z"/>
	<path d="M158,83.3l2.9,6.8h-15.8l2.9-6.8V10h-6.7l-6.8,2.9V0h37.2v12.9l-6.9-2.9H158V83.3z"/>
	<path d="M189.7,90.1h-15.8l4.1-6.8l13.9-79.6L189.7,0h15.6l-2.2,3.7L217,83.3l4.1,6.8h-15.8l1.8-6.8l-5-28.2h-9.3L188,83.3
		L189.7,90.1z M194.6,45.1h5.7l-2.9-16.4L194.6,45.1z"/>
</g>
</svg>
