<?xml version="1.0" encoding="utf-8"?>
<!-- Generator: Adobe Illustrator 19.1.0, SVG Export Plug-In . SVG Version: 6.00 Build 0)  -->
<svg version="1.1" id="Layer_1" xmlns="http://www.w3.org/2000/svg" xmlns:xlink="http://www.w3.org/1999/xlink" x="0px" y="0px"
	 viewBox="0 0 397 109" style="enable-background:new 0 0 397 109;" xml:space="preserve">
<style type="text/css">
	.st0{fill:#E8778C;}
	.st1{fill:#821010;}
	.st2{fill:#FFFFFF;}
	.st3{fill:#00135C;}
	.st4{fill:#009CDE;}
	.st5{fill:#52AA2B;}
	.st6{fill:#C40811;}
	.st7{fill-rule:evenodd;clip-rule:evenodd;fill:#009CDE;}
	.st8{fill:#00652E;}
	.st9{fill:#98BF11;}
	.st10{fill-rule:evenodd;clip-rule:evenodd;fill:#44AC6C;}
	.st11{fill-rule:evenodd;clip-rule:evenodd;fill:#E8778C;}
	.st12{fill:#006459;}
	.st13{fill:#E76112;}
	.st14{fill:#F6B63E;}
	.st15{fill-rule:evenodd;clip-rule:evenodd;fill:#F6B63E;}
	.st16{fill:#3F280D;}
	.st17{fill:#C89F6A;}
	.st18{fill-rule:evenodd;clip-rule:evenodd;fill:#C89F6A;}
	.st19{fill:#F19800;}
	.st20{fill:#FEF7BA;}
	.st21{fill-rule:evenodd;clip-rule:evenodd;fill:#FEF7BA;}
	.st22{fill:#001781;}
	.st23{fill-rule:evenodd;clip-rule:evenodd;fill:#EBA1C7;}
	.st24{fill-rule:evenodd;clip-rule:evenodd;fill:#00652E;}
	.st25{fill:#1FA29B;}
	.st26{fill-rule:evenodd;clip-rule:evenodd;fill:#006459;}
	.st27{fill-rule:evenodd;clip-rule:evenodd;fill:#1FA29B;}
	.st28{fill:#7C0A4C;}
	.st29{fill-rule:evenodd;clip-rule:evenodd;fill:#7C0A4C;}
	.st30{fill:#EBA1C7;}
	.st31{fill-rule:evenodd;clip-rule:evenodd;fill:#98BF11;}
	.st32{fill-rule:evenodd;clip-rule:evenodd;fill:#E76112;}
	.st33{fill-rule:evenodd;clip-rule:evenodd;fill:#3F280D;}
	.st34{fill-rule:evenodd;clip-rule:evenodd;fill:#00135C;}
	.st35{fill-rule:evenodd;clip-rule:evenodd;fill:#821010;}
	.st36{fill-rule:evenodd;clip-rule:evenodd;fill:#F19800;}
	.st37{fill-rule:evenodd;clip-rule:evenodd;}
	.st38{fill-rule:evenodd;clip-rule:evenodd;fill:#FFFFFF;}
	.st39{fill:none;stroke:#5D5D5D;stroke-width:2;stroke-miterlimit:10;}
</style>
<g>
	<g>
		<path style="fill:#CF778A;" d="M48.6,14.5v12l-6.3-2.7H27.9v65.1h14.4l6.3-2.7l-2.7,12H21.2l-2.7-6.3v-71l2.7-6.3H48.6z"/>
		<path style="fill:#CF778A;" d="M85.1,98.2H58.5l-2.7-6.3v-71l2.7-6.3h26.6l2.7,6.3v71L85.1,98.2z M78.4,23.8H65.1v65.1h13.3V23.8z
			"/>
		<path style="fill:#CF778A;" d="M107.9,18.4l12.3,45.5v-43l-2.7-6.3h14.6l-2.7,6.3v71l2.7,6.3h-14.6l1.6-3.9L106.9,49v42.9l2.7,6.3
			H94.9l2.7-6.3v-71l-2.7-6.3h14.6L107.9,18.4z"/>
		<path style="fill:#CF778A;" d="M139.3,98.2l2.7-6.3v-71l-2.7-6.3h30.1v12l-6.3-2.7h-11.8v13.9h9.9l6.3-2.7v14.6l-6.3-2.7h-9.9
			v44.8l2.7,6.3H139.3z"/>
		<path style="fill:#CF778A;" d="M188.6,20.8v71l2.7,6.3h-14.6l2.7-6.3v-71l-2.7-6.3h14.6L188.6,20.8z"/>
		<path style="fill:#CF778A;" d="M229.3,91.9l3.7,6.3h-14.6l1.6-6.3L212.9,47h-2.6v44.8l2.7,6.3h-14.6l2.7-6.3v-71l-2.7-6.3h31.9
			l2.7,6.3v19.9l-2.7,6.3h-8.1L229.3,91.9z M210.4,23.8v13.9h13.3V23.8H210.4z"/>
		<path style="fill:#CF778A;" d="M261.6,39.2l6.8-24.7H283l-2.7,6.3v71l2.7,6.3h-14.6l2.7-6.3V38.7l-9.4,35l-9.4-35v53.2l2.7,6.3
			h-14.6l2.7-6.3v-71l-2.7-6.3h14.6L261.6,39.2z"/>
		<path style="fill:#CF778A;" d="M302.7,98.2h-14.6l3.8-6.3L304.8,18l-2-3.5h14.5l-2,3.5l12.9,73.9l3.8,6.3h-14.6l1.6-6.3l-4.6-26.2
			h-8.6l-4.5,26.2L302.7,98.2z M307.3,56.4h5.3L310,41.1L307.3,56.4z"/>
		<path style="fill:#CF778A;" d="M367.9,91.9l3.7,6.3H357l1.6-6.3L351.5,47H349v44.8l2.7,6.3H337l2.7-6.3v-71l-2.7-6.3h31.9l2.7,6.3
			v19.9l-2.7,6.3h-8.1L367.9,91.9z M349,23.8v13.9h13.3V23.8H349z"/>
	</g>
	<g>
		<path style="fill:#6F1717;" d="M52.4,11.7v12L46,21H31.6v65.1H46l6.3-2.7l-2.7,12H24.9l-2.7-6.3v-71l2.7-6.3H52.4z"/>
		<path style="fill:#6F1717;" d="M88.8,95.4H62.2l-2.7-6.3v-71l2.7-6.3h26.6l2.7,6.3v71L88.8,95.4z M82.1,21H68.8v65.1h13.3V21z"/>
		<path style="fill:#6F1717;" d="M111.6,15.6l12.3,45.5v-43l-2.7-6.3h14.6l-2.7,6.3v71l2.7,6.3h-14.6l1.6-3.9l-12.3-45.4v42.9
			l2.7,6.3H98.6l2.7-6.3v-71l-2.7-6.3h14.6L111.6,15.6z"/>
		<path style="fill:#6F1717;" d="M143,95.4l2.7-6.3v-71l-2.7-6.3h30.1v12l-6.3-2.7H155v13.9h9.9l6.3-2.7v14.6l-6.3-2.7H155v44.8
			l2.7,6.3H143z"/>
		<path style="fill:#6F1717;" d="M192.3,18.1v71l2.7,6.3h-14.6l2.7-6.3v-71l-2.7-6.3h14.6L192.3,18.1z"/>
		<path style="fill:#6F1717;" d="M233,89.1l3.7,6.3h-14.6l1.6-6.3l-7.1-44.8h-2.6v44.8l2.7,6.3h-14.6l2.7-6.3v-71l-2.7-6.3h31.9
			l2.7,6.3v19.9l-2.7,6.3H226L233,89.1z M214.1,21v13.9h13.3V21H214.1z"/>
		<path style="fill:#6F1717;" d="M265.3,36.4l6.8-24.7h14.6l-2.7,6.3v71l2.7,6.3H272l2.7-6.3V35.9l-9.4,35l-9.4-35v53.2l2.7,6.3
			h-14.6l2.7-6.3v-71l-2.7-6.3h14.6L265.3,36.4z"/>
		<path style="fill:#6F1717;" d="M306.4,95.4h-14.6l3.8-6.3l12.9-73.9l-2-3.5H321l-2,3.5l12.9,73.9l3.8,6.3H321l1.6-6.3L318,62.9
			h-8.6l-4.5,26.2L306.4,95.4z M311,53.6h5.3l-2.7-15.3L311,53.6z"/>
		<path style="fill:#6F1717;" d="M371.6,89.1l3.7,6.3h-14.6l1.6-6.3l-7.1-44.8h-2.6v44.8l2.7,6.3h-14.6l2.7-6.3v-71l-2.7-6.3h31.9
			l2.7,6.3v19.9l-2.7,6.3h-8.1L371.6,89.1z M352.7,21v13.9H366V21H352.7z"/>
	</g>
	<g>
		<path class="st2" d="M55.1,8.9v12l-6.3-2.7H34.4v65.1h14.4l6.3-2.7l-2.7,12H27.7L25,86.3v-71l2.7-6.3H55.1z"/>
		<path class="st2" d="M91.6,92.7H65l-2.7-6.3v-71L65,8.9h26.6l2.7,6.3v71L91.6,92.7z M84.9,18.2H71.6v65.1h13.3V18.2z"/>
		<path class="st2" d="M114.4,12.8l12.3,45.5v-43L124,8.9h14.6l-2.7,6.3v71l2.7,6.3H124l1.6-3.9l-12.3-45.4v42.9l2.7,6.3h-14.6
			l2.7-6.3v-71l-2.7-6.3H116L114.4,12.8z"/>
		<path class="st2" d="M145.8,92.7l2.7-6.3v-71l-2.7-6.3h30.1v12l-6.3-2.7h-11.8v13.9h9.9l6.3-2.7v14.6l-6.3-2.7h-9.9v44.8l2.7,6.3
			H145.8z"/>
		<path class="st2" d="M195.1,15.3v71l2.7,6.3h-14.6l2.7-6.3v-71l-2.7-6.3h14.6L195.1,15.3z"/>
		<path class="st2" d="M235.8,86.3l3.7,6.3h-14.6l1.6-6.3l-7.1-44.8h-2.6v44.8l2.7,6.3h-14.6l2.7-6.3v-71l-2.7-6.3h31.9l2.7,6.3
			v19.9l-2.7,6.3h-8.1L235.8,86.3z M216.9,18.2v13.9h13.3V18.2H216.9z"/>
		<path class="st2" d="M268.1,33.6l6.8-24.7h14.6l-2.7,6.3v71l2.7,6.3h-14.6l2.7-6.3V33.1l-9.4,35l-9.4-35v53.2l2.7,6.3h-14.6
			l2.7-6.3v-71l-2.7-6.3h14.6L268.1,33.6z"/>
		<path class="st2" d="M309.2,92.7h-14.6l3.8-6.3l12.9-73.9l-2-3.5h14.5l-2,3.5l12.9,73.9l3.8,6.3h-14.6l1.6-6.3l-4.6-26.2h-8.6
			l-4.5,26.2L309.2,92.7z M313.8,50.8h5.3l-2.7-15.3L313.8,50.8z"/>
		<path class="st2" d="M374.4,86.3l3.7,6.3h-14.6l1.6-6.3L358,41.5h-2.6v44.8l2.7,6.3h-14.6l2.7-6.3v-71l-2.7-6.3h31.9l2.7,6.3v19.9
			l-2.7,6.3h-8.1L374.4,86.3z M355.5,18.2v13.9h13.3V18.2H355.5z"/>
	</g>
</g>
</svg>
