<?xml version="1.0" encoding="utf-8"?>
<!-- Generator: Adobe Illustrator 19.1.0, SVG Export Plug-In . SVG Version: 6.00 Build 0)  -->
<svg version="1.1" id="Layer_1" xmlns="http://www.w3.org/2000/svg" xmlns:xlink="http://www.w3.org/1999/xlink" x="0px" y="0px"
	 viewBox="1665.3 1562 171.7 160.1" style="enable-background:new 1665.3 1562 171.7 160.1;" xml:space="preserve">
<style type="text/css">
	.st0{fill:#6F1717;}
	.st1{fill:#FFFFFF;}
	.st2{fill:#CE7689;}
	.st3{fill:#D66F87;}
	.st4{fill:#711B1D;}
</style>
<g>
	<g>
		<path class="st0" d="M1823.7,1722.1h-145c-7.4,0-13.3-6.1-13.3-13.6v-132.9c0-7.5,6-13.6,13.3-13.6h145c7.4,0,13.3,6.1,13.3,13.6
			v132.9C1837,1716,1831,1722.1,1823.7,1722.1z"/>
		<g id="_x31_V7nqP.tif_15_">
			<g>
				<path class="st1" d="M1698.9,1572c94.7,0,9.4,0,104,0c0,5.5,0,11.1,0,16.6c2.2,0,3.9,0,6.1,0c0-2.7,0-5.3,0-7.8
					c3.7,0,7.1,0,10.6,0c0,3.4,0,6.7,0,10.3c-2.8,0-5.6,0-8.4,0c0,2.1,0,4,0,6.1c5.7,0,11.2,0,16.8,0c0,46.9,0,43.8,0,90.8
					c-5.5,0-11.1,0-16.6,0c0,2.1,0,3.9,0,6.1c2.7,0,5.2,0,7.8,0c0,3.8,0,7.2,0,10.7c-3.5,0-6.7,0-10.3,0c0-2.9,0-5.6,0-8.4
					c-2.1,0-4,0-6,0c0,5.7,0,11.2,0,16.7c-94.7,0-9.4,0-104,0c0-5.5,0-11,0-16.5c-2.1,0-3.9,0-6.1,0c0,2.7,0,5.3,0,7.8
					c-3.7,0-7.1,0-10.6,0c0-3.5,0-6.7,0-10.3c2.9,0,5.6,0,8.4,0c0-2.2,0-4,0-6.2c-5.7,0-11.1,0-16.5,0c0-46.9,0-43.5,0-90.5
					c5.5,0,10.9,0,16.2,0c0-2.2,0-4,0-6.2c-2.8,0-5.3,0-7.8,0c0-3.7,0-7.1,0-10.6c3.4,0,6.7,0,10.3,0c0,2.8,0,5.6,0,8.4
					c2.2,0,4,0,6.1,0C1698.9,1583,1698.9,1577.5,1698.9,1572z M1701.2,1710.3c93.3,0,6.3,0,99.5,0c0-5.5,0-10.8,0-16.4
					c2.9,0,5.5,0,8.4,0c0-2.9,0-5.5,0-8.5c5.6,0,11,0,16.3,0c0-45.5,0-40.6,0-86c-5.5,0-10.9,0-16.5,0c0-3,0-5.6,0-8.5
					c-2.9,0-5.5,0-8.3,0c0-5.6,0-10.9,0-16.3c-93.3,0-6.3,0-99.5,0c0,5.5,0,10.8,0,16.4c-2.9,0-5.5,0-8.4,0c0,2.9,0,5.5,0,8.5
					c-5.6,0-11,0-16.3,0c0,45.5,0,40.6,0,86c5.5,0,10.9,0,16.5,0c0,3,0,5.6,0,8.5c2.9,0,5.5,0,8.3,0
					C1701.2,1699.6,1701.2,1704.9,1701.2,1710.3z M1684.6,1588.6c2.1,0,3.9,0,5.8,0c0-2.2,0-4.1,0-6.1c-2,0-3.8,0-5.8,0
					C1684.6,1584.6,1684.6,1586.5,1684.6,1588.6z M1811.4,1702.3c2.1,0,3.9,0,5.8,0c0-2.1,0-4,0-6.1c-2,0-3.9,0-5.8,0
					C1811.4,1698.3,1811.4,1700.2,1811.4,1702.3z M1690.6,1702c0-2,0-3.8,0-5.6c-2.2,0-4.2,0-6.3,0c0,2,0,3.7,0,5.6
					C1686.4,1702,1688.4,1702,1690.6,1702z M1817.4,1582.9c-2.1,0-4.2,0-6.2,0c0,2,0,3.8,0,5.7c2.2,0,4.1,0,6.2,0
					C1817.4,1586.6,1817.4,1584.8,1817.4,1582.9z"/>
			</g>
		</g>
	</g>
	<g>
		<path class="st1" d="M1773,1623.7l-34.4,18.4l34.4,18.4l4.9,2.5v20l-4.9-2.7l-47.7-25.6l-4.9-2.7v-19.8l4.9-2.7l47.7-25.6l4.9-2.7
			v20L1773,1623.7z"/>
	</g>
</g>
</svg>
