<?xml version="1.0" encoding="utf-8"?>
<!-- Generator: Adobe Illustrator 19.1.0, SVG Export Plug-In . SVG Version: 6.00 Build 0)  -->
<svg version="1.1" id="Layer_1" xmlns="http://www.w3.org/2000/svg" xmlns:xlink="http://www.w3.org/1999/xlink" x="0px" y="0px"
	 viewBox="1886.3 1562 171.7 160.1" style="enable-background:new 1886.3 1562 171.7 160.1;" xml:space="preserve">
<style type="text/css">
	.st0{fill:#6F1717;}
	.st1{fill:#FFFFFF;}
	.st2{fill:#CE7689;}
	.st3{fill:#D66F87;}
	.st4{fill:#711B1D;}
</style>
<g>
	<g>
		<path class="st0" d="M1899.3,1562h145c7.4,0,13.3,6.1,13.3,13.6v132.9c0,7.5-6,13.6-13.3,13.6h-145c-7.4,0-13.3-6.1-13.3-13.6
			v-132.9C1886,1568.1,1892,1562,1899.3,1562z"/>
		<g id="_x31_V7nqP.tif_16_">
			<g>
				<path class="st1" d="M2024.1,1712.2c-94.7,0-9.4,0-104,0c0-5.5,0-11.1,0-16.6c-2.2,0-3.9,0-6.1,0c0,2.7,0,5.3,0,7.8
					c-3.7,0-7.1,0-10.6,0c0-3.4,0-6.7,0-10.3c2.8,0,5.6,0,8.4,0c0-2.1,0-4,0-6.1c-5.7,0-11.2,0-16.8,0c0-46.9,0-43.8,0-90.8
					c5.5,0,11.1,0,16.6,0c0-2.1,0-3.9,0-6.1c-2.7,0-5.2,0-7.8,0c0-3.8,0-7.2,0-10.7c3.5,0,6.7,0,10.3,0c0,2.9,0,5.6,0,8.4
					c2.1,0,4,0,6,0c0-5.7,0-11.2,0-16.7c94.7,0,9.4,0,104,0c0,5.5,0,11,0,16.5c2.1,0,3.9,0,6.1,0c0-2.7,0-5.3,0-7.8
					c3.7,0,7.1,0,10.6,0c0,3.5,0,6.7,0,10.3c-2.9,0-5.6,0-8.4,0c0,2.2,0,4,0,6.2c5.7,0,11.1,0,16.5,0c0,46.9,0,43.5,0,90.5
					c-5.5,0-10.9,0-16.2,0c0,2.2,0,4,0,6.2c2.8,0,5.3,0,7.8,0c0,3.7,0,7.1,0,10.6c-3.4,0-6.7,0-10.3,0c0-2.8,0-5.6,0-8.4
					c-2.2,0-4,0-6.1,0C2024.1,1701.2,2024.1,1706.7,2024.1,1712.2z M2021.8,1573.9c-93.3,0-6.3,0-99.5,0c0,5.5,0,10.8,0,16.4
					c-2.9,0-5.5,0-8.4,0c0,2.9,0,5.5,0,8.5c-5.6,0-11,0-16.3,0c0,45.5,0,40.6,0,86c5.5,0,10.9,0,16.5,0c0,3,0,5.6,0,8.5
					c2.9,0,5.5,0,8.3,0c0,5.6,0,10.9,0,16.3c93.3,0,6.3,0,99.5,0c0-5.5,0-10.8,0-16.4c2.9,0,5.5,0,8.4,0c0-2.9,0-5.5,0-8.5
					c5.6,0,11,0,16.3,0c0-45.5,0-40.6,0-86c-5.5,0-10.9,0-16.5,0c0-3,0-5.6,0-8.5c-2.9,0-5.5,0-8.3,0
					C2021.8,1584.5,2021.8,1579.2,2021.8,1573.9z M2038.4,1695.6c-2.1,0-3.9,0-5.8,0c0,2.2,0,4.1,0,6.1c2,0,3.8,0,5.8,0
					C2038.4,1699.6,2038.4,1697.7,2038.4,1695.6z M1911.7,1581.8c-2.1,0-3.9,0-5.8,0c0,2.1,0,4,0,6.1c2,0,3.9,0,5.8,0
					C1911.7,1585.8,1911.7,1583.9,1911.7,1581.8z M2032.4,1582.2c0,2,0,3.8,0,5.6c2.2,0,4.2,0,6.3,0c0-2,0-3.7,0-5.6
					C2036.6,1582.2,2034.6,1582.2,2032.4,1582.2z M1905.6,1701.2c2.1,0,4.2,0,6.2,0c0-2,0-3.8,0-5.7c-2.2,0-4.1,0-6.2,0
					C1905.6,1697.5,1905.6,1699.3,1905.6,1701.2z"/>
			</g>
		</g>
	</g>
	<g>
		<path class="st1" d="M1956,1660.5l34.4-18.4l-34.4-18.4l-4.9-2.5v-20l4.9,2.7l47.7,25.6l4.9,2.7v19.8l-4.9,2.7l-47.7,25.6
			l-4.9,2.7v-20L1956,1660.5z"/>
	</g>
</g>
</svg>
