<?xml version="1.0" encoding="utf-8"?>
<!-- Generator: Adobe Illustrator 19.1.0, SVG Export Plug-In . SVG Version: 6.00 Build 0)  -->
<svg version="1.1" id="Layer_1" xmlns="http://www.w3.org/2000/svg" xmlns:xlink="http://www.w3.org/1999/xlink" x="0px" y="0px"
	 viewBox="0 0 666.5 381" style="enable-background:new 0 0 666.5 381;" xml:space="preserve">
<style type="text/css">
	.st0{fill:#E8778C;}
	.st1{fill:#821010;}
	.st2{fill:#FFFFFF;}
	.st3{fill:#00135C;}
	.st4{fill:#009CDE;}
	.st5{fill:#52AA2B;}
	.st6{fill:#C40811;}
	.st7{fill-rule:evenodd;clip-rule:evenodd;fill:#009CDE;}
	.st8{fill:#00652E;}
	.st9{fill:#98BF11;}
	.st10{fill-rule:evenodd;clip-rule:evenodd;fill:#44AC6C;}
	.st11{fill-rule:evenodd;clip-rule:evenodd;fill:#E8778C;}
	.st12{fill:#E76112;}
	.st13{fill:#F6B63E;}
	.st14{fill-rule:evenodd;clip-rule:evenodd;fill:#F6B63E;}
	.st15{fill:#3F280D;}
	.st16{fill:#C89F6A;}
	.st17{fill-rule:evenodd;clip-rule:evenodd;fill:#C89F6A;}
	.st18{fill:#F19800;}
	.st19{fill:#FEF7BA;}
	.st20{fill-rule:evenodd;clip-rule:evenodd;fill:#FEF7BA;}
	.st21{fill:#001781;}
	.st22{fill-rule:evenodd;clip-rule:evenodd;fill:#EBA1C7;}
	.st23{fill-rule:evenodd;clip-rule:evenodd;fill:#00652E;}
	.st24{fill:#1FA29B;}
	.st25{fill:#006459;}
	.st26{fill-rule:evenodd;clip-rule:evenodd;fill:#006459;}
	.st27{fill-rule:evenodd;clip-rule:evenodd;fill:#1FA29B;}
	.st28{fill:#7C0A4C;}
	.st29{fill-rule:evenodd;clip-rule:evenodd;fill:#7C0A4C;}
	.st30{fill:#EBA1C7;}
	.st31{fill-rule:evenodd;clip-rule:evenodd;fill:#98BF11;}
	.st32{fill-rule:evenodd;clip-rule:evenodd;fill:#E76112;}
	.st33{fill-rule:evenodd;clip-rule:evenodd;fill:#3F280D;}
	.st34{fill-rule:evenodd;clip-rule:evenodd;fill:#00135C;}
	.st35{fill-rule:evenodd;clip-rule:evenodd;fill:#821010;}
	.st36{fill-rule:evenodd;clip-rule:evenodd;fill:#F19800;}
	.st37{fill-rule:evenodd;clip-rule:evenodd;}
	.st38{fill-rule:evenodd;clip-rule:evenodd;fill:#FFFFFF;}
	.st39{fill:none;stroke:#5D5D5D;stroke-width:2;stroke-miterlimit:10;}
</style>
<g>
	<g>
		<path class="st2" d="M326.6,87v47.5h8.2l4.4-1.9l-1.9,8.4h-19.1l1.9-4.4V87l-1.9-4.4h10.2L326.6,87z"/>
		<path class="st2" d="M340.7,141l2.6-4.4l9-51.5l-1.4-2.4H361l-1.4,2.4l9,51.5l2.6,4.4H361l1.1-4.4l-3.2-18.3h-6l-3.1,18.3l1.1,4.4
			H340.7z M357.8,111.7l-1.9-10.6l-1.9,10.6H357.8z"/>
	</g>
	<g>
		<g>
			<path style="fill:#CF778A;" d="M274.5,50.7c0.8,2,1.2,3,2,5.1c1.7,3.5,2.5,5.3,4.1,8.8c1.3,2.7,2,4.1,3.3,6.9
				c0.5,1.3,0.4,2.1-0.4,2.4c-0.5,0.2-0.9,0.1-1.3-0.2c-0.4-0.3-0.7-0.7-0.9-1.2c-0.9-2.5-1.4-3.8-2.3-6.3c-0.6-1.3-1.5-3.3-2.9-5.9
				c-1.4-2.6-2.4-4.6-2.9-5.9c-0.6-1.4-0.8-2-1.4-3.4c-0.8-1.9-1.5-3-2-3.4c-1.1,0.6-1.6,0.8-2.6,1.4c-0.4,0.2-0.8,0.3-1.3,0.2
				c-0.4,0-0.7-0.2-0.8-0.5c-0.1-0.3,0.1-0.7,0.8-1.3c0.7-0.6,1.6-1.2,2.8-1.8c2-1.1,3.7-1.9,5.1-2.5c0.4-0.2,0.8-0.2,1.3-0.1
				c0.4,0.1,0.7,0.3,0.8,0.6c0.1,0.3,0.1,0.6-0.2,0.9c-0.2,0.3-0.6,0.5-1,0.7c-0.7,0.3-1.1,0.4-1.8,0.7c-0.2,0.1-0.5,0.2-0.5,0.2
				C272.1,46.5,273.8,49,274.5,50.7z"/>
			<path style="fill:#CF778A;" d="M301.7,67.2c-0.9,0.2-1.4,0-1.6-0.7c-0.6-2.1-0.9-3.2-1.5-5.3c-0.5-0.1-1.3-0.1-2.5,0
				c-1.2,0.2-2.8,0.3-3.1,0.6c-0.2,0.2-0.2,1.3-0.1,2.3c0.1,1,0.2,1.9,0.3,2.9c0.1,1,0.1,2.2-0.1,2.4c-0.4,0.5-2.1,0.2-2.2-0.1
				c-0.1-0.4-0.1-3.5-0.8-8.7c-0.7-5.1-1.1-9.2-1.3-12.1c-0.2-2.9-0.2-5.5,0-7.6s0.7-3.3,1.5-3.5c0.7-0.2,1.6-0.3,1.8-0.1
				c0.4,0.4,1.4,3.5,3.2,7.6c1.8,4.1,2.9,6.8,3.2,8c0.3,1.3,1.1,3.3,2.2,6.1c1.1,2.8,1.8,5,2.2,6.4C303,66.4,302.7,67,301.7,67.2z
				 M296,54.5c-1-2.3-1.9-4.5-2.8-6.6c-0.9-2.1-1.4-3.4-1.5-3.8c-0.1-0.5-0.2-0.8-0.2-0.8c0,0-0.5,3.2-0.1,7.9s0.8,8.6,1.1,8.8
				c0.4,0.3,2.5-0.3,3.4-0.5c0.9-0.3,1.8-0.5,1.8-0.7C297.8,58.6,297,56.8,296,54.5z"/>
			<path style="fill:#CF778A;" d="M305.7,44c-1.5-7-0.3-11,3.7-11.7c2-0.4,3.7,0,5,0.9c1.3,0.9,2.3,2.2,2.9,3.9
				c0.7,1.8,1.2,3.4,1.4,4.8c0.2,1.3,0.4,2.5,0.5,3.4c0.1,0.5,0.2,0.9,0.2,1.4c0,0.4,0.1,0.9,0.1,1.3c0.1,0.9,0.2,1.5,0.2,1.9
				c0.1,0.8,0.1,1.1,0.2,1.9c0.3,2.4,0.4,4.3,0.3,5.7c-0.1,1.5-1.6,3.7-1.7,4.8c0,0.1,0.1,0.4,0.3,0.8c0.1,0.4,0.3,0.9,0.4,1.2
				c0.1,0.4,0.3,0.8,0.5,1.2c0.5,0.9,0.9,1.4,1.3,1.3c0.1,0,0.1,0,0.2,0c0.9-0.1,1.5-0.1,1.7,0.1c0.2,0.2,0.3,0.4,0.3,0.7
				c0.1,0.9-0.5,1.4-1.8,1.5c-0.5,0.1-1.1,0-1.9-0.3c0,0,0,0,0,0c-0.8-0.2-1.5-0.8-1.9-1.6c-0.4-0.7-0.6-1.4-0.9-2.1
				c-0.2-0.7-0.4-1.2-0.5-1.5c-0.7,0.1-1.1,0.2-1.8,0.3c-3.1-1.2-5.4-3.8-6.5-7.7c-0.2-0.7-0.4-1.6-0.6-2.6
				c-0.5-2.7-0.7-4.1-1.2-6.8C306.1,45.7,306,45.1,305.7,44z M316.8,46.6c-0.1-0.6-0.1-1.1-0.2-1.6c-1.1-7.7-3.5-11.2-7.2-10.6
				c-0.6,0.1-1.1,0.9-1.2,2.5c-0.2,1.5-0.1,3.3,0.1,5.5c0.4,3.6,0.8,6.2,1.1,7.8c0.3,1.5,0.5,2.6,0.7,3.2c0.2,0.6,0.4,1.4,0.6,2.3
				c0.3,0.9,0.6,1.8,0.9,2.5c0.4,0.8,0.8,1.5,1.2,2.2c0.4,0.7,0.9,1.2,1.5,1.6c0.6,0.4,1.2,0.5,1.8,0.5c0,0,0,0,0,0
				c0.2-0.4,0.5-0.6,1.1-0.7c0,0,0,0,0,0c1-1.1,1.3-2.7,1-4.7C317.7,52.8,317.4,50.7,316.8,46.6z"/>
			<path style="fill:#CF778A;" d="M327.3,39.5c-0.2-2.6-0.3-3.9-0.5-6.6c-0.3-0.2-0.4-0.5-0.5-0.8c0-0.3,0.1-0.7,0.4-0.9
				c0.3-0.3,0.7-0.4,1.1-0.5c1.3-0.1,2,0.9,2.2,2.9c0.6,5.8,0.8,8.8,1.4,14.6c0.2,0.4,0.4,1.1,0.6,2.2c0.2,1.1,0.3,2,0.4,2.6
				c0,0.6,0.2,1.4,0.5,2.3c0.3,0.9,0.6,1.8,1.1,2.7c0.4,0.9,1,1.7,1.6,2.3c0.7,0.6,1.3,0.9,1.9,0.9c0.6,0,1-0.1,1.3-0.4
				c0.3-0.3,0.5-0.6,0.6-1.1c0.2-0.7,0.2-1.5,0.2-2.3c0-3.3-0.1-4.9-0.1-8.2c0-0.9-0.1-2.2-0.4-4c-0.2-1.8-0.4-3.1-0.4-4
				c0-0.1,0-0.2,0-0.3c-0.1-1-0.1-1.5-0.1-2.5c-0.2-2.9-0.3-4.3-0.5-7.2c0-0.3,0.2-0.6,0.6-0.8c0.4-0.2,0.9-0.3,1.4-0.3
				c0.5,0.4,0.8,0.6,1.3,1c0,0.3,0,0.4,0,0.7c-0.2,1-0.2,1.5-0.4,2.6c0,2.4,0.2,5.9,0.5,10.6c0.3,4.7,0.4,7.9,0.4,9.6
				c0,1.7,0,2.8-0.1,3.3c-0.1,0.6-0.2,1.2-0.4,1.8c-0.2,0.6-0.4,1.2-0.7,1.6c-0.7,1-1.8,1.4-3.3,1.5c-1.8,0.1-3.3-0.6-4.5-2.1
				c-1.3-1.5-2.2-3.4-2.9-5.6c-0.8-2.6-1.3-4.8-1.6-6.8C327.9,45.3,327.6,42.4,327.3,39.5z"/>
			<path style="fill:#CF778A;" d="M355.7,47.1c-0.5-0.1-0.7-0.1-1.2-0.1c-0.5,0-0.8,0-1,0.2c-0.4,5.2-0.6,7.8-1,13
				c1.6,0,2.4,0.1,2.5,0.1c1.7,0.2,2.6,0.6,2.5,1.4c0,0.1,0,0.1,0,0.1c-0.2,0.4-0.6,0.6-1.1,0.8c-0.5,0.2-1,0.2-1.3,0.2
				c-0.4,0-0.9,0-1.5-0.1c-0.6,0-0.8-0.1-1.4-0.1c-1.1-0.1-1.8-0.3-2-0.8c-0.1-0.2-0.2-0.5-0.1-0.8c0.6-9.8,0.9-14.7,1.4-24.5
				c0-0.5,0-1.2-0.2-2.2c-0.2-1-0.3-1.7-0.2-2.2c0-0.1,0-0.1,0-0.1c0.6-0.7,1.1-1.2,1.4-1.4c1.6,0,2.4-0.1,4.1-0.1
				c0.5,0,1.1,0.2,1.6,0.5c0.5,0.3,0.8,0.7,0.7,1.1c-0.1,0.8-0.9,1.2-2.6,1c-0.6-0.1-0.9-0.1-1.5-0.2c-0.3,0-0.5,0-0.6,0
				c0,2.8-0.1,4.2-0.1,7c0,0.6-0.1,1.4-0.3,2.4c-0.2,1.1-0.4,2.3-0.3,2.3c0,0,0.4,0,0.7-0.1c0.7-0.1,1.2-0.1,1.6-0.1
				c0.4,0,0.7,0.2,1,0.4c0.3,0.3,0.4,0.6,0.4,0.9c0,0.3-0.2,0.6-0.4,0.8C356.4,47,356.1,47.1,355.7,47.1z"/>
			<path style="fill:#CF778A;" d="M364.3,62.5c1.6-9.8,2.4-14.7,4-24.4c0.3-2.1,0.5-3.1,0.8-5.1c0.1-0.3,0.2-0.5,0.4-0.6
				c0.2-0.1,0.7-0.1,1.4,0c0.7,0.1,1.5,0.4,2.2,0.8c0.7,0.4,1.3,0.9,1.7,1.5c0.4,0.6,0.7,1.2,1,1.9c0.5,1.3,0.5,2.6,0.3,3.9
				c-0.3,1.3-1,2.9-2.2,4.4c-0.1,0.2-0.4,0.5-0.8,1.1c-0.4,0.6-0.7,0.9-0.7,1c-0.6,1.5-0.3,4.8,0.3,8.3c0.2,1.2,0.4,2.8,0.7,4.9
				c0.3,2.1,0.5,3.4,0.5,3.9c0,0,0,0.1,0,0.1c-0.2,0.9-0.4,1.4-0.7,1.5c-0.3,0.1-0.5,0.1-0.8,0.1c-0.5-0.1-1-0.6-1.4-1.4
				c0-0.1,0-0.1,0-0.1c0.4-2.5,0.2-6.5-0.7-12c-0.4-2.5-0.7-4.3-0.9-5.5c-1.1,6.6-1.7,9.8-2.8,16.4c-0.1,0.4-0.2,0.7-0.4,0.9
				c-0.2,0.2-0.5,0.3-0.9,0.2c-0.4-0.1-0.7-0.2-0.9-0.5c-0.2-0.3-0.2-0.5-0.2-0.9C364.3,62.7,364.3,62.6,364.3,62.5z M371.7,34.4
				c-0.7,3.4-1.1,5.1-1.7,8.4c-0.1,0.9-0.3,1.9-0.3,1.9c0.1,0,1.3-0.8,2-1.3c0.6-1.4,0.9-2.1,1.5-3.4c0.1-0.2,0.2-0.4,0.2-0.6
				c0.1-0.7,0.1-1.5-0.1-2.5C373,35.5,372.5,34.7,371.7,34.4z"/>
			<path style="fill:#CF778A;" d="M393.9,40.2c-0.4-0.1-0.5-0.2-0.9-0.3c-0.3-0.1-0.6-0.1-0.8-0.1c-0.2,0.1-0.3,0.3-0.4,0.6
				c-0.8,2.6-1.7,6.6-2.9,12c-1.2,5.4-2.2,9.4-3,12c-0.2,0.6-0.3,0.9-0.5,1.6c0.3,0.1,0.6,0.1,0.9,0.2c1.2,0.4,1.7,1.1,1.4,2
				c0,0.1-0.1,0.1-0.1,0.2c-0.5,0.1-0.8,0.2-1.3,0.3c-1.2-0.3-1.8-0.5-3-0.8c-2.5-0.7-3.7-1.5-3.5-2.3c0.2-0.7,0.7-0.9,1.6-0.6
				c0.4,0.1,0.5,0.2,0.9,0.3c0.4,0.1,0.7-0.1,0.9-0.8c0.6-2.1,1.4-5.3,2.3-9.5c0.9-4.3,1.6-7.4,2.2-9.5c0.5-1.6,0.8-2.5,1.3-4.1
				c0.3-0.9,0.6-2.2,0.5-2.3c-0.1-0.1-0.9-0.1-1.3-0.2c-0.8-0.2-1.1-0.7-1-1.3c0.1-0.3,0.4-0.6,1-0.7c0.6-0.1,1.3-0.1,2.1,0
				c1.5,0.2,2.7,0.5,3.4,0.7c0.7,0.2,1.2,0.5,1.4,0.8c0.2,0.3,0.3,0.6,0.2,0.9c-0.1,0.3-0.3,0.5-0.6,0.7
				C394.6,40.3,394.3,40.3,393.9,40.2z"/>
			<path style="fill:#CF778A;" d="M403.1,75.4c-0.9-0.4-1.1-0.9-0.8-1.6c0.9-2,1.3-3,2.2-5c-0.3-0.4-1-1-2-1.6
				c-1-0.6-2.3-1.6-2.8-1.6c-0.3,0-1,0.9-1.5,1.7c-0.5,0.8-1.1,1.6-1.6,2.4c-0.5,0.8-1.3,1.7-1.6,1.8c-0.6,0.1-1.8-1.2-1.6-1.5
				c0.2-0.3,2.2-2.8,5-7.1c2.8-4.4,5-7.7,6.8-10.1c1.7-2.4,3.4-4.3,4.9-5.8c1.5-1.5,2.7-2,3.4-1.7c0.7,0.3,1.5,0.8,1.5,1.1
				c0.1,0.5-1.2,3.5-2.4,7.9c-1.2,4.3-2.1,7-2.7,8.2c-0.5,1.2-1.3,3.2-2.2,6.1c-1,2.9-1.8,5-2.4,6.4
				C404.7,75.6,404.1,75.8,403.1,75.4z M406.9,62c0.7-2.4,1.5-4.7,2.1-6.9c0.7-2.2,1.1-3.5,1.3-3.9c0.2-0.4,0.4-0.7,0.4-0.7
				c0,0-2.5,2.2-5.2,6c-2.7,3.8-4.9,7.1-4.8,7.5c0.1,0.5,2.1,1.4,2.9,1.7c0.8,0.4,1.7,0.7,1.8,0.7C405.7,66.3,406.2,64.4,406.9,62z"
				/>
		</g>
	</g>
	<g>
		<g>
			<path style="fill:#CF778A;" d="M228.9,304.5c1.1-2.2,1.6-3.3,2.6-5.5c-0.1-0.3-0.1-0.6,0.1-0.9c0.1-0.3,0.4-0.5,0.7-0.6
				c0.3-0.1,0.6-0.1,0.9,0c0.9,0.4,1,1.5,0.2,3.2c-2.1,5-3.2,7.6-5.3,12.6c0,0.4-0.1,1.1-0.5,2.1c-0.3,1-0.6,1.8-0.8,2.3
				c-0.2,0.5-0.4,1.2-0.6,2.1c-0.2,0.9-0.2,1.8-0.3,2.7c0,1,0.2,1.8,0.5,2.7c0.3,0.8,0.8,1.4,1.3,1.6c0.5,0.2,1,0.3,1.3,0.2
				c0.4-0.1,0.7-0.3,0.9-0.7c0.4-0.6,0.8-1.2,1.1-1.9c1.2-2.8,1.8-4.2,3-7.1c0.3-0.8,0.7-1.9,1.2-3.5c0.5-1.6,0.9-2.7,1.2-3.5
				c0-0.1,0.1-0.1,0.1-0.2c0.3-0.9,0.5-1.3,0.8-2.1c0.9-2.5,1.4-3.8,2.4-6.3c0.1-0.3,0.4-0.5,0.8-0.5c0.4-0.1,0.7,0,1.1,0.1
				c0.2,0.5,0.3,0.7,0.6,1.2c-0.1,0.2-0.1,0.4-0.2,0.6c-0.5,0.8-0.7,1.3-1.2,2.1c-0.8,2-2,5.1-3.5,9.3c-1.5,4.2-2.5,7-3.1,8.4
				c-0.6,1.4-1,2.4-1.3,2.8c-0.2,0.5-0.6,0.9-1,1.4c-0.4,0.5-0.8,0.8-1.2,1.1c-1,0.5-2.2,0.5-3.6-0.1c-1.7-0.7-2.8-2-3.3-3.7
				c-0.5-1.8-0.5-3.8,0-5.9c0.5-2.5,1.1-4.5,1.8-6.2C226.7,309.5,227.7,307,228.9,304.5z"/>
			<path style="fill:#CF778A;" d="M242.2,311.2c1.2-2.6,1.8-3.9,3-6.6c0-0.1,0.1-0.1,0.1-0.2c0.5-1.2,1-1.7,1.6-1.5
				c0.5,0.2,0.7,1.6,0.7,4.2c0,4.7-0.6,12.3-1.7,22.7c0,0.1,0,0.1,0,0.2c1.9-5.1,2.9-7.7,4.8-12.8c1.6-4.4,2.4-6.6,3.9-10.9
				c0.4-0.6,0.9-0.7,1.6-0.5c0.7,0.2,0.9,0.9,0.5,1.8c0,0.1,0,0.1-0.1,0.2c-0.3,0.3-0.5,0.6-0.6,1c-2,5.4-3,8.2-5,13.6
				c-1.6,4.5-2.4,6.8-4,11.3c-0.1,0.4-0.4,0.7-0.7,1c-0.4,0.3-0.7,0.4-1.1,0.2c-0.6-0.2-0.9-3.2-0.7-8.9c0.2-5.7,0.6-11.7,1.3-18.1
				c-1.9,4.8-2.8,7.2-4.7,12c-0.5,1.2-1,2.9-1.8,5.3c-0.7,2.4-1.3,4.2-1.7,5.3c-0.1,0.2-0.3,0.4-0.7,0.4c-0.4,0-0.8-0.1-1.3-0.3
				c-0.5-0.2-0.7-0.5-0.5-0.9c0.5-1,0.8-1.5,1.3-2.5c0.5-1.3,1.2-3.3,2.2-6.2c1-2.9,1.6-4.7,1.8-5.3
				C241.1,314,241.5,313,242.2,311.2z"/>
			<path style="fill:#CF778A;" d="M259.3,338.9c-0.9-0.3-1.2-0.7-1.1-1.4c0.6-2,0.9-2.9,1.5-4.9c-0.3-0.4-1-0.8-2-1.3
				c-1-0.5-2.3-1.3-2.7-1.2c-0.3,0-0.9,0.9-1.3,1.7c-0.5,0.8-0.9,1.5-1.4,2.3c-0.5,0.8-1.1,1.7-1.5,1.7c-0.6,0.1-1.8-1.1-1.6-1.4
				c0.2-0.3,2-2.6,4.4-6.8c2.4-4.2,4.2-7.5,5.5-9.8c1.4-2.4,2.6-4.3,3.8-5.9c1.2-1.5,2-2.2,2.5-2.1s1.1,0.5,1.2,0.7
				c0.1,0.5-0.8,3.4-1.4,7.5c-0.7,4.1-1.1,6.7-1.5,7.9c-0.3,1.2-0.8,3.1-1.3,5.9c-0.5,2.8-0.9,4.8-1.3,6.2
				C260.9,338.9,260.3,339.2,259.3,338.9z M261.3,326.1c0.4-2.3,0.9-4.5,1.3-6.5c0.4-2.1,0.7-3.3,0.8-3.7c0.1-0.4,0.2-0.7,0.2-0.7
				c0,0-1.8,2.3-3.9,6.1c-2.1,3.8-3.9,7-3.8,7.3c0.1,0.4,2,1.1,2.8,1.4c0.8,0.2,1.6,0.5,1.7,0.4
				C260.6,330.2,260.8,328.4,261.3,326.1z"/>
			<path style="fill:#CF778A;" d="M277.4,341.9c-0.1,0.1-0.1,0.1-0.2,0.2c0,0.2,0,0.4,0,0.6c-0.1,0.2-0.2,0.4-0.6,0.6
				c-0.3,0.1-0.7,0.2-1.2,0.1c-0.8-0.2-1.1-1.1-0.7-2.8c0.6-2.4,1.5-7,2.9-13.8c1.4-6.8,1.8-10.6,1.8-10.9c0-0.9,1.4-1.8,3.3-1.4
				c0.3,0.1,0.7,0.1,1.2,0.2c0.5,0.1,0.8,0.3,1.1,0.5c0.2,0.2,0.3,0.6,0.2,1.2c-0.1,0.5-0.5,0.7-1.3,0.6c-0.4-0.1-0.6-0.2-1-0.3
				c-0.7-0.2-1.1-0.1-1.2,0.2c-0.3,1.2-0.6,2.9-0.9,5.3c-0.3,2.3-1,5-0.9,5.2c0,0,0.4,0,0.7,0c0.7,0,1.3,0,1.6,0.1
				c0.3,0.1,0.6,0.3,0.8,0.5c0.2,0.3,0.2,0.6,0.2,0.9c-0.2,0.8-3.3,0.2-3.8,0.5c-0.4,0.2-0.7,3.5-1,6.3
				C278.1,338.4,277.8,340.5,277.4,341.9z"/>
			<path style="fill:#CF778A;" d="M292.3,318.6c-0.3-0.1-0.4-0.1-0.7-0.2c-0.3-0.1-0.5,0-0.6,0.1c-0.1,0.1-0.3,0.3-0.3,0.6
				c-0.5,2.5-1.1,6.3-1.7,11.4c-0.6,5.1-1.2,8.9-1.7,11.4c-0.1,0.6-0.2,0.9-0.3,1.5c0.3,0,0.6,0.1,0.9,0.1c1.2,0.2,1.7,0.8,1.6,1.7
				c0,0.1,0,0.1,0,0.2c-0.5,0.2-0.7,0.3-1.2,0.5c-1.2-0.2-1.8-0.3-3-0.5c-2.6-0.5-3.8-1.2-3.6-1.9c0.1-0.6,0.6-0.8,1.5-0.6
				c0.4,0.1,0.5,0.2,0.9,0.3c0.4,0.1,0.7-0.2,0.8-0.8c0.4-2,0.9-5,1.4-9c0.5-4,1-7,1.4-9c0.4-1.6,0.5-2.3,0.9-3.9
				c0.2-0.8,0.4-2.1,0.3-2.2c-0.1-0.1-0.7,0-1,0c-0.6-0.1-0.9-0.5-0.7-1.1c0.1-0.3,0.3-0.5,0.8-0.7c0.4-0.1,1-0.2,1.6-0.2
				c1.2,0,2,0.1,2.5,0.2c0.5,0.1,0.9,0.3,1.1,0.5c0.2,0.3,0.3,0.5,0.2,0.8c-0.1,0.3-0.2,0.5-0.4,0.7
				C292.8,318.6,292.6,318.7,292.3,318.6z"/>
			<path style="fill:#CF778A;" d="M298.5,333.2c-0.4-0.1-0.6-0.1-1-0.2c-0.4-0.1-0.7,0-0.9,0.1c-0.8,4.8-1.2,7.2-2,12
				c1.5,0.2,2.4,0.3,2.5,0.3c1.7,0.3,2.5,0.7,2.4,1.4c0,0.1,0,0.1,0,0.1c-0.3,0.3-0.6,0.5-1.2,0.7c-0.5,0.1-1,0.1-1.4,0.1
				c-0.4,0-0.9-0.1-1.5-0.2c-0.6-0.1-0.8-0.1-1.4-0.2c-1.1-0.2-1.8-0.5-2-0.9c-0.1-0.2-0.1-0.4,0-0.7c1.6-9,2.4-13.5,3.9-22.5
				c0.1-0.4,0.1-1.1,0.1-2c0-0.9,0-1.6,0.1-2c0-0.1,0-0.1,0-0.1c0.6-0.6,1-1,1.2-1.2c1.2,0.1,1.8,0.1,3,0.2c0.4,0.1,0.8,0.2,1.2,0.5
				c0.4,0.3,0.5,0.6,0.5,1c-0.1,0.8-0.8,1.1-2,0.9c-0.5-0.1-0.7-0.1-1.2-0.2c-0.2,0-0.3,0-0.4-0.1c-0.3,2.6-0.4,3.9-0.7,6.4
				c-0.1,0.5-0.2,1.3-0.5,2.2c-0.2,1-0.5,2.1-0.5,2.1c0,0,0.4,0,0.6,0c0.6,0,1.1,0,1.4,0c0.3,0,0.6,0.2,0.8,0.5
				c0.2,0.3,0.3,0.5,0.3,0.8c0,0.3-0.2,0.6-0.4,0.8C299.1,333.1,298.9,333.2,298.5,333.2z"/>
			<path style="fill:#CF778A;" d="M300.7,347.6c0.1-0.7,0.5-1,1.1-0.9c0.3,0.1,0.8,0.2,1.3,0.5c0.5,0.3,1,0.4,1.4,0.5
				c0.4,0.1,0.9-0.1,1.4-0.5c0.5-0.4,1-0.9,1.3-1.5c0.7-1.3,1.1-2.5,1.2-3.6c0.1-1.1,0-2.3-0.2-3.6c-0.3-1.3-0.6-2.5-1.1-3.7
				c-0.5-1.2-0.9-2.3-1.4-3.5c-1.1-2.8-1.4-5.3-1.1-7.4c0.3-2,1.2-3.5,2.7-4.5c0.8-0.5,1.7-0.7,2.6-0.6c0.5,0.1,0.9,0.3,1.4,0.6
				c0.4,0.3,0.7,0.7,0.8,1.1c-0.3,0.3-0.5,0.5-0.8,0.8c-0.7-0.1-1.3-0.5-1.5-0.6c-0.3-0.1-1,0.2-1.4,0.5c-0.8,0.7-1.2,1.5-1.4,2.6
				c-0.1,1.1-0.1,2.2,0,3.3c0.2,1.1,0.4,2.1,0.8,2.9c0.3,0.9,0.7,1.8,1.1,2.9c0.4,1,0.8,2,1.2,3c0.8,2.2,1.1,4.5,0.9,6.9
				c-0.2,1.7-0.8,3.2-2,4.7c-0.5,0.7-1.3,1.2-2.1,1.6c-0.9,0.4-1.8,0.5-2.8,0.4c-1.1-0.1-1.9-0.4-2.5-0.8
				C301,348.2,300.7,347.9,300.7,347.6z"/>
			<path style="fill:#CF778A;" d="M320.2,327.3c-0.2,2-0.3,3-0.5,5c-0.1,3.6-0.2,5.4-0.3,9c-0.1,2.8-0.1,4.2-0.2,7.1
				c-0.1,1.3-0.6,1.9-1.4,1.8c-0.5,0-0.8-0.3-1-0.7c-0.2-0.4-0.3-0.9-0.2-1.4c0.4-2.5,0.5-3.7,0.9-6.2c0.1-1.3,0.2-3.4,0.2-6.1
				c0-2.7,0.1-4.8,0.2-6.1c0.1-1.4,0.2-2.1,0.4-3.4c0.2-1.9,0.1-3.1-0.1-3.7c-0.9,0-1.3,0-2.2,0c-0.3,0-0.6-0.2-0.9-0.4
				c-0.2-0.2-0.4-0.5-0.3-0.8c0-0.3,0.4-0.5,1.1-0.7c0.7-0.2,1.5-0.3,2.4-0.3c1.6,0,3,0,4.1,0.1c0.3,0,0.6,0.2,0.9,0.4
				c0.3,0.2,0.4,0.5,0.4,0.8c0,0.3-0.2,0.6-0.4,0.7c-0.3,0.2-0.6,0.2-0.9,0.2c-0.6-0.1-0.9-0.1-1.4-0.2c-0.2,0-0.4,0-0.4,0
				C320,322.8,320.3,325.6,320.2,327.3z"/>
			<path style="fill:#CF778A;" d="M332.4,350.8c-0.9,0-1.4-0.4-1.3-1.1c0.1-2.1,0.1-3.1,0.2-5.1c-0.4-0.3-1.2-0.5-2.2-0.7
				c-1.1-0.2-2.5-0.6-2.9-0.5c-0.3,0.1-0.6,1.1-0.9,2c-0.2,0.9-0.5,1.7-0.8,2.6c-0.3,0.9-0.7,1.9-1,2c-0.6,0.3-2-0.6-1.9-0.9
				c0.1-0.3,1.3-3,2.5-7.7c1.2-4.7,2.1-8.3,2.8-10.9c0.7-2.6,1.4-4.8,2.1-6.6c0.7-1.8,1.3-2.7,1.9-2.6c0.6,0,1.2,0.2,1.3,0.4
				c0.2,0.5,0.1,3.5,0.5,7.6c0.4,4.1,0.6,6.8,0.6,8c0,1.2,0.1,3.2,0.3,6c0.2,2.8,0.3,4.9,0.3,6.3
				C333.9,350.4,333.4,350.8,332.4,350.8z M331,337.9c-0.2-2.3-0.3-4.5-0.4-6.7c-0.1-2.1-0.2-3.4-0.1-3.8c0-0.4,0.1-0.8,0.1-0.8
				c0,0-1.2,2.7-2.2,7c-1,4.2-2,7.7-1.8,8c0.3,0.4,2.2,0.6,3,0.6c0.8,0,1.7,0,1.7-0.1C331.4,342,331.1,340.2,331,337.9z"/>
			<path style="fill:#CF778A;" d="M357.5,336c0.1,0.3,0.1,0.5,0.2,0.8c0.1,1.9-0.3,4.1-1.2,6.6c-1.1,2.9-2.5,5.1-4.2,6.3
				c-1,0.7-2,1.1-3,1.2c-0.6,0-1.1-0.1-1.5-0.3c-0.5-0.2-0.8-0.7-0.7-1c0.2-0.5,0.9-2.2,0.9-4.6c0-1.5-0.2-3.6-0.6-6.5
				c-0.3-2.9-0.5-5-0.5-6.5c0-1.7,0-2.6,0-4.3c0-0.7-0.2-1.6-0.5-2.8c-0.3-1.2-0.5-2-0.5-2.5c0-0.9,1-1.4,3.1-1.4c0.2,0,0.4,0,0.6,0
				c2.8-0.1,4.8,1.3,6.2,4.2c1,2,1.6,4.9,1.8,8.5c0,0.7,0.1,1.1,0.1,1.8C357.6,335.7,357.5,335.8,357.5,336z M349.9,344.8
				c0,1.5,0.1,2.3,0.1,3.8c1.1-0.7,2-1.6,2.8-2.8c0.8-1.2,1.3-2.5,1.7-3.8c0.7-2.6,0.9-5.2,0.8-7.8c-0.2-3-0.7-5.3-1.5-6.9
				c-0.9-1.7-1.9-2.8-3.1-3.4c-0.7-0.3-1.5-0.5-2.4-0.4c0,0,0,0,0,0c0.1,2.4,0.3,5.9,0.8,10.7C349.6,338.9,349.9,342.4,349.9,344.8z
				"/>
			<path style="fill:#CF778A;" d="M365,335.5c-0.4,0-0.6,0-1.1,0.1c-0.4,0-0.7,0.2-0.9,0.4c0.4,4.8,0.6,7.3,1,12.1
				c1.5-0.2,2.3-0.3,2.5-0.3c1.7-0.2,2.6,0.1,2.7,0.8c0,0.1,0,0.1,0,0.1c-0.2,0.4-0.5,0.7-1,0.9c-0.5,0.2-0.9,0.4-1.3,0.4
				c-0.4,0.1-0.9,0.1-1.5,0.2c-0.6,0-0.8,0.1-1.4,0.1c-1.1,0.1-1.8,0-2.1-0.4c-0.1-0.2-0.2-0.4-0.2-0.7c-0.7-9.1-1-13.7-1.7-22.8
				c0-0.4-0.2-1.1-0.4-2c-0.2-0.9-0.4-1.5-0.4-2c0-0.1,0-0.1,0-0.1c0.4-0.7,0.7-1.2,0.9-1.5c1.2-0.2,1.8-0.3,3-0.6
				c0.4,0,0.8,0,1.3,0.2c0.4,0.2,0.7,0.5,0.7,0.9c0.1,0.8-0.5,1.2-1.7,1.3c-0.5,0-0.7,0-1.2,0.1c-0.2,0-0.3,0-0.4,0.1
				c0.3,2.6,0.5,3.9,0.8,6.4c0,0.5,0.1,1.3,0.1,2.3c0,1,0,2.2,0.1,2.2c0,0,0.4-0.1,0.6-0.2c0.6-0.2,1-0.3,1.3-0.3
				c0.3,0,0.6,0.1,0.9,0.2c0.3,0.2,0.4,0.4,0.5,0.7c0,0.3,0,0.6-0.2,0.8C365.6,335.3,365.4,335.5,365,335.5z"/>
			<path style="fill:#CF778A;" d="M380.9,347.7c-0.1-0.7,0.2-1.1,0.9-1.2c0.3,0,0.8,0,1.4,0.1c0.6,0.1,1.1,0.2,1.5,0.1
				c0.4-0.1,0.8-0.4,1.2-0.9c0.4-0.5,0.7-1.1,0.8-1.8c0.3-1.4,0.4-2.7,0.2-3.8c-0.2-1.1-0.6-2.2-1.2-3.4c-0.6-1.2-1.3-2.2-2.1-3.2
				c-0.8-1-1.5-2-2.3-3c-1.8-2.4-2.8-4.7-3.1-6.8c-0.3-2,0.1-3.7,1.3-5.1c0.6-0.7,1.4-1.1,2.3-1.3c0.5-0.1,1,0,1.5,0.2
				c0.5,0.2,0.9,0.5,1.1,0.8c-0.2,0.4-0.3,0.6-0.5,1c-0.7,0.1-1.3-0.1-1.6-0.1c-0.3,0-0.9,0.4-1.2,0.9c-0.6,0.8-0.8,1.8-0.6,2.9
				c0.2,1.1,0.5,2.1,0.9,3.1c0.5,1,1,1.9,1.5,2.6c0.6,0.8,1.2,1.6,1.9,2.4c0.7,0.9,1.3,1.7,1.9,2.5c1.4,1.9,2.3,4,2.8,6.3
				c0.3,1.7,0.1,3.3-0.6,5.1c-0.3,0.8-0.9,1.5-1.6,2.1c-0.7,0.6-1.6,1-2.6,1.1c-1.1,0.2-2,0.1-2.6,0
				C381.3,348.3,380.9,348,380.9,347.7z"/>
			<path style="fill:#CF778A;" d="M402.9,344.1c-0.9,0.2-1.4,0-1.6-0.7c-0.4-2-0.7-3-1.1-5c-0.5-0.2-1.2-0.2-2.3-0.2
				c-1.1,0-2.6,0-2.9,0.2c-0.2,0.2-0.3,1.2-0.3,2.1c0,0.9-0.1,1.8-0.1,2.7c0,0.9-0.2,2-0.4,2.2c-0.5,0.4-2.1-0.1-2.1-0.4
				c0-0.4,0.5-3.3,0.5-8.1c0-4.8,0-8.6,0-11.3c0-2.7,0.2-5,0.4-6.9c0.2-1.9,0.6-2.9,1.2-3c0.6-0.1,1.2-0.1,1.3,0.1
				c0.3,0.4,1,3.3,2.4,7.2c1.4,3.9,2.3,6.4,2.5,7.6c0.3,1.2,0.8,3.1,1.8,5.8c0.9,2.7,1.5,4.7,1.9,6.1
				C404.3,343.4,403.9,343.9,402.9,344.1z M398.4,332c-0.7-2.2-1.4-4.3-2-6.3c-0.6-2-1-3.2-1.1-3.7c-0.1-0.4-0.1-0.7-0.1-0.7
				c0,0-0.5,2.9-0.4,7.3c0,4.4,0,8,0.3,8.2c0.3,0.3,2.3,0,3.1-0.2s1.6-0.4,1.7-0.5C399.8,335.9,399.1,334.2,398.4,332z"/>
			<path style="fill:#CF778A;" d="M405.2,333c-1.6-6.2-2.4-9.3-4-15.5c0-0.1,0-0.1-0.1-0.2c-0.3-1.4-0.3-2.3,0-2.8
				c0.2-0.2,0.4-0.4,0.8-0.5c1.9-0.5,3.5-0.3,4.9,0.6c1.4,0.9,2.3,2.2,2.8,4.1c0.3,1.1,0.3,2.4,0,3.8c-0.3,1.4-1.6,3.3-1.6,3.4
				c0.1,0.3,3.5,1.6,4.7,3c1.2,1.4,2,3,2.5,4.7c0.3,0.9,0.3,1.9,0,3.1c-0.3,1.1-0.6,2-1,2.8c-0.4,0.7-1,1.4-1.7,2
				c-0.8,0.6-1.7,1.1-2.7,1.3c-0.1,0-0.1,0-0.2,0c-1.4,0.3-2.1,0.2-2.3-0.4C406.4,338.7,406,336.8,405.2,333z M403.7,316
				c-0.4,0.1-0.4,0.6-0.2,1.5c0.2,0.9,0.6,2.3,1.1,4.3c0.5,1.9,1,4.2,1.1,4.2c0.2,0.1,1.2-1,1.4-2.1c0.2-0.9,0.4-1.7,0.4-2.6
				c0.1-0.8,0.1-1.3,0.2-1.5c-0.1-0.5-0.2-0.8-0.4-1.4c-0.2-0.7-0.7-1.4-1.4-2C405.2,316,404.5,315.8,403.7,316z M412.6,338.2
				c0.6-1.2,0.7-2.4,0.3-3.7c-0.3-1.3-0.7-2.3-1.2-3.2c-0.5-0.9-0.9-1.6-1.3-2c-0.4-0.4-0.8-0.7-1.3-1c-0.6-0.3-1-0.5-1.3-0.5
				c-0.6,0.2-0.9,0.2-1.5,0.4c1,3.5,2.6,12.2,3.3,12.6C410,341,412.1,339.4,412.6,338.2z"/>
			<path style="fill:#CF778A;" d="M426.8,325.3c0.5,1.9,0.7,2.9,1.2,4.8c0,0.1,0,0.1,0.1,0.2c0,0.7,0.2,1.5,0.5,2.3
				c0.3,0.8,0.4,1.6,0.3,2.5c-0.1,0.9-0.4,1.7-0.8,2.5c-0.5,0.8-1.1,1.3-1.9,1.6c-0.8,0.2-1.6,0.2-2.4,0c-0.8-0.3-1.5-0.7-2.1-1.3
				c-0.6-0.6-1.3-1.4-1.9-2.3c-0.6-0.9-1.1-1.8-1.6-2.8c-0.4-0.9-0.9-1.9-1.3-2.9c-0.6-1.6-1.1-2.8-1.3-3.7
				c-0.3-0.9-0.5-1.7-0.7-2.3c-0.2-0.6-0.4-1.2-0.5-1.7c-0.1-0.3-0.2-0.5-0.2-0.9c-0.1-0.3-0.2-0.6-0.3-1c-0.2-0.7-0.4-1.4-0.5-2
				c-0.1-0.6-0.3-1.2-0.4-1.9c-0.1-0.7-0.2-1.3-0.2-1.9c0-0.5,0-1.1,0.1-1.7c0.1-0.6,0.2-1.1,0.4-1.5c0.4-0.9,1.1-1.5,1.9-1.7
				c0.8-0.2,1.6-0.3,2.2-0.2c0.7,0.1,1.3,0.4,1.9,0.9c0.6,0.5,1.2,1,1.7,1.5c0.5,0.5,1,1.2,1.5,2.3c0.5,1,0.9,1.8,1.3,2.4
				c0.3,0.6,0.7,1.6,1.2,2.8c0.6,1.6,1.1,2.9,1.4,3.9C426.3,324,426.5,324.5,426.8,325.3z M418.8,312.8c-0.5-0.6-1-0.9-1.4-1.2
				c-0.5-0.2-0.9-0.3-1.3-0.2c-0.4,0.1-0.7,0.3-0.8,0.7c-0.2,0.3-0.3,0.8-0.3,1.3c0,0.5,0,1.1,0,1.7c0,0.6,0.1,1.2,0.2,2
				c0.1,0.7,0.3,1.4,0.4,2c0.1,0.6,0.3,1.2,0.4,1.9c0.3,1.1,0.5,2.1,0.7,2.7c0,0.1,0,0.1,0.1,0.2c0.5,1.7,1.2,3.5,2,5.3
				c0.9,1.9,1.6,3.4,2.3,4.5c0.7,1.1,1.4,2.1,2.2,2.8c0.8,0.7,1.5,1,2.2,0.7c0.6-0.2,0.9-0.8,1-1.9c0.1-1.1,0-2.3-0.3-3.8
				c-0.5-2.6-0.9-4.4-1.3-5.4c-0.3-1-0.6-1.7-0.7-2.2c-0.2-0.5-0.4-1.1-0.7-2c-0.3-0.9-0.6-1.7-1-2.4c-0.3-0.7-0.7-1.6-1.1-2.5
				c-0.4-0.9-0.8-1.7-1.3-2.4C419.7,314,419.3,313.4,418.8,312.8z"/>
			<path style="fill:#CF778A;" d="M433.2,334.5c-2.9-8.7-4.4-13.1-7.3-21.9c-0.6-1.8-0.9-2.7-1.6-4.6c-0.1-0.3-0.1-0.5,0-0.7
				c0.1-0.2,0.4-0.3,0.9-0.5c0.5-0.2,1.1-0.3,1.8-0.2c0.6,0,1.2,0.2,1.7,0.5c0.5,0.3,1,0.7,1.5,1.1c0.9,0.8,1.5,1.9,2,3
				c0.4,1.2,0.7,2.7,0.5,4.5c0,0.2,0,0.6-0.1,1.2c0,0.6-0.1,1-0.1,1.1c0.2,1.5,2,4,4.1,6.6c0.7,0.9,1.7,2,3,3.5
				c1.3,1.5,2.1,2.4,2.5,2.8c0,0,0,0.1,0,0.1c0.3,0.8,0.4,1.4,0.2,1.6c-0.2,0.2-0.4,0.4-0.6,0.5c-0.5,0.2-1.2,0.1-1.9-0.4
				c0-0.1,0-0.1,0-0.1c-1-2.2-3.1-5.2-6.3-9.2c-1.5-1.8-2.5-3.2-3.1-4.1c2.1,5.8,3.1,8.8,5.1,14.6c0.1,0.4,0.2,0.7,0.1,1
				c-0.1,0.3-0.3,0.5-0.7,0.6c-0.4,0.1-0.7,0.1-1,0c-0.3-0.1-0.4-0.3-0.5-0.6C433.3,334.7,433.2,334.6,433.2,334.5z M426.6,308.3
				c1,3.1,1.5,4.6,2.4,7.6c0.3,0.8,0.6,1.7,0.6,1.7c0.1,0,0.6-1.2,0.8-1.9c-0.2-1.4-0.3-2.1-0.5-3.4c0-0.2-0.1-0.4-0.2-0.6
				c-0.2-0.6-0.6-1.3-1.2-2C428,308.6,427.3,308.2,426.6,308.3z"/>
			<path style="fill:#CF778A;" d="M444.1,316.3c-0.4,0.1-0.6,0.2-1,0.4c-0.4,0.2-0.6,0.4-0.7,0.6c1.8,4.5,2.7,6.7,4.5,11.2
				c1.4-0.7,2.2-1,2.3-1.1c1.6-0.7,2.5-0.7,2.8-0.1c0,0,0,0.1,0.1,0.1c-0.1,0.4-0.3,0.8-0.7,1.2c-0.4,0.4-0.8,0.6-1.1,0.8
				c-0.4,0.2-0.8,0.4-1.4,0.6c-0.5,0.2-0.8,0.3-1.3,0.5c-1.1,0.4-1.8,0.5-2.2,0.2c-0.2-0.1-0.3-0.3-0.4-0.6
				c-3.3-8.5-5-12.8-8.3-21.3c-0.2-0.4-0.5-1-1-1.8c-0.5-0.8-0.8-1.3-1-1.8c0-0.1,0-0.1-0.1-0.1c0.2-0.8,0.3-1.4,0.4-1.7
				c1.1-0.6,1.6-0.9,2.7-1.5c0.4-0.2,0.8-0.2,1.3-0.2c0.5,0.1,0.8,0.3,0.9,0.6c0.3,0.7-0.1,1.3-1.3,1.8c-0.4,0.2-0.7,0.2-1.1,0.4
				c-0.2,0.1-0.3,0.1-0.4,0.2c1.1,2.4,1.6,3.5,2.7,5.9c0.2,0.5,0.4,1.2,0.8,2.2c0.3,1,0.6,2,0.7,2.1c0,0,0.3-0.2,0.5-0.4
				c0.5-0.4,0.9-0.6,1.2-0.7c0.3-0.1,0.6-0.1,0.9,0s0.5,0.3,0.7,0.6c0.1,0.3,0.1,0.6,0,0.9C444.6,315.9,444.4,316.1,444.1,316.3z"/>
			<path style="fill:#CF778A;" d="M453.5,327.4c-0.3-0.6-0.1-1.1,0.5-1.4c0.3-0.1,0.8-0.2,1.4-0.3c0.6,0,1.1-0.2,1.5-0.3
				c0.4-0.2,0.7-0.5,0.9-1.2c0.3-0.6,0.3-1.3,0.3-2c-0.1-1.5-0.3-2.7-0.8-3.7c-0.5-1-1.1-2-2.1-2.9c-0.9-1-1.9-1.8-2.9-2.6
				c-1-0.8-2-1.5-3-2.3c-2.4-1.8-4-3.7-4.8-5.7c-0.8-1.9-0.8-3.6,0-5.2c0.4-0.9,1.1-1.5,2-1.9c0.4-0.2,0.9-0.3,1.5-0.2
				c0.5,0,1,0.2,1.3,0.5c-0.1,0.4-0.2,0.6-0.3,1.1c-0.6,0.3-1.3,0.3-1.6,0.3c-0.3,0.1-0.8,0.6-0.9,1.2c-0.3,1-0.3,2,0.2,3
				c0.4,1,1,1.9,1.7,2.8c0.7,0.8,1.4,1.5,2.2,2.1c0.8,0.6,1.6,1.2,2.5,1.8c0.9,0.7,1.8,1.3,2.6,1.9c1.9,1.4,3.3,3.2,4.4,5.4
				c0.7,1.5,1,3.2,0.7,5c-0.1,0.9-0.5,1.7-1,2.5c-0.6,0.8-1.3,1.4-2.3,1.8c-1,0.4-1.9,0.7-2.6,0.7
				C454.1,327.8,453.7,327.7,453.5,327.4z"/>
		</g>
	</g>
	<g>
		<polygon style="fill:#73A93B;" points="335.4,296.7 323.8,305.5 323.8,273.1 335.4,273.1 		"/>
		<polygon style="fill:#A71118;" points="358.5,305.5 346.9,296.7 346.9,273.1 358.5,273.1 		"/>
		<rect x="335.4" y="273.1" class="st2" width="11.6" height="23.6"/>
	</g>
	<g>
		<g>
			<path style="fill-rule:evenodd;clip-rule:evenodd;fill:#CF778A;" d="M67.6,206.3c-1.8,1.8-3.6,3.7-5.4,5.5
				c1.2,2.3,2.4,4.5,3.6,6.8c-2.3-1.1-4.6-2.3-6.9-3.4c-1.8,1.9-3.6,3.7-5.3,5.6c0.4-2.5,0.7-5.1,1.1-7.6c-2.3-1.1-4.6-2.2-6.9-3.3
				c0.7-0.1,1.4-0.2,2.1-0.4c1.7-0.3,3.4-0.6,5.1-0.9c0.2,0,0.3-0.1,0.4-0.4c0.3-2.4,0.6-4.7,1-7.1c0,0,0-0.1,0-0.2
				c0.5,0.9,0.9,1.7,1.3,2.5c0.7,1.4,1.5,2.7,2.2,4.1c0.1,0.2,0.1,0.3,0.4,0.2C62.7,207.2,65.1,206.8,67.6,206.3z"/>
		</g>
		<g>
			<path style="fill-rule:evenodd;clip-rule:evenodd;fill:#CF778A;" d="M598.9,206.3c1.8,1.8,3.6,3.7,5.4,5.5
				c-1.2,2.3-2.4,4.5-3.6,6.8c2.3-1.1,4.6-2.3,6.9-3.4c1.8,1.9,3.6,3.7,5.3,5.6c-0.4-2.5-0.7-5.1-1.1-7.6c2.3-1.1,4.6-2.2,6.9-3.3
				c-0.7-0.1-1.4-0.2-2.1-0.4c-1.7-0.3-3.4-0.6-5.1-0.9c-0.3,0-0.3-0.1-0.4-0.4c-0.3-2.4-0.6-4.7-1-7.1c0,0,0-0.1,0-0.2
				c-0.4,0.9-0.9,1.7-1.3,2.5c-0.7,1.4-1.5,2.7-2.2,4.1c-0.1,0.2-0.1,0.3-0.4,0.2C603.8,207.2,601.4,206.8,598.9,206.3z"/>
		</g>
	</g>
	<g>
		<g>
			<path style="fill:#CF778A;" d="M558.6,95.9c-0.4-1.3-0.7-1.9-0.7-1.9l-0.4,0.1c0,0,0.2,0.7,0.4,2c0.2,1.3,0.5,3.2,0.5,5.6
				c-0.1,2.4-0.4,5.3-1.6,8.3c-1.2,3-3.2,6.1-6.1,8.9c-2.9,2.8-6.5,5.2-10.8,7.1c-4.2,1.9-8.9,3.3-14,4.2c-10,1.9-21.3,1.7-32.1-0.6
				c-5.4-1.1-10.8-2.7-15.9-4.6c-5.1-1.9-10-4.3-15-6.2c-9.9-3.9-19.6-6.5-28.2-6.8c-4.3-0.2-8.2,0.4-11.6,1.6
				c-3.2,1.3-5.8,2.8-7.9,4.1c-0.3,0.2-0.5,0.3-0.8,0.5c0,0,0,0-0.1,0c-5.1,2.9-9.2,5.9-14.3,10.6c-0.5,0.4-1.1,1.1-1.7,1.5
				l-2.2-2.1c0.3-0.5,1.1-1.3,1.5-1.7c12-12.3,26.3-20,43.8-19.6c6.6,0.1,13.2,2.2,19.6,4c9.8,2.8,19.4,6.5,29.3,9
				c9,2.3,18.2,2,26.8-2.2c9.7-4.7,16.7-16,11-27.8c-2.5-5.2-6.7-8.5-12.2-9.1c-6.4-0.7-12.6,0.5-16.6,6.4c-3.4,5-4.9,10.5-2.7,16.5
				c2.1,5.6,7.4,7.6,11.7,4.5c-6.7,1.3-10.5-1.7-11.1-8.6c-0.7-8.1,5.8-15.4,14.5-16.5c7.2-0.9,14.6,4.6,15.8,11.6
				c1.3,8.1-4.5,16.7-13.6,19.9c-8,2.9-16.3,2.8-24.4,0.8c-11.2-2.7-22.3-6.1-33.5-9.1c-19.7-5.3-37.1-0.3-52.5,12.4
				c-3,2.5-6,5.5-8.9,8.2c-5.7-5.3-7.1-14.6-3.5-20.5c2.7-4.3,6-5,11.7-2.7c-3.9-4.1-9.8-3.4-13.4,1.5c-4.1,5.4-4.4,14.6,0.3,21.3
				c1,1.7,2.2,3.2,2.2,3.2s-1.7,2.1-3,4.2c-2.1,3.2-3,4.7-4.7,7.7l9-10.4c0.8,0.7,1.9,2,1.9,2s-1.5,2.4-3.8,7.1
				c1.8-1.9,3.5-3.8,5.5-6c2.8,1.7,5.4,3.5,8.3,4.9c10.2,4.9,20.8,6,31.6,2.9c2.7-0.8,5.4-2.1,7.8-3.7c4.8-3.2,7.5-7.7,6.5-13.6
				c-0.8-4.9-3.4-8.3-7.5-10.2c5.9,1.4,12.1,3.5,18.3,6.2c4.8,2,9.6,4.5,14.9,6.7c5.2,2.1,10.6,3.9,16.2,5.2
				c11.1,2.6,22.8,3.5,33.5,1.7c5.4-0.9,10.5-2.5,15-4.7c4.5-2.2,8.5-5.1,11.5-8.4c3-3.3,5-7.1,5.9-10.5c1-3.5,1.1-6.7,0.8-9.2
				C559.6,99,559,97.1,558.6,95.9z M448.6,125.1c0.8,4.2-1.7,8.4-6.4,11.1c-11.5,6.8-32.1,4.6-42.4-4.7c5.9-6.1,12.7-10.8,20.5-14
				c5.9-2.4,12-3.7,18.3-2C443.5,116.9,447.6,119.6,448.6,125.1z"/>
		</g>
		<g>
			<path style="fill:#CF778A;" d="M128.5,101.6c-0.3,2.5-0.2,5.7,0.8,9.2c1,3.5,2.9,7.2,5.9,10.5c3,3.3,6.9,6.2,11.5,8.4
				c4.6,2.2,9.6,3.8,15,4.7c10.8,1.8,22.4,0.9,33.5-1.7c5.6-1.3,11-3.1,16.2-5.2c5.2-2.1,10-4.7,14.9-6.7c6.3-2.7,12.5-4.8,18.3-6.2
				c-4.1,2-6.7,5.3-7.5,10.2c-0.9,5.9,1.8,10.4,6.5,13.6c2.4,1.6,5.1,2.9,7.8,3.7c10.9,3.1,21.5,2,31.6-2.9c2.8-1.4,5.4-3.2,8.3-4.9
				c2,2.1,3.8,4.1,5.5,6c-2.3-4.6-3.8-7.1-3.8-7.1s1.1-1.3,1.9-2l9,10.4c-1.7-3-2.6-4.5-4.7-7.7c-1.3-2.1-3-4.2-3-4.2
				s1.2-1.6,2.2-3.2c4.7-6.7,4.3-15.9,0.3-21.3c-3.7-4.9-9.5-5.5-13.4-1.5c5.7-2.3,9-1.6,11.7,2.7c3.7,5.8,2.2,15.2-3.5,20.5
				c-2.9-2.7-5.8-5.7-8.9-8.2c-15.5-12.7-32.8-17.7-52.5-12.4c-11.2,3-22.3,6.3-33.5,9.1c-8.1,2-16.4,2-24.4-0.8
				c-9.1-3.2-14.9-11.8-13.6-19.9c1.2-7,8.6-12.5,15.8-11.6c8.7,1,15.2,8.4,14.5,16.5c-0.6,6.9-4.4,9.9-11.1,8.6
				c4.3,3.1,9.7,1.1,11.7-4.5c2.2-6,0.6-11.4-2.7-16.5c-4-6-10.2-7.1-16.6-6.4c-5.6,0.6-9.7,3.9-12.2,9.1
				c-5.7,11.8,1.3,23.1,11,27.8c8.7,4.2,17.8,4.6,26.8,2.2c9.9-2.5,19.5-6.2,29.3-9c6.4-1.8,13-3.9,19.6-4
				c17.5-0.3,31.8,7.3,43.8,19.6c0.4,0.4,1.3,1.2,1.5,1.7l-2.2,2.1c-0.6-0.4-1.2-1.1-1.7-1.5c-5.1-4.7-9.1-7.7-14.3-10.6
				c0,0,0,0-0.1,0c-0.3-0.2-0.5-0.3-0.8-0.5c-2.1-1.3-4.7-2.8-7.9-4.1c-3.3-1.2-7.3-1.7-11.6-1.6c-8.6,0.3-18.3,2.9-28.2,6.8
				c-5,1.9-9.9,4.4-15,6.2c-5.1,1.9-10.5,3.5-15.9,4.6c-10.9,2.2-22.1,2.4-32.1,0.6c-5-0.9-9.8-2.3-14-4.2
				c-4.2-1.9-7.9-4.3-10.7-7.1c-2.8-2.8-4.9-5.9-6.1-8.9c-1.2-3-1.5-5.9-1.6-8.3c-0.1-2.4,0.2-4.3,0.5-5.6c0.2-1.3,0.4-2,0.4-2
				l-0.4-0.1c0,0-0.3,0.6-0.7,1.9C129.3,97.1,128.8,99,128.5,101.6z M249.6,115.6c6.3-1.7,12.4-0.4,18.3,2c7.8,3.2,14.6,7.9,20.5,14
				c-10.3,9.3-30.8,11.5-42.4,4.7c-4.7-2.8-7.2-7-6.4-11.1C240.7,119.6,244.8,116.9,249.6,115.6z"/>
		</g>
	</g>
	<g>
		<path style="fill:#CF778A;" d="M81.5,281.9l-1.5,0.4l0.5-1.4c1.8-4.6,2.7-7,4.4-11.4l0-116.4c-1-2.5-1.7-4.2-2.5-6.1
			c-1.9-0.2-4-0.5-6.4-0.8c1.8,4.4,2.6,6.6,4.4,11c0,38.9,0,77.8,0,116.7c-1.8,4.6-2.7,6.9-4.4,11.6c9.8-2.5,14.7-3.7,24.5-6
			c-0.4-0.7-0.7-1.3-0.9-1.9C93.4,278.9,88.8,280,81.5,281.9z"/>
		<path style="fill:#CF778A;" d="M102,188.1l0,19.6c3,10.2,5.7,19,9.6,31.5c1-3.5,1.9-6.7,2.8-9.6
			C109.6,214.3,106.6,204.3,102,188.1z"/>
		<path style="fill:#CF778A;" d="M116.8,180.8c2.9-9.5,4.9-15.9,7.3-23.9l1.6-5.2c-1-0.1-2-0.2-3-0.3c-3,9.9-5.1,16.4-7.4,24.2
			C115.8,177.2,116.3,178.9,116.8,180.8z"/>
		<path style="fill:#CF778A;" d="M128.4,270.7l-1.5,0.3l0.6-1.4c1.7-4.2,2.6-6.3,4.3-10.3l-0.2-71.2c-1.6,5.3-3.1,10-4.5,14.5
			c0,20.3,0.1,40.7,0.1,61c-1.8,4.1-2.6,6.2-4.4,10.4c9.7-2.1,14.6-3.2,24.3-5c-0.4-0.8-0.8-1.5-1.1-2.1
			C140.4,268.1,135.9,269,128.4,270.7z"/>
		<path style="fill:#CF778A;" d="M161.2,264l-1.5,0.3l0.6-1.4c1.7-3.9,2.6-5.8,4.3-9.5l-0.2-93.7c-0.9-1.8-1.6-3.2-2.3-4.7
			c-2.1-0.2-4.3-0.4-6.7-0.6c1.8,3.8,2.7,5.6,4.4,9.3c0.1,31.3,0.1,62.7,0.2,94c-1.8,3.8-2.6,5.7-4.4,9.7c18.2-3.4,27.3-4.8,45.5-7
			c0.3-1,0.5-2,0.8-2.9C186.4,259.5,177.4,261,161.2,264z"/>
		<path style="fill:#CF778A;" d="M181.5,165.4l0,3.7c4.4,0.2,8,0.4,13.5,0.7c4.2,1.6,6.3,2.4,10.6,3.9c0-2,0-3.7,0-5.3
			c-1.6-0.6-3.3-1.2-5.4-2C192.7,166,188.8,165.8,181.5,165.4z"/>
		<path style="fill:#CF778A;" d="M181.6,195.1l0,3.4c3.3,0,6.2,0,10.4-0.1c4.2,1.2,6.3,1.9,10.6,3c0-1.8,0-3.4,0-4.9
			c-1.6-0.5-3.2-0.9-5.4-1.6C190.9,195,187.6,195,181.6,195.1z"/>
		<path style="fill:#CF778A;" d="M219.5,255.6l-1.9,0.2l1.2-1.5c3-3.7,4.5-5.4,7.4-8.9c6.6-18,10.1-26,16.5-40.3l0.4-0.8l-0.6-1.3
			c-6.3-14-9.7-21.8-16.3-39.4c-1.6-1.7-2.7-3-3.9-4.4c-2.5-0.1-5.1-0.3-8.2-0.5c3,3.6,4.5,5.3,7.5,8.7c6.8,18.3,10.2,25.9,17,41.1
			c-6.8,15.3-9.8,21.7-16.6,40.3c-3,3.5-5.8,6.5-8.8,10.2c9.7-1,15.5-1.4,25.2-2c-0.2-1.2-0.4-2.2-0.5-3.1
			C231.8,254.4,227.2,254.8,219.5,255.6z"/>
		<path style="fill:#CF778A;" d="M250.3,181.8c0.4,1,0.8,2,1.3,3c3.2-7.4,5.1-11.7,8.4-20.3c-0.2-1.4-0.4-2.5-0.6-3.6
			c-1.6-0.1-3.3-0.1-5.2-0.2c0.5,3.4,0.8,5,1.4,8.1C253.4,174.3,251.9,178,250.3,181.8z"/>
		<path style="fill:#CF778A;" d="M259.5,252.9l-1,0l0.2-1c0.5-3.3,0.8-4.9,1.3-7.9c-3.4-8.6-5.2-13-8.4-20.3c-1.1,2.7-2.1,5-3.1,7.3
			c2.4,5.5,4.1,9.8,7,17.1c-0.5,3.2-0.8,4.8-1.4,8.1c9.8-0.4,14.6-0.5,24.4-0.8c-1.2-1.3-2.1-2.3-3-3.2
			C270.4,252.5,266,252.6,259.5,252.9z"/>
		<path style="fill:#CF778A;" d="M292.4,251.9l-1.4,0l0.6-1.2c1.7-3.3,2.6-4.9,4.3-7.9l0-77.1c-0.9-1.5-1.5-2.7-2.2-3.9
			c-2,0-4.2-0.1-6.7-0.1c1.8,3.3,2.7,4.9,4.4,8c0,25.8,0,51.7,0,77.5c-1.8,3.1-2.7,4.7-4.4,8c9.8-0.2,14.6-0.3,24.4-0.4
			c-0.7-1.3-1.3-2.4-1.9-3.3C303.9,251.6,299.4,251.7,292.4,251.9z"/>
		<path style="fill:#CF778A;" d="M364.8,170.1c-9.3,0.1-14.1,0.1-23.2,0.1v3.4c6,0,10.6,0,18-0.1c4.2,1.2,6.3,1.8,10.6,3
			c0-1.9,0-3.4,0-4.9C368.5,171.2,366.9,170.7,364.8,170.1z"/>
		<path style="fill:#CF778A;" d="M329.7,251.4h-0.5L329,251c-1.8-3.2-2.7-4.8-4.4-7.8l-0.1-0.2v-77.3l0.1-0.2
			c0.7-1.3,1.3-2.3,1.9-3.2c-0.7,0-1.3,0-2,0c-1.8,3.2-2.7,4.8-4.4,7.9c0,25.6,0,51.3,0,76.9c1.8,3,2.7,4.6,4.4,7.9
			c16.5-0.1,24.8,0,41.3,0.2c0.4-1.3,0.7-2.4,1-3.5C352.2,251.3,344.3,251.3,329.7,251.4z"/>
		<path style="fill:#CF778A;" d="M378.9,251.7l-1.6,0l1-1.2c2.4-3.1,3.7-4.6,6.2-7.7c3.4-13.9,7.2-28,10.9-41.6
			c3.5-13,7.1-26.4,10.4-39.6c-0.2-0.2-0.3-0.4-0.4-0.6c-2.2,0.1-4.6,0.2-7.4,0.2c1.4,1.8,2,2.6,3.4,4.4
			c-6.8,27.4-14.2,52.2-21,79.6c-2.5,3-5.5,6.6-8,9.8c9.8,0.2,15.8,0.4,25.5,0.8c-0.4-1.4-0.8-2.6-1.1-3.6
			C390.8,252,386.3,251.9,378.9,251.7z"/>
		<path style="fill:#CF778A;" d="M417.9,200.3c-0.9-3.2-1.6-5.8-2.5-9.2c-1,3.8-1.8,6.6-2.8,10.3c0.2,0.7,0.4,1.4,0.6,2.1h5.6
			L417.9,200.3z"/>
		<path style="fill:#CF778A;" d="M427.4,253.3l-1,0l0.3-1c1.1-3.2,1.6-4.8,2.7-7.8c-3-12.9-4.6-18.8-7.5-29.4c-5.1,0-8-0.1-13.1-0.1
			c-0.3,1.2-0.6,2.4-0.9,3.5c3,0,5.5,0.1,9.4,0.1c3.1,11.3,4.6,17,7.7,30.2c-1.1,3.1-1.6,4.7-2.7,8c9.8,0.4,14.7,0.8,24.5,1.6
			c-1.2-1.6-2.1-2.9-2.9-4.1C438.5,253.8,434.1,253.6,427.4,253.3z"/>
		<path style="fill:#CF778A;" d="M457,255.3l-1.2-0.1l0.6-1.1c1.7-3.2,2.6-4.7,4.3-7.7c0-18.6-0.1-37.2-0.1-55.8l-0.1-27.8
			c-1-1.7-1.7-3-2.5-4.4c-2,0.1-4.1,0.2-6.5,0.4c1.8,3.3,2.7,4.9,4.4,8c0.1,28,0.1,56,0.2,83.9c-1.8,3.1-2.7,4.7-4.5,7.9
			c9.8,0.9,14.7,1.4,24.6,2.7c-0.8-1.7-1.5-3.1-2.1-4.3C468.6,256.4,464.1,255.9,457,255.3z"/>
		<path style="fill:#CF778A;" d="M495,259.8l-1.1-0.2l0.5-1c1-1.9,1.6-2.9,2.6-4.6c-5.4-16.7-11.7-34.2-19.1-53.4l0,5.4
			c0,3.8,0,7.2,0,10.6c5.2,13.8,10.1,27.7,14.7,41.7c-1.1,2-1.6,2.9-2.7,4.9c9.8,1.4,14.8,2.2,24.5,4c-0.9-1.9-1.5-3.3-2.2-4.7
			C506.5,261.5,502.1,260.8,495,259.8z"/>
		<path style="fill:#CF778A;" d="M494,198.1c1.5,4.1,3.1,8.2,4.6,12.4l-0.2-49.8c-1-1.9-1.8-3.3-2.6-4.8c-1.9,0.2-4,0.3-6.4,0.5
			c1.8,3.4,2.7,5,4.5,8.3C493.9,178.9,493.9,188.1,494,198.1z"/>
		<path style="fill:#CF778A;" d="M524.6,264.7l-1.3-0.2l7-8.8c6.8-33,14.1-68.3,20.7-103.3l-1.1-1.5c-2,0.2-4.2,0.4-6.8,0.7
			c1.4,2,2.1,2.9,3.4,4.9c-6.5,34.7-13.2,67.3-20.4,101.8c-2.5,3.2-5.4,6.7-7.9,9.9c9.8,1.8,15.9,2.9,25.6,5
			c-0.5-1.9-0.9-3.4-1.3-4.8C536.6,267,532,266.1,524.6,264.7z"/>
		<path style="fill:#CF778A;" d="M560.7,190.4c-1,5.1-1.7,8.8-2.6,13.6c0.2,1.3,0.5,2.6,0.8,3.9c1.8,0.1,3.3,0.2,5.4,0.3
			C562.8,201.1,561.9,196.7,560.7,190.4z"/>
		<path style="fill:#CF778A;" d="M572.8,275.4l-0.8-0.2l2.8-9.9c-3.1-17.4-4.6-25.7-7.6-41.1c-5-0.6-7.9-0.9-12.9-1.4
			c-0.3,1.4-0.5,2.6-0.8,3.9c2.9,0.3,5.4,0.6,9,1c3.1,16.2,4.7,24.6,7.7,41.8c-1.1,3.7-1.6,5.6-2.6,9.3c9.6,2.4,14.3,3.7,23.8,6.5
			c-1.1-2.3-2-4-2.9-5.7C583.7,278.2,579.4,277.1,572.8,275.4z"/>
	</g>
	<g>
		<path class="st2" d="M150.4,256.4l-0.9-1.9l-0.2-98.5l4-7.9c-8.9-0.8-13.6-1.3-22.5-2.2l-2.9,9.3c-2.7,8.7-4.8,15.4-8.1,26.4
			l-0.8,2.5l-0.8-2.5c-4.5-14.8-6.7-22.4-11.1-38.3c-8.8-1-13.6-1.6-22.4-2.7c1.5,3.7,2.3,5.8,3.9,9.8l0.1,0.3l0,116.9l-0.1,0.1
			c-1.6,4.1-2.5,6.4-3.9,10.2c8.4-2.1,13.2-3.3,22-5.4c-1.5-3-2.4-4.8-4-8.1l-0.1-0.4l-0.1-89.3l1.6,5.5c5.9,20.7,9.1,31.2,15,50.1
			c5.7-20,8.8-30.3,14.8-49.6l1.5-4.9l0.2,81.9l-0.1,0.1c-1.6,3.6-2.4,5.7-3.8,9c8.7-1.9,13.4-2.9,21.8-4.5
			C152.3,260,151.5,258.4,150.4,256.4z"/>
		<path class="st2" d="M211.8,239.5c-3.2,1.3-5.2,2.2-9,3.9l-0.2,0.1c-7.8,0.9-11.6,1.4-19.5,2.5l-0.9,0.1l-0.1-54.6l0.8,0
			c6.6-0.1,9.9-0.1,16.5-0.1h0.1l0.1,0c3.9,1.1,6,1.7,9.5,2.8l0-15.2c-3.6,1-5.7,1.6-9.5,2.7l-0.1,0l-17.4-0.3l0-19.7l0.8,0
			c7.8,0.4,11.7,0.7,19.6,1.1l0.2,0.1c3.9,1.4,5.9,2.2,9.5,3.5l0-13.6c-19.2-1.2-29-1.9-48-3.6c1.4,3,2.3,4.8,3.8,8l0.1,0.3
			l0.2,94.2l-0.1,0.2c-1.5,3.3-2.4,5.2-3.8,8.3c16.7-3.1,25.7-4.5,43.5-6.7C209.5,247.8,210.4,244.6,211.8,239.5z"/>
		<path class="st2" d="M262.5,249.2c8.5-0.3,13.2-0.5,21.7-0.7c-2.3-2.4-3.7-3.9-6.3-6.5l-0.2-0.3c-5.6-14.2-8.8-21.2-13.7-31.9
			c-1-2.2-2.1-4.6-3.3-7.3l-0.1-0.3l0.1-0.3c1.2-2.6,2.3-5,3.3-7.3c4.9-10.7,8.1-17.7,13.7-31.9l0.2-0.3c2.5-2.6,4-4.1,6.3-6.5
			c-8.4-0.2-13.1-0.4-21.7-0.7c0.4,2.7,0.7,4.3,1.2,7.2l0,0.2l-0.1,0.2c-3.6,9.4-5.5,13.8-9.2,22.3l-0.7,1.7l-0.7-1.7
			c-3.6-8.4-5.4-12.8-9.2-23l-0.1-0.2l0-0.2c0.5-2.9,0.8-4.5,1.2-7.2c-8.6-0.4-13.3-0.6-21.7-1.1c2.3,2.7,3.7,4.3,6.3,7.2l0.2,0.3
			c6.6,17.7,10,25.4,16.3,39.4l0.9,2l-0.7,1.5c-6.6,14.8-9.9,22.2-16.5,40.3l-0.1,0.3c-2.6,3-4,4.7-6.3,7.4
			c8.5-0.8,13.2-1.2,21.6-1.7c-0.5-2.8-0.7-4.3-1.2-7.2l0-0.2l0.1-0.2c3.6-9.7,5.4-14,9.2-23.1l0.7-1.7l0.7,1.7
			c3.7,8.4,5.5,12.8,9.2,22.3l0.1,0.2l0,0.2C263.2,244.8,262.9,246.4,262.5,249.2z"/>
		<path class="st2" d="M313.8,241.1l-0.1-0.2v-77.5l0.1-0.2c1.5-2.7,2.4-4.2,3.8-6.7c-8.3-0.1-13.1-0.2-21.7-0.4
			c1.4,2.5,2.2,4.1,3.8,6.8l0.1,0.2l0,78l-0.1,0.2c-1.5,2.7-2.4,4.3-3.8,6.8c8.4-0.2,13.1-0.3,21.7-0.4
			C316.2,245.3,315.3,243.8,313.8,241.1z"/>
		<path class="st2" d="M332.3,156.7c-1.6,2.9-2.5,4.5-4.1,7.3v25.4v51c1.6,2.8,2.5,4.4,4.1,7.3c4.4,0,8.3,0,11.8,0
			c8.9,0,16.4,0.1,28.4,0.3c1.5-5.1,2.3-7.9,3.8-12.6c-3.3,0.9-5.4,1.5-9.2,2.6l-0.1,0l-0.1,0c-9.6-0.1-14.4-0.1-24-0.1h-0.8v-71.3
			h0.8c9.6,0,14.4,0,24-0.1l0.1,0l0.1,0c3.9,1.1,6,1.7,9.6,2.7v-12.7C358.3,156.7,349.6,156.8,332.3,156.7z"/>
		<path class="st2" d="M447.1,243.7l-0.1-0.3c-3.6-14.9-7.5-29.9-11.3-44.5c-3.4-13.1-6.9-26.7-10.2-40.1l-0.1-0.4l0.2-0.3
			c1-1.3,1.6-2.2,2.5-3.3c-8.1,0.3-12.8,0.5-21.1,0.8c0.8,1,1.4,1.9,2.5,3.1l0.2,0.3l-0.1,0.4c-3.3,13.4-7,26.9-10.5,40
			c-3.7,13.6-7.5,27.8-11,41.7l-0.2,0.3c-2.2,2.7-3.5,4.2-5.3,6.5c8.4,0.2,13.1,0.3,21.7,0.6c-0.8-2.6-1.3-4.2-2.2-7l-0.1-0.2l0-0.2
			c3-12.7,4.5-18.2,7.5-29.2l0.2-0.8l0.6,0c5.7,0,8.6,0.1,14.3,0.1l0.6,0l0.2,0.6c3,11,4.6,16.9,7.7,30.3l0,0.2l-0.1,0.2
			c-1,2.8-1.5,4.4-2.4,7c8.6,0.4,13.3,0.7,21.8,1.4C450.5,248.3,449.3,246.7,447.1,243.7z M412,203l0.9-3.2c1.4-5,2.3-8.2,3.8-14.1
			l0.8-2.9l0.8,2.9c1.3,5,2.2,8.1,3.3,12.1l1.4,5.2H412z"/>
		<path class="st2" d="M516.5,251.6l-0.1-0.3l-0.5-94.1l0.1-0.2c1.6-3.2,2.4-5,3.8-8c-8.6,0.7-13.3,1.1-21.8,1.8
			c1.4,2.7,2.3,4.3,3.9,7.2l0.1,0.4l0.3,59.1l-1.6-4.3c-2.7-7.4-5.4-14.7-8.1-22.1c-4.2-11.3-8.5-22.9-12.6-34.5l-0.1-0.3l0.2-0.3
			c0.9-1.7,1.4-2.7,2.1-4.1c-8.6,0.6-13.4,0.9-21.8,1.4c1.4,2.6,2.3,4.1,3.8,6.9l0.1,0.2l0.1,28.2c0,18.7,0.1,37.3,0.1,56v0.2
			l-0.1,0.2c-1.6,2.7-2.4,4.3-3.9,6.8c8.5,0.8,13.3,1.3,21.9,2.4c-1.4-2.8-2.3-4.6-3.8-7.6l-0.1-0.4c-0.1-18.5-0.1-28-0.1-42.2
			l0-13.9l1.5,3.9c8.1,20.9,15,39.8,20.8,57.8l0.1,0.3l-0.2,0.3c-0.9,1.6-1.4,2.5-2.2,3.9c8.6,1.3,13.4,2,21.9,3.6
			C519,256.8,518.1,254.9,516.5,251.6z"/>
		<path class="st2" d="M592.1,267.2L592,267c-6.4-37.7-13.4-76.5-21.5-118.4l-0.1-0.3l0.1-0.3c1.1-1.8,1.7-2.9,2.6-4.5
			c-8.2,0.9-12.9,1.4-21.2,2.3l2.8,4.1l-0.1,0.3c-6.6,35.2-13.9,70.7-20.8,103.8l-0.2,0.3l-5.4,6.9c8.6,1.6,13.3,2.6,21.8,4.5
			c-0.8-3.2-1.4-5.2-2.3-8.7l0-0.2l3.1-15.7c1.3-6.6,2.5-12.7,4.2-21.5l0.1-0.7l0.7,0.1c5.7,0.6,8.5,0.9,14.2,1.5l0.6,0.1l0.1,0.6
			c3,15.8,4.6,24,7.7,41.8l0,0.2l-2.5,8.7c8.6,2.2,13.2,3.5,21.3,5.8C595.4,273.8,594.2,271.4,592.1,267.2z M567.2,207.8
			c-3.5-0.2-5.3-0.3-8.8-0.6l-0.9-0.1l0.2-0.9c1.7-8.8,2.6-13.3,4.3-22.4l0.8-4l0.8,4c1.8,9.1,2.7,13.6,4.5,22.9l0.2,1L567.2,207.8z
			"/>
	</g>
</g>
</svg>
