<?xml version="1.0" encoding="utf-8"?>
<!-- Generator: Adobe Illustrator 19.1.0, SVG Export Plug-In . SVG Version: 6.00 Build 0)  -->
<svg version="1.1" id="Layer_1" xmlns="http://www.w3.org/2000/svg" xmlns:xlink="http://www.w3.org/1999/xlink" x="0px" y="0px"
	 viewBox="-306 210 666.5 381" style="enable-background:new -306 210 666.5 381;" xml:space="preserve">
<style type="text/css">
	.st0{fill:#FFFFFF;}
	.st1{fill:#CF778A;}
	.st2{fill:#73A93B;}
	.st3{fill:#A71118;}
</style>
<g>
	<g id="_x31_V7nqP.tif_2_">
		<g>
			<path class="st0" d="M-256.5,210c189,0,378,0,567,0c0,11,0,22.1,0,33.1c4.3,0,7.9,0,12.1,0c0-5.5,0-10.5,0-15.6
				c7.4,0,14.2,0,21.2,0c0,6.8,0,13.4,0,20.5c-5.7,0-11.1,0-16.9,0c0,4.3,0,8,0,12.1c11.4,0,22.4,0,33.5,0c0,93.7,0,187.3,0,281
				c-11,0-22.1,0-33.1,0c0,4.3,0,7.9,0,12.1c5.4,0,10.4,0,15.7,0c0,7.5,0,14.4,0,21.4c-6.9,0-13.4,0-20.5,0c0-5.7,0-11.1,0-16.7
				c-4.3,0-8,0-12.1,0c0,11.3,0,22.3,0,33.2c-189,0-378,0-567,0c0-10.9,0-21.9,0-33c-4.1,0-7.8,0-12.2,0c0,5.5,0,10.5,0,15.6
				c-7.5,0-14.2,0-21.1,0c0-6.9,0-13.5,0-20.6c5.8,0,11.2,0,16.8,0c0-4.3,0-8,0-12.4c-11.3,0-22.2,0-33,0c0-93.7,0-186.7,0-280.4
				c11,0,21.7,0,32.4,0c0-4.4,0-8.1,0-12.4c-5.5,0-10.6,0-15.6,0c0-7.4,0-14.2,0-21.2c6.9,0,13.4,0,20.5,0c0,5.7,0,11.1,0,16.8
				c4.3,0,8,0,12.1,0C-256.5,231.9-256.5,221-256.5,210z M-251.9,585.9c186.2,0,371.8,0,558,0c0-11,0-21.7,0-32.8c5.7,0,11,0,16.7,0
				c0-5.8,0-11,0-17c11.2,0,21.9,0,32.6,0c0-90.8,0-180.8,0-271.6c-11,0-21.8,0-33,0c0-5.9,0-11.2,0-17c-5.7,0-10.9,0-16.7,0
				c0-11.1,0-21.7,0-32.5c-186.2,0-371.8,0-558,0c0,11,0,21.7,0,32.8c-5.7,0-11,0-16.7,0c0,5.8,0,11,0,17c-11.2,0-21.9,0-32.6,0
				c0,90.8,0,180.8,0,271.6c11,0,21.8,0,33,0c0,5.9,0,11.2,0,17c5.7,0,10.9,0,16.7,0C-251.9,564.6-251.9,575.2-251.9,585.9z
				 M-285.1,243.1c4.2,0,7.9,0,11.5,0c0-4.4,0-8.3,0-12.1c-4,0-7.6,0-11.5,0C-285.1,235.2-285.1,238.9-285.1,243.1z M327.3,570
				c4.2,0,7.7,0,11.7,0c0-4.2,0-8.1,0-12.2c-4.1,0-7.8,0-11.7,0C327.3,562,327.3,565.8,327.3,570z M-273,569.3c0-4,0-7.6,0-11.2
				c-4.4,0-8.4,0-12.5,0c0,3.9,0,7.4,0,11.2C-281.4,569.3-277.5,569.3-273,569.3z M339.4,231.8c-4.3,0-8.3,0-12.4,0
				c0,4,0,7.6,0,11.4c4.3,0,8.2,0,12.4,0C339.4,239.2,339.4,235.7,339.4,231.8z"/>
		</g>
	</g>
</g>
<g>
	<g>
		<path class="st0" d="M20.6,297v47.5h8.2l4.4-1.9l-1.9,8.4H12.2l1.9-4.4V297l-1.9-4.4h10.2L20.6,297z"/>
		<path class="st0" d="M34.7,351l2.6-4.4l9-51.5l-1.4-2.4H55l-1.4,2.4l9,51.5l2.6,4.4H55l1.1-4.4l-3.2-18.3h-6l-3.1,18.3l1.1,4.4
			H34.7z M51.8,321.7l-1.9-10.6L48,321.7H51.8z"/>
	</g>
	<g>
		<g>
			<path class="st1" d="M-31.5,260.7c0.8,2,1.2,3,2,5.1c1.7,3.5,2.5,5.3,4.1,8.8c1.3,2.7,2,4.1,3.3,6.9c0.5,1.3,0.4,2.1-0.4,2.4
				c-0.5,0.2-0.9,0.1-1.3-0.2c-0.4-0.3-0.7-0.7-0.9-1.2c-0.9-2.5-1.4-3.8-2.3-6.3c-0.6-1.3-1.5-3.3-2.9-5.9
				c-1.4-2.6-2.4-4.6-2.9-5.9c-0.6-1.4-0.8-2-1.4-3.4c-0.8-1.9-1.5-3-2-3.4c-1.1,0.6-1.6,0.8-2.6,1.4c-0.4,0.2-0.8,0.3-1.3,0.2
				c-0.4,0-0.7-0.2-0.8-0.5c-0.1-0.3,0.1-0.7,0.8-1.3c0.7-0.6,1.6-1.2,2.8-1.8c2-1.1,3.7-1.9,5.1-2.5c0.4-0.2,0.8-0.2,1.3-0.1
				c0.4,0.1,0.7,0.3,0.8,0.6c0.1,0.3,0.1,0.6-0.2,0.9c-0.2,0.3-0.6,0.5-1,0.7c-0.7,0.3-1.1,0.4-1.8,0.7c-0.2,0.1-0.5,0.2-0.5,0.2
				C-33.9,256.5-32.2,259-31.5,260.7z"/>
			<path class="st1" d="M-4.3,277.2c-0.9,0.2-1.4,0-1.6-0.7c-0.6-2.1-0.9-3.2-1.5-5.3c-0.5-0.1-1.3-0.1-2.5,0
				c-1.2,0.2-2.8,0.3-3.1,0.6c-0.2,0.2-0.2,1.3-0.1,2.3s0.2,1.9,0.3,2.9c0.1,1,0.1,2.2-0.1,2.4c-0.4,0.5-2.1,0.2-2.2-0.1
				c-0.1-0.4-0.1-3.5-0.8-8.7c-0.7-5.1-1.1-9.2-1.3-12.1c-0.2-2.9-0.2-5.5,0-7.6c0.2-2.1,0.7-3.3,1.5-3.5c0.7-0.2,1.6-0.3,1.8-0.1
				c0.4,0.4,1.4,3.5,3.2,7.6c1.8,4.1,2.9,6.8,3.2,8c0.3,1.3,1.1,3.3,2.2,6.1s1.8,5,2.2,6.4C-3,276.4-3.3,277-4.3,277.2z M-10,264.5
				c-1-2.3-1.9-4.5-2.8-6.6c-0.9-2.1-1.4-3.4-1.5-3.8c-0.1-0.5-0.2-0.8-0.2-0.8s-0.5,3.2-0.1,7.9c0.4,4.7,0.8,8.6,1.1,8.8
				c0.4,0.3,2.5-0.3,3.4-0.5c0.9-0.3,1.8-0.5,1.8-0.7C-8.2,268.6-9,266.8-10,264.5z"/>
			<path class="st1" d="M-0.3,254c-1.5-7-0.3-11,3.7-11.7c2-0.4,3.7,0,5,0.9c1.3,0.9,2.3,2.2,2.9,3.9c0.7,1.8,1.2,3.4,1.4,4.8
				c0.2,1.3,0.4,2.5,0.5,3.4c0.1,0.5,0.2,0.9,0.2,1.4c0,0.4,0.1,0.9,0.1,1.3c0.1,0.9,0.2,1.5,0.2,1.9c0.1,0.8,0.1,1.1,0.2,1.9
				c0.3,2.4,0.4,4.3,0.3,5.7c-0.1,1.5-1.6,3.7-1.7,4.8c0,0.1,0.1,0.4,0.3,0.8c0.1,0.4,0.3,0.9,0.4,1.2c0.1,0.4,0.3,0.8,0.5,1.2
				c0.5,0.9,0.9,1.4,1.3,1.3c0.1,0,0.1,0,0.2,0c0.9-0.1,1.5-0.1,1.7,0.1c0.2,0.2,0.3,0.4,0.3,0.7c0.1,0.9-0.5,1.4-1.8,1.5
				c-0.5,0.1-1.1,0-1.9-0.3l0,0c-0.8-0.2-1.5-0.8-1.9-1.6c-0.4-0.7-0.6-1.4-0.9-2.1c-0.2-0.7-0.4-1.2-0.5-1.5
				c-0.7,0.1-1.1,0.2-1.8,0.3c-3.1-1.2-5.4-3.8-6.5-7.7c-0.2-0.7-0.4-1.6-0.6-2.6c-0.5-2.7-0.7-4.1-1.2-6.8
				C0.1,255.7,0,255.1-0.3,254z M10.8,256.6c-0.1-0.6-0.1-1.1-0.2-1.6c-1.1-7.7-3.5-11.2-7.2-10.6c-0.6,0.1-1.1,0.9-1.2,2.5
				c-0.2,1.5-0.1,3.3,0.1,5.5c0.4,3.6,0.8,6.2,1.1,7.8c0.3,1.5,0.5,2.6,0.7,3.2s0.4,1.4,0.6,2.3c0.3,0.9,0.6,1.8,0.9,2.5
				c0.4,0.8,0.8,1.5,1.2,2.2c0.4,0.7,0.9,1.2,1.5,1.6s1.2,0.5,1.8,0.5l0,0c0.2-0.4,0.5-0.6,1.1-0.7l0,0c1-1.1,1.3-2.7,1-4.7
				C11.7,262.8,11.4,260.7,10.8,256.6z"/>
			<path class="st1" d="M21.3,249.5c-0.2-2.6-0.3-3.9-0.5-6.6c-0.3-0.2-0.4-0.5-0.5-0.8c0-0.3,0.1-0.7,0.4-0.9
				c0.3-0.3,0.7-0.4,1.1-0.5c1.3-0.1,2,0.9,2.2,2.9c0.6,5.8,0.8,8.8,1.4,14.6c0.2,0.4,0.4,1.1,0.6,2.2s0.3,2,0.4,2.6
				c0,0.6,0.2,1.4,0.5,2.3c0.3,0.9,0.6,1.8,1.1,2.7c0.4,0.9,1,1.7,1.6,2.3c0.7,0.6,1.3,0.9,1.9,0.9s1-0.1,1.3-0.4
				c0.3-0.3,0.5-0.6,0.6-1.1c0.2-0.7,0.2-1.5,0.2-2.3c0-3.3-0.1-4.9-0.1-8.2c0-0.9-0.1-2.2-0.4-4c-0.2-1.8-0.4-3.1-0.4-4
				c0-0.1,0-0.2,0-0.3c-0.1-1-0.1-1.5-0.1-2.5c-0.2-2.9-0.3-4.3-0.5-7.2c0-0.3,0.2-0.6,0.6-0.8s0.9-0.3,1.4-0.3
				c0.5,0.4,0.8,0.6,1.3,1c0,0.3,0,0.4,0,0.7c-0.2,1-0.2,1.5-0.4,2.6c0,2.4,0.2,5.9,0.5,10.6c0.3,4.7,0.4,7.9,0.4,9.6
				c0,1.7,0,2.8-0.1,3.3c-0.1,0.6-0.2,1.2-0.4,1.8c-0.2,0.6-0.4,1.2-0.7,1.6c-0.7,1-1.8,1.4-3.3,1.5c-1.8,0.1-3.3-0.6-4.5-2.1
				c-1.3-1.5-2.2-3.4-2.9-5.6c-0.8-2.6-1.3-4.8-1.6-6.8C21.9,255.3,21.6,252.4,21.3,249.5z"/>
			<path class="st1" d="M49.7,257.1c-0.5-0.1-0.7-0.1-1.2-0.1s-0.8,0-1,0.2c-0.4,5.2-0.6,7.8-1,13c1.6,0,2.4,0.1,2.5,0.1
				c1.7,0.2,2.6,0.6,2.5,1.4c0,0.1,0,0.1,0,0.1c-0.2,0.4-0.6,0.6-1.1,0.8c-0.5,0.2-1,0.2-1.3,0.2c-0.4,0-0.9,0-1.5-0.1
				c-0.6,0-0.8-0.1-1.4-0.1c-1.1-0.1-1.8-0.3-2-0.8c-0.1-0.2-0.2-0.5-0.1-0.8c0.6-9.8,0.9-14.7,1.4-24.5c0-0.5,0-1.2-0.2-2.2
				s-0.3-1.7-0.2-2.2c0-0.1,0-0.1,0-0.1c0.6-0.7,1.1-1.2,1.4-1.4c1.6,0,2.4-0.1,4.1-0.1c0.5,0,1.1,0.2,1.6,0.5
				c0.5,0.3,0.8,0.7,0.7,1.1c-0.1,0.8-0.9,1.2-2.6,1c-0.6-0.1-0.9-0.1-1.5-0.2c-0.3,0-0.5,0-0.6,0c0,2.8-0.1,4.2-0.1,7
				c0,0.6-0.1,1.4-0.3,2.4c-0.2,1.1-0.4,2.3-0.3,2.3c0,0,0.4,0,0.7-0.1c0.7-0.1,1.2-0.1,1.6-0.1s0.7,0.2,1,0.4
				c0.3,0.3,0.4,0.6,0.4,0.9c0,0.3-0.2,0.6-0.4,0.8C50.4,257,50.1,257.1,49.7,257.1z"/>
			<path class="st1" d="M58.3,272.5c1.6-9.8,2.4-14.7,4-24.4c0.3-2.1,0.5-3.1,0.8-5.1c0.1-0.3,0.2-0.5,0.4-0.6
				c0.2-0.1,0.7-0.1,1.4,0c0.7,0.1,1.5,0.4,2.2,0.8c0.7,0.4,1.3,0.9,1.7,1.5c0.4,0.6,0.7,1.2,1,1.9c0.5,1.3,0.5,2.6,0.3,3.9
				c-0.3,1.3-1,2.9-2.2,4.4c-0.1,0.2-0.4,0.5-0.8,1.1c-0.4,0.6-0.7,0.9-0.7,1c-0.6,1.5-0.3,4.8,0.3,8.3c0.2,1.2,0.4,2.8,0.7,4.9
				c0.3,2.1,0.5,3.4,0.5,3.9v0.1c-0.2,0.9-0.4,1.4-0.7,1.5c-0.3,0.1-0.5,0.1-0.8,0.1c-0.5-0.1-1-0.6-1.4-1.4c0-0.1,0-0.1,0-0.1
				c0.4-2.5,0.2-6.5-0.7-12c-0.4-2.5-0.7-4.3-0.9-5.5c-1.1,6.6-1.7,9.8-2.8,16.4c-0.1,0.4-0.2,0.7-0.4,0.9c-0.2,0.2-0.5,0.3-0.9,0.2
				c-0.4-0.1-0.7-0.2-0.9-0.5c-0.2-0.3-0.2-0.5-0.2-0.9C58.3,272.7,58.3,272.6,58.3,272.5z M65.7,244.4c-0.7,3.4-1.1,5.1-1.7,8.4
				c-0.1,0.9-0.3,1.9-0.3,1.9c0.1,0,1.3-0.8,2-1.3c0.6-1.4,0.9-2.1,1.5-3.4c0.1-0.2,0.2-0.4,0.2-0.6c0.1-0.7,0.1-1.5-0.1-2.5
				C67,245.5,66.5,244.7,65.7,244.4z"/>
			<path class="st1" d="M87.9,250.2c-0.4-0.1-0.5-0.2-0.9-0.3c-0.3-0.1-0.6-0.1-0.8-0.1c-0.2,0.1-0.3,0.3-0.4,0.6
				c-0.8,2.6-1.7,6.6-2.9,12c-1.2,5.4-2.2,9.4-3,12c-0.2,0.6-0.3,0.9-0.5,1.6c0.3,0.1,0.6,0.1,0.9,0.2c1.2,0.4,1.7,1.1,1.4,2
				c0,0.1-0.1,0.1-0.1,0.2c-0.5,0.1-0.8,0.2-1.3,0.3c-1.2-0.3-1.8-0.5-3-0.8c-2.5-0.7-3.7-1.5-3.5-2.3c0.2-0.7,0.7-0.9,1.6-0.6
				c0.4,0.1,0.5,0.2,0.9,0.3s0.7-0.1,0.9-0.8c0.6-2.1,1.4-5.3,2.3-9.5c0.9-4.3,1.6-7.4,2.2-9.5c0.5-1.6,0.8-2.5,1.3-4.1
				c0.3-0.9,0.6-2.2,0.5-2.3c-0.1-0.1-0.9-0.1-1.3-0.2c-0.8-0.2-1.1-0.7-1-1.3c0.1-0.3,0.4-0.6,1-0.7s1.3-0.1,2.1,0
				c1.5,0.2,2.7,0.5,3.4,0.7c0.7,0.2,1.2,0.5,1.4,0.8c0.2,0.3,0.3,0.6,0.2,0.9c-0.1,0.3-0.3,0.5-0.6,0.7
				C88.6,250.3,88.3,250.3,87.9,250.2z"/>
			<path class="st1" d="M97.1,285.4c-0.9-0.4-1.1-0.9-0.8-1.6c0.9-2,1.3-3,2.2-5c-0.3-0.4-1-1-2-1.6c-1-0.6-2.3-1.6-2.8-1.6
				c-0.3,0-1,0.9-1.5,1.7c-0.5,0.8-1.1,1.6-1.6,2.4c-0.5,0.8-1.3,1.7-1.6,1.8c-0.6,0.1-1.8-1.2-1.6-1.5c0.2-0.3,2.2-2.8,5-7.1
				c2.8-4.4,5-7.7,6.8-10.1c1.7-2.4,3.4-4.3,4.9-5.8c1.5-1.5,2.7-2,3.4-1.7c0.7,0.3,1.5,0.8,1.5,1.1c0.1,0.5-1.2,3.5-2.4,7.9
				c-1.2,4.3-2.1,7-2.7,8.2c-0.5,1.2-1.3,3.2-2.2,6.1c-1,2.9-1.8,5-2.4,6.4C98.7,285.6,98.1,285.8,97.1,285.4z M100.9,272
				c0.7-2.4,1.5-4.7,2.1-6.9c0.7-2.2,1.1-3.5,1.3-3.9c0.2-0.4,0.4-0.7,0.4-0.7s-2.5,2.2-5.2,6s-4.9,7.1-4.8,7.5
				c0.1,0.5,2.1,1.4,2.9,1.7c0.8,0.4,1.7,0.7,1.8,0.7C99.7,276.3,100.2,274.4,100.9,272z"/>
		</g>
	</g>
	<g>
		<g>
			<path class="st1" d="M-77.1,514.5c1.1-2.2,1.6-3.3,2.6-5.5c-0.1-0.3-0.1-0.6,0.1-0.9c0.1-0.3,0.4-0.5,0.7-0.6s0.6-0.1,0.9,0
				c0.9,0.4,1,1.5,0.2,3.2c-2.1,5-3.2,7.6-5.3,12.6c0,0.4-0.1,1.1-0.5,2.1c-0.3,1-0.6,1.8-0.8,2.3s-0.4,1.2-0.6,2.1
				c-0.2,0.9-0.2,1.8-0.3,2.7c0,1,0.2,1.8,0.5,2.7c0.3,0.8,0.8,1.4,1.3,1.6s1,0.3,1.3,0.2c0.4-0.1,0.7-0.3,0.9-0.7
				c0.4-0.6,0.8-1.2,1.1-1.9c1.2-2.8,1.8-4.2,3-7.1c0.3-0.8,0.7-1.9,1.2-3.5s0.9-2.7,1.2-3.5c0-0.1,0.1-0.1,0.1-0.2
				c0.3-0.9,0.5-1.3,0.8-2.1c0.9-2.5,1.4-3.8,2.4-6.3c0.1-0.3,0.4-0.5,0.8-0.5c0.4-0.1,0.7,0,1.1,0.1c0.2,0.5,0.3,0.7,0.6,1.2
				c-0.1,0.2-0.1,0.4-0.2,0.6c-0.5,0.8-0.7,1.3-1.2,2.1c-0.8,2-2,5.1-3.5,9.3s-2.5,7-3.1,8.4c-0.6,1.4-1,2.4-1.3,2.8
				c-0.2,0.5-0.6,0.9-1,1.4s-0.8,0.8-1.2,1.1c-1,0.5-2.2,0.5-3.6-0.1c-1.7-0.7-2.8-2-3.3-3.7c-0.5-1.8-0.5-3.8,0-5.9
				c0.5-2.5,1.1-4.5,1.8-6.2C-79.3,519.5-78.3,517-77.1,514.5z"/>
			<path class="st1" d="M-63.8,521.2c1.2-2.6,1.8-3.9,3-6.6c0-0.1,0.1-0.1,0.1-0.2c0.5-1.2,1-1.7,1.6-1.5c0.5,0.2,0.7,1.6,0.7,4.2
				c0,4.7-0.6,12.3-1.7,22.7c0,0.1,0,0.1,0,0.2c1.9-5.1,2.9-7.7,4.8-12.8c1.6-4.4,2.4-6.6,3.9-10.9c0.4-0.6,0.9-0.7,1.6-0.5
				s0.9,0.9,0.5,1.8c0,0.1,0,0.1-0.1,0.2c-0.3,0.3-0.5,0.6-0.6,1c-2,5.4-3,8.2-5,13.6c-1.6,4.5-2.4,6.8-4,11.3
				c-0.1,0.4-0.4,0.7-0.7,1c-0.4,0.3-0.7,0.4-1.1,0.2c-0.6-0.2-0.9-3.2-0.7-8.9s0.6-11.7,1.3-18.1c-1.9,4.8-2.8,7.2-4.7,12
				c-0.5,1.2-1,2.9-1.8,5.3c-0.7,2.4-1.3,4.2-1.7,5.3c-0.1,0.2-0.3,0.4-0.7,0.4s-0.8-0.1-1.3-0.3s-0.7-0.5-0.5-0.9
				c0.5-1,0.8-1.5,1.3-2.5c0.5-1.3,1.2-3.3,2.2-6.2c1-2.9,1.6-4.7,1.8-5.3C-64.9,524-64.5,523-63.8,521.2z"/>
			<path class="st1" d="M-46.7,548.9c-0.9-0.3-1.2-0.7-1.1-1.4c0.6-2,0.9-2.9,1.5-4.9c-0.3-0.4-1-0.8-2-1.3s-2.3-1.3-2.7-1.2
				c-0.3,0-0.9,0.9-1.3,1.7c-0.5,0.8-0.9,1.5-1.4,2.3c-0.5,0.8-1.1,1.7-1.5,1.7c-0.6,0.1-1.8-1.1-1.6-1.4s2-2.6,4.4-6.8
				s4.2-7.5,5.5-9.8c1.4-2.4,2.6-4.3,3.8-5.9c1.2-1.5,2-2.2,2.5-2.1s1.1,0.5,1.2,0.7c0.1,0.5-0.8,3.4-1.4,7.5
				c-0.7,4.1-1.1,6.7-1.5,7.9c-0.3,1.2-0.8,3.1-1.3,5.9s-0.9,4.8-1.3,6.2C-45.1,548.9-45.7,549.2-46.7,548.9z M-44.7,536.1
				c0.4-2.3,0.9-4.5,1.3-6.5c0.4-2.1,0.7-3.3,0.8-3.7c0.1-0.4,0.2-0.7,0.2-0.7s-1.8,2.3-3.9,6.1s-3.9,7-3.8,7.3
				c0.1,0.4,2,1.1,2.8,1.4c0.8,0.2,1.6,0.5,1.7,0.4C-45.4,540.2-45.2,538.4-44.7,536.1z"/>
			<path class="st1" d="M-28.6,551.9c-0.1,0.1-0.1,0.1-0.2,0.2c0,0.2,0,0.4,0,0.6c-0.1,0.2-0.2,0.4-0.6,0.6
				c-0.3,0.1-0.7,0.2-1.2,0.1c-0.8-0.2-1.1-1.1-0.7-2.8c0.6-2.4,1.5-7,2.9-13.8s1.8-10.6,1.8-10.9c0-0.9,1.4-1.8,3.3-1.4
				c0.3,0.1,0.7,0.1,1.2,0.2s0.8,0.3,1.1,0.5c0.2,0.2,0.3,0.6,0.2,1.2c-0.1,0.5-0.5,0.7-1.3,0.6c-0.4-0.1-0.6-0.2-1-0.3
				c-0.7-0.2-1.1-0.1-1.2,0.2c-0.3,1.2-0.6,2.9-0.9,5.3c-0.3,2.3-1,5-0.9,5.2c0,0,0.4,0,0.7,0c0.7,0,1.3,0,1.6,0.1
				c0.3,0.1,0.6,0.3,0.8,0.5c0.2,0.3,0.2,0.6,0.2,0.9c-0.2,0.8-3.3,0.2-3.8,0.5c-0.4,0.2-0.7,3.5-1,6.3
				C-27.9,548.4-28.2,550.5-28.6,551.9z"/>
			<path class="st1" d="M-13.7,528.6c-0.3-0.1-0.4-0.1-0.7-0.2c-0.3-0.1-0.5,0-0.6,0.1s-0.3,0.3-0.3,0.6c-0.5,2.5-1.1,6.3-1.7,11.4
				s-1.2,8.9-1.7,11.4c-0.1,0.6-0.2,0.9-0.3,1.5c0.3,0,0.6,0.1,0.9,0.1c1.2,0.2,1.7,0.8,1.6,1.7c0,0.1,0,0.1,0,0.2
				c-0.5,0.2-0.7,0.3-1.2,0.5c-1.2-0.2-1.8-0.3-3-0.5c-2.6-0.5-3.8-1.2-3.6-1.9c0.1-0.6,0.6-0.8,1.5-0.6c0.4,0.1,0.5,0.2,0.9,0.3
				c0.4,0.1,0.7-0.2,0.8-0.8c0.4-2,0.9-5,1.4-9s1-7,1.4-9c0.4-1.6,0.5-2.3,0.9-3.9c0.2-0.8,0.4-2.1,0.3-2.2c-0.1-0.1-0.7,0-1,0
				c-0.6-0.1-0.9-0.5-0.7-1.1c0.1-0.3,0.3-0.5,0.8-0.7c0.4-0.1,1-0.2,1.6-0.2c1.2,0,2,0.1,2.5,0.2s0.9,0.3,1.1,0.5
				c0.2,0.3,0.3,0.5,0.2,0.8c-0.1,0.3-0.2,0.5-0.4,0.7C-13.2,528.6-13.4,528.7-13.7,528.6z"/>
			<path class="st1" d="M-7.5,543.2c-0.4-0.1-0.6-0.1-1-0.2s-0.7,0-0.9,0.1c-0.8,4.8-1.2,7.2-2,12c1.5,0.2,2.4,0.3,2.5,0.3
				c1.7,0.3,2.5,0.7,2.4,1.4c0,0.1,0,0.1,0,0.1c-0.3,0.3-0.6,0.5-1.2,0.7c-0.5,0.1-1,0.1-1.4,0.1s-0.9-0.1-1.5-0.2s-0.8-0.1-1.4-0.2
				c-1.1-0.2-1.8-0.5-2-0.9c-0.1-0.2-0.1-0.4,0-0.7c1.6-9,2.4-13.5,3.9-22.5c0.1-0.4,0.1-1.1,0.1-2c0-0.9,0-1.6,0.1-2
				c0-0.1,0-0.1,0-0.1c0.6-0.6,1-1,1.2-1.2c1.2,0.1,1.8,0.1,3,0.2c0.4,0.1,0.8,0.2,1.2,0.5c0.4,0.3,0.5,0.6,0.5,1
				c-0.1,0.8-0.8,1.1-2,0.9c-0.5-0.1-0.7-0.1-1.2-0.2c-0.2,0-0.3,0-0.4-0.1c-0.3,2.6-0.4,3.9-0.7,6.4c-0.1,0.5-0.2,1.3-0.5,2.2
				c-0.2,1-0.5,2.1-0.5,2.1s0.4,0,0.6,0c0.6,0,1.1,0,1.4,0s0.6,0.2,0.8,0.5c0.2,0.3,0.3,0.5,0.3,0.8s-0.2,0.6-0.4,0.8
				C-6.9,543.1-7.1,543.2-7.5,543.2z"/>
			<path class="st1" d="M-5.3,557.6c0.1-0.7,0.5-1,1.1-0.9c0.3,0.1,0.8,0.2,1.3,0.5s1,0.4,1.4,0.5s0.9-0.1,1.4-0.5s1-0.9,1.3-1.5
				c0.7-1.3,1.1-2.5,1.2-3.6c0.1-1.1,0-2.3-0.2-3.6c-0.3-1.3-0.6-2.5-1.1-3.7s-0.9-2.3-1.4-3.5c-1.1-2.8-1.4-5.3-1.1-7.4
				c0.3-2,1.2-3.5,2.7-4.5c0.8-0.5,1.7-0.7,2.6-0.6c0.5,0.1,0.9,0.3,1.4,0.6c0.4,0.3,0.7,0.7,0.8,1.1c-0.3,0.3-0.5,0.5-0.8,0.8
				c-0.7-0.1-1.3-0.5-1.5-0.6c-0.3-0.1-1,0.2-1.4,0.5c-0.8,0.7-1.2,1.5-1.4,2.6c-0.1,1.1-0.1,2.2,0,3.3c0.2,1.1,0.4,2.1,0.8,2.9
				c0.3,0.9,0.7,1.8,1.1,2.9c0.4,1,0.8,2,1.2,3c0.8,2.2,1.1,4.5,0.9,6.9c-0.2,1.7-0.8,3.2-2,4.7c-0.5,0.7-1.3,1.2-2.1,1.6
				c-0.9,0.4-1.8,0.5-2.8,0.4c-1.1-0.1-1.9-0.4-2.5-0.8C-5,558.2-5.3,557.9-5.3,557.6z"/>
			<path class="st1" d="M14.2,537.3c-0.2,2-0.3,3-0.5,5c-0.1,3.6-0.2,5.4-0.3,9c-0.1,2.8-0.1,4.2-0.2,7.1c-0.1,1.3-0.6,1.9-1.4,1.8
				c-0.5,0-0.8-0.3-1-0.7s-0.3-0.9-0.2-1.4c0.4-2.5,0.5-3.7,0.9-6.2c0.1-1.3,0.2-3.4,0.2-6.1c0-2.7,0.1-4.8,0.2-6.1
				c0.1-1.4,0.2-2.1,0.4-3.4c0.2-1.9,0.1-3.1-0.1-3.7c-0.9,0-1.3,0-2.2,0c-0.3,0-0.6-0.2-0.9-0.4c-0.2-0.2-0.4-0.5-0.3-0.8
				c0-0.3,0.4-0.5,1.1-0.7s1.5-0.3,2.4-0.3c1.6,0,3,0,4.1,0.1c0.3,0,0.6,0.2,0.9,0.4s0.4,0.5,0.4,0.8s-0.2,0.6-0.4,0.7
				c-0.3,0.2-0.6,0.2-0.9,0.2c-0.6-0.1-0.9-0.1-1.4-0.2c-0.2,0-0.4,0-0.4,0C14,532.8,14.3,535.6,14.2,537.3z"/>
			<path class="st1" d="M26.4,560.8c-0.9,0-1.4-0.4-1.3-1.1c0.1-2.1,0.1-3.1,0.2-5.1c-0.4-0.3-1.2-0.5-2.2-0.7
				c-1.1-0.2-2.5-0.6-2.9-0.5c-0.3,0.1-0.6,1.1-0.9,2c-0.2,0.9-0.5,1.7-0.8,2.6c-0.3,0.9-0.7,1.9-1,2c-0.6,0.3-2-0.6-1.9-0.9
				s1.3-3,2.5-7.7s2.1-8.3,2.8-10.9c0.7-2.6,1.4-4.8,2.1-6.6s1.3-2.7,1.9-2.6c0.6,0,1.2,0.2,1.3,0.4c0.2,0.5,0.1,3.5,0.5,7.6
				c0.4,4.1,0.6,6.8,0.6,8c0,1.2,0.1,3.2,0.3,6c0.2,2.8,0.3,4.9,0.3,6.3C27.9,560.4,27.4,560.8,26.4,560.8z M25,547.9
				c-0.2-2.3-0.3-4.5-0.4-6.7c-0.1-2.1-0.2-3.4-0.1-3.8c0-0.4,0.1-0.8,0.1-0.8s-1.2,2.7-2.2,7c-1,4.2-2,7.7-1.8,8
				c0.3,0.4,2.2,0.6,3,0.6s1.7,0,1.7-0.1C25.4,552,25.1,550.2,25,547.9z"/>
			<path class="st1" d="M51.5,546c0.1,0.3,0.1,0.5,0.2,0.8c0.1,1.9-0.3,4.1-1.2,6.6c-1.1,2.9-2.5,5.1-4.2,6.3c-1,0.7-2,1.1-3,1.2
				c-0.6,0-1.1-0.1-1.5-0.3c-0.5-0.2-0.8-0.7-0.7-1c0.2-0.5,0.9-2.2,0.9-4.6c0-1.5-0.2-3.6-0.6-6.5c-0.3-2.9-0.5-5-0.5-6.5
				c0-1.7,0-2.6,0-4.3c0-0.7-0.2-1.6-0.5-2.8c-0.3-1.2-0.5-2-0.5-2.5c0-0.9,1-1.4,3.1-1.4c0.2,0,0.4,0,0.6,0
				c2.8-0.1,4.8,1.3,6.2,4.2c1,2,1.6,4.9,1.8,8.5c0,0.7,0.1,1.1,0.1,1.8C51.6,545.7,51.5,545.8,51.5,546z M43.9,554.8
				c0,1.5,0.1,2.3,0.1,3.8c1.1-0.7,2-1.6,2.8-2.8s1.3-2.5,1.7-3.8c0.7-2.6,0.9-5.2,0.8-7.8c-0.2-3-0.7-5.3-1.5-6.9
				c-0.9-1.7-1.9-2.8-3.1-3.4c-0.7-0.3-1.5-0.5-2.4-0.4l0,0c0.1,2.4,0.3,5.9,0.8,10.7C43.6,548.9,43.9,552.4,43.9,554.8z"/>
			<path class="st1" d="M59,545.5c-0.4,0-0.6,0-1.1,0.1c-0.4,0-0.7,0.2-0.9,0.4c0.4,4.8,0.6,7.3,1,12.1c1.5-0.2,2.3-0.3,2.5-0.3
				c1.7-0.2,2.6,0.1,2.7,0.8c0,0.1,0,0.1,0,0.1c-0.2,0.4-0.5,0.7-1,0.9c-0.5,0.2-0.9,0.4-1.3,0.4c-0.4,0.1-0.9,0.1-1.5,0.2
				c-0.6,0-0.8,0.1-1.4,0.1c-1.1,0.1-1.8,0-2.1-0.4c-0.1-0.2-0.2-0.4-0.2-0.7c-0.7-9.1-1-13.7-1.7-22.8c0-0.4-0.2-1.1-0.4-2
				c-0.2-0.9-0.4-1.5-0.4-2c0-0.1,0-0.1,0-0.1c0.4-0.7,0.7-1.2,0.9-1.5c1.2-0.2,1.8-0.3,3-0.6c0.4,0,0.8,0,1.3,0.2
				c0.4,0.2,0.7,0.5,0.7,0.9c0.1,0.8-0.5,1.2-1.7,1.3c-0.5,0-0.7,0-1.2,0.1c-0.2,0-0.3,0-0.4,0.1c0.3,2.6,0.5,3.9,0.8,6.4
				c0,0.5,0.1,1.3,0.1,2.3s0,2.2,0.1,2.2c0,0,0.4-0.1,0.6-0.2c0.6-0.2,1-0.3,1.3-0.3s0.6,0.1,0.9,0.2c0.3,0.2,0.4,0.4,0.5,0.7
				c0,0.3,0,0.6-0.2,0.8C59.6,545.3,59.4,545.5,59,545.5z"/>
			<path class="st1" d="M74.9,557.7c-0.1-0.7,0.2-1.1,0.9-1.2c0.3,0,0.8,0,1.4,0.1c0.6,0.1,1.1,0.2,1.5,0.1s0.8-0.4,1.2-0.9
				c0.4-0.5,0.7-1.1,0.8-1.8c0.3-1.4,0.4-2.7,0.2-3.8c-0.2-1.1-0.6-2.2-1.2-3.4c-0.6-1.2-1.3-2.2-2.1-3.2c-0.8-1-1.5-2-2.3-3
				c-1.8-2.4-2.8-4.7-3.1-6.8c-0.3-2,0.1-3.7,1.3-5.1c0.6-0.7,1.4-1.1,2.3-1.3c0.5-0.1,1,0,1.5,0.2c0.5,0.2,0.9,0.5,1.1,0.8
				c-0.2,0.4-0.3,0.6-0.5,1c-0.7,0.1-1.3-0.1-1.6-0.1c-0.3,0-0.9,0.4-1.2,0.9c-0.6,0.8-0.8,1.8-0.6,2.9c0.2,1.1,0.5,2.1,0.9,3.1
				c0.5,1,1,1.9,1.5,2.6c0.6,0.8,1.2,1.6,1.9,2.4c0.7,0.9,1.3,1.7,1.9,2.5c1.4,1.9,2.3,4,2.8,6.3c0.3,1.7,0.1,3.3-0.6,5.1
				c-0.3,0.8-0.9,1.5-1.6,2.1c-0.7,0.6-1.6,1-2.6,1.1c-1.1,0.2-2,0.1-2.6,0C75.3,558.3,74.9,558,74.9,557.7z"/>
			<path class="st1" d="M96.9,554.1c-0.9,0.2-1.4,0-1.6-0.7c-0.4-2-0.7-3-1.1-5c-0.5-0.2-1.2-0.2-2.3-0.2c-1.1,0-2.6,0-2.9,0.2
				c-0.2,0.2-0.3,1.2-0.3,2.1s-0.1,1.8-0.1,2.7c0,0.9-0.2,2-0.4,2.2c-0.5,0.4-2.1-0.1-2.1-0.4c0-0.4,0.5-3.3,0.5-8.1
				c0-4.8,0-8.6,0-11.3s0.2-5,0.4-6.9c0.2-1.9,0.6-2.9,1.2-3c0.6-0.1,1.2-0.1,1.3,0.1c0.3,0.4,1,3.3,2.4,7.2
				c1.4,3.9,2.3,6.4,2.5,7.6c0.3,1.2,0.8,3.1,1.8,5.8c0.9,2.7,1.5,4.7,1.9,6.1C98.3,553.4,97.9,553.9,96.9,554.1z M92.4,542
				c-0.7-2.2-1.4-4.3-2-6.3s-1-3.2-1.1-3.7c-0.1-0.4-0.1-0.7-0.1-0.7s-0.5,2.9-0.4,7.3c0,4.4,0,8,0.3,8.2c0.3,0.3,2.3,0,3.1-0.2
				s1.6-0.4,1.7-0.5C93.8,545.9,93.1,544.2,92.4,542z"/>
			<path class="st1" d="M99.2,543c-1.6-6.2-2.4-9.3-4-15.5c0-0.1,0-0.1-0.1-0.2c-0.3-1.4-0.3-2.3,0-2.8c0.2-0.2,0.4-0.4,0.8-0.5
				c1.9-0.5,3.5-0.3,4.9,0.6c1.4,0.9,2.3,2.2,2.8,4.1c0.3,1.1,0.3,2.4,0,3.8s-1.6,3.3-1.6,3.4c0.1,0.3,3.5,1.6,4.7,3
				c1.2,1.4,2,3,2.5,4.7c0.3,0.9,0.3,1.9,0,3.1c-0.3,1.1-0.6,2-1,2.8c-0.4,0.7-1,1.4-1.7,2c-0.8,0.6-1.7,1.1-2.7,1.3
				c-0.1,0-0.1,0-0.2,0c-1.4,0.3-2.1,0.2-2.3-0.4C100.4,548.7,100,546.8,99.2,543z M97.7,526c-0.4,0.1-0.4,0.6-0.2,1.5
				c0.2,0.9,0.6,2.3,1.1,4.3c0.5,1.9,1,4.2,1.1,4.2c0.2,0.1,1.2-1,1.4-2.1c0.2-0.9,0.4-1.7,0.4-2.6c0.1-0.8,0.1-1.3,0.2-1.5
				c-0.1-0.5-0.2-0.8-0.4-1.4c-0.2-0.7-0.7-1.4-1.4-2C99.2,526,98.5,525.8,97.7,526z M106.6,548.2c0.6-1.2,0.7-2.4,0.3-3.7
				c-0.3-1.3-0.7-2.3-1.2-3.2c-0.5-0.9-0.9-1.6-1.3-2s-0.8-0.7-1.3-1c-0.6-0.3-1-0.5-1.3-0.5c-0.6,0.2-0.9,0.2-1.5,0.4
				c1,3.5,2.6,12.2,3.3,12.6C104,551,106.1,549.4,106.6,548.2z"/>
			<path class="st1" d="M120.8,535.3c0.5,1.9,0.7,2.9,1.2,4.8c0,0.1,0,0.1,0.1,0.2c0,0.7,0.2,1.5,0.5,2.3s0.4,1.6,0.3,2.5
				s-0.4,1.7-0.8,2.5c-0.5,0.8-1.1,1.3-1.9,1.6c-0.8,0.2-1.6,0.2-2.4,0c-0.8-0.3-1.5-0.7-2.1-1.3c-0.6-0.6-1.3-1.4-1.9-2.3
				c-0.6-0.9-1.1-1.8-1.6-2.8c-0.4-0.9-0.9-1.9-1.3-2.9c-0.6-1.6-1.1-2.8-1.3-3.7c-0.3-0.9-0.5-1.7-0.7-2.3s-0.4-1.2-0.5-1.7
				c-0.1-0.3-0.2-0.5-0.2-0.9c-0.1-0.3-0.2-0.6-0.3-1c-0.2-0.7-0.4-1.4-0.5-2c-0.1-0.6-0.3-1.2-0.4-1.9c-0.1-0.7-0.2-1.3-0.2-1.9
				c0-0.5,0-1.1,0.1-1.7c0.1-0.6,0.2-1.1,0.4-1.5c0.4-0.9,1.1-1.5,1.9-1.7c0.8-0.2,1.6-0.3,2.2-0.2c0.7,0.1,1.3,0.4,1.9,0.9
				s1.2,1,1.7,1.5s1,1.2,1.5,2.3c0.5,1,0.9,1.8,1.3,2.4c0.3,0.6,0.7,1.6,1.2,2.8c0.6,1.6,1.1,2.9,1.4,3.9
				C120.3,534,120.5,534.5,120.8,535.3z M112.8,522.8c-0.5-0.6-1-0.9-1.4-1.2c-0.5-0.2-0.9-0.3-1.3-0.2c-0.4,0.1-0.7,0.3-0.8,0.7
				c-0.2,0.3-0.3,0.8-0.3,1.3s0,1.1,0,1.7s0.1,1.2,0.2,2c0.1,0.7,0.3,1.4,0.4,2s0.3,1.2,0.4,1.9c0.3,1.1,0.5,2.1,0.7,2.7
				c0,0.1,0,0.1,0.1,0.2c0.5,1.7,1.2,3.5,2,5.3c0.9,1.9,1.6,3.4,2.3,4.5c0.7,1.1,1.4,2.1,2.2,2.8c0.8,0.7,1.5,1,2.2,0.7
				c0.6-0.2,0.9-0.8,1-1.9s0-2.3-0.3-3.8c-0.5-2.6-0.9-4.4-1.3-5.4c-0.3-1-0.6-1.7-0.7-2.2c-0.2-0.5-0.4-1.1-0.7-2
				c-0.3-0.9-0.6-1.7-1-2.4c-0.3-0.7-0.7-1.6-1.1-2.5s-0.8-1.7-1.3-2.4C113.7,524,113.3,523.4,112.8,522.8z"/>
			<path class="st1" d="M127.2,544.5c-2.9-8.7-4.4-13.1-7.3-21.9c-0.6-1.8-0.9-2.7-1.6-4.6c-0.1-0.3-0.1-0.5,0-0.7s0.4-0.3,0.9-0.5
				s1.1-0.3,1.8-0.2c0.6,0,1.2,0.2,1.7,0.5s1,0.7,1.5,1.1c0.9,0.8,1.5,1.9,2,3c0.4,1.2,0.7,2.7,0.5,4.5c0,0.2,0,0.6-0.1,1.2
				c0,0.6-0.1,1-0.1,1.1c0.2,1.5,2,4,4.1,6.6c0.7,0.9,1.7,2,3,3.5s2.1,2.4,2.5,2.8v0.1c0.3,0.8,0.4,1.4,0.2,1.6
				c-0.2,0.2-0.4,0.4-0.6,0.5c-0.5,0.2-1.2,0.1-1.9-0.4c0-0.1,0-0.1,0-0.1c-1-2.2-3.1-5.2-6.3-9.2c-1.5-1.8-2.5-3.2-3.1-4.1
				c2.1,5.8,3.1,8.8,5.1,14.6c0.1,0.4,0.2,0.7,0.1,1c-0.1,0.3-0.3,0.5-0.7,0.6c-0.4,0.1-0.7,0.1-1,0s-0.4-0.3-0.5-0.6
				C127.3,544.7,127.2,544.6,127.2,544.5z M120.6,518.3c1,3.1,1.5,4.6,2.4,7.6c0.3,0.8,0.6,1.7,0.6,1.7c0.1,0,0.6-1.2,0.8-1.9
				c-0.2-1.4-0.3-2.1-0.5-3.4c0-0.2-0.1-0.4-0.2-0.6c-0.2-0.6-0.6-1.3-1.2-2C122,518.6,121.3,518.2,120.6,518.3z"/>
			<path class="st1" d="M138.1,526.3c-0.4,0.1-0.6,0.2-1,0.4c-0.4,0.2-0.6,0.4-0.7,0.6c1.8,4.5,2.7,6.7,4.5,11.2
				c1.4-0.7,2.2-1,2.3-1.1c1.6-0.7,2.5-0.7,2.8-0.1c0,0,0,0.1,0.1,0.1c-0.1,0.4-0.3,0.8-0.7,1.2c-0.4,0.4-0.8,0.6-1.1,0.8
				c-0.4,0.2-0.8,0.4-1.4,0.6c-0.5,0.2-0.8,0.3-1.3,0.5c-1.1,0.4-1.8,0.5-2.2,0.2c-0.2-0.1-0.3-0.3-0.4-0.6
				c-3.3-8.5-5-12.8-8.3-21.3c-0.2-0.4-0.5-1-1-1.8c-0.5-0.8-0.8-1.3-1-1.8c0-0.1,0-0.1-0.1-0.1c0.2-0.8,0.3-1.4,0.4-1.7
				c1.1-0.6,1.6-0.9,2.7-1.5c0.4-0.2,0.8-0.2,1.3-0.2c0.5,0.1,0.8,0.3,0.9,0.6c0.3,0.7-0.1,1.3-1.3,1.8c-0.4,0.2-0.7,0.2-1.1,0.4
				c-0.2,0.1-0.3,0.1-0.4,0.2c1.1,2.4,1.6,3.5,2.7,5.9c0.2,0.5,0.4,1.2,0.8,2.2c0.3,1,0.6,2,0.7,2.1c0,0,0.3-0.2,0.5-0.4
				c0.5-0.4,0.9-0.6,1.2-0.7c0.3-0.1,0.6-0.1,0.9,0c0.3,0.1,0.5,0.3,0.7,0.6c0.1,0.3,0.1,0.6,0,0.9
				C138.6,525.9,138.4,526.1,138.1,526.3z"/>
			<path class="st1" d="M147.5,537.4c-0.3-0.6-0.1-1.1,0.5-1.4c0.3-0.1,0.8-0.2,1.4-0.3c0.6,0,1.1-0.2,1.5-0.3
				c0.4-0.2,0.7-0.5,0.9-1.2c0.3-0.6,0.3-1.3,0.3-2c-0.1-1.5-0.3-2.7-0.8-3.7s-1.1-2-2.1-2.9c-0.9-1-1.9-1.8-2.9-2.6
				c-1-0.8-2-1.5-3-2.3c-2.4-1.8-4-3.7-4.8-5.7c-0.8-1.9-0.8-3.6,0-5.2c0.4-0.9,1.1-1.5,2-1.9c0.4-0.2,0.9-0.3,1.5-0.2
				c0.5,0,1,0.2,1.3,0.5c-0.1,0.4-0.2,0.6-0.3,1.1c-0.6,0.3-1.3,0.3-1.6,0.3c-0.3,0.1-0.8,0.6-0.9,1.2c-0.3,1-0.3,2,0.2,3
				c0.4,1,1,1.9,1.7,2.8c0.7,0.8,1.4,1.5,2.2,2.1c0.8,0.6,1.6,1.2,2.5,1.8c0.9,0.7,1.8,1.3,2.6,1.9c1.9,1.4,3.3,3.2,4.4,5.4
				c0.7,1.5,1,3.2,0.7,5c-0.1,0.9-0.5,1.7-1,2.5c-0.6,0.8-1.3,1.4-2.3,1.8c-1,0.4-1.9,0.7-2.6,0.7
				C148.1,537.8,147.7,537.7,147.5,537.4z"/>
		</g>
	</g>
	<g>
		<polygon class="st2" points="29.4,506.7 17.8,515.5 17.8,483.1 29.4,483.1 		"/>
		<polygon class="st3" points="52.5,515.5 40.9,506.7 40.9,483.1 52.5,483.1 		"/>
		<rect x="29.4" y="483.1" class="st0" width="11.6" height="23.6"/>
	</g>
	<g>
		<g>
			<path class="st1" d="M-238.4,416.3c-1.8,1.8-3.6,3.7-5.4,5.5c1.2,2.3,2.4,4.5,3.6,6.8c-2.3-1.1-4.6-2.3-6.9-3.4
				c-1.8,1.9-3.6,3.7-5.3,5.6c0.4-2.5,0.7-5.1,1.1-7.6c-2.3-1.1-4.6-2.2-6.9-3.3c0.7-0.1,1.4-0.2,2.1-0.4c1.7-0.3,3.4-0.6,5.1-0.9
				c0.2,0,0.3-0.1,0.4-0.4c0.3-2.4,0.6-4.7,1-7.1c0,0,0-0.1,0-0.2c0.5,0.9,0.9,1.7,1.3,2.5c0.7,1.4,1.5,2.7,2.2,4.1
				c0.1,0.2,0.1,0.3,0.4,0.2C-243.3,417.2-240.9,416.8-238.4,416.3z"/>
		</g>
		<g>
			<path class="st1" d="M292.9,416.3c1.8,1.8,3.6,3.7,5.4,5.5c-1.2,2.3-2.4,4.5-3.6,6.8c2.3-1.1,4.6-2.3,6.9-3.4
				c1.8,1.9,3.6,3.7,5.3,5.6c-0.4-2.5-0.7-5.1-1.1-7.6c2.3-1.1,4.6-2.2,6.9-3.3c-0.7-0.1-1.4-0.2-2.1-0.4c-1.7-0.3-3.4-0.6-5.1-0.9
				c-0.3,0-0.3-0.1-0.4-0.4c-0.3-2.4-0.6-4.7-1-7.1c0,0,0-0.1,0-0.2c-0.4,0.9-0.9,1.7-1.3,2.5c-0.7,1.4-1.5,2.7-2.2,4.1
				c-0.1,0.2-0.1,0.3-0.4,0.2C297.8,417.2,295.4,416.8,292.9,416.3z"/>
		</g>
	</g>
	<g>
		<g>
			<path class="st1" d="M252.6,305.9c-0.4-1.3-0.7-1.9-0.7-1.9l-0.4,0.1c0,0,0.2,0.7,0.4,2c0.2,1.3,0.5,3.2,0.5,5.6
				c-0.1,2.4-0.4,5.3-1.6,8.3c-1.2,3-3.2,6.1-6.1,8.9c-2.9,2.8-6.5,5.2-10.8,7.1c-4.2,1.9-8.9,3.3-14,4.2c-10,1.9-21.3,1.7-32.1-0.6
				c-5.4-1.1-10.8-2.7-15.9-4.6c-5.1-1.9-10-4.3-15-6.2c-9.9-3.9-19.6-6.5-28.2-6.8c-4.3-0.2-8.2,0.4-11.6,1.6
				c-3.2,1.3-5.8,2.8-7.9,4.1c-0.3,0.2-0.5,0.3-0.8,0.5c0,0,0,0-0.1,0c-5.1,2.9-9.2,5.9-14.3,10.6c-0.5,0.4-1.1,1.1-1.7,1.5
				l-2.2-2.1c0.3-0.5,1.1-1.3,1.5-1.7c12-12.3,26.3-20,43.8-19.6c6.6,0.1,13.2,2.2,19.6,4c9.8,2.8,19.4,6.5,29.3,9
				c9,2.3,18.2,2,26.8-2.2c9.7-4.7,16.7-16,11-27.8c-2.5-5.2-6.7-8.5-12.2-9.1c-6.4-0.7-12.6,0.5-16.6,6.4c-3.4,5-4.9,10.5-2.7,16.5
				c2.1,5.6,7.4,7.6,11.7,4.5c-6.7,1.3-10.5-1.7-11.1-8.6c-0.7-8.1,5.8-15.4,14.5-16.5c7.2-0.9,14.6,4.6,15.8,11.6
				c1.3,8.1-4.5,16.7-13.6,19.9c-8,2.9-16.3,2.8-24.4,0.8c-11.2-2.7-22.3-6.1-33.5-9.1c-19.7-5.3-37.1-0.3-52.5,12.4
				c-3,2.5-6,5.5-8.9,8.2c-5.7-5.3-7.1-14.6-3.5-20.5c2.7-4.3,6-5,11.7-2.7c-3.9-4.1-9.8-3.4-13.4,1.5c-4.1,5.4-4.4,14.6,0.3,21.3
				c1,1.7,2.2,3.2,2.2,3.2s-1.7,2.1-3,4.2c-2.1,3.2-3,4.7-4.7,7.7l9-10.4c0.8,0.7,1.9,2,1.9,2s-1.5,2.4-3.8,7.1
				c1.8-1.9,3.5-3.8,5.5-6c2.8,1.7,5.4,3.5,8.3,4.9c10.2,4.9,20.8,6,31.6,2.9c2.7-0.8,5.4-2.1,7.8-3.7c4.8-3.2,7.5-7.7,6.5-13.6
				c-0.8-4.9-3.4-8.3-7.5-10.2c5.9,1.4,12.1,3.5,18.3,6.2c4.8,2,9.6,4.5,14.9,6.7c5.2,2.1,10.6,3.9,16.2,5.2
				c11.1,2.6,22.8,3.5,33.5,1.7c5.4-0.9,10.5-2.5,15-4.7c4.5-2.2,8.5-5.1,11.5-8.4c3-3.3,5-7.1,5.9-10.5c1-3.5,1.1-6.7,0.8-9.2
				C253.6,309,253,307.1,252.6,305.9z M142.6,335.1c0.8,4.2-1.7,8.4-6.4,11.1c-11.5,6.8-32.1,4.6-42.4-4.7
				c5.9-6.1,12.7-10.8,20.5-14c5.9-2.4,12-3.7,18.3-2C137.5,326.9,141.6,329.6,142.6,335.1z"/>
		</g>
		<g>
			<path class="st1" d="M-177.5,311.6c-0.3,2.5-0.2,5.7,0.8,9.2s2.9,7.2,5.9,10.5c3,3.3,6.9,6.2,11.5,8.4c4.6,2.2,9.6,3.8,15,4.7
				c10.8,1.8,22.4,0.9,33.5-1.7c5.6-1.3,11-3.1,16.2-5.2c5.2-2.1,10-4.7,14.9-6.7c6.3-2.7,12.5-4.8,18.3-6.2
				c-4.1,2-6.7,5.3-7.5,10.2c-0.9,5.9,1.8,10.4,6.5,13.6c2.4,1.6,5.1,2.9,7.8,3.7c10.9,3.1,21.5,2,31.6-2.9c2.8-1.4,5.4-3.2,8.3-4.9
				c2,2.1,3.8,4.1,5.5,6c-2.3-4.6-3.8-7.1-3.8-7.1s1.1-1.3,1.9-2l9,10.4c-1.7-3-2.6-4.5-4.7-7.7c-1.3-2.1-3-4.2-3-4.2
				s1.2-1.6,2.2-3.2c4.7-6.7,4.3-15.9,0.3-21.3c-3.7-4.9-9.5-5.5-13.4-1.5c5.7-2.3,9-1.6,11.7,2.7c3.7,5.8,2.2,15.2-3.5,20.5
				c-2.9-2.7-5.8-5.7-8.9-8.2C-36.9,316-54.2,311-73.9,316.3c-11.2,3-22.3,6.3-33.5,9.1c-8.1,2-16.4,2-24.4-0.8
				c-9.1-3.2-14.9-11.8-13.6-19.9c1.2-7,8.6-12.5,15.8-11.6c8.7,1,15.2,8.4,14.5,16.5c-0.6,6.9-4.4,9.9-11.1,8.6
				c4.3,3.1,9.7,1.1,11.7-4.5c2.2-6,0.6-11.4-2.7-16.5c-4-6-10.2-7.1-16.6-6.4c-5.6,0.6-9.7,3.9-12.2,9.1
				c-5.7,11.8,1.3,23.1,11,27.8c8.7,4.2,17.8,4.6,26.8,2.2c9.9-2.5,19.5-6.2,29.3-9c6.4-1.8,13-3.9,19.6-4
				c17.5-0.3,31.8,7.3,43.8,19.6c0.4,0.4,1.3,1.2,1.5,1.7l-2.2,2.1c-0.6-0.4-1.2-1.1-1.7-1.5c-5.1-4.7-9.1-7.7-14.3-10.6
				c0,0,0,0-0.1,0c-0.3-0.2-0.5-0.3-0.8-0.5c-2.1-1.3-4.7-2.8-7.9-4.1c-3.3-1.2-7.3-1.7-11.6-1.6c-8.6,0.3-18.3,2.9-28.2,6.8
				c-5,1.9-9.9,4.4-15,6.2c-5.1,1.9-10.5,3.5-15.9,4.6c-10.9,2.2-22.1,2.4-32.1,0.6c-5-0.9-9.8-2.3-14-4.2
				c-4.2-1.9-7.9-4.3-10.7-7.1c-2.8-2.8-4.9-5.9-6.1-8.9c-1.2-3-1.5-5.9-1.6-8.3s0.2-4.3,0.5-5.6c0.2-1.3,0.4-2,0.4-2l-0.4-0.1
				c0,0-0.3,0.6-0.7,1.9C-176.7,307.1-177.2,309-177.5,311.6z M-56.4,325.6c6.3-1.7,12.4-0.4,18.3,2c7.8,3.2,14.6,7.9,20.5,14
				c-10.3,9.3-30.8,11.5-42.4,4.7c-4.7-2.8-7.2-7-6.4-11.1C-65.3,329.6-61.2,326.9-56.4,325.6z"/>
		</g>
	</g>
	<g>
		<path class="st1" d="M-224.5,491.9l-1.5,0.4l0.5-1.4c1.8-4.6,2.7-7,4.4-11.4V363.1c-1-2.5-1.7-4.2-2.5-6.1c-1.9-0.2-4-0.5-6.4-0.8
			c1.8,4.4,2.6,6.6,4.4,11c0,38.9,0,77.8,0,116.7c-1.8,4.6-2.7,6.9-4.4,11.6c9.8-2.5,14.7-3.7,24.5-6c-0.4-0.7-0.7-1.3-0.9-1.9
			C-212.6,488.9-217.2,490-224.5,491.9z"/>
		<path class="st1" d="M-204,398.1v19.6c3,10.2,5.7,19,9.6,31.5c1-3.5,1.9-6.7,2.8-9.6C-196.4,424.3-199.4,414.3-204,398.1z"/>
		<path class="st1" d="M-189.2,390.8c2.9-9.5,4.9-15.9,7.3-23.9l1.6-5.2c-1-0.1-2-0.2-3-0.3c-3,9.9-5.1,16.4-7.4,24.2
			C-190.2,387.2-189.7,388.9-189.2,390.8z"/>
		<path class="st1" d="M-177.6,480.7l-1.5,0.3l0.6-1.4c1.7-4.2,2.6-6.3,4.3-10.3l-0.2-71.2c-1.6,5.3-3.1,10-4.5,14.5
			c0,20.3,0.1,40.7,0.1,61c-1.8,4.1-2.6,6.2-4.4,10.4c9.7-2.1,14.6-3.2,24.3-5c-0.4-0.8-0.8-1.5-1.1-2.1
			C-165.6,478.1-170.1,479-177.6,480.7z"/>
		<path class="st1" d="M-144.8,474l-1.5,0.3l0.6-1.4c1.7-3.9,2.6-5.8,4.3-9.5l-0.2-93.7c-0.9-1.8-1.6-3.2-2.3-4.7
			c-2.1-0.2-4.3-0.4-6.7-0.6c1.8,3.8,2.7,5.6,4.4,9.3c0.1,31.3,0.1,62.7,0.2,94c-1.8,3.8-2.6,5.7-4.4,9.7c18.2-3.4,27.3-4.8,45.5-7
			c0.3-1,0.5-2,0.8-2.9C-119.6,469.5-128.6,471-144.8,474z"/>
		<path class="st1" d="M-124.5,375.4v3.7c4.4,0.2,8,0.4,13.5,0.7c4.2,1.6,6.3,2.4,10.6,3.9c0-2,0-3.7,0-5.3c-1.6-0.6-3.3-1.2-5.4-2
			C-113.3,376-117.2,375.8-124.5,375.4z"/>
		<path class="st1" d="M-124.4,405.1v3.4c3.3,0,6.2,0,10.4-0.1c4.2,1.2,6.3,1.9,10.6,3c0-1.8,0-3.4,0-4.9c-1.6-0.5-3.2-0.9-5.4-1.6
			C-115.1,405-118.4,405-124.4,405.1z"/>
		<path class="st1" d="M-86.5,465.6l-1.9,0.2l1.2-1.5c3-3.7,4.5-5.4,7.4-8.9c6.6-18,10.1-26,16.5-40.3l0.4-0.8l-0.6-1.3
			c-6.3-14-9.7-21.8-16.3-39.4c-1.6-1.7-2.7-3-3.9-4.4c-2.5-0.1-5.1-0.3-8.2-0.5c3,3.6,4.5,5.3,7.5,8.7c6.8,18.3,10.2,25.9,17,41.1
			c-6.8,15.3-9.8,21.7-16.6,40.3c-3,3.5-5.8,6.5-8.8,10.2c9.7-1,15.5-1.4,25.2-2c-0.2-1.2-0.4-2.2-0.5-3.1
			C-74.2,464.4-78.8,464.8-86.5,465.6z"/>
		<path class="st1" d="M-55.7,391.8c0.4,1,0.8,2,1.3,3c3.2-7.4,5.1-11.7,8.4-20.3c-0.2-1.4-0.4-2.5-0.6-3.6
			c-1.6-0.1-3.3-0.1-5.2-0.2c0.5,3.4,0.8,5,1.4,8.1C-52.6,384.3-54.1,388-55.7,391.8z"/>
		<path class="st1" d="M-46.5,462.9h-1l0.2-1c0.5-3.3,0.8-4.9,1.3-7.9c-3.4-8.6-5.2-13-8.4-20.3c-1.1,2.7-2.1,5-3.1,7.3
			c2.4,5.5,4.1,9.8,7,17.1c-0.5,3.2-0.8,4.8-1.4,8.1c9.8-0.4,14.6-0.5,24.4-0.8c-1.2-1.3-2.1-2.3-3-3.2
			C-35.6,462.5-40,462.6-46.5,462.9z"/>
		<path class="st1" d="M-13.6,461.9H-15l0.6-1.2c1.7-3.3,2.6-4.9,4.3-7.9v-77.1c-0.9-1.5-1.5-2.7-2.2-3.9c-2,0-4.2-0.1-6.7-0.1
			c1.8,3.3,2.7,4.9,4.4,8c0,25.8,0,51.7,0,77.5c-1.8,3.1-2.7,4.7-4.4,8c9.8-0.2,14.6-0.3,24.4-0.4c-0.7-1.3-1.3-2.4-1.9-3.3
			C-2.1,461.6-6.6,461.7-13.6,461.9z"/>
		<path class="st1" d="M58.8,380.1c-9.3,0.1-14.1,0.1-23.2,0.1v3.4c6,0,10.6,0,18-0.1c4.2,1.2,6.3,1.8,10.6,3c0-1.9,0-3.4,0-4.9
			C62.5,381.2,60.9,380.7,58.8,380.1z"/>
		<path class="st1" d="M23.7,461.4h-0.5L23,461c-1.8-3.2-2.7-4.8-4.4-7.8l-0.1-0.2v-77.3l0.1-0.2c0.7-1.3,1.3-2.3,1.9-3.2
			c-0.7,0-1.3,0-2,0c-1.8,3.2-2.7,4.8-4.4,7.9c0,25.6,0,51.3,0,76.9c1.8,3,2.7,4.6,4.4,7.9c16.5-0.1,24.8,0,41.3,0.2
			c0.4-1.3,0.7-2.4,1-3.5C46.2,461.3,38.3,461.3,23.7,461.4z"/>
		<path class="st1" d="M72.9,461.7h-1.6l1-1.2c2.4-3.1,3.7-4.6,6.2-7.7c3.4-13.9,7.2-28,10.9-41.6c3.5-13,7.1-26.4,10.4-39.6
			c-0.2-0.2-0.3-0.4-0.4-0.6c-2.2,0.1-4.6,0.2-7.4,0.2c1.4,1.8,2,2.6,3.4,4.4c-6.8,27.4-14.2,52.2-21,79.6c-2.5,3-5.5,6.6-8,9.8
			c9.8,0.2,15.8,0.4,25.5,0.8c-0.4-1.4-0.8-2.6-1.1-3.6C84.8,462,80.3,461.9,72.9,461.7z"/>
		<path class="st1" d="M111.9,410.3c-0.9-3.2-1.6-5.8-2.5-9.2c-1,3.8-1.8,6.6-2.8,10.3c0.2,0.7,0.4,1.4,0.6,2.1h5.6L111.9,410.3z"/>
		<path class="st1" d="M121.4,463.3h-1l0.3-1c1.1-3.2,1.6-4.8,2.7-7.8c-3-12.9-4.6-18.8-7.5-29.4c-5.1,0-8-0.1-13.1-0.1
			c-0.3,1.2-0.6,2.4-0.9,3.5c3,0,5.5,0.1,9.4,0.1c3.1,11.3,4.6,17,7.7,30.2c-1.1,3.1-1.6,4.7-2.7,8c9.8,0.4,14.7,0.8,24.5,1.6
			c-1.2-1.6-2.1-2.9-2.9-4.1C132.5,463.8,128.1,463.6,121.4,463.3z"/>
		<path class="st1" d="M151,465.3l-1.2-0.1l0.6-1.1c1.7-3.2,2.6-4.7,4.3-7.7c0-18.6-0.1-37.2-0.1-55.8l-0.1-27.8
			c-1-1.7-1.7-3-2.5-4.4c-2,0.1-4.1,0.2-6.5,0.4c1.8,3.3,2.7,4.9,4.4,8c0.1,28,0.1,56,0.2,83.9c-1.8,3.1-2.7,4.7-4.5,7.9
			c9.8,0.9,14.7,1.4,24.6,2.7c-0.8-1.7-1.5-3.1-2.1-4.3C162.6,466.4,158.1,465.9,151,465.3z"/>
		<path class="st1" d="M189,469.8l-1.1-0.2l0.5-1c1-1.9,1.6-2.9,2.6-4.6c-5.4-16.7-11.7-34.2-19.1-53.4v5.4c0,3.8,0,7.2,0,10.6
			c5.2,13.8,10.1,27.7,14.7,41.7c-1.1,2-1.6,2.9-2.7,4.9c9.8,1.4,14.8,2.2,24.5,4c-0.9-1.9-1.5-3.3-2.2-4.7
			C200.5,471.5,196.1,470.8,189,469.8z"/>
		<path class="st1" d="M188,408.1c1.5,4.1,3.1,8.2,4.6,12.4l-0.2-49.8c-1-1.9-1.8-3.3-2.6-4.8c-1.9,0.2-4,0.3-6.4,0.5
			c1.8,3.4,2.7,5,4.5,8.3C187.9,388.9,187.9,398.1,188,408.1z"/>
		<path class="st1" d="M218.6,474.7l-1.3-0.2l7-8.8c6.8-33,14.1-68.3,20.7-103.3l-1.1-1.5c-2,0.2-4.2,0.4-6.8,0.7
			c1.4,2,2.1,2.9,3.4,4.9c-6.5,34.7-13.2,67.3-20.4,101.8c-2.5,3.2-5.4,6.7-7.9,9.9c9.8,1.8,15.9,2.9,25.6,5
			c-0.5-1.9-0.9-3.4-1.3-4.8C230.6,477,226,476.1,218.6,474.7z"/>
		<path class="st1" d="M254.7,400.4c-1,5.1-1.7,8.8-2.6,13.6c0.2,1.3,0.5,2.6,0.8,3.9c1.8,0.1,3.3,0.2,5.4,0.3
			C256.8,411.1,255.9,406.7,254.7,400.4z"/>
		<path class="st1" d="M266.8,485.4l-0.8-0.2l2.8-9.9c-3.1-17.4-4.6-25.7-7.6-41.1c-5-0.6-7.9-0.9-12.9-1.4
			c-0.3,1.4-0.5,2.6-0.8,3.9c2.9,0.3,5.4,0.6,9,1c3.1,16.2,4.7,24.6,7.7,41.8c-1.1,3.7-1.6,5.6-2.6,9.3c9.6,2.4,14.3,3.7,23.8,6.5
			c-1.1-2.3-2-4-2.9-5.7C277.7,488.2,273.4,487.1,266.8,485.4z"/>
	</g>
	<g>
		<path class="st0" d="M-155.6,466.4l-0.9-1.9l-0.2-98.5l4-7.9c-8.9-0.8-13.6-1.3-22.5-2.2l-2.9,9.3c-2.7,8.7-4.8,15.4-8.1,26.4
			l-0.8,2.5l-0.8-2.5c-4.5-14.8-6.7-22.4-11.1-38.3c-8.8-1-13.6-1.6-22.4-2.7c1.5,3.7,2.3,5.8,3.9,9.8l0.1,0.3v116.9l-0.1,0.1
			c-1.6,4.1-2.5,6.4-3.9,10.2c8.4-2.1,13.2-3.3,22-5.4c-1.5-3-2.4-4.8-4-8.1l-0.1-0.4l-0.1-89.3l1.6,5.5c5.9,20.7,9.1,31.2,15,50.1
			c5.7-20,8.8-30.3,14.8-49.6l1.5-4.9l0.2,81.9l-0.1,0.1c-1.6,3.6-2.4,5.7-3.8,9c8.7-1.9,13.4-2.9,21.8-4.5
			C-153.7,470-154.5,468.4-155.6,466.4z"/>
		<path class="st0" d="M-94.2,449.5c-3.2,1.3-5.2,2.2-9,3.9l-0.2,0.1c-7.8,0.9-11.6,1.4-19.5,2.5l-0.9,0.1l-0.1-54.6h0.8
			c6.6-0.1,9.9-0.1,16.5-0.1h0.1h0.1c3.9,1.1,6,1.7,9.5,2.8V389c-3.6,1-5.7,1.6-9.5,2.7h-0.1l-17.4-0.3v-19.7h0.8
			c7.8,0.4,11.7,0.7,19.6,1.1l0.2,0.1c3.9,1.4,5.9,2.2,9.5,3.5v-13.6c-19.2-1.2-29-1.9-48-3.6c1.4,3,2.3,4.8,3.8,8l0.1,0.3l0.2,94.2
			l-0.1,0.2c-1.5,3.3-2.4,5.2-3.8,8.3c16.7-3.1,25.7-4.5,43.5-6.7C-96.5,457.8-95.6,454.6-94.2,449.5z"/>
		<path class="st0" d="M-43.5,459.2c8.5-0.3,13.2-0.5,21.7-0.7c-2.3-2.4-3.7-3.9-6.3-6.5l-0.2-0.3c-5.6-14.2-8.8-21.2-13.7-31.9
			c-1-2.2-2.1-4.6-3.3-7.3l-0.1-0.3l0.1-0.3c1.2-2.6,2.3-5,3.3-7.3c4.9-10.7,8.1-17.7,13.7-31.9l0.2-0.3c2.5-2.6,4-4.1,6.3-6.5
			c-8.4-0.2-13.1-0.4-21.7-0.7c0.4,2.7,0.7,4.3,1.2,7.2v0.2l-0.1,0.2c-3.6,9.4-5.5,13.8-9.2,22.3l-0.7,1.7l-0.7-1.7
			c-3.6-8.4-5.4-12.8-9.2-23l-0.1-0.2v-0.2c0.5-2.9,0.8-4.5,1.2-7.2c-8.6-0.4-13.3-0.6-21.7-1.1c2.3,2.7,3.7,4.3,6.3,7.2l0.2,0.3
			c6.6,17.7,10,25.4,16.3,39.4l0.9,2l-0.7,1.5c-6.6,14.8-9.9,22.2-16.5,40.3l-0.1,0.3c-2.6,3-4,4.7-6.3,7.4
			c8.5-0.8,13.2-1.2,21.6-1.7c-0.5-2.8-0.7-4.3-1.2-7.2v-0.2l0.1-0.2c3.6-9.7,5.4-14,9.2-23.1l0.7-1.7l0.7,1.7
			c3.7,8.4,5.5,12.8,9.2,22.3l0.1,0.2v0.2C-42.8,454.8-43.1,456.4-43.5,459.2z"/>
		<path class="st0" d="M7.8,451.1l-0.1-0.2v-77.5l0.1-0.2c1.5-2.7,2.4-4.2,3.8-6.7c-8.3-0.1-13.1-0.2-21.7-0.4
			c1.4,2.5,2.2,4.1,3.8,6.8l0.1,0.2v78l-0.1,0.2c-1.5,2.7-2.4,4.3-3.8,6.8c8.4-0.2,13.1-0.3,21.7-0.4
			C10.2,455.3,9.3,453.8,7.8,451.1z"/>
		<path class="st0" d="M26.3,366.7c-1.6,2.9-2.5,4.5-4.1,7.3v25.4v51c1.6,2.8,2.5,4.4,4.1,7.3c4.4,0,8.3,0,11.8,0
			c8.9,0,16.4,0.1,28.4,0.3c1.5-5.1,2.3-7.9,3.8-12.6c-3.3,0.9-5.4,1.5-9.2,2.6H61h-0.1c-9.6-0.1-14.4-0.1-24-0.1h-0.8v-71.3h0.8
			c9.6,0,14.4,0,24-0.1H61h0.1c3.9,1.1,6,1.7,9.6,2.7v-12.7C52.3,366.7,43.6,366.8,26.3,366.7z"/>
		<path class="st0" d="M141.1,453.7l-0.1-0.3c-3.6-14.9-7.5-29.9-11.3-44.5c-3.4-13.1-6.9-26.7-10.2-40.1l-0.1-0.4l0.2-0.3
			c1-1.3,1.6-2.2,2.5-3.3c-8.1,0.3-12.8,0.5-21.1,0.8c0.8,1,1.4,1.9,2.5,3.1l0.2,0.3l-0.1,0.4c-3.3,13.4-7,26.9-10.5,40
			c-3.7,13.6-7.5,27.8-11,41.7l-0.2,0.3c-2.2,2.7-3.5,4.2-5.3,6.5c8.4,0.2,13.1,0.3,21.7,0.6c-0.8-2.6-1.3-4.2-2.2-7l-0.1-0.2v-0.2
			c3-12.7,4.5-18.2,7.5-29.2l0.2-0.8h0.6c5.7,0,8.6,0.1,14.3,0.1h0.6l0.2,0.6c3,11,4.6,16.9,7.7,30.3v0.2l-0.1,0.2
			c-1,2.8-1.5,4.4-2.4,7c8.6,0.4,13.3,0.7,21.8,1.4C144.5,458.3,143.3,456.7,141.1,453.7z M106,413l0.9-3.2c1.4-5,2.3-8.2,3.8-14.1
			l0.8-2.9l0.8,2.9c1.3,5,2.2,8.1,3.3,12.1l1.4,5.2H106z"/>
		<path class="st0" d="M210.5,461.6l-0.1-0.3l-0.5-94.1l0.1-0.2c1.6-3.2,2.4-5,3.8-8c-8.6,0.7-13.3,1.1-21.8,1.8
			c1.4,2.7,2.3,4.3,3.9,7.2l0.1,0.4l0.3,59.1l-1.6-4.3c-2.7-7.4-5.4-14.7-8.1-22.1c-4.2-11.3-8.5-22.9-12.6-34.5l-0.1-0.3l0.2-0.3
			c0.9-1.7,1.4-2.7,2.1-4.1c-8.6,0.6-13.4,0.9-21.8,1.4c1.4,2.6,2.3,4.1,3.8,6.9l0.1,0.2l0.1,28.2c0,18.7,0.1,37.3,0.1,56v0.2
			l-0.1,0.2c-1.6,2.7-2.4,4.3-3.9,6.8c8.5,0.8,13.3,1.3,21.9,2.4c-1.4-2.8-2.3-4.6-3.8-7.6l-0.1-0.4c-0.1-18.5-0.1-28-0.1-42.2
			v-13.9l1.5,3.9c8.1,20.9,15,39.8,20.8,57.8l0.1,0.3l-0.2,0.3c-0.9,1.6-1.4,2.5-2.2,3.9c8.6,1.3,13.4,2,21.9,3.6
			C213,466.8,212.1,464.9,210.5,461.6z"/>
		<path class="st0" d="M286.1,477.2L286,477c-6.4-37.7-13.4-76.5-21.5-118.4l-0.1-0.3l0.1-0.3c1.1-1.8,1.7-2.9,2.6-4.5
			c-8.2,0.9-12.9,1.4-21.2,2.3l2.8,4.1l-0.1,0.3c-6.6,35.2-13.9,70.7-20.8,103.8l-0.2,0.3l-5.4,6.9c8.6,1.6,13.3,2.6,21.8,4.5
			c-0.8-3.2-1.4-5.2-2.3-8.7v-0.2l3.1-15.7c1.3-6.6,2.5-12.7,4.2-21.5l0.1-0.7l0.7,0.1c5.7,0.6,8.5,0.9,14.2,1.5l0.6,0.1l0.1,0.6
			c3,15.8,4.6,24,7.7,41.8v0.2l-2.5,8.7c8.6,2.2,13.2,3.5,21.3,5.8C289.4,483.8,288.2,481.4,286.1,477.2z M261.2,417.8
			c-3.5-0.2-5.3-0.3-8.8-0.6l-0.9-0.1l0.2-0.9c1.7-8.8,2.6-13.3,4.3-22.4l0.8-4l0.8,4c1.8,9.1,2.7,13.6,4.5,22.9l0.2,1L261.2,417.8z
			"/>
	</g>
</g>
</svg>
