<?xml version="1.0" encoding="utf-8"?>
<!-- Generator: Adobe Illustrator 19.1.0, SVG Export Plug-In . SVG Version: 6.00 Build 0)  -->
<svg version="1.1" id="Layer_1" xmlns="http://www.w3.org/2000/svg" xmlns:xlink="http://www.w3.org/1999/xlink" x="0px" y="0px"
	 viewBox="0 0 309.8 180.4" style="enable-background:new 0 0 309.8 180.4;" xml:space="preserve">
<style type="text/css">
	.st0{fill:#D66F87;}
	.st1{fill:#711B1D;}
	.st2{fill:#FFFFFF;}
	.st3{fill:#292660;}
	.st4{fill:#00ACEC;}
	.st5{fill:#71B452;}
	.st6{fill:#AA252A;}
	.st7{fill-rule:evenodd;clip-rule:evenodd;fill:#00ACEC;}
	.st8{fill:#38673D;}
	.st9{fill:#9EC54C;}
	.st10{fill-rule:evenodd;clip-rule:evenodd;fill:#6BB476;}
	.st11{fill-rule:evenodd;clip-rule:evenodd;fill:#D66F87;}
	.st12{fill:#D35A2F;}
	.st13{fill:#E8AE4A;}
	.st14{fill-rule:evenodd;clip-rule:evenodd;fill:#E8AE4A;}
	.st15{fill:#38271B;}
	.st16{fill:#B8986D;}
	.st17{fill-rule:evenodd;clip-rule:evenodd;fill:#B8986D;}
	.st18{fill:#E0922E;}
	.st19{fill:#F9F2B6;}
	.st20{fill-rule:evenodd;clip-rule:evenodd;fill:#F9F2B6;}
	.st21{fill:#32338E;}
	.st22{fill-rule:evenodd;clip-rule:evenodd;fill:#D694BC;}
	.st23{fill-rule:evenodd;clip-rule:evenodd;fill:#38673D;}
	.st24{fill:#5AA69C;}
	.st25{fill:#39665D;}
	.st26{fill-rule:evenodd;clip-rule:evenodd;fill:#39665D;}
	.st27{fill-rule:evenodd;clip-rule:evenodd;fill:#5AA69C;}
	.st28{fill:#6C1E52;}
	.st29{fill-rule:evenodd;clip-rule:evenodd;fill:#6C1E52;}
	.st30{fill:#D694BC;}
	.st31{fill-rule:evenodd;clip-rule:evenodd;fill:#9EC54C;}
	.st32{fill-rule:evenodd;clip-rule:evenodd;fill:#D35A2F;}
	.st33{fill-rule:evenodd;clip-rule:evenodd;fill:#38271B;}
	.st34{fill-rule:evenodd;clip-rule:evenodd;fill:#292660;}
	.st35{fill-rule:evenodd;clip-rule:evenodd;fill:#711B1D;}
	.st36{fill-rule:evenodd;clip-rule:evenodd;fill:#E0922E;}
	.st37{fill-rule:evenodd;clip-rule:evenodd;}
	.st38{fill-rule:evenodd;clip-rule:evenodd;fill:#FFFFFF;}
</style>
<g>
	<path d="M151.3,30.9v25.8h4.5l2.4-1l-1,4.5h-10.4l1-2.4V30.9l-1-2.4h5.5L151.3,30.9z"/>
	<path d="M159,60.2l1.4-2.4l4.9-28l-0.8-1.3h5.5l-0.8,1.3l4.9,28l1.4,2.4H170l0.6-2.4l-1.7-9.9h-3.3l-1.7,9.9l0.6,2.4H159z
		 M168.3,44.3l-1-5.8l-1,5.8H168.3z"/>
</g>
<g>
	<g>
		<path class="st1" d="M123.1,11.2c0.4,1.1,0.6,1.6,1.1,2.7c0.9,1.9,1.4,2.9,2.2,4.8c0.7,1.5,1.1,2.2,1.8,3.7
			c0.3,0.7,0.2,1.1-0.2,1.3c-0.3,0.1-0.5,0.1-0.7-0.1c-0.2-0.2-0.4-0.4-0.5-0.7c-0.5-1.4-0.8-2.1-1.3-3.4c-0.3-0.7-0.8-1.8-1.6-3.2
			c-0.7-1.4-1.3-2.5-1.6-3.2c-0.3-0.7-0.5-1.1-0.8-1.9c-0.4-1-0.8-1.6-1.1-1.8c-0.6,0.3-0.9,0.5-1.4,0.8c-0.2,0.1-0.5,0.1-0.7,0.1
			c-0.2,0-0.4-0.1-0.5-0.3c-0.1-0.2,0.1-0.4,0.5-0.7c0.4-0.3,0.9-0.7,1.5-1c1.1-0.6,2-1,2.8-1.3c0.2-0.1,0.5-0.1,0.7-0.1
			c0.2,0,0.4,0.1,0.4,0.3c0.1,0.2,0,0.3-0.1,0.5c-0.1,0.2-0.3,0.3-0.5,0.4c-0.4,0.1-0.6,0.2-1,0.4c-0.1,0.1-0.3,0.1-0.3,0.1
			C121.7,8.9,122.7,10.3,123.1,11.2z"/>
		<path class="st1" d="M137.8,20.2c-0.5,0.1-0.8,0-0.9-0.4c-0.3-1.1-0.5-1.7-0.8-2.9c-0.3-0.1-0.7-0.1-1.4,0
			c-0.6,0.1-1.5,0.1-1.7,0.3c-0.1,0.1-0.1,0.7-0.1,1.2c0.1,0.5,0.1,1,0.2,1.6c0.1,0.5,0.1,1.2-0.1,1.3c-0.2,0.2-1.2,0.1-1.2-0.1
			c0-0.2-0.1-1.9-0.4-4.7c-0.4-2.8-0.6-5-0.7-6.6c-0.1-1.6-0.1-3,0-4.1c0.1-1.1,0.4-1.8,0.8-1.9c0.4-0.1,0.9-0.2,1-0.1
			c0.2,0.2,0.7,1.9,1.7,4.1c1,2.2,1.6,3.7,1.8,4.4c0.2,0.7,0.6,1.8,1.2,3.3c0.6,1.5,1,2.7,1.2,3.5C138.5,19.7,138.3,20,137.8,20.2z
			 M134.7,13.3c-0.5-1.3-1-2.5-1.5-3.6c-0.5-1.1-0.8-1.8-0.8-2.1c-0.1-0.2-0.1-0.4-0.1-0.4c0,0-0.3,1.8,0,4.3
			c0.2,2.5,0.4,4.6,0.6,4.8c0.2,0.2,1.4-0.2,1.8-0.3c0.5-0.1,1-0.3,1-0.4C135.7,15.5,135.3,14.5,134.7,13.3z"/>
		<path class="st1" d="M140,7.5c-0.8-3.8-0.1-6,2-6.4c1.1-0.2,2,0,2.7,0.5c0.7,0.5,1.2,1.2,1.6,2.1c0.4,1,0.7,1.9,0.8,2.6
			c0.1,0.7,0.2,1.3,0.3,1.8c0,0.3,0.1,0.5,0.1,0.7c0,0.2,0.1,0.5,0.1,0.7c0.1,0.5,0.1,0.8,0.1,1c0.1,0.4,0.1,0.6,0.1,1
			c0.2,1.3,0.2,2.3,0.1,3.1c-0.1,0.8-0.9,2-0.9,2.6c0,0,0.1,0.2,0.2,0.4c0.1,0.2,0.2,0.5,0.2,0.7c0.1,0.2,0.2,0.4,0.3,0.7
			c0.2,0.5,0.5,0.8,0.7,0.7c0,0,0.1,0,0.1,0c0.5-0.1,0.8,0,0.9,0.1c0.1,0.1,0.2,0.2,0.2,0.4c0.1,0.5-0.3,0.7-1,0.8
			c-0.3,0-0.6,0-1-0.2c0,0,0,0,0,0c-0.5-0.1-0.8-0.4-1.1-0.9c-0.2-0.4-0.4-0.7-0.5-1.1c-0.1-0.4-0.2-0.7-0.3-0.8
			c-0.4,0.1-0.6,0.1-1,0.2c-1.7-0.7-2.9-2-3.5-4.2c-0.1-0.4-0.2-0.9-0.3-1.4c-0.3-1.5-0.4-2.2-0.6-3.7C140.2,8.5,140.1,8.2,140,7.5z
			 M146,9c0-0.3-0.1-0.6-0.1-0.9C145.3,3.9,144,2,142,2.3c-0.4,0.1-0.6,0.5-0.7,1.3c-0.1,0.8-0.1,1.8,0.1,3c0.2,2,0.4,3.4,0.6,4.2
			c0.2,0.8,0.3,1.4,0.4,1.7c0.1,0.3,0.2,0.7,0.3,1.2c0.1,0.5,0.3,1,0.5,1.4c0.2,0.4,0.4,0.8,0.6,1.2c0.2,0.4,0.5,0.7,0.8,0.9
			c0.3,0.2,0.6,0.3,1,0.3c0,0,0,0,0,0c0.1-0.2,0.3-0.3,0.6-0.4c0,0,0,0,0,0c0.5-0.6,0.7-1.5,0.6-2.6C146.5,12.3,146.3,11.2,146,9z"
			/>
		<path class="st1" d="M151.7,5.1c-0.1-1.4-0.2-2.1-0.3-3.6c-0.2-0.1-0.2-0.3-0.3-0.5c0-0.2,0.1-0.4,0.2-0.5
			c0.2-0.2,0.4-0.2,0.6-0.3c0.7-0.1,1.1,0.5,1.2,1.6c0.3,3.2,0.5,4.8,0.7,7.9c0.1,0.2,0.2,0.6,0.3,1.2c0.1,0.6,0.2,1.1,0.2,1.4
			c0,0.3,0.1,0.8,0.2,1.2c0.1,0.5,0.3,1,0.6,1.5c0.2,0.5,0.5,0.9,0.9,1.3c0.4,0.3,0.7,0.5,1,0.5c0.3,0,0.5-0.1,0.7-0.2
			c0.1-0.1,0.3-0.3,0.3-0.6c0.1-0.4,0.1-0.8,0.1-1.3c0-1.8,0-2.7-0.1-4.5c0-0.5-0.1-1.2-0.2-2.2c-0.1-1-0.2-1.7-0.2-2.2
			c0-0.1,0-0.1,0-0.2c0-0.5,0-0.8-0.1-1.3c-0.1-1.6-0.2-2.4-0.3-3.9c0-0.2,0.1-0.3,0.4-0.5c0.2-0.1,0.5-0.2,0.7-0.2
			c0.3,0.2,0.4,0.3,0.7,0.5c0,0.2,0,0.2,0,0.4c-0.1,0.6-0.1,0.8-0.2,1.4c0,1.3,0.1,3.2,0.3,5.8c0.2,2.6,0.2,4.3,0.2,5.2
			c0,0.9,0,1.5-0.1,1.8c0,0.3-0.1,0.6-0.2,1c-0.1,0.3-0.2,0.6-0.4,0.9c-0.4,0.5-1,0.8-1.8,0.8c-1,0-1.8-0.3-2.5-1.1
			c-0.7-0.8-1.2-1.8-1.6-3c-0.4-1.4-0.7-2.6-0.9-3.7C152,8.3,151.8,6.7,151.7,5.1z"/>
		<path class="st1" d="M167.1,9.2c-0.3,0-0.4,0-0.7-0.1c-0.3,0-0.5,0-0.6,0.1c-0.2,2.8-0.3,4.2-0.5,7c0.8,0,1.3,0,1.4,0.1
			c0.9,0.1,1.4,0.3,1.3,0.7c0,0,0,0,0,0.1c-0.1,0.2-0.3,0.3-0.6,0.4c-0.3,0.1-0.5,0.1-0.7,0.1c-0.2,0-0.5,0-0.8,0
			c-0.3,0-0.5,0-0.8-0.1c-0.6,0-1-0.2-1.1-0.4c-0.1-0.1-0.1-0.2-0.1-0.4c0.3-5.3,0.5-8,0.8-13.3c0-0.3,0-0.7-0.1-1.2
			c-0.1-0.5-0.1-0.9-0.1-1.2c0,0,0,0,0-0.1c0.3-0.4,0.6-0.7,0.8-0.8c0.9,0,1.3,0,2.2,0c0.3,0,0.6,0.1,0.9,0.3
			c0.3,0.2,0.4,0.4,0.4,0.6c0,0.5-0.5,0.6-1.4,0.6c-0.3,0-0.5-0.1-0.8-0.1c-0.1,0-0.3,0-0.3,0c0,1.5,0,2.3-0.1,3.8
			c0,0.3-0.1,0.7-0.2,1.3c-0.1,0.6-0.2,1.2-0.2,1.3c0,0,0.2,0,0.4,0c0.4-0.1,0.7-0.1,0.9,0c0.2,0,0.4,0.1,0.5,0.2
			c0.2,0.1,0.2,0.3,0.2,0.5c0,0.2-0.1,0.3-0.2,0.5C167.5,9.2,167.3,9.3,167.1,9.2z"/>
		<path class="st1" d="M171.8,17.6c0.9-5.3,1.3-8,2.2-13.3c0.2-1.1,0.3-1.7,0.4-2.8c0-0.2,0.1-0.3,0.2-0.4c0.1-0.1,0.4-0.1,0.8,0
			c0.4,0.1,0.8,0.2,1.2,0.4c0.4,0.2,0.7,0.5,0.9,0.8c0.2,0.3,0.4,0.7,0.5,1c0.3,0.7,0.3,1.4,0.1,2.1C178,6.3,177.6,7.1,177,8
			c-0.1,0.1-0.2,0.3-0.4,0.6c-0.2,0.3-0.4,0.5-0.4,0.5c-0.3,0.8-0.1,2.6,0.1,4.5c0.1,0.6,0.2,1.5,0.4,2.6c0.2,1.1,0.3,1.8,0.3,2.1
			c0,0,0,0,0,0.1c-0.1,0.5-0.2,0.8-0.4,0.8c-0.1,0.1-0.3,0.1-0.4,0c-0.3-0.1-0.5-0.3-0.7-0.8c0,0,0,0,0-0.1c0.2-1.4,0.1-3.5-0.4-6.5
			c-0.2-1.3-0.4-2.3-0.5-3c-0.6,3.6-0.9,5.3-1.5,8.9c0,0.2-0.1,0.4-0.2,0.5c-0.1,0.1-0.3,0.1-0.5,0.1c-0.2,0-0.4-0.1-0.5-0.3
			c-0.1-0.1-0.1-0.3-0.1-0.5C171.8,17.7,171.8,17.7,171.8,17.6z M175.8,2.3c-0.4,1.8-0.6,2.7-0.9,4.6c-0.1,0.5-0.1,1-0.1,1
			c0,0,0.7-0.4,1.1-0.7c0.3-0.7,0.5-1.1,0.8-1.9c0-0.1,0.1-0.2,0.1-0.3c0.1-0.4,0.1-0.8,0-1.4C176.5,2.9,176.2,2.5,175.8,2.3z"/>
		<path class="st1" d="M187.8,5.5c-0.2-0.1-0.3-0.1-0.5-0.2c-0.2-0.1-0.3-0.1-0.4,0c-0.1,0-0.2,0.1-0.2,0.3
			c-0.4,1.4-0.9,3.6-1.6,6.5c-0.6,2.9-1.2,5.1-1.6,6.5c-0.1,0.3-0.2,0.5-0.3,0.8c0.2,0,0.3,0.1,0.5,0.1c0.7,0.2,0.9,0.6,0.7,1.1
			c0,0.1,0,0.1,0,0.1c-0.3,0.1-0.4,0.1-0.7,0.2c-0.6-0.2-1-0.3-1.6-0.4c-1.4-0.4-2-0.8-1.9-1.2c0.1-0.4,0.4-0.5,0.9-0.3
			c0.2,0.1,0.3,0.1,0.5,0.2c0.2,0.1,0.4-0.1,0.5-0.4c0.3-1.1,0.7-2.8,1.2-5.2c0.5-2.3,0.9-4,1.2-5.2c0.3-0.9,0.4-1.3,0.7-2.2
			c0.1-0.5,0.3-1.2,0.3-1.2c0-0.1-0.5,0-0.7-0.1c-0.4-0.1-0.6-0.4-0.5-0.7c0-0.2,0.2-0.3,0.6-0.4c0.3-0.1,0.7,0,1.2,0
			c0.8,0.1,1.4,0.2,1.8,0.4c0.4,0.1,0.6,0.3,0.8,0.4c0.1,0.2,0.2,0.3,0.1,0.5c0,0.2-0.2,0.3-0.3,0.4C188.2,5.5,188,5.5,187.8,5.5z"
			/>
		<path class="st1" d="M192.9,24.6c-0.5-0.2-0.6-0.5-0.5-0.9c0.5-1.1,0.7-1.6,1.2-2.7c-0.2-0.2-0.5-0.5-1.1-0.9
			c-0.5-0.3-1.3-0.9-1.5-0.8c-0.2,0-0.5,0.5-0.8,0.9c-0.3,0.4-0.6,0.9-0.9,1.3c-0.3,0.4-0.7,0.9-0.9,1c-0.3,0-1-0.7-0.9-0.8
			c0.1-0.2,1.2-1.5,2.7-3.9c1.5-2.4,2.7-4.2,3.7-5.5c0.9-1.3,1.8-2.3,2.6-3.1c0.8-0.8,1.4-1.1,1.8-0.9c0.4,0.2,0.8,0.5,0.8,0.6
			c0,0.3-0.6,1.9-1.3,4.3c-0.7,2.3-1.1,3.8-1.4,4.5c-0.3,0.6-0.7,1.7-1.2,3.3c-0.5,1.6-1,2.7-1.3,3.5
			C193.7,24.7,193.4,24.8,192.9,24.6z M194.9,17.3c0.4-1.3,0.8-2.5,1.2-3.7c0.4-1.2,0.6-1.9,0.7-2.1c0.1-0.2,0.2-0.4,0.2-0.4
			c0,0-1.3,1.2-2.8,3.3c-1.5,2.1-2.6,3.8-2.6,4c0.1,0.3,1.1,0.8,1.6,0.9c0.5,0.2,0.9,0.4,1,0.4C194.3,19.7,194.5,18.6,194.9,17.3z"
			/>
	</g>
</g>
<g>
	<g>
		<path class="st1" d="M98.3,148.9c0.6-1.2,0.9-1.8,1.4-3c0-0.2,0-0.3,0-0.5c0.1-0.2,0.2-0.3,0.4-0.3c0.2-0.1,0.3-0.1,0.5,0
			c0.5,0.2,0.5,0.8,0.1,1.7c-1.2,2.7-1.7,4.1-2.9,6.8c0,0.2-0.1,0.6-0.2,1.1c-0.2,0.5-0.3,1-0.5,1.3c-0.1,0.3-0.2,0.7-0.3,1.1
			c-0.1,0.5-0.1,1-0.1,1.5c0,0.5,0.1,1,0.3,1.4c0.2,0.4,0.4,0.7,0.7,0.9c0.3,0.1,0.5,0.2,0.7,0.1c0.2-0.1,0.4-0.2,0.5-0.4
			c0.2-0.3,0.4-0.7,0.6-1c0.7-1.5,1-2.3,1.6-3.8c0.2-0.4,0.4-1,0.6-1.9c0.3-0.9,0.5-1.5,0.7-1.9c0-0.1,0-0.1,0.1-0.1
			c0.2-0.5,0.3-0.7,0.4-1.2c0.5-1.4,0.8-2.1,1.3-3.4c0.1-0.2,0.2-0.3,0.4-0.3c0.2,0,0.4,0,0.6,0.1c0.1,0.3,0.2,0.4,0.3,0.7
			c-0.1,0.1-0.1,0.2-0.1,0.3c-0.3,0.5-0.4,0.7-0.7,1.1c-0.5,1.1-1.1,2.8-1.9,5c-0.8,2.3-1.3,3.8-1.7,4.6c-0.3,0.8-0.6,1.3-0.7,1.5
			c-0.1,0.2-0.3,0.5-0.5,0.8c-0.2,0.3-0.4,0.5-0.7,0.6c-0.6,0.3-1.2,0.3-2-0.1c-0.9-0.4-1.5-1.1-1.8-2c-0.3-1-0.3-2.1,0-3.2
			c0.3-1.3,0.6-2.5,1-3.4C97.1,151.6,97.7,150.3,98.3,148.9z"/>
		<path class="st1" d="M105.5,152.5c0.6-1.4,1-2.1,1.6-3.6c0-0.1,0-0.1,0.1-0.1c0.3-0.7,0.5-0.9,0.8-0.8c0.3,0.1,0.4,0.9,0.4,2.3
			c0,2.6-0.4,6.7-0.9,12.3c0,0,0,0.1,0,0.1c1-2.8,1.6-4.2,2.6-7c0.9-2.4,1.3-3.6,2.1-5.9c0.2-0.3,0.5-0.4,0.9-0.3
			c0.4,0.1,0.5,0.5,0.3,1c0,0,0,0.1,0,0.1c-0.1,0.1-0.3,0.3-0.3,0.5c-1.1,3-1.6,4.4-2.7,7.4c-0.9,2.5-1.3,3.7-2.2,6.2
			c-0.1,0.2-0.2,0.4-0.4,0.5c-0.2,0.1-0.4,0.2-0.6,0.1c-0.3-0.1-0.5-1.7-0.4-4.8c0.1-3.1,0.3-6.4,0.7-9.8c-1,2.6-1.5,3.9-2.6,6.5
			c-0.2,0.6-0.6,1.6-1,2.9c-0.4,1.3-0.7,2.3-0.9,2.9c0,0.1-0.2,0.2-0.4,0.2c-0.2,0-0.4,0-0.7-0.1c-0.3-0.1-0.4-0.3-0.3-0.5
			c0.3-0.6,0.4-0.8,0.7-1.4c0.3-0.7,0.7-1.8,1.2-3.4c0.5-1.6,0.9-2.5,1-2.9C104.9,154.1,105.1,153.6,105.5,152.5z"/>
		<path class="st1" d="M114.8,167.6c-0.5-0.1-0.7-0.4-0.6-0.7c0.3-1.1,0.5-1.6,0.8-2.7c-0.2-0.2-0.5-0.4-1.1-0.7
			c-0.5-0.3-1.2-0.7-1.5-0.7c-0.1,0-0.5,0.5-0.7,0.9c-0.2,0.4-0.5,0.8-0.8,1.3c-0.3,0.4-0.6,0.9-0.8,0.9c-0.3,0.1-1-0.6-0.9-0.8
			c0.1-0.2,1.1-1.4,2.4-3.7c1.3-2.3,2.3-4.1,3-5.3c0.7-1.3,1.4-2.3,2-3.2c0.6-0.8,1.1-1.2,1.4-1.1c0.3,0.1,0.6,0.3,0.6,0.4
			c0,0.3-0.4,1.8-0.8,4.1c-0.4,2.2-0.6,3.7-0.8,4.3c-0.2,0.6-0.4,1.7-0.7,3.2c-0.3,1.5-0.5,2.6-0.7,3.4
			C115.7,167.6,115.3,167.8,114.8,167.6z M115.9,160.7c0.2-1.2,0.5-2.4,0.7-3.5c0.2-1.1,0.4-1.8,0.5-2c0.1-0.2,0.1-0.4,0.1-0.4
			c0,0-1,1.3-2.1,3.3c-1.1,2.1-2.1,3.8-2.1,4c0.1,0.2,1.1,0.6,1.5,0.7c0.4,0.1,0.9,0.3,0.9,0.2C115.5,162.9,115.6,161.9,115.9,160.7
			z"/>
		<path class="st1" d="M124.6,169.2c0,0-0.1,0.1-0.1,0.1c0,0.1,0,0.2,0,0.3c0,0.1-0.1,0.2-0.3,0.3c-0.2,0.1-0.4,0.1-0.6,0
			c-0.5-0.1-0.6-0.6-0.4-1.5c0.3-1.3,0.8-3.8,1.6-7.5c0.7-3.7,1-5.7,1-5.9c0-0.5,0.8-1,1.8-0.8c0.2,0,0.4,0.1,0.6,0.1
			c0.3,0.1,0.5,0.2,0.6,0.3c0.1,0.1,0.2,0.3,0.1,0.6c-0.1,0.3-0.3,0.4-0.7,0.3c-0.2-0.1-0.3-0.1-0.5-0.1c-0.4-0.1-0.6-0.1-0.7,0.1
			c-0.2,0.6-0.3,1.6-0.5,2.9c-0.2,1.3-0.5,2.7-0.5,2.8c0,0,0.2,0,0.4,0c0.4,0,0.7,0,0.9,0.1c0.2,0,0.3,0.1,0.4,0.3
			c0.1,0.2,0.1,0.3,0.1,0.5c-0.1,0.5-1.8,0.1-2,0.3c-0.2,0.1-0.4,1.9-0.6,3.4C125,167.3,124.8,168.5,124.6,169.2z"/>
		<path class="st1" d="M132.7,156.6c-0.2,0-0.2-0.1-0.4-0.1c-0.1,0-0.3,0-0.3,0c-0.1,0-0.1,0.2-0.2,0.3c-0.3,1.4-0.6,3.4-0.9,6.2
			c-0.4,2.8-0.6,4.8-0.9,6.2c-0.1,0.3-0.1,0.5-0.2,0.8c0.2,0,0.3,0,0.5,0.1c0.7,0.1,0.9,0.4,0.9,0.9c0,0,0,0.1,0,0.1
			c-0.3,0.1-0.4,0.1-0.7,0.2c-0.7-0.1-1-0.2-1.6-0.3c-1.4-0.3-2-0.6-1.9-1.1c0.1-0.3,0.3-0.4,0.8-0.3c0.2,0.1,0.3,0.1,0.5,0.1
			c0.2,0,0.4-0.1,0.5-0.4c0.2-1.1,0.5-2.7,0.8-4.9c0.3-2.2,0.6-3.8,0.8-4.9c0.2-0.8,0.3-1.3,0.5-2.1c0.1-0.4,0.2-1.1,0.2-1.2
			c0,0-0.4,0-0.5,0c-0.3-0.1-0.5-0.3-0.4-0.6c0-0.2,0.2-0.3,0.4-0.4c0.2-0.1,0.5-0.1,0.9-0.1c0.6,0,1.1,0.1,1.4,0.1
			c0.3,0.1,0.5,0.2,0.6,0.3c0.1,0.1,0.1,0.3,0.1,0.4c0,0.2-0.1,0.3-0.2,0.4C133,156.6,132.8,156.6,132.7,156.6z"/>
		<path class="st1" d="M136.1,164.5c-0.2,0-0.3-0.1-0.6-0.1c-0.2,0-0.4,0-0.5,0.1c-0.4,2.6-0.7,3.9-1.1,6.5c0.8,0.1,1.3,0.1,1.3,0.2
			c0.9,0.1,1.4,0.4,1.3,0.8c0,0,0,0,0,0.1c-0.1,0.2-0.3,0.3-0.6,0.4c-0.3,0.1-0.5,0.1-0.7,0.1c-0.2,0-0.5-0.1-0.8-0.1
			c-0.3,0-0.5-0.1-0.8-0.1c-0.6-0.1-1-0.3-1.1-0.5c0-0.1-0.1-0.2,0-0.4c0.9-4.9,1.3-7.3,2.1-12.2c0-0.2,0.1-0.6,0-1.1
			c0-0.5,0-0.9,0-1.1c0,0,0,0,0-0.1c0.3-0.3,0.5-0.6,0.7-0.6c0.7,0,1,0.1,1.6,0.1c0.2,0,0.4,0.1,0.6,0.3c0.2,0.2,0.3,0.3,0.3,0.5
			c-0.1,0.4-0.4,0.6-1.1,0.5c-0.3,0-0.4-0.1-0.6-0.1c-0.1,0-0.2,0-0.2,0c-0.2,1.4-0.2,2.1-0.4,3.5c0,0.3-0.1,0.7-0.3,1.2
			c-0.1,0.5-0.3,1.1-0.3,1.2c0,0,0.2,0,0.3,0c0.3,0,0.6,0,0.7,0c0.2,0,0.3,0.1,0.4,0.2c0.1,0.1,0.2,0.3,0.1,0.5
			c0,0.2-0.1,0.3-0.2,0.4C136.4,164.5,136.3,164.5,136.1,164.5z"/>
		<path class="st1" d="M137.3,172.3c0.1-0.4,0.3-0.5,0.6-0.5c0.2,0,0.4,0.1,0.7,0.3c0.3,0.1,0.5,0.2,0.7,0.3c0.2,0,0.5-0.1,0.7-0.3
			c0.3-0.2,0.5-0.5,0.7-0.8c0.4-0.7,0.6-1.3,0.7-1.9c0.1-0.6,0-1.2-0.1-1.9c-0.1-0.7-0.3-1.4-0.6-2c-0.2-0.6-0.5-1.3-0.7-1.9
			c-0.6-1.5-0.8-2.9-0.6-4c0.2-1.1,0.6-1.9,1.4-2.4c0.4-0.3,0.9-0.4,1.4-0.3c0.3,0,0.5,0.1,0.7,0.3c0.2,0.2,0.4,0.4,0.5,0.6
			c-0.2,0.2-0.3,0.2-0.4,0.4c-0.4,0-0.7-0.3-0.8-0.3c-0.2-0.1-0.5,0.1-0.8,0.3c-0.4,0.4-0.7,0.8-0.7,1.4c-0.1,0.6-0.1,1.2,0,1.8
			c0.1,0.6,0.2,1.1,0.4,1.6c0.2,0.5,0.4,1,0.6,1.6c0.2,0.6,0.4,1.1,0.6,1.6c0.5,1.2,0.6,2.4,0.5,3.7c-0.1,0.9-0.4,1.8-1.1,2.5
			c-0.3,0.4-0.7,0.7-1.2,0.9c-0.5,0.2-1,0.3-1.5,0.2c-0.6-0.1-1-0.2-1.4-0.4C137.4,172.7,137.3,172.5,137.3,172.3z"/>
		<path class="st1" d="M147.8,161.3c-0.1,1.1-0.2,1.6-0.3,2.7c-0.1,2-0.1,2.9-0.2,4.9c0,1.5-0.1,2.3-0.1,3.8c-0.1,0.7-0.3,1-0.8,1
			c-0.3,0-0.5-0.1-0.6-0.4c-0.1-0.2-0.2-0.5-0.1-0.8c0.2-1.3,0.3-2,0.5-3.4c0.1-0.7,0.1-1.8,0.1-3.3c0-1.5,0.1-2.6,0.1-3.3
			c0.1-0.7,0.1-1.1,0.2-1.9c0.1-1,0.1-1.7,0-2c-0.5,0-0.7,0-1.2,0c-0.2,0-0.3-0.1-0.5-0.2c-0.1-0.1-0.2-0.3-0.2-0.4
			c0-0.2,0.2-0.3,0.6-0.4c0.4-0.1,0.8-0.1,1.3-0.1c0.9,0,1.6,0,2.2,0c0.2,0,0.3,0.1,0.5,0.2c0.1,0.1,0.2,0.3,0.2,0.4
			c0,0.2-0.1,0.3-0.2,0.4c-0.1,0.1-0.3,0.1-0.5,0.1c-0.3,0-0.5-0.1-0.8-0.1c-0.1,0-0.2,0-0.2,0C147.7,158.8,147.9,160.4,147.8,161.3
			z"/>
		<path class="st1" d="M154.5,174c-0.5,0-0.7-0.2-0.7-0.6c0-1.1,0.1-1.7,0.1-2.8c-0.2-0.1-0.6-0.3-1.2-0.4c-0.6-0.1-1.4-0.4-1.6-0.3
			c-0.1,0.1-0.3,0.6-0.5,1.1c-0.1,0.5-0.3,0.9-0.4,1.4c-0.1,0.5-0.4,1-0.5,1.1c-0.3,0.1-1.1-0.3-1-0.5c0.1-0.2,0.7-1.7,1.3-4.2
			c0.6-2.5,1.1-4.5,1.5-5.9c0.4-1.4,0.8-2.6,1.1-3.6c0.4-1,0.7-1.4,1-1.4c0.3,0,0.7,0.1,0.7,0.2c0.1,0.3,0.1,1.9,0.3,4.1
			c0.2,2.2,0.3,3.7,0.3,4.3c0,0.7,0,1.7,0.2,3.3c0.1,1.5,0.2,2.7,0.2,3.4C155.3,173.8,155,174.1,154.5,174z M153.7,167
			c-0.1-1.3-0.2-2.5-0.2-3.6c-0.1-1.1-0.1-1.8-0.1-2.1c0-0.2,0-0.4,0-0.4c0,0-0.6,1.5-1.2,3.8c-0.6,2.3-1.1,4.2-1,4.4
			c0.1,0.2,1.2,0.3,1.6,0.3c0.4,0,0.9,0,0.9,0C153.9,169.3,153.8,168.3,153.7,167z"/>
		<path class="st1" d="M168.1,166c0,0.2,0,0.3,0.1,0.4c0.1,1-0.1,2.2-0.7,3.6c-0.6,1.6-1.4,2.7-2.3,3.4c-0.5,0.4-1.1,0.6-1.6,0.6
			c-0.3,0-0.6,0-0.8-0.2c-0.2-0.1-0.4-0.4-0.4-0.5c0.1-0.3,0.5-1.2,0.5-2.5c0-0.8-0.1-2-0.3-3.5c-0.2-1.6-0.3-2.7-0.3-3.5
			c0-0.9,0-1.4,0-2.3c0-0.4-0.1-0.9-0.3-1.5c-0.2-0.6-0.3-1.1-0.3-1.3c0-0.5,0.5-0.7,1.7-0.8c0.1,0,0.2,0,0.3,0
			c1.5,0,2.6,0.7,3.4,2.3c0.5,1.1,0.9,2.6,1,4.6c0,0.4,0,0.6,0.1,1C168.1,165.9,168.1,165.9,168.1,166z M164,170.8
			c0,0.8,0,1.2,0.1,2c0.6-0.4,1.1-0.9,1.5-1.5c0.4-0.6,0.7-1.3,0.9-2.1c0.4-1.4,0.5-2.8,0.4-4.2c-0.1-1.6-0.4-2.9-0.8-3.8
			c-0.5-0.9-1-1.5-1.7-1.8c-0.4-0.2-0.8-0.3-1.3-0.2c0,0,0,0,0,0c0,1.3,0.2,3.2,0.4,5.8C163.8,167.6,163.9,169.5,164,170.8z"/>
		<path class="st1" d="M172.2,165.7c-0.2,0-0.3,0-0.6,0c-0.2,0-0.4,0.1-0.5,0.2c0.2,2.6,0.3,3.9,0.5,6.6c0.8-0.1,1.3-0.2,1.3-0.2
			c0.9-0.1,1.4,0.1,1.4,0.4c0,0,0,0,0,0.1c-0.1,0.2-0.3,0.4-0.5,0.5c-0.3,0.1-0.5,0.2-0.7,0.2c-0.2,0-0.5,0.1-0.8,0.1
			c-0.3,0-0.5,0-0.8,0.1c-0.6,0-1,0-1.1-0.2c-0.1-0.1-0.1-0.2-0.1-0.4c-0.4-4.9-0.5-7.4-0.9-12.4c0-0.2-0.1-0.6-0.2-1.1
			c-0.1-0.5-0.2-0.8-0.2-1.1c0,0,0,0,0-0.1c0.2-0.4,0.4-0.7,0.5-0.8c0.6-0.1,1-0.2,1.6-0.3c0.2,0,0.5,0,0.7,0.1
			c0.2,0.1,0.4,0.3,0.4,0.5c0,0.4-0.3,0.7-0.9,0.7c-0.3,0-0.4,0-0.6,0c-0.1,0-0.2,0-0.2,0c0.2,1.4,0.3,2.1,0.5,3.5
			c0,0.3,0,0.7,0,1.2c0,0.5,0,1.2,0,1.2c0,0,0.2,0,0.3-0.1c0.3-0.1,0.5-0.2,0.7-0.2c0.2,0,0.3,0,0.5,0.1c0.1,0.1,0.2,0.2,0.2,0.4
			c0,0.2,0,0.3-0.1,0.5C172.5,165.6,172.3,165.7,172.2,165.7z"/>
		<path class="st1" d="M180.8,172.4c-0.1-0.4,0.1-0.6,0.5-0.6c0.2,0,0.4,0,0.7,0.1c0.3,0.1,0.6,0.1,0.8,0c0.2,0,0.4-0.2,0.6-0.5
			c0.2-0.3,0.4-0.6,0.4-1c0.2-0.8,0.2-1.5,0.1-2c-0.1-0.6-0.3-1.2-0.7-1.8c-0.3-0.6-0.7-1.2-1.1-1.8c-0.4-0.5-0.8-1.1-1.3-1.6
			c-1-1.3-1.5-2.5-1.7-3.7c-0.2-1.1,0.1-2,0.7-2.7c0.3-0.4,0.8-0.6,1.3-0.7c0.3,0,0.5,0,0.8,0.1c0.3,0.1,0.5,0.3,0.6,0.5
			c-0.1,0.2-0.2,0.3-0.3,0.5c-0.4,0.1-0.7-0.1-0.9-0.1c-0.2,0-0.5,0.2-0.6,0.5c-0.3,0.5-0.4,1-0.3,1.6c0.1,0.6,0.3,1.2,0.5,1.7
			c0.2,0.5,0.5,1,0.8,1.4c0.3,0.4,0.7,0.9,1,1.3c0.4,0.5,0.7,0.9,1.1,1.4c0.8,1,1.3,2.2,1.5,3.4c0.2,0.9,0.1,1.8-0.3,2.7
			c-0.2,0.4-0.5,0.8-0.9,1.2c-0.4,0.3-0.9,0.5-1.4,0.6c-0.6,0.1-1.1,0.1-1.4,0C181,172.7,180.8,172.5,180.8,172.4z"/>
		<path class="st1" d="M192.7,170.4c-0.5,0.1-0.8,0-0.9-0.4c-0.2-1.1-0.4-1.6-0.6-2.7c-0.3-0.1-0.7-0.1-1.3-0.1
			c-0.6,0-1.4,0-1.6,0.1c-0.1,0.1-0.2,0.7-0.2,1.1c0,0.5,0,1-0.1,1.5c0,0.5-0.1,1.1-0.2,1.2c-0.3,0.2-1.1-0.1-1.1-0.2
			c0-0.2,0.3-1.8,0.3-4.4c0-2.6,0-4.6,0-6.1c0-1.5,0.1-2.7,0.2-3.8c0.1-1,0.4-1.6,0.7-1.6c0.3-0.1,0.7-0.1,0.7,0
			c0.2,0.2,0.5,1.8,1.3,3.9c0.8,2.1,1.2,3.5,1.4,4.1c0.1,0.6,0.5,1.7,1,3.1c0.5,1.4,0.8,2.5,1,3.3
			C193.5,170,193.3,170.3,192.7,170.4z M190.3,163.9c-0.4-1.2-0.8-2.3-1.1-3.4c-0.3-1.1-0.5-1.8-0.6-2c0-0.2-0.1-0.4-0.1-0.4
			c0,0-0.2,1.6-0.2,4c0,2.4,0,4.3,0.1,4.5c0.2,0.2,1.2,0,1.7-0.1c0.4-0.1,0.9-0.2,0.9-0.3C191,166,190.7,165.1,190.3,163.9z"/>
		<path class="st1" d="M194,164.4c-0.9-3.4-1.3-5-2.2-8.4c0,0,0-0.1,0-0.1c-0.2-0.7-0.2-1.2,0-1.5c0.1-0.1,0.2-0.2,0.4-0.3
			c1-0.2,1.9-0.1,2.6,0.3c0.7,0.5,1.2,1.2,1.5,2.2c0.2,0.6,0.2,1.3,0,2.1c-0.2,0.8-0.9,1.8-0.9,1.8c0,0.2,1.9,0.9,2.5,1.6
			c0.6,0.8,1.1,1.6,1.3,2.6c0.1,0.5,0.1,1.1,0,1.7c-0.1,0.6-0.3,1.1-0.5,1.5c-0.2,0.4-0.5,0.8-0.9,1.1c-0.4,0.3-0.9,0.6-1.5,0.7
			c0,0-0.1,0-0.1,0c-0.8,0.2-1.2,0.1-1.2-0.2C194.6,167.5,194.4,166.5,194,164.4z M193.2,155.1c-0.2,0.1-0.2,0.3-0.1,0.8
			c0.1,0.5,0.3,1.3,0.6,2.3c0.3,1.1,0.6,2.3,0.6,2.3c0.1,0,0.6-0.6,0.8-1.1c0.1-0.5,0.2-1,0.2-1.4c0-0.4,0.1-0.7,0.1-0.8
			c-0.1-0.3-0.1-0.4-0.2-0.7c-0.1-0.4-0.4-0.8-0.8-1.1C194,155.1,193.6,155,193.2,155.1z M198,167.2c0.3-0.6,0.4-1.3,0.2-2
			c-0.2-0.7-0.4-1.3-0.7-1.8c-0.3-0.5-0.5-0.8-0.7-1.1c-0.2-0.2-0.5-0.4-0.7-0.5c-0.3-0.2-0.5-0.3-0.7-0.3c-0.3,0.1-0.5,0.1-0.8,0.2
			c0.5,1.9,1.4,6.6,1.8,6.8C196.6,168.7,197.7,167.8,198,167.2z"/>
		<path class="st1" d="M205.7,160.2c0.3,1,0.4,1.6,0.6,2.6c0,0,0,0.1,0,0.1c0,0.4,0.1,0.8,0.3,1.3c0.1,0.4,0.2,0.9,0.1,1.3
			c0,0.5-0.2,0.9-0.5,1.3c-0.3,0.4-0.6,0.7-1,0.8c-0.4,0.1-0.9,0.1-1.3,0c-0.4-0.1-0.8-0.4-1.2-0.7c-0.3-0.3-0.7-0.7-1-1.2
			c-0.3-0.5-0.6-1-0.9-1.5c-0.2-0.5-0.5-1-0.7-1.6c-0.3-0.9-0.6-1.5-0.7-2c-0.1-0.5-0.3-0.9-0.4-1.3c-0.1-0.3-0.2-0.7-0.3-0.9
			c0-0.1-0.1-0.3-0.1-0.5c0-0.2-0.1-0.4-0.2-0.5c-0.1-0.4-0.2-0.8-0.3-1.1c-0.1-0.3-0.1-0.7-0.2-1c-0.1-0.4-0.1-0.7-0.1-1
			c0-0.3,0-0.6,0-0.9c0-0.3,0.1-0.6,0.2-0.8c0.2-0.5,0.6-0.8,1-0.9c0.4-0.1,0.9-0.2,1.2-0.1c0.4,0.1,0.7,0.2,1,0.5
			c0.3,0.3,0.6,0.5,0.9,0.8c0.3,0.3,0.5,0.7,0.8,1.2c0.3,0.5,0.5,1,0.7,1.3c0.2,0.3,0.4,0.8,0.6,1.5c0.3,0.9,0.6,1.6,0.7,2.1
			C205.5,159.5,205.5,159.8,205.7,160.2z M201.3,153.4c-0.3-0.3-0.5-0.5-0.8-0.6c-0.3-0.1-0.5-0.2-0.7-0.1c-0.2,0.1-0.4,0.2-0.5,0.4
			c-0.1,0.2-0.1,0.4-0.2,0.7c0,0.3,0,0.6,0,0.9c0,0.3,0.1,0.7,0.1,1.1c0.1,0.4,0.1,0.8,0.2,1.1c0.1,0.3,0.1,0.7,0.2,1
			c0.2,0.6,0.3,1.1,0.4,1.5c0,0,0,0.1,0,0.1c0.3,0.9,0.6,1.9,1.1,2.9c0.5,1,0.9,1.8,1.3,2.4c0.4,0.6,0.8,1.1,1.2,1.5
			c0.4,0.4,0.8,0.5,1.2,0.4c0.3-0.1,0.5-0.4,0.6-1c0.1-0.6,0-1.3-0.1-2c-0.3-1.4-0.5-2.4-0.7-2.9c-0.2-0.5-0.3-0.9-0.4-1.2
			c-0.1-0.3-0.2-0.6-0.4-1.1c-0.2-0.5-0.3-0.9-0.5-1.3c-0.2-0.4-0.4-0.9-0.6-1.3c-0.2-0.5-0.5-0.9-0.7-1.3
			C201.8,154.1,201.6,153.7,201.3,153.4z"/>
		<path class="st1" d="M209.2,165.2c-1.6-4.7-2.4-7.1-4-11.9c-0.3-1-0.5-1.5-0.9-2.5c-0.1-0.2-0.1-0.3,0-0.4c0-0.1,0.2-0.2,0.5-0.3
			c0.3-0.1,0.6-0.1,1-0.1c0.3,0,0.7,0.1,0.9,0.3c0.3,0.2,0.6,0.4,0.8,0.6c0.5,0.5,0.8,1,1.1,1.7c0.2,0.7,0.4,1.5,0.3,2.4
			c0,0.1,0,0.3,0,0.7c0,0.3,0,0.6,0,0.6c0.1,0.8,1.1,2.2,2.2,3.6c0.4,0.5,0.9,1.1,1.6,1.9c0.7,0.8,1.1,1.3,1.3,1.5c0,0,0,0,0,0
			c0.2,0.4,0.2,0.7,0.1,0.9c-0.1,0.1-0.2,0.2-0.3,0.3c-0.3,0.1-0.6,0-1-0.2c0,0,0,0,0-0.1c-0.5-1.2-1.7-2.8-3.4-5
			c-0.8-1-1.4-1.7-1.7-2.2c1.1,3.2,1.7,4.8,2.8,7.9c0.1,0.2,0.1,0.4,0,0.5c0,0.1-0.2,0.2-0.4,0.3c-0.2,0.1-0.4,0.1-0.6,0
			c-0.1-0.1-0.2-0.2-0.3-0.3C209.2,165.3,209.2,165.3,209.2,165.2z M205.6,151c0.5,1.7,0.8,2.5,1.3,4.1c0.1,0.4,0.3,0.9,0.3,0.9
			c0,0,0.3-0.7,0.5-1c-0.1-0.7-0.2-1.1-0.3-1.9c0-0.1,0-0.2-0.1-0.3c-0.1-0.3-0.3-0.7-0.6-1.1C206.3,151.2,206,150.9,205.6,151z"/>
		<path class="st1" d="M215.1,155.3c-0.2,0.1-0.3,0.1-0.6,0.2c-0.2,0.1-0.3,0.2-0.4,0.3c1,2.4,1.5,3.7,2.5,6.1
			c0.8-0.4,1.2-0.5,1.3-0.6c0.9-0.4,1.4-0.4,1.5,0c0,0,0,0,0,0.1c0,0.2-0.2,0.4-0.4,0.6c-0.2,0.2-0.4,0.3-0.6,0.4
			c-0.2,0.1-0.4,0.2-0.7,0.3c-0.3,0.1-0.4,0.2-0.7,0.3c-0.6,0.2-1,0.3-1.2,0.1c-0.1-0.1-0.2-0.2-0.2-0.3c-1.8-4.6-2.7-6.9-4.5-11.5
			c-0.1-0.2-0.3-0.5-0.5-1c-0.3-0.4-0.5-0.7-0.5-1c0,0,0,0,0-0.1c0.1-0.5,0.2-0.8,0.2-0.9c0.6-0.3,0.9-0.5,1.5-0.8
			c0.2-0.1,0.4-0.1,0.7-0.1c0.3,0,0.4,0.1,0.5,0.3c0.2,0.4-0.1,0.7-0.7,1c-0.2,0.1-0.4,0.1-0.6,0.2c-0.1,0-0.2,0.1-0.2,0.1
			c0.6,1.3,0.9,1.9,1.5,3.2c0.1,0.3,0.2,0.7,0.4,1.2c0.2,0.5,0.4,1.1,0.4,1.1c0,0,0.2-0.1,0.3-0.2c0.3-0.2,0.5-0.3,0.7-0.4
			c0.2-0.1,0.3-0.1,0.5,0c0.2,0.1,0.3,0.2,0.4,0.3c0.1,0.2,0.1,0.3,0,0.5C215.4,155.1,215.2,155.2,215.1,155.3z"/>
		<path class="st1" d="M220.2,161.3c-0.1-0.4-0.1-0.6,0.3-0.8c0.2-0.1,0.4-0.1,0.7-0.1c0.3,0,0.6-0.1,0.8-0.2
			c0.2-0.1,0.4-0.3,0.5-0.6c0.1-0.3,0.2-0.7,0.2-1.1c0-0.8-0.2-1.5-0.4-2c-0.2-0.5-0.6-1.1-1.1-1.6c-0.5-0.5-1-1-1.6-1.4
			c-0.5-0.4-1.1-0.8-1.6-1.2c-1.3-1-2.2-2-2.6-3.1c-0.4-1-0.4-2,0-2.8c0.2-0.5,0.6-0.8,1.1-1c0.2-0.1,0.5-0.2,0.8-0.1
			c0.3,0,0.5,0.1,0.7,0.3c-0.1,0.2-0.1,0.3-0.2,0.6c-0.3,0.2-0.7,0.1-0.9,0.2c-0.2,0-0.4,0.4-0.5,0.6c-0.2,0.5-0.1,1.1,0.1,1.6
			c0.2,0.5,0.6,1.1,0.9,1.5c0.4,0.5,0.8,0.8,1.2,1.1c0.4,0.3,0.9,0.6,1.3,1c0.5,0.4,1,0.7,1.4,1c1,0.8,1.8,1.7,2.4,2.9
			c0.4,0.8,0.5,1.7,0.4,2.7c-0.1,0.5-0.3,0.9-0.6,1.4c-0.3,0.4-0.7,0.8-1.2,1c-0.6,0.2-1,0.4-1.4,0.4
			C220.5,161.6,220.3,161.5,220.2,161.3z"/>
	</g>
</g>
<g>
	<polygon class="st5" points="156.1,144.7 149.8,149.4 149.8,131.9 156.1,131.9 	"/>
	<polygon class="st6" points="168.6,149.4 162.4,144.7 162.4,131.9 168.6,131.9 	"/>
	<rect x="156.1" y="131.9" class="st2" width="6.3" height="12.8"/>
</g>
<g>
	<g>
		<path class="st35" d="M10.8,95.6c-1,1-1.9,2-2.9,3c0.7,1.2,1.3,2.5,2,3.7c-1.3-0.6-2.5-1.2-3.8-1.8c-1,1-1.9,2-2.9,3
			c0.2-1.4,0.4-2.8,0.6-4.1c-1.3-0.6-2.5-1.2-3.8-1.8c0.4-0.1,0.8-0.1,1.1-0.2C2.1,97.2,3,97,3.9,96.9c0.1,0,0.2-0.1,0.2-0.2
			c0.2-1.3,0.4-2.6,0.5-3.9c0,0,0-0.1,0-0.1c0.2,0.5,0.5,0.9,0.7,1.3c0.4,0.7,0.8,1.5,1.2,2.2c0,0.1,0.1,0.1,0.2,0.1
			C8.1,96.1,9.4,95.9,10.8,95.6z"/>
	</g>
	<g>
		<path class="st35" d="M299.1,95.6c1,1,1.9,2,2.9,3c-0.7,1.2-1.3,2.5-2,3.7c1.3-0.6,2.5-1.2,3.8-1.8c1,1,1.9,2,2.9,3
			c-0.2-1.4-0.4-2.8-0.6-4.1c1.3-0.6,2.5-1.2,3.8-1.8c-0.4-0.1-0.8-0.1-1.1-0.2c-0.9-0.2-1.9-0.3-2.8-0.5c-0.1,0-0.2-0.1-0.2-0.2
			c-0.2-1.3-0.4-2.6-0.5-3.9c0,0,0-0.1,0-0.1c-0.2,0.5-0.5,0.9-0.7,1.3c-0.4,0.7-0.8,1.5-1.2,2.2c0,0.1-0.1,0.1-0.2,0.1
			C301.7,96.1,300.4,95.9,299.1,95.6z"/>
	</g>
</g>
<g>
	<g>
		<path class="st1" d="M277.2,35.7c-0.2-0.7-0.4-1-0.4-1l-0.2,0.1c0,0,0.1,0.4,0.2,1.1c0.1,0.7,0.3,1.7,0.2,3c0,1.3-0.2,2.9-0.9,4.5
			c-0.6,1.6-1.7,3.3-3.3,4.8c-1.6,1.5-3.5,2.8-5.8,3.8c-2.3,1.1-4.9,1.8-7.6,2.3c-5.5,1-11.5,0.9-17.4-0.3c-2.9-0.6-5.8-1.4-8.6-2.5
			c-2.8-1-5.4-2.3-8.1-3.4c-5.4-2.1-10.6-3.6-15.3-3.7c-2.3-0.1-4.5,0.2-6.3,0.8c-1.8,0.7-3.2,1.5-4.3,2.2c-0.1,0.1-0.3,0.2-0.4,0.3
			c0,0,0,0,0,0c-2.8,1.6-5,3.2-7.7,5.8c-0.3,0.2-0.6,0.6-0.9,0.8l-1.2-1.1c0.1-0.3,0.6-0.7,0.8-0.9c6.5-6.7,14.3-10.8,23.8-10.7
			c3.6,0.1,7.1,1.2,10.6,2.2c5.3,1.5,10.5,3.5,15.9,4.9c4.9,1.3,9.9,1.1,14.6-1.2c5.2-2.5,9.1-8.7,6-15.1c-1.4-2.8-3.6-4.6-6.6-4.9
			c-3.5-0.4-6.8,0.3-9,3.5c-1.8,2.7-2.7,5.7-1.5,8.9c1.1,3,4,4.1,6.4,2.4c-3.7,0.7-5.7-0.9-6-4.7c-0.4-4.4,3.1-8.4,7.9-8.9
			c3.9-0.5,7.9,2.5,8.6,6.3c0.7,4.4-2.4,9.1-7.4,10.8c-4.4,1.5-8.8,1.5-13.2,0.4c-6.1-1.5-12.1-3.3-18.2-4.9
			c-10.7-2.9-20.1-0.1-28.5,6.7c-1.7,1.4-3.2,3-4.8,4.4c-3.1-2.9-3.9-7.9-1.9-11.1c1.5-2.3,3.3-2.7,6.3-1.5
			c-2.1-2.2-5.3-1.8-7.3,0.8c-2.2,2.9-2.4,7.9,0.2,11.6c0.5,0.9,1.2,1.7,1.2,1.7s-0.9,1.1-1.6,2.3c-1.1,1.8-1.6,2.5-2.6,4.2l4.9-5.6
			c0.5,0.4,1,1.1,1,1.1s-0.8,1.3-2.1,3.8c1-1,1.9-2.1,3-3.2c1.5,0.9,2.9,1.9,4.5,2.6c5.5,2.7,11.3,3.3,17.2,1.6
			c1.5-0.4,2.9-1.1,4.2-2c2.6-1.7,4.1-4.2,3.5-7.4c-0.4-2.7-1.8-4.5-4.1-5.6c3.2,0.7,6.5,1.9,10,3.4c2.6,1.1,5.2,2.5,8.1,3.6
			c2.8,1.1,5.8,2.1,8.8,2.8c6,1.4,12.4,1.9,18.2,0.9c2.9-0.5,5.7-1.4,8.1-2.6c2.5-1.2,4.6-2.8,6.2-4.6c1.6-1.8,2.7-3.8,3.2-5.7
			c0.5-1.9,0.6-3.6,0.4-5C277.7,37.4,277.5,36.4,277.2,35.7z M217.5,51.6c0.4,2.3-0.9,4.5-3.5,6c-6.3,3.7-17.4,2.5-23-2.6
			c3.2-3.3,6.9-5.9,11.1-7.6c3.2-1.3,6.5-2,9.9-1.1C214.8,47.1,217,48.6,217.5,51.6z"/>
	</g>
	<g>
		<path class="st1" d="M43.8,38.8c-0.2,1.4-0.1,3.1,0.4,5c0.5,1.9,1.6,3.9,3.2,5.7c1.6,1.8,3.8,3.4,6.2,4.6c2.5,1.2,5.2,2.1,8.1,2.6
			c5.8,1,12.2,0.5,18.2-0.9c3-0.7,6-1.7,8.8-2.8c2.8-1.1,5.4-2.5,8.1-3.6c3.4-1.4,6.8-2.6,10-3.4c-2.2,1.1-3.6,2.9-4.1,5.6
			c-0.5,3.2,1,5.7,3.6,7.4c1.3,0.9,2.8,1.6,4.2,2c5.9,1.7,11.7,1.1,17.2-1.6c1.5-0.7,3-1.7,4.5-2.6c1.1,1.2,2,2.2,3,3.2
			c-1.2-2.5-2.1-3.8-2.1-3.8s0.6-0.7,1-1.1l4.9,5.6c-0.9-1.6-1.4-2.4-2.6-4.2c-0.7-1.2-1.6-2.3-1.6-2.3s0.6-0.8,1.2-1.7
			c2.5-3.7,2.4-8.6,0.2-11.6c-2-2.7-5.2-3-7.3-0.8c3.1-1.3,4.9-0.8,6.3,1.5c2,3.2,1.2,8.2-1.9,11.1c-1.6-1.5-3.2-3.1-4.8-4.4
			c-8.4-6.9-17.8-9.6-28.5-6.7C94,43.1,88,44.9,81.9,46.3c-4.4,1.1-8.9,1.1-13.2-0.4c-4.9-1.8-8.1-6.4-7.4-10.8
			c0.6-3.8,4.6-6.8,8.6-6.3c4.7,0.6,8.3,4.5,7.9,8.9c-0.3,3.8-2.4,5.4-6,4.7c2.3,1.7,5.2,0.6,6.4-2.4c1.2-3.2,0.4-6.2-1.5-8.9
			c-2.2-3.2-5.5-3.9-9-3.5c-3,0.3-5.3,2.1-6.6,4.9c-3.1,6.4,0.7,12.6,6,15.1c4.7,2.3,9.7,2.5,14.6,1.2c5.4-1.4,10.6-3.4,15.9-4.9
			c3.5-1,7.1-2.1,10.6-2.2c9.5-0.2,17.3,4,23.8,10.7c0.2,0.2,0.7,0.6,0.8,0.9l-1.2,1.1c-0.3-0.2-0.7-0.6-0.9-0.8
			c-2.7-2.6-5-4.2-7.7-5.8c0,0,0,0,0,0c-0.1-0.1-0.3-0.2-0.4-0.3c-1.1-0.7-2.6-1.5-4.3-2.2c-1.8-0.7-4-0.9-6.3-0.8
			c-4.7,0.2-9.9,1.6-15.3,3.7c-2.7,1-5.4,2.4-8.1,3.4c-2.8,1-5.7,1.9-8.6,2.5c-5.9,1.2-12,1.3-17.4,0.3c-2.7-0.5-5.3-1.2-7.6-2.3
			c-2.3-1-4.3-2.3-5.8-3.8c-1.5-1.5-2.7-3.2-3.3-4.8c-0.6-1.6-0.8-3.2-0.9-4.5c0-1.3,0.1-2.3,0.3-3c0.1-0.7,0.2-1.1,0.2-1.1
			l-0.2-0.1c0,0-0.2,0.4-0.4,1C44.3,36.4,44,37.4,43.8,38.8z M109.6,46.4c3.4-0.9,6.7-0.2,9.9,1.1c4.3,1.7,7.9,4.3,11.1,7.6
			c-5.6,5-16.7,6.2-23,2.6c-2.5-1.5-3.9-3.8-3.5-6C104.7,48.6,106.9,47.1,109.6,46.4z"/>
	</g>
</g>
<g>
	<path class="st1" d="M18.3,136.6l-0.8,0.2l0.3-0.8c1-2.5,1.4-3.8,2.4-6.2l0-63.2c-0.5-1.3-0.9-2.3-1.3-3.3
		c-1.1-0.1-2.2-0.3-3.5-0.4c1,2.4,1.4,3.6,2.4,6c0,21.1,0,42.2,0,63.3c-1,2.5-1.4,3.7-2.4,6.3c5.3-1.4,8-2,13.3-3.3
		c-0.2-0.4-0.4-0.7-0.5-1C24.8,135,22.3,135.6,18.3,136.6z"/>
	<path class="st1" d="M29.4,85.8l0,10.7c1.6,5.5,3.1,10.3,5.2,17.1c0.5-1.9,1-3.6,1.5-5.2C33.6,100,31.9,94.5,29.4,85.8z"/>
	<path class="st1" d="M37.5,81.8c1.6-5.2,2.6-8.6,4-13l0.9-2.8c-0.5-0.1-1.1-0.1-1.7-0.2c-1.7,5.4-2.7,8.9-4,13.1
		C36.9,79.8,37.2,80.8,37.5,81.8z"/>
	<path class="st1" d="M43.8,130.6l-0.8,0.2l0.3-0.8c0.9-2.3,1.4-3.4,2.4-5.6l-0.1-38.6c-0.9,2.9-1.7,5.4-2.4,7.9
		c0,11,0,22.1,0.1,33.1c-1,2.2-1.4,3.4-2.4,5.7c5.3-1.2,7.9-1.7,13.2-2.7c-0.2-0.4-0.4-0.8-0.6-1.2
		C50.3,129.2,47.8,129.7,43.8,130.6z"/>
	<path class="st1" d="M61.6,127l-0.8,0.1l0.3-0.7c0.9-2.1,1.4-3.2,2.3-5.2l-0.1-50.8c-0.5-1-0.9-1.8-1.2-2.5
		c-1.1-0.1-2.3-0.2-3.6-0.3c1,2.1,1.4,3.1,2.4,5c0,17,0.1,34,0.1,51c-1,2.1-1.4,3.1-2.4,5.3c9.9-1.8,14.8-2.6,24.7-3.8
		c0.1-0.6,0.3-1.1,0.4-1.6C75.2,124.5,70.4,125.3,61.6,127z"/>
	<path class="st1" d="M72.6,73.4l0,2c2.4,0.1,4.3,0.2,7.3,0.4c2.3,0.9,3.4,1.3,5.7,2.1c0-1.1,0-2,0-2.9c-0.9-0.3-1.8-0.7-3-1.1
		C78.6,73.8,76.5,73.7,72.6,73.4z"/>
	<path class="st1" d="M72.6,89.5l0,1.8c1.8,0,3.4,0,5.7,0c2.3,0.7,3.4,1,5.7,1.7c0-1,0-1.9,0-2.7c-0.9-0.3-1.8-0.5-2.9-0.9
		C77.7,89.5,75.9,89.5,72.6,89.5z"/>
	<path class="st1" d="M93.2,122.4l-1,0.1l0.6-0.8c1.6-2,2.4-3,4-4.8c3.6-9.8,5.5-14.1,8.9-21.9l0.2-0.4l-0.3-0.7
		c-3.4-7.6-5.3-11.8-8.8-21.4c-0.8-0.9-1.5-1.6-2.1-2.4c-1.3-0.1-2.8-0.2-4.5-0.3c1.6,1.9,2.4,2.9,4.1,4.7c3.7,10,5.6,14,9.3,22.3
		c-3.7,8.3-5.3,11.8-9,21.8c-1.6,1.9-3.2,3.5-4.8,5.5c5.3-0.5,8.4-0.7,13.7-1.1c-0.1-0.6-0.2-1.2-0.3-1.7
		C99.9,121.7,97.4,121.9,93.2,122.4z"/>
	<path class="st1" d="M109.9,82.3c0.2,0.5,0.5,1.1,0.7,1.7c1.7-4,2.7-6.4,4.6-11c-0.1-0.8-0.2-1.4-0.3-2c-0.9,0-1.8-0.1-2.8-0.1
		c0.3,1.8,0.4,2.7,0.7,4.4C111.6,78.3,110.8,80.3,109.9,82.3z"/>
	<path class="st1" d="M114.9,120.9l-0.5,0l0.1-0.5c0.3-1.8,0.4-2.7,0.7-4.3c-1.8-4.7-2.8-7.1-4.5-11c-0.6,1.5-1.2,2.7-1.7,4
		c1.3,3,2.2,5.3,3.8,9.3c-0.3,1.7-0.4,2.6-0.7,4.4c5.3-0.2,7.9-0.3,13.2-0.4c-0.6-0.7-1.2-1.2-1.6-1.7
		C120.8,120.7,118.5,120.8,114.9,120.9z"/>
	<path class="st1" d="M132.7,120.4l-0.7,0l0.3-0.7c0.9-1.8,1.4-2.6,2.4-4.3l0-41.9c-0.5-0.8-0.8-1.5-1.2-2.1c-1.1,0-2.3,0-3.7-0.1
		c1,1.8,1.4,2.7,2.4,4.4c0,14,0,28.1,0,42.1c-1,1.7-1.4,2.6-2.4,4.4c5.3-0.1,7.9-0.2,13.2-0.2c-0.4-0.7-0.7-1.3-1-1.8
		C139,120.2,136.6,120.3,132.7,120.4z"/>
	<path class="st1" d="M172,76c-5,0-7.6,0.1-12.6,0.1v1.9c3.3,0,5.8,0,9.8-0.1c2.3,0.7,3.4,1,5.7,1.6c0-1,0-1.8,0-2.6
		C174.1,76.6,173.2,76.3,172,76z"/>
	<path class="st1" d="M153,120.1h-0.3l-0.1-0.2c-1-1.8-1.4-2.6-2.4-4.2l-0.1-0.1v-42l0.1-0.1c0.4-0.7,0.7-1.2,1-1.8
		c-0.4,0-0.7,0-1.1,0c-1,1.8-1.4,2.6-2.4,4.3c0,13.9,0,27.8,0,41.7c1,1.7,1.4,2.5,2.4,4.3c9,0,13.5,0,22.4,0.1
		c0.2-0.7,0.4-1.3,0.6-1.9C165.2,120.1,160.9,120.1,153,120.1z"/>
	<path class="st1" d="M179.7,120.3l-0.9,0l0.5-0.7c1.3-1.7,2-2.5,3.4-4.2c1.9-7.6,3.9-15.2,5.9-22.6c1.9-7,3.9-14.3,5.7-21.5
		c-0.1-0.1-0.2-0.2-0.2-0.3c-1.2,0-2.5,0.1-4,0.1c0.7,1,1.1,1.4,1.9,2.4c-3.7,14.8-7.7,28.3-11.4,43.2c-1.4,1.6-3,3.6-4.3,5.3
		c5.3,0.1,8.6,0.2,13.9,0.4c-0.2-0.8-0.4-1.4-0.6-2C186.2,120.4,183.7,120.4,179.7,120.3z"/>
	<path class="st1" d="M200.9,92.4c-0.5-1.7-0.9-3.1-1.4-5c-0.6,2.1-1,3.6-1.5,5.6c0.1,0.4,0.2,0.8,0.3,1.2h3L200.9,92.4z"/>
	<path class="st1" d="M206,121.1l-0.6,0l0.2-0.5c0.6-1.8,0.9-2.6,1.4-4.2c-1.6-7-2.5-10.2-4-16c-2.8,0-4.3,0-7.1-0.1
		c-0.2,0.7-0.3,1.3-0.5,1.9c1.6,0,3,0,5.1,0c1.7,6.1,2.5,9.2,4.2,16.4c-0.6,1.7-0.9,2.6-1.5,4.4c5.3,0.2,8,0.4,13.3,0.9
		c-0.6-0.9-1.1-1.6-1.6-2.2C212.1,121.4,209.7,121.3,206,121.1z"/>
	<path class="st1" d="M222.1,122.2l-0.7-0.1l0.3-0.6c0.9-1.7,1.4-2.6,2.4-4.2c0-10.1,0-20.2-0.1-30.3l0-15.1
		c-0.5-0.9-0.9-1.6-1.3-2.4c-1.1,0.1-2.2,0.1-3.5,0.2c1,1.8,1.4,2.6,2.4,4.4c0,15.2,0.1,30.4,0.1,45.6c-1,1.7-1.4,2.5-2.4,4.3
		c5.3,0.5,8,0.8,13.3,1.5c-0.5-0.9-0.8-1.7-1.2-2.4C228.4,122.8,225.9,122.6,222.1,122.2z"/>
	<path class="st1" d="M242.7,124.7l-0.6-0.1l0.3-0.5c0.6-1,0.9-1.6,1.4-2.5c-3-9.1-6.4-18.6-10.4-29l0,2.9c0,2.1,0,3.9,0,5.8
		c2.8,7.5,5.5,15,8,22.6c-0.6,1.1-0.9,1.6-1.5,2.7c5.3,0.8,8,1.2,13.3,2.2c-0.5-1-0.8-1.8-1.2-2.6
		C249,125.6,246.5,125.2,242.7,124.7z"/>
	<path class="st1" d="M242.1,91.2c0.8,2.2,1.7,4.5,2.5,6.7l-0.1-27c-0.6-1-1-1.8-1.4-2.6c-1,0.1-2.2,0.2-3.5,0.3
		c1,1.8,1.5,2.7,2.4,4.5C242.1,80.7,242.1,85.8,242.1,91.2z"/>
	<path class="st1" d="M258.8,127.3l-0.7-0.1l3.8-4.8c3.7-17.9,7.6-37.1,11.2-56l-0.6-0.8c-1.1,0.1-2.3,0.2-3.7,0.4
		c0.7,1.1,1.1,1.6,1.9,2.7c-3.6,18.8-7.2,36.5-11.1,55.3c-1.4,1.7-2.9,3.6-4.3,5.3c5.3,1,8.6,1.6,13.9,2.7c-0.3-1.1-0.5-1.8-0.7-2.6
		C265.3,128.6,262.8,128.1,258.8,127.3z"/>
	<path class="st1" d="M278.3,87c-0.5,2.8-0.9,4.8-1.4,7.4c0.1,0.7,0.3,1.4,0.4,2.1c1,0.1,1.8,0.1,2.9,0.2
		C279.5,92.8,279,90.4,278.3,87z"/>
	<path class="st1" d="M284.9,133.1l-0.4-0.1l1.5-5.4c-1.7-9.5-2.5-14-4.1-22.3c-2.7-0.3-4.3-0.5-7-0.8c-0.1,0.7-0.3,1.4-0.4,2.1
		c1.6,0.2,2.9,0.3,4.9,0.5c1.7,8.8,2.5,13.3,4.2,22.7c-0.6,2-0.9,3-1.4,5.1c5.2,1.3,7.8,2,12.9,3.5c-0.6-1.2-1.1-2.2-1.5-3.1
		C290.8,134.7,288.5,134,284.9,133.1z"/>
</g>
<g>
	<path d="M55.7,122.8l-0.5-1l-0.1-53.4l2.2-4.3c-4.8-0.4-7.4-0.7-12.2-1.2l-1.6,5.1c-1.5,4.7-2.6,8.4-4.4,14.3l-0.4,1.4l-0.4-1.4
		c-2.4-8-3.6-12.2-6-20.8c-4.8-0.5-7.4-0.9-12.2-1.5c0.8,2,1.3,3.2,2.1,5.3l0,0.2l0,63.4l0,0.1c-0.9,2.2-1.3,3.5-2.1,5.5
		c4.6-1.2,7.2-1.8,12-3c-0.8-1.6-1.3-2.6-2.2-4.4l0-0.2l-0.1-48.5l0.8,3c3.2,11.2,4.9,16.9,8.1,27.2c3.1-10.9,4.8-16.4,8-26.9
		l0.8-2.7l0.1,44.4l0,0.1c-0.8,2-1.3,3.1-2.1,4.9c4.7-1,7.3-1.6,11.8-2.5C56.7,124.7,56.3,123.9,55.7,122.8z"/>
	<path d="M89,113.6c-1.7,0.7-2.8,1.2-4.9,2.1l-0.1,0c-4.2,0.5-6.3,0.8-10.6,1.3l-0.5,0.1l-0.1-29.6l0.4,0c3.6,0,5.4,0,9-0.1l0.1,0
		l0.1,0c2.1,0.6,3.2,0.9,5.2,1.5l0-8.2c-1.9,0.5-3.1,0.9-5.2,1.5l-0.1,0L72.9,82l0-10.7l0.5,0c4.2,0.2,6.4,0.4,10.6,0.6l0.1,0
		c2.1,0.8,3.2,1.2,5.1,1.9l0-7.4c-10.4-0.7-15.7-1-26-1.9c0.8,1.6,1.2,2.6,2.1,4.3l0,0.2l0.1,51.1l0,0.1c-0.8,1.8-1.3,2.8-2,4.5
		c9-1.7,14-2.5,23.6-3.6C87.8,118.1,88.2,116.4,89,113.6z"/>
	<path d="M116.5,118.9c4.6-0.2,7.2-0.3,11.8-0.4c-1.2-1.3-2-2.1-3.4-3.5l-0.1-0.1c-3-7.7-4.8-11.5-7.4-17.3c-0.6-1.2-1.2-2.5-1.8-4
		l-0.1-0.2l0.1-0.2c0.7-1.4,1.2-2.7,1.8-4c2.6-5.8,4.4-9.6,7.4-17.3l0.1-0.1c1.4-1.4,2.2-2.2,3.4-3.5c-4.6-0.1-7.1-0.2-11.8-0.4
		c0.2,1.5,0.4,2.4,0.7,3.9l0,0.1l0,0.1c-2,5.1-3,7.5-5,12.1l-0.4,0.9l-0.4-0.9c-2-4.6-3-7-5-12.5l0-0.1l0-0.1
		c0.3-1.6,0.4-2.4,0.7-3.9c-4.7-0.2-7.2-0.4-11.8-0.6c1.2,1.4,2,2.4,3.4,3.9l0.1,0.1c3.6,9.6,5.4,13.8,8.8,21.4l0.5,1.1l-0.4,0.8
		c-3.6,8-5.4,12.1-8.9,21.9l-0.1,0.1c-1.4,1.6-2.2,2.5-3.4,4c4.6-0.5,7.2-0.7,11.7-0.9c-0.2-1.5-0.4-2.4-0.7-3.9l0-0.1l0-0.1
		c1.9-5.3,2.9-7.6,5-12.5l0.4-0.9l0.4,0.9c2,4.6,3,7,5,12.1l0,0.1l0,0.1C116.9,116.5,116.8,117.4,116.5,118.9z"/>
	<path d="M144.3,114.5L144.3,114.5l-0.1-42.2l0.1-0.1c0.8-1.4,1.3-2.3,2.1-3.6c-4.5,0-7.1-0.1-11.8-0.2c0.7,1.4,1.2,2.2,2.1,3.7
		l0.1,0.1l0,42.3l-0.1,0.1c-0.8,1.5-1.3,2.3-2.1,3.7c4.6-0.1,7.1-0.1,11.8-0.2C145.7,116.8,145.2,116,144.3,114.5z"/>
	<path d="M154.4,68.7c-0.9,1.6-1.3,2.4-2.2,3.9l0,13.8l0,27.7c0.9,1.5,1.4,2.4,2.2,3.9c2.4,0,4.5,0,6.4,0c4.8,0,8.9,0,15.4,0.1
		c0.8-2.8,1.3-4.3,2.1-6.8c-1.8,0.5-2.9,0.8-5,1.4l-0.1,0l-0.1,0c-5.2-0.1-7.8-0.1-13-0.1h-0.4V74h0.4c5.2,0,7.8,0,13-0.1l0.1,0
		l0.1,0c2.1,0.6,3.2,0.9,5.2,1.5v-6.9C168.5,68.7,163.8,68.7,154.4,68.7z"/>
	<path d="M216.7,115.9l-0.1-0.2c-2-8.1-4.1-16.2-6.1-24.2c-1.8-7.1-3.8-14.5-5.5-21.7l0-0.2l0.1-0.2c0.5-0.7,0.9-1.2,1.3-1.8
		c-4.4,0.2-7,0.3-11.4,0.4c0.4,0.6,0.8,1,1.3,1.7l0.1,0.2l0,0.2c-1.8,7.3-3.8,14.6-5.7,21.7c-2,7.4-4.1,15.1-5.9,22.6l-0.1,0.2
		c-1.2,1.5-1.9,2.3-2.9,3.6c4.6,0.1,7.1,0.2,11.8,0.3c-0.4-1.4-0.7-2.3-1.2-3.8l0-0.1l0-0.1c1.6-6.9,2.4-9.9,4.1-15.9l0.1-0.4l0.3,0
		c3.1,0,4.7,0,7.8,0.1l0.3,0l0.1,0.3c1.6,6,2.5,9.2,4.2,16.4l0,0.1l0,0.1c-0.5,1.5-0.8,2.4-1.3,3.8c4.6,0.2,7.2,0.4,11.8,0.8
		C218.6,118.4,217.9,117.5,216.7,115.9z M197.7,93.8l0.5-1.7c0.8-2.7,1.2-4.5,2.1-7.6l0.4-1.6l0.4,1.6c0.7,2.7,1.2,4.4,1.8,6.5
		l0.8,2.8H197.7z"/>
	<path d="M254.4,120.2l0-0.2l-0.3-51.1l0-0.1c0.8-1.7,1.3-2.7,2.1-4.3c-4.6,0.4-7.2,0.6-11.8,1c0.8,1.5,1.3,2.3,2.1,3.9l0.1,0.2
		l0.2,32.1l-0.8-2.3c-1.5-4-2.9-8-4.4-12c-2.3-6.1-4.6-12.4-6.8-18.7l-0.1-0.2l0.1-0.2c0.5-0.9,0.7-1.5,1.1-2.3
		c-4.7,0.3-7.3,0.5-11.8,0.7c0.8,1.4,1.2,2.3,2.1,3.8l0.1,0.1l0,15.3c0,10.1,0,20.3,0.1,30.4v0.1l-0.1,0.1c-0.9,1.5-1.3,2.3-2.1,3.7
		c4.6,0.4,7.2,0.7,11.9,1.3c-0.8-1.5-1.2-2.5-2.1-4.1l0-0.2c0-10,0-15.2-0.1-22.9l0-7.5l0.8,2.1c4.4,11.3,8.1,21.6,11.3,31.3
		l0.1,0.2l-0.1,0.2c-0.5,0.9-0.8,1.4-1.2,2.1c4.7,0.7,7.3,1.1,11.9,1.9C255.7,123,255.2,122,254.4,120.2z"/>
	<path d="M295.4,128.7l0-0.1c-3.5-20.5-7.3-41.5-11.7-64.3l0-0.2l0.1-0.1c0.6-1,0.9-1.6,1.4-2.4c-4.4,0.5-7,0.8-11.5,1.2l1.5,2.2
		l0,0.2c-3.6,19.1-7.5,38.4-11.3,56.3l-0.1,0.2l-3,3.7c4.6,0.9,7.2,1.4,11.8,2.4c-0.5-1.8-0.7-2.8-1.2-4.7l0-0.1l1.7-8.5
		c0.7-3.6,1.4-6.9,2.3-11.7l0.1-0.4l0.4,0c3.1,0.3,4.6,0.5,7.7,0.8l0.3,0l0.1,0.3c1.6,8.6,2.5,13,4.2,22.7l0,0.1l-1.3,4.7
		c4.6,1.2,7.2,1.9,11.5,3.1C297.2,132.3,296.6,131,295.4,128.7z M281.9,96.5c-1.9-0.1-2.9-0.2-4.8-0.3l-0.5,0l0.1-0.5
		c0.9-4.8,1.4-7.2,2.3-12.1l0.4-2.2l0.4,2.2c1,4.9,1.5,7.4,2.5,12.4l0.1,0.5L281.9,96.5z"/>
</g>
</svg>
