<?xml version="1.0" encoding="utf-8"?>
<!-- Generator: Adobe Illustrator 19.1.0, SVG Export Plug-In . SVG Version: 6.00 Build 0)  -->
<svg version="1.1" id="Layer_1" xmlns="http://www.w3.org/2000/svg" xmlns:xlink="http://www.w3.org/1999/xlink" x="0px" y="0px"
	 viewBox="0 0 213.2 87.6" style="enable-background:new 0 0 213.2 87.6;" xml:space="preserve">
<style type="text/css">
	.st0{fill:#D66F87;}
	.st1{fill:#711B1D;}
	.st2{fill:#FFFFFF;}
	.st3{fill:#292660;}
	.st4{fill:#00ACEC;}
	.st5{fill:#71B452;}
	.st6{fill:#AA252A;}
	.st7{fill-rule:evenodd;clip-rule:evenodd;fill:#00ACEC;}
	.st8{fill:#38673D;}
	.st9{fill:#9EC54C;}
	.st10{fill-rule:evenodd;clip-rule:evenodd;fill:#6BB476;}
	.st11{fill-rule:evenodd;clip-rule:evenodd;fill:#D66F87;}
	.st12{fill:#D35A2F;}
	.st13{fill:#E8AE4A;}
	.st14{fill-rule:evenodd;clip-rule:evenodd;fill:#E8AE4A;}
	.st15{fill:#38271B;}
	.st16{fill:#B8986D;}
	.st17{fill-rule:evenodd;clip-rule:evenodd;fill:#B8986D;}
	.st18{fill:#E0922E;}
	.st19{fill:#F9F2B6;}
	.st20{fill-rule:evenodd;clip-rule:evenodd;fill:#F9F2B6;}
	.st21{fill:#32338E;}
	.st22{fill-rule:evenodd;clip-rule:evenodd;fill:#D694BC;}
	.st23{fill-rule:evenodd;clip-rule:evenodd;fill:#38673D;}
	.st24{fill:#5AA69C;}
	.st25{fill:#39665D;}
	.st26{fill-rule:evenodd;clip-rule:evenodd;fill:#39665D;}
	.st27{fill-rule:evenodd;clip-rule:evenodd;fill:#5AA69C;}
	.st28{fill:#6C1E52;}
	.st29{fill-rule:evenodd;clip-rule:evenodd;fill:#6C1E52;}
	.st30{fill:#D694BC;}
	.st31{fill-rule:evenodd;clip-rule:evenodd;fill:#9EC54C;}
	.st32{fill-rule:evenodd;clip-rule:evenodd;fill:#D35A2F;}
	.st33{fill-rule:evenodd;clip-rule:evenodd;fill:#38271B;}
	.st34{fill-rule:evenodd;clip-rule:evenodd;fill:#292660;}
	.st35{fill-rule:evenodd;clip-rule:evenodd;fill:#711B1D;}
	.st36{fill-rule:evenodd;clip-rule:evenodd;fill:#E0922E;}
	.st37{fill-rule:evenodd;clip-rule:evenodd;}
	.st38{fill-rule:evenodd;clip-rule:evenodd;fill:#FFFFFF;}
</style>
<g>
	<g>
		<path class="st2" d="M104.1,6v17.7h3.1l1.7-0.7l-0.7,3.1H101l0.7-1.7V6L101,4.3h3.8L104.1,6z"/>
		<path class="st2" d="M109.4,26.1l1-1.7l3.4-19.2l-0.5-0.9h3.8l-0.5,0.9l3.4,19.2l1,1.7H117l0.4-1.7l-1.2-6.8H114l-1.2,6.8l0.4,1.7
			H109.4z M115.8,15.2l-0.7-4l-0.7,4H115.8z"/>
	</g>
	<g>
		<polygon class="st5" points="107.4,84.3 103.1,87.6 103.1,75.5 107.4,75.5 		"/>
		<polygon class="st6" points="116.1,87.6 111.7,84.3 111.7,75.5 116.1,75.5 		"/>
		<rect x="107.4" y="75.5" class="st2" width="4.3" height="8.8"/>
	</g>
	<g>
		<g>
			<path class="st11" d="M7.4,50.6c-0.7,0.7-1.3,1.4-2,2.1c0.5,0.8,0.9,1.7,1.4,2.5c-0.9-0.4-1.7-0.8-2.6-1.3
				c-0.7,0.7-1.3,1.4-2,2.1c0.1-1,0.3-1.9,0.4-2.8c-0.9-0.4-1.7-0.8-2.6-1.2c0.3,0,0.5-0.1,0.8-0.1c0.6-0.1,1.3-0.2,1.9-0.3
				c0.1,0,0.1,0,0.1-0.1c0.1-0.9,0.2-1.8,0.4-2.7c0,0,0,0,0-0.1c0.2,0.3,0.3,0.6,0.5,0.9c0.3,0.5,0.5,1,0.8,1.5
				c0,0.1,0.1,0.1,0.1,0.1C5.6,50.9,6.5,50.7,7.4,50.6z"/>
		</g>
		<g>
			<path class="st11" d="M205.8,50.6c0.7,0.7,1.3,1.4,2,2.1c-0.5,0.8-0.9,1.7-1.4,2.5c0.9-0.4,1.7-0.8,2.6-1.3
				c0.7,0.7,1.3,1.4,2,2.1c-0.1-1-0.3-1.9-0.4-2.8c0.9-0.4,1.7-0.8,2.6-1.2c-0.3,0-0.5-0.1-0.8-0.1c-0.6-0.1-1.3-0.2-1.9-0.3
				c-0.1,0-0.1,0-0.1-0.1c-0.1-0.9-0.2-1.8-0.4-2.7c0,0,0,0,0-0.1c-0.2,0.3-0.3,0.6-0.5,0.9c-0.3,0.5-0.5,1-0.8,1.5
				c0,0.1-0.1,0.1-0.1,0.1C207.7,50.9,206.7,50.7,205.8,50.6z"/>
		</g>
	</g>
	<g>
		<g>
			<path class="st0" d="M190.8,9.3c-0.2-0.5-0.3-0.7-0.3-0.7l-0.2,0c0,0,0.1,0.3,0.1,0.7c0.1,0.5,0.2,1.2,0.2,2.1
				c0,0.9-0.2,2-0.6,3.1c-0.4,1.1-1.2,2.3-2.3,3.3c-1.1,1-2.4,1.9-4,2.6c-1.6,0.7-3.3,1.2-5.2,1.6c-3.8,0.7-7.9,0.6-12-0.2
				c-2-0.4-4-1-5.9-1.7c-1.9-0.7-3.7-1.6-5.6-2.3c-3.7-1.5-7.3-2.4-10.5-2.5c-1.6-0.1-3.1,0.1-4.3,0.6c-1.2,0.5-2.2,1.1-3,1.5
				c-0.1,0.1-0.2,0.1-0.3,0.2c0,0,0,0,0,0c-1.9,1.1-3.4,2.2-5.3,4c-0.2,0.2-0.4,0.4-0.6,0.6l-0.8-0.8c0.1-0.2,0.4-0.5,0.6-0.6
				c4.5-4.6,9.8-7.5,16.4-7.3c2.5,0,4.9,0.8,7.3,1.5c3.7,1,7.2,2.4,10.9,3.4c3.4,0.9,6.8,0.7,10-0.8c3.6-1.7,6.3-6,4.1-10.4
				c-0.9-1.9-2.5-3.2-4.6-3.4c-2.4-0.3-4.7,0.2-6.2,2.4c-1.3,1.9-1.8,3.9-1,6.2c0.8,2.1,2.8,2.8,4.4,1.7c-2.5,0.5-3.9-0.6-4.2-3.2
				c-0.3-3,2.2-5.8,5.4-6.1c2.7-0.3,5.5,1.7,5.9,4.3c0.5,3-1.7,6.2-5.1,7.4c-3,1.1-6.1,1-9.1,0.3c-4.2-1-8.3-2.3-12.5-3.4
				c-7.4-2-13.8-0.1-19.6,4.6c-1.1,0.9-2.2,2-3.3,3c-2.1-2-2.7-5.5-1.3-7.6c1-1.6,2.2-1.9,4.4-1c-1.5-1.5-3.6-1.3-5,0.6
				c-1.5,2-1.6,5.4,0.1,8c0.4,0.6,0.8,1.2,0.8,1.2s-0.6,0.8-1.1,1.6c-0.8,1.2-1.1,1.8-1.8,2.9l3.4-3.9c0.3,0.3,0.7,0.8,0.7,0.8
				s-0.6,0.9-1.4,2.6c0.7-0.7,1.3-1.4,2.1-2.2c1,0.6,2,1.3,3.1,1.8c3.8,1.8,7.8,2.3,11.8,1.1c1-0.3,2-0.8,2.9-1.4
				c1.8-1.2,2.8-2.9,2.4-5.1c-0.3-1.8-1.3-3.1-2.8-3.8c2.2,0.5,4.5,1.3,6.8,2.3c1.8,0.7,3.6,1.7,5.6,2.5c1.9,0.8,4,1.4,6,1.9
				c4.2,1,8.5,1.3,12.5,0.6c2-0.3,3.9-0.9,5.6-1.8c1.7-0.8,3.2-1.9,4.3-3.2c1.1-1.2,1.9-2.6,2.2-3.9c0.4-1.3,0.4-2.5,0.3-3.4
				C191.1,10.5,190.9,9.8,190.8,9.3z M149.7,20.2c0.3,1.6-0.6,3.1-2.4,4.2c-4.3,2.5-12,1.7-15.8-1.8c2.2-2.3,4.7-4,7.7-5.2
				c2.2-0.9,4.5-1.4,6.8-0.7C147.8,17.2,149.3,18.2,149.7,20.2z"/>
		</g>
		<g>
			<path class="st0" d="M30.1,11.4c-0.1,0.9-0.1,2.1,0.3,3.4c0.4,1.3,1.1,2.7,2.2,3.9c1.1,1.2,2.6,2.3,4.3,3.2
				c1.7,0.8,3.6,1.4,5.6,1.8c4,0.7,8.4,0.3,12.5-0.6c2.1-0.5,4.1-1.1,6-1.9c2-0.8,3.7-1.7,5.6-2.5c2.3-1,4.7-1.8,6.8-2.3
				c-1.5,0.7-2.5,2-2.8,3.8c-0.3,2.2,0.7,3.9,2.4,5.1c0.9,0.6,1.9,1.1,2.9,1.4c4.1,1.2,8,0.7,11.8-1.1c1.1-0.5,2-1.2,3.1-1.8
				c0.7,0.8,1.4,1.5,2.1,2.2c-0.9-1.7-1.4-2.6-1.4-2.6s0.4-0.5,0.7-0.8l3.4,3.9c-0.6-1.1-1-1.7-1.8-2.9c-0.5-0.8-1.1-1.6-1.1-1.6
				s0.4-0.6,0.8-1.2c1.8-2.5,1.6-5.9,0.1-8c-1.4-1.8-3.6-2.1-5-0.6c2.1-0.9,3.4-0.6,4.4,1c1.4,2.2,0.8,5.7-1.3,7.6
				c-1.1-1-2.2-2.1-3.3-3c-5.8-4.7-12.2-6.6-19.6-4.6c-4.2,1.1-8.3,2.4-12.5,3.4c-3,0.7-6.1,0.8-9.1-0.3c-3.4-1.2-5.6-4.4-5.1-7.4
				c0.4-2.6,3.2-4.7,5.9-4.3c3.3,0.4,5.7,3.1,5.4,6.1c-0.2,2.6-1.6,3.7-4.2,3.2c1.6,1.2,3.6,0.4,4.4-1.7c0.8-2.2,0.2-4.3-1-6.2
				c-1.5-2.2-3.8-2.7-6.2-2.4c-2.1,0.2-3.6,1.5-4.6,3.4c-2.1,4.4,0.5,8.6,4.1,10.4c3.2,1.6,6.7,1.7,10,0.8c3.7-0.9,7.3-2.3,10.9-3.4
				c2.4-0.7,4.9-1.5,7.3-1.5c6.5-0.1,11.9,2.7,16.4,7.3c0.2,0.2,0.5,0.4,0.6,0.6l-0.8,0.8c-0.2-0.2-0.5-0.4-0.6-0.6
				c-1.9-1.8-3.4-2.9-5.3-4c0,0,0,0,0,0c-0.1-0.1-0.2-0.1-0.3-0.2c-0.8-0.5-1.8-1-3-1.5c-1.2-0.5-2.7-0.6-4.3-0.6
				c-3.2,0.1-6.8,1.1-10.5,2.5c-1.9,0.7-3.7,1.6-5.6,2.3c-1.9,0.7-3.9,1.3-5.9,1.7c-4.1,0.8-8.2,0.9-12,0.2
				c-1.9-0.4-3.6-0.9-5.2-1.6c-1.6-0.7-2.9-1.6-4-2.6c-1.1-1-1.8-2.2-2.3-3.3c-0.4-1.1-0.6-2.2-0.6-3.1c0-0.9,0.1-1.6,0.2-2.1
				C31,8.9,31,8.6,31,8.6l-0.2,0c0,0-0.1,0.2-0.3,0.7C30.5,9.8,30.3,10.5,30.1,11.4z M75.4,16.7c2.3-0.6,4.6-0.2,6.8,0.7
				c2.9,1.2,5.5,3,7.7,5.2c-3.8,3.5-11.5,4.3-15.8,1.8c-1.8-1-2.7-2.6-2.4-4.2C72.1,18.2,73.6,17.2,75.4,16.7z"/>
		</g>
	</g>
	<g>
		<path class="st0" d="M12.6,78.8L12,78.9l0.2-0.5c0.7-1.7,1-2.6,1.6-4.3l0-43.5c-0.4-0.9-0.6-1.6-0.9-2.3c-0.7-0.1-1.5-0.2-2.4-0.3
			c0.7,1.7,1,2.5,1.6,4.1c0,14.5,0,29.1,0,43.6c-0.7,1.7-1,2.6-1.7,4.3c3.7-0.9,5.5-1.4,9.1-2.3c-0.1-0.3-0.2-0.5-0.4-0.7
			C17,77.6,15.3,78.1,12.6,78.8z"/>
		<path class="st0" d="M20.3,43.8l0,7.3c1.1,3.8,2.1,7.1,3.6,11.8c0.4-1.3,0.7-2.5,1-3.6C23.1,53.5,22,49.8,20.3,43.8z"/>
		<path class="st0" d="M25.8,41c1.1-3.6,1.8-5.9,2.7-8.9l0.6-1.9c-0.4,0-0.7-0.1-1.1-0.1c-1.1,3.7-1.9,6.1-2.8,9
			C25.4,39.7,25.6,40.3,25.8,41z"/>
		<path class="st0" d="M30.1,74.6l-0.6,0.1l0.2-0.5c0.6-1.6,1-2.3,1.6-3.8l-0.1-26.6c-0.6,2-1.2,3.7-1.7,5.4c0,7.6,0,15.2,0.1,22.8
			c-0.7,1.5-1,2.3-1.6,3.9c3.6-0.8,5.5-1.2,9.1-1.9c-0.2-0.3-0.3-0.6-0.4-0.8C34.6,73.6,32.9,74,30.1,74.6z"/>
		<path class="st0" d="M42.4,72.1l-0.6,0.1l0.2-0.5c0.6-1.5,1-2.2,1.6-3.6l-0.1-35c-0.3-0.7-0.6-1.2-0.8-1.7
			c-0.8-0.1-1.6-0.1-2.5-0.2c0.7,1.4,1,2.1,1.7,3.5c0,11.7,0,23.4,0.1,35.1c-0.7,1.4-1,2.1-1.6,3.6c6.8-1.3,10.2-1.8,17-2.6
			c0.1-0.4,0.2-0.7,0.3-1.1C51.8,70.4,48.4,71,42.4,72.1z"/>
		<path class="st0" d="M50,35.3l0,1.4c1.6,0.1,3,0.2,5,0.3c1.6,0.6,2.4,0.9,3.9,1.5c0-0.8,0-1.4,0-2c-0.6-0.2-1.2-0.5-2-0.8
			C54.1,35.5,52.7,35.4,50,35.3z"/>
		<path class="st0" d="M50,46.4l0,1.3c1.2,0,2.3,0,3.9,0c1.6,0.5,2.4,0.7,3.9,1.1c0-0.7,0-1.3,0-1.8c-0.6-0.2-1.2-0.4-2-0.6
			C53.5,46.3,52.2,46.3,50,46.4z"/>
		<path class="st0" d="M64.1,68.9L63.4,69l0.4-0.6c1.1-1.4,1.7-2,2.8-3.3c2.5-6.7,3.8-9.7,6.2-15l0.1-0.3l-0.2-0.5
			c-2.3-5.2-3.6-8.1-6.1-14.7c-0.6-0.6-1-1.1-1.4-1.6c-0.9-0.1-1.9-0.1-3.1-0.2c1.1,1.3,1.7,2,2.8,3.2c2.5,6.9,3.8,9.7,6.4,15.4
			c-2.5,5.7-3.6,8.1-6.2,15c-1.1,1.3-2.2,2.4-3.3,3.8c3.6-0.4,5.8-0.5,9.4-0.7c-0.1-0.4-0.1-0.8-0.2-1.1
			C68.7,68.5,67,68.7,64.1,68.9z"/>
		<path class="st0" d="M75.6,41.4c0.2,0.4,0.3,0.7,0.5,1.1c1.2-2.7,1.9-4.4,3.1-7.6c-0.1-0.5-0.2-0.9-0.2-1.4c-0.6,0-1.2,0-1.9-0.1
			c0.2,1.3,0.3,1.9,0.5,3C76.8,38.6,76.2,40,75.6,41.4z"/>
		<path class="st0" d="M79.1,67.9l-0.4,0l0.1-0.4c0.2-1.2,0.3-1.8,0.5-3c-1.3-3.2-1.9-4.9-3.1-7.6c-0.4,1-0.8,1.9-1.1,2.7
			c0.9,2.1,1.5,3.6,2.6,6.4c-0.2,1.2-0.3,1.8-0.5,3c3.6-0.1,5.5-0.2,9.1-0.3c-0.4-0.5-0.8-0.8-1.1-1.2
			C83.1,67.8,81.5,67.9,79.1,67.9z"/>
		<path class="st0" d="M91.4,67.6l-0.5,0l0.2-0.4c0.7-1.2,1-1.8,1.6-2.9l0-28.8c-0.3-0.6-0.6-1-0.8-1.4c-0.8,0-1.6,0-2.5-0.1
			c0.7,1.2,1,1.8,1.7,3c0,9.7,0,19.3,0,29c-0.7,1.2-1,1.8-1.7,3c3.6-0.1,5.5-0.1,9.1-0.2c-0.3-0.5-0.5-0.9-0.7-1.2
			C95.7,67.5,94,67.5,91.4,67.6z"/>
		<path class="st0" d="M118.4,37c-3.5,0-5.3,0-8.6,0v1.3c2.3,0,4,0,6.7,0c1.6,0.5,2.4,0.7,4,1.1c0-0.7,0-1.3,0-1.8
			C119.8,37.4,119.2,37.3,118.4,37z"/>
		<path class="st0" d="M105.3,67.4h-0.2l-0.1-0.2c-0.7-1.2-1-1.8-1.7-2.9l0-0.1V35.4l0-0.1c0.3-0.5,0.5-0.8,0.7-1.2
			c-0.2,0-0.5,0-0.8,0c-0.7,1.2-1,1.8-1.7,2.9c0,9.6,0,19.1,0,28.7c0.7,1.1,1,1.7,1.7,2.9c6.2,0,9.3,0,15.4,0.1
			c0.1-0.5,0.3-0.9,0.4-1.3C113.7,67.4,110.8,67.4,105.3,67.4z"/>
		<path class="st0" d="M123.6,67.5l-0.6,0l0.4-0.5c0.9-1.2,1.4-1.7,2.3-2.9c1.3-5.2,2.7-10.5,4.1-15.5c1.3-4.8,2.7-9.8,3.9-14.8
			c-0.1-0.1-0.1-0.1-0.2-0.2c-0.8,0-1.7,0.1-2.8,0.1c0.5,0.7,0.8,1,1.3,1.6c-2.5,10.2-5.3,19.5-7.8,29.7c-0.9,1.1-2,2.5-3,3.7
			c3.6,0.1,5.9,0.2,9.5,0.3c-0.2-0.5-0.3-1-0.4-1.4C128.1,67.6,126.4,67.6,123.6,67.5z"/>
		<path class="st0" d="M138.2,48.3c-0.3-1.2-0.6-2.2-0.9-3.4c-0.4,1.4-0.7,2.5-1,3.8c0.1,0.3,0.1,0.5,0.2,0.8h2.1L138.2,48.3z"/>
		<path class="st0" d="M141.8,68.1l-0.4,0l0.1-0.4c0.4-1.2,0.6-1.8,1-2.9c-1.1-4.8-1.7-7-2.8-11c-1.9,0-3,0-4.9,0
			c-0.1,0.5-0.2,0.9-0.3,1.3c1.1,0,2.1,0,3.5,0c1.1,4.2,1.7,6.3,2.9,11.3c-0.4,1.2-0.6,1.8-1,3c3.6,0.2,5.5,0.3,9.1,0.6
			c-0.4-0.6-0.8-1.1-1.1-1.5C145.9,68.3,144.3,68.2,141.8,68.1z"/>
		<path class="st0" d="M152.8,68.8l-0.4,0l0.2-0.4c0.7-1.2,1-1.8,1.6-2.9c0-6.9,0-13.9,0-20.8l0-10.4c-0.4-0.7-0.6-1.1-0.9-1.6
			c-0.7,0-1.5,0.1-2.4,0.1c0.7,1.2,1,1.8,1.7,3c0,10.4,0,20.9,0.1,31.3c-0.7,1.2-1,1.7-1.7,2.9c3.7,0.3,5.5,0.5,9.2,1
			c-0.3-0.7-0.6-1.1-0.8-1.6C157.2,69.2,155.5,69.1,152.8,68.8z"/>
		<path class="st0" d="M167,70.5l-0.4-0.1l0.2-0.4c0.4-0.7,0.6-1.1,1-1.7c-2-6.2-4.4-12.8-7.1-19.9l0,2c0,1.4,0,2.7,0,4
			c1.9,5.1,3.8,10.3,5.5,15.6c-0.4,0.7-0.6,1.1-1,1.8c3.7,0.5,5.5,0.8,9.2,1.5c-0.3-0.7-0.6-1.2-0.8-1.8
			C171.3,71.2,169.7,70.9,167,70.5z"/>
		<path class="st0" d="M166.6,47.5c0.6,1.5,1.1,3.1,1.7,4.6l-0.1-18.6c-0.4-0.7-0.7-1.2-1-1.8c-0.7,0.1-1.5,0.1-2.4,0.2
			c0.7,1.3,1,1.9,1.7,3.1C166.6,40.3,166.6,43.8,166.6,47.5z"/>
		<path class="st0" d="M178.1,72.4l-0.5-0.1l2.6-3.3c2.6-12.3,5.3-25.5,7.7-38.6l-0.4-0.6c-0.8,0.1-1.6,0.2-2.5,0.3
			c0.5,0.7,0.8,1.1,1.3,1.8c-2.4,13-4.9,25.1-7.6,38c-0.9,1.2-2,2.5-2.9,3.7c3.7,0.7,5.9,1.1,9.5,1.9c-0.2-0.7-0.3-1.3-0.5-1.8
			C182.6,73.2,180.9,72.9,178.1,72.4z"/>
		<path class="st0" d="M191.5,44.6c-0.4,1.9-0.6,3.3-1,5.1c0.1,0.5,0.2,1,0.3,1.5c0.7,0,1.2,0.1,2,0.1C192.3,48.6,192,47,191.5,44.6
			z"/>
		<path class="st0" d="M196.1,76.4l-0.3-0.1l1.1-3.7c-1.2-6.5-1.7-9.6-2.8-15.3c-1.9-0.2-2.9-0.3-4.8-0.5c-0.1,0.5-0.2,1-0.3,1.5
			c1.1,0.1,2,0.2,3.4,0.4c1.2,6.1,1.7,9.2,2.9,15.6c-0.4,1.4-0.6,2.1-1,3.5c3.6,0.9,5.4,1.4,8.9,2.4c-0.4-0.9-0.7-1.5-1.1-2.1
			C200.1,77.4,198.5,77,196.1,76.4z"/>
	</g>
	<g>
		<path class="st2" d="M38.3,69.2L38,68.5l-0.1-36.8l1.5-2.9c-3.3-0.3-5.1-0.5-8.4-0.8l-1.1,3.5c-1,3.2-1.8,5.8-3,9.8l-0.3,0.9
			l-0.3-0.9c-1.7-5.5-2.5-8.4-4.2-14.3c-3.3-0.4-5.1-0.6-8.4-1c0.5,1.4,0.9,2.2,1.5,3.6l0,0.1l0,43.6l0,0.1
			c-0.6,1.5-0.9,2.4-1.5,3.8c3.1-0.8,4.9-1.2,8.2-2c-0.6-1.1-0.9-1.8-1.5-3l0-0.1l0-33.4l0.6,2c2.2,7.7,3.4,11.7,5.6,18.7
			c2.1-7.5,3.3-11.3,5.5-18.5l0.6-1.8l0.1,30.6l0,0.1c-0.6,1.4-0.9,2.1-1.4,3.4c3.2-0.7,5-1.1,8.1-1.7C39,70.6,38.7,70,38.3,69.2z"
			/>
		<path class="st2" d="M61.3,62.9c-1.2,0.5-2,0.8-3.4,1.4l-0.1,0c-2.9,0.3-4.3,0.5-7.3,0.9l-0.3,0l0-20.4l0.3,0c2.5,0,3.7,0,6.2,0h0
			l0,0c1.4,0.4,2.2,0.7,3.6,1l0-5.7c-1.3,0.4-2.1,0.6-3.6,1l0,0l-6.5-0.1l0-7.3l0.3,0c2.9,0.2,4.4,0.2,7.3,0.4l0.1,0
			c1.4,0.5,2.2,0.8,3.5,1.3l0-5.1c-7.2-0.4-10.8-0.7-17.9-1.3c0.5,1.1,0.9,1.8,1.4,3l0,0.1L45,67.5l0,0.1c-0.6,1.2-0.9,2-1.4,3.1
			c6.2-1.1,9.6-1.7,16.3-2.5C60.4,66,60.7,64.9,61.3,62.9z"/>
		<path class="st2" d="M80.2,66.6c3.2-0.1,4.9-0.2,8.1-0.3c-0.9-0.9-1.4-1.5-2.3-2.4l-0.1-0.1c-2.1-5.3-3.3-7.9-5.1-11.9
			c-0.4-0.8-0.8-1.7-1.2-2.7L79.5,49l0.1-0.1c0.4-1,0.9-1.9,1.2-2.7c1.8-4,3-6.6,5.1-11.9l0.1-0.1c0.9-1,1.5-1.5,2.3-2.4
			c-3.1-0.1-4.9-0.1-8.1-0.3c0.2,1,0.3,1.6,0.5,2.7l0,0.1l0,0.1c-1.4,3.5-2.1,5.1-3.4,8.3l-0.3,0.6l-0.3-0.6c-1.3-3.1-2-4.8-3.4-8.6
			l0-0.1l0-0.1c0.2-1.1,0.3-1.7,0.5-2.7c-3.2-0.1-5-0.2-8.1-0.4c0.8,1,1.4,1.6,2.4,2.7l0.1,0.1c2.5,6.6,3.7,9.5,6.1,14.7l0.3,0.7
			l-0.2,0.6c-2.5,5.5-3.7,8.3-6.2,15.1l-0.1,0.1c-1,1.1-1.5,1.7-2.3,2.8c3.2-0.3,4.9-0.5,8.1-0.6c-0.2-1-0.3-1.6-0.5-2.7l0-0.1
			l0-0.1c1.3-3.6,2-5.2,3.4-8.6l0.3-0.6l0.3,0.6c1.4,3.2,2.1,4.8,3.4,8.3l0,0.1l0,0.1C80.5,64.9,80.4,65.5,80.2,66.6z"/>
		<path class="st2" d="M99.3,63.6L99.3,63.6l0-29l0-0.1c0.6-1,0.9-1.6,1.4-2.5c-3.1,0-4.9-0.1-8.1-0.1c0.5,1,0.8,1.5,1.4,2.5l0,0.1
			l0,29.1l0,0.1c-0.6,1-0.9,1.6-1.4,2.5c3.1-0.1,4.9-0.1,8.1-0.1C100.2,65.1,99.9,64.5,99.3,63.6z"/>
		<path class="st2" d="M106.3,32c-0.6,1.1-0.9,1.7-1.5,2.7v9.5v19.1c0.6,1,0.9,1.6,1.5,2.7c1.7,0,3.1,0,4.4,0c3.3,0,6.1,0,10.6,0.1
			c0.6-1.9,0.9-3,1.4-4.7c-1.2,0.3-2,0.6-3.4,1l0,0l0,0c-3.6,0-5.4,0-9,0h-0.3V35.7h0.3c3.6,0,5.4,0,9,0l0,0l0,0
			c1.4,0.4,2.2,0.6,3.6,1v-4.8C116,32,112.7,32,106.3,32z"/>
		<path class="st2" d="M149.1,64.5l-0.1-0.1c-1.4-5.6-2.8-11.2-4.2-16.6c-1.3-4.9-2.6-10-3.8-15l0-0.1l0.1-0.1
			c0.4-0.5,0.6-0.8,0.9-1.2c-3,0.1-4.8,0.2-7.9,0.3c0.3,0.4,0.5,0.7,0.9,1.2l0.1,0.1l0,0.1c-1.2,5-2.6,10.1-3.9,15
			c-1.4,5.1-2.8,10.4-4.1,15.6l-0.1,0.1c-0.8,1-1.3,1.6-2,2.4c3.1,0.1,4.9,0.1,8.1,0.2c-0.3-1-0.5-1.6-0.8-2.6l0-0.1l0-0.1
			c1.1-4.8,1.7-6.8,2.8-10.9l0.1-0.3l0.2,0c2.1,0,3.2,0,5.4,0l0.2,0l0.1,0.2c1.1,4.1,1.7,6.3,2.9,11.3l0,0.1l0,0.1
			c-0.4,1-0.6,1.6-0.9,2.6c3.2,0.1,5,0.3,8.1,0.5C150.4,66.2,150,65.6,149.1,64.5z M136,49.3l0.3-1.2c0.5-1.9,0.8-3.1,1.4-5.3
			l0.3-1.1l0.3,1.1c0.5,1.9,0.8,3,1.2,4.5l0.5,1.9H136z"/>
		<path class="st2" d="M175.1,67.5l0-0.1l-0.2-35.2l0-0.1c0.6-1.2,0.9-1.9,1.4-3c-3.2,0.3-5,0.4-8.1,0.7c0.5,1,0.9,1.6,1.5,2.7
			l0,0.1l0.1,22.1l-0.6-1.6c-1-2.8-2-5.5-3-8.2c-1.6-4.2-3.2-8.6-4.7-12.9l0-0.1l0.1-0.1c0.3-0.6,0.5-1,0.8-1.5
			c-3.2,0.2-5,0.3-8.1,0.5c0.5,1,0.8,1.5,1.4,2.6l0,0.1l0,10.5c0,7,0,13.9,0,20.9v0.1l0,0.1c-0.6,1-0.9,1.6-1.4,2.5
			c3.2,0.3,5,0.5,8.2,0.9c-0.5-1.1-0.9-1.7-1.4-2.9l0-0.1c0-6.9,0-10.5,0-15.8l0-5.2l0.6,1.5c3,7.8,5.6,14.8,7.8,21.6l0,0.1
			l-0.1,0.1c-0.3,0.6-0.5,1-0.8,1.5c3.2,0.5,5,0.8,8.2,1.3C176,69.4,175.7,68.7,175.1,67.5z"/>
		<path class="st2" d="M203.3,73.3L203.3,73.3c-2.4-14.2-5.1-28.6-8.1-44.3l0-0.1l0.1-0.1c0.4-0.7,0.6-1.1,1-1.7
			c-3.1,0.3-4.8,0.5-7.9,0.9l1.1,1.5l0,0.1c-2.5,13.1-5.2,26.4-7.8,38.8l-0.1,0.1l-2,2.6c3.2,0.6,5,1,8.2,1.7
			c-0.3-1.2-0.5-1.9-0.9-3.3l0-0.1l1.1-5.9c0.5-2.5,0.9-4.8,1.6-8l0.1-0.3l0.3,0c2.1,0.2,3.2,0.3,5.3,0.6l0.2,0l0,0.2
			c1.1,5.9,1.7,9,2.9,15.6l0,0.1l-0.9,3.3c3.2,0.8,4.9,1.3,7.9,2.2C204.5,75.8,204.1,74.9,203.3,73.3z M194,51.1
			c-1.3-0.1-2-0.1-3.3-0.2l-0.3,0l0.1-0.3c0.6-3.3,1-5,1.6-8.3l0.3-1.5l0.3,1.5c0.7,3.4,1,5.1,1.7,8.6l0.1,0.4L194,51.1z"/>
	</g>
</g>
</svg>
