<?xml version="1.0" encoding="utf-8"?>
<!-- Generator: Adobe Illustrator 19.1.0, SVG Export Plug-In . SVG Version: 6.00 Build 0)  -->
<svg version="1.1" id="Layer_1" xmlns="http://www.w3.org/2000/svg" xmlns:xlink="http://www.w3.org/1999/xlink" x="0px" y="0px"
	 viewBox="0 0 379.8 96.1" style="enable-background:new 0 0 379.8 96.1;" xml:space="preserve">
<style type="text/css">
	.st0{fill:#D66F87;}
	.st1{fill:#711B1D;}
	.st2{fill:#FFFFFF;}
	.st3{fill:#292660;}
	.st4{fill:#00ACEC;}
	.st5{fill:#71B452;}
	.st6{fill:#AA252A;}
	.st7{fill-rule:evenodd;clip-rule:evenodd;fill:#00ACEC;}
	.st8{fill:#38673D;}
	.st9{fill:#9EC54C;}
	.st10{fill-rule:evenodd;clip-rule:evenodd;fill:#6BB476;}
	.st11{fill-rule:evenodd;clip-rule:evenodd;fill:#D66F87;}
	.st12{fill:#D35A2F;}
	.st13{fill:#E8AE4A;}
	.st14{fill-rule:evenodd;clip-rule:evenodd;fill:#E8AE4A;}
	.st15{fill:#38271B;}
	.st16{fill:#B8986D;}
	.st17{fill-rule:evenodd;clip-rule:evenodd;fill:#B8986D;}
	.st18{fill:#E0922E;}
	.st19{fill:#F9F2B6;}
	.st20{fill-rule:evenodd;clip-rule:evenodd;fill:#F9F2B6;}
	.st21{fill:#32338E;}
	.st22{fill-rule:evenodd;clip-rule:evenodd;fill:#D694BC;}
	.st23{fill-rule:evenodd;clip-rule:evenodd;fill:#38673D;}
	.st24{fill:#5AA69C;}
	.st25{fill:#39665D;}
	.st26{fill-rule:evenodd;clip-rule:evenodd;fill:#39665D;}
	.st27{fill-rule:evenodd;clip-rule:evenodd;fill:#5AA69C;}
	.st28{fill:#6C1E52;}
	.st29{fill-rule:evenodd;clip-rule:evenodd;fill:#6C1E52;}
	.st30{fill:#D694BC;}
	.st31{fill-rule:evenodd;clip-rule:evenodd;fill:#9EC54C;}
	.st32{fill-rule:evenodd;clip-rule:evenodd;fill:#D35A2F;}
	.st33{fill-rule:evenodd;clip-rule:evenodd;fill:#38271B;}
	.st34{fill-rule:evenodd;clip-rule:evenodd;fill:#292660;}
	.st35{fill-rule:evenodd;clip-rule:evenodd;fill:#711B1D;}
	.st36{fill-rule:evenodd;clip-rule:evenodd;fill:#E0922E;}
	.st37{fill-rule:evenodd;clip-rule:evenodd;}
	.st38{fill-rule:evenodd;clip-rule:evenodd;fill:#FFFFFF;}
</style>
<g>
	<path class="st0" d="M15.8,96.1H0l4.1-6.8L18,9.7L15.8,6h15.6l-2.2,3.7l13.9,79.6l4.1,6.8H31.4l1.8-6.8l-5-28.2H19l-4.8,28.2
		L15.8,96.1z M20.7,51.1h5.7l-2.9-16.4L20.7,51.1z"/>
	<path class="st0" d="M89.9,22.9v66.5l2.9,6.8H77l1.7-4L65.6,49v40.3l2.9,6.8H52.7l2.9-6.8V22.9L52.7,16h12.9l14.3,47.2V22.9L77,16
		h15.8L89.9,22.9z"/>
	<path class="st0" d="M124.1,89.3l2.9,6.8h-15.8l2.9-6.8V26.1h-6.7l-6.8,2.9V16h37.2v12.9l-6.9-2.9h-6.7V89.3z"/>
	<path class="st0" d="M177,96.1h-28.7l-2.9-6.8V22.9l2.9-6.8H177l2.9,6.8v66.5L177,96.1z M169.8,26.1h-14.3v60.1h14.3V26.1z"/>
	<path class="st0" d="M207.1,22.9l-2.9-6.8H220l-2.9,6.8v66.5l-2.9,6.8h-23.8l-2.9-6.8V61.1h12.9l-2.9,6.8v18.2h9.5V22.9z"/>
	<path class="st0" d="M240.6,22.9v66.5l2.9,6.8h-15.8l2.9-6.8V22.9l-2.9-6.8h15.8L240.6,22.9z"/>
	<path class="st0" d="M274.7,89.3l2.9,6.8h-15.8l2.9-6.8V26.1H258l-6.8,2.9V16h37.2v12.9l-6.9-2.9h-6.7V89.3z"/>
	<path class="st0" d="M327.6,96.1H299l-2.9-6.8V22.9L299,16h28.7l2.9,6.8v66.5L327.6,96.1z M320.5,26.1h-14.3v60.1h14.3V26.1z"/>
	<path class="st0" d="M362.8,51.1h-19.5l-2.9-6.8V22.9l2.9-6.8h26.7v12.9l-6.8-2.9h-12.7v15h19.5l2.9,6.8v41.4l-2.9,6.8h-26.7
		l-2.9-6.8V61.1h12.9l-2.9,6.8v18.2h12.3V51.1z"/>
</g>
<g>
	<path class="st1" d="M19.8,93.1H4l4.1-6.8L22,6.7L19.8,3h15.6l-2.2,3.7l13.9,79.6l4.1,6.8H35.4l1.8-6.8l-5-28.2H23l-4.8,28.2
		L19.8,93.1z M24.7,48.1h5.7l-2.9-16.4L24.7,48.1z"/>
	<path class="st1" d="M93.9,19.9v66.5l2.9,6.8H81l1.7-4L69.6,46v40.3l2.9,6.8H56.7l2.9-6.8V19.9L56.7,13h12.9l14.3,47.2V19.9L81,13
		h15.8L93.9,19.9z"/>
	<path class="st1" d="M128.1,86.3l2.9,6.8h-15.8l2.9-6.8V23.1h-6.7l-6.8,2.9V13h37.2v12.9l-6.9-2.9h-6.7V86.3z"/>
	<path class="st1" d="M181,93.1h-28.7l-2.9-6.8V19.9l2.9-6.8H181l2.9,6.8v66.5L181,93.1z M173.8,23.1h-14.3v60.1h14.3V23.1z"/>
	<path class="st1" d="M211.1,19.9l-2.9-6.8H224l-2.9,6.8v66.5l-2.9,6.8h-23.8l-2.9-6.8V58.1h12.9l-2.9,6.8v18.2h9.5V19.9z"/>
	<path class="st1" d="M244.6,19.9v66.5l2.9,6.8h-15.8l2.9-6.8V19.9l-2.9-6.8h15.8L244.6,19.9z"/>
	<path class="st1" d="M278.7,86.3l2.9,6.8h-15.8l2.9-6.8V23.1H262l-6.8,2.9V13h37.2v12.9l-6.9-2.9h-6.7V86.3z"/>
	<path class="st1" d="M331.6,93.1H303l-2.9-6.8V19.9L303,13h28.7l2.9,6.8v66.5L331.6,93.1z M324.5,23.1h-14.3v60.1h14.3V23.1z"/>
	<path class="st1" d="M366.8,48.1h-19.5l-2.9-6.8V19.9l2.9-6.8h26.7v12.9l-6.8-2.9h-12.7v15h19.5l2.9,6.8v41.4l-2.9,6.8h-26.7
		l-2.9-6.8V58.1h12.9l-2.9,6.8v18.2h12.3V48.1z"/>
</g>
<g>
	<path class="st2" d="M22.8,90.1H7l4.1-6.8L25,3.7L22.8,0h15.6l-2.2,3.7l13.9,79.6l4.1,6.8H38.4l1.8-6.8l-5-28.2H26l-4.8,28.2
		L22.8,90.1z M27.7,45.1h5.7l-2.9-16.4L27.7,45.1z"/>
	<path class="st2" d="M96.9,16.9v66.5l2.9,6.8H84l1.7-4L72.6,43v40.3l2.9,6.8H59.7l2.9-6.8V16.9L59.7,10h12.9l14.3,47.2V16.9L84,10
		h15.8L96.9,16.9z"/>
	<path class="st2" d="M131.1,83.3l2.9,6.8h-15.8l2.9-6.8V20.1h-6.7l-6.8,2.9V10h37.2v12.9l-6.9-2.9h-6.7V83.3z"/>
	<path class="st2" d="M184,90.1h-28.7l-2.9-6.8V16.9l2.9-6.8H184l2.9,6.8v66.5L184,90.1z M176.8,20.1h-14.3v60.1h14.3V20.1z"/>
	<path class="st2" d="M214.1,16.9l-2.9-6.8H227l-2.9,6.8v66.5l-2.9,6.8h-23.8l-2.9-6.8V55.1h12.9l-2.9,6.8v18.2h9.5V16.9z"/>
	<path class="st2" d="M247.6,16.9v66.5l2.9,6.8h-15.8l2.9-6.8V16.9l-2.9-6.8h15.8L247.6,16.9z"/>
	<path class="st2" d="M281.7,83.3l2.9,6.8h-15.8l2.9-6.8V20.1H265l-6.8,2.9V10h37.2v12.9l-6.9-2.9h-6.7V83.3z"/>
	<path class="st2" d="M334.6,90.1H306l-2.9-6.8V16.9L306,10h28.7l2.9,6.8v66.5L334.6,90.1z M327.5,20.1h-14.3v60.1h14.3V20.1z"/>
	<path class="st2" d="M369.8,45.1h-19.5l-2.9-6.8V16.9l2.9-6.8h26.7v12.9l-6.8-2.9h-12.7v15h19.5l2.9,6.8v41.4l-2.9,6.8h-26.7
		l-2.9-6.8V55.1h12.9l-2.9,6.8v18.2h12.3V45.1z"/>
</g>
</svg>
