<?xml version="1.0" encoding="utf-8"?>
<!-- Generator: Adobe Illustrator 19.1.0, SVG Export Plug-In . SVG Version: 6.00 Build 0)  -->
<svg version="1.1" id="Layer_1" xmlns="http://www.w3.org/2000/svg" xmlns:xlink="http://www.w3.org/1999/xlink" x="0px" y="0px"
	 viewBox="-466.8 772.6 516.2 96.1" style="enable-background:new -466.8 772.6 516.2 96.1;" xml:space="preserve">
<style type="text/css">
	.st0{fill:#D66F87;}
	.st1{fill:#711B1D;}
	.st2{fill:#FFFFFF;}
	.st3{fill:#CE7689;}
	.st4{fill:#6F1717;}
</style>
<g>
	<g>
		<path class="st3" d="M-451,868.8h-15.8l4.1-6.8l13.9-79.6l-2.2-3.7h15.6l-2.2,3.7l13.9,79.6l4.1,6.8h-15.8l1.8-6.8l-5-28.2h-9.3
			l-4.8,28.2L-451,868.8z M-446,823.7h5.7l-2.9-16.4L-446,823.7z"/>
		<path class="st3" d="M-380.8,861.9l4,6.8h-15.8l1.8-6.8l-6.1-38.2h-4.3v38.2l2.9,6.8h-15.8l2.9-6.8v-66.5l-2.9-6.8h34.4l2.9,6.8
			v21.4l-2.9,6.8h-7.2L-380.8,861.9z M-401.2,798.7v15h14.3v-15H-401.2z"/>
		<path class="st3" d="M-346.1,815.2l7.3-26.6h15.8l-2.9,6.8v66.5l2.9,6.8h-15.8l2.9-6.8v-47.3l-10.1,37.6l-10.1-37.6v47.3l2.9,6.8
			h-15.8l2.9-6.8v-66.5l-2.9-6.8h15.8L-346.1,815.2z"/>
		<path class="st3" d="M-301.8,868.8h-15.8l4.2-6.8l13-66.5l-1.4-6.8h15.6l-1.4,6.8l13,66.5l4.2,6.8h-15.8l1.5-6.8l-3.5-18.2h-11.7
			l-3.5,18.2L-301.8,868.8z M-297.8,833.7h7.7l-3.9-19.6L-297.8,833.7z"/>
		<path class="st3" d="M-214.8,861.9l2.9,6.8h-15.8l2.9-6.8v-63.3h-6.7l-6.8,2.9v-12.9h37.2v12.9l-6.9-2.9h-6.7V861.9z"/>
		<path class="st3" d="M-169.1,795.5l-2.9-6.8h15.8l-2.9,6.8v66.5l-2.9,6.8h-25.8l-2.9-6.8v-66.5l-2.9-6.8h15.8l-2.9,6.8v63.3h11.5
			V795.5z"/>
		<path class="st3" d="M-100.7,861.9l2.9,6.8h-15.8l2.9-6.8v-73.3h-6.7l-6.8,2.9v-12.9H-87v12.9l-6.9-2.9h-6.7V861.9z"/>
		<path class="st3" d="M-71.2,868.8H-87l4.2-6.8l13-66.5l-1.4-6.8h15.6l-1.4,6.8l13,66.5l4.2,6.8h-15.8l1.5-6.8l-3.5-18.2h-11.7
			l-3.5,18.2L-71.2,868.8z M-67.3,833.7h7.7l-3.9-19.6L-67.3,833.7z"/>
		<path class="st3" d="M-1.9,788.7v12.9l-6.8-2.9h-15.5v60.1h15.5l6.8-2.9l-2.9,12.9h-26.7l-2.9-6.8v-66.5l2.9-6.8H-1.9z"/>
		<path class="st3" d="M39.5,868.8H10.9L8,861.9v-66.5l2.9-6.8h28.7l2.9,6.8v66.5L39.5,868.8z M32.3,798.7H18v60.1h14.3V798.7z"/>
	</g>
	<g>
		<path class="st4" d="M-447,865.8h-15.8l4.1-6.8l13.9-79.6l-2.2-3.7h15.6l-2.2,3.7l13.9,79.6l4.1,6.8h-15.8l1.8-6.8l-5-28.2h-9.3
			l-4.8,28.2L-447,865.8z M-442,820.7h5.7l-2.9-16.4L-442,820.7z"/>
		<path class="st4" d="M-376.8,858.9l4,6.8h-15.8l1.8-6.8l-6.1-38.2h-4.3v38.2l2.9,6.8h-15.8l2.9-6.8v-66.5l-2.9-6.8h34.4l2.9,6.8
			v21.4l-2.9,6.8h-7.2L-376.8,858.9z M-397.2,795.7v15h14.3v-15H-397.2z"/>
		<path class="st4" d="M-342.1,812.2l7.3-26.6h15.8l-2.9,6.8v66.5l2.9,6.8h-15.8l2.9-6.8v-47.3l-10.1,37.6l-10.1-37.6v47.3l2.9,6.8
			h-15.8l2.9-6.8v-66.5l-2.9-6.8h15.8L-342.1,812.2z"/>
		<path class="st4" d="M-297.8,865.8h-15.8l4.2-6.8l13-66.5l-1.4-6.8h15.6l-1.4,6.8l13,66.5l4.2,6.8h-15.8l1.5-6.8l-3.5-18.2h-11.7
			l-3.5,18.2L-297.8,865.8z M-293.8,830.7h7.7l-3.9-19.6L-293.8,830.7z"/>
		<path class="st4" d="M-210.8,858.9l2.9,6.8h-15.8l2.9-6.8v-63.3h-6.7l-6.8,2.9v-12.9h37.2v12.9l-6.9-2.9h-6.7V858.9z"/>
		<path class="st4" d="M-165.1,792.5l-2.9-6.8h15.8l-2.9,6.8v66.5l-2.9,6.8h-25.8l-2.9-6.8v-66.5l-2.9-6.8h15.8l-2.9,6.8v63.3h11.5
			V792.5z"/>
		<path class="st4" d="M-96.7,858.9l2.9,6.8h-15.8l2.9-6.8v-73.3h-6.7l-6.8,2.9v-12.9H-83v12.9l-6.9-2.9h-6.7V858.9z"/>
		<path class="st4" d="M-67.2,865.8H-83l4.2-6.8l13-66.5l-1.4-6.8h15.6l-1.4,6.8l13,66.5l4.2,6.8h-15.8l1.5-6.8l-3.5-18.2h-11.7
			l-3.5,18.2L-67.2,865.8z M-63.3,830.7h7.7l-3.9-19.6L-63.3,830.7z"/>
		<path class="st4" d="M2.1,785.7v12.9l-6.8-2.9h-15.5v60.1h15.5l6.8-2.9l-2.9,12.9h-26.7l-2.9-6.8v-66.5l2.9-6.8H2.1z"/>
		<path class="st4" d="M43.5,865.8H14.9l-2.9-6.8v-66.5l2.9-6.8h28.7l2.9,6.8v66.5L43.5,865.8z M36.3,795.7H22v60.1h14.3V795.7z"/>
	</g>
	<g>
		<path class="st2" d="M-444,862.8h-15.8l4.1-6.8l13.9-79.6l-2.2-3.7h15.6l-2.2,3.7l13.9,79.6l4.1,6.8h-15.8l1.8-6.8l-5-28.2h-9.3
			l-4.8,28.2L-444,862.8z M-439,817.7h5.7l-2.9-16.4L-439,817.7z"/>
		<path class="st2" d="M-373.8,855.9l4,6.8h-15.8l1.8-6.8l-6.1-38.2h-4.3v38.2l2.9,6.8h-15.8l2.9-6.8v-66.5l-2.9-6.8h34.4l2.9,6.8
			v21.4l-2.9,6.8h-7.2L-373.8,855.9z M-394.2,792.7v15h14.3v-15H-394.2z"/>
		<path class="st2" d="M-339.1,809.2l7.3-26.6h15.8l-2.9,6.8v66.5l2.9,6.8h-15.8l2.9-6.8v-47.3l-10.1,37.6l-10.1-37.6v47.3l2.9,6.8
			h-15.8l2.9-6.8v-66.5l-2.9-6.8h15.8L-339.1,809.2z"/>
		<path class="st2" d="M-294.8,862.8h-15.8l4.2-6.8l13-66.5l-1.4-6.8h15.6l-1.4,6.8l13,66.5l4.2,6.8h-15.8l1.5-6.8l-3.5-18.2h-11.7
			l-3.5,18.2L-294.8,862.8z M-290.8,827.7h7.7l-3.9-19.6L-290.8,827.7z"/>
		<path class="st2" d="M-207.8,855.9l2.9,6.8h-15.8l2.9-6.8v-63.3h-6.7l-6.8,2.9v-12.9h37.2v12.9l-6.9-2.9h-6.7V855.9z"/>
		<path class="st2" d="M-162.1,789.5l-2.9-6.8h15.8l-2.9,6.8v66.5l-2.9,6.8h-25.8l-2.9-6.8v-66.5l-2.9-6.8h15.8l-2.9,6.8v63.3h11.5
			V789.5z"/>
		<path class="st2" d="M-93.7,855.9l2.9,6.8h-15.8l2.9-6.8v-73.3h-6.7l-6.8,2.9v-12.9H-80v12.9l-6.9-2.9h-6.7V855.9z"/>
		<path class="st2" d="M-64.2,862.8H-80l4.2-6.8l13-66.5l-1.4-6.8h15.6l-1.4,6.8l13,66.5l4.2,6.8h-15.8l1.5-6.8l-3.5-18.2h-11.7
			l-3.5,18.2L-64.2,862.8z M-60.3,827.7h7.7l-3.9-19.6L-60.3,827.7z"/>
		<path class="st2" d="M5.1,782.7v12.9l-6.8-2.9h-15.5v60.1h15.5l6.8-2.9l-2.9,12.9h-26.7l-2.9-6.8v-66.5l2.9-6.8H5.1z"/>
		<path class="st2" d="M46.5,862.8H17.9l-2.9-6.8v-66.5l2.9-6.8h28.7l2.9,6.8v66.5L46.5,862.8z M39.3,792.7H25v60.1h14.3V792.7z"/>
	</g>
</g>
</svg>
