<?xml version="1.0" encoding="utf-8"?>
<!-- Generator: Adobe Illustrator 19.1.0, SVG Export Plug-In . SVG Version: 6.00 Build 0)  -->
<svg version="1.1" id="Layer_1" xmlns="http://www.w3.org/2000/svg" xmlns:xlink="http://www.w3.org/1999/xlink" x="0px" y="0px"
	 viewBox="0 0 314.7 96.1" style="enable-background:new 0 0 314.7 96.1;" xml:space="preserve">
<style type="text/css">
	.st0{fill:#D66F87;}
	.st1{fill:#711B1D;}
	.st2{fill:#FFFFFF;}
	.st3{fill:#292660;}
	.st4{fill:#00ACEC;}
	.st5{fill:#71B452;}
	.st6{fill:#AA252A;}
	.st7{fill-rule:evenodd;clip-rule:evenodd;fill:#00ACEC;}
	.st8{fill:#38673D;}
	.st9{fill:#9EC54C;}
	.st10{fill-rule:evenodd;clip-rule:evenodd;fill:#6BB476;}
	.st11{fill-rule:evenodd;clip-rule:evenodd;fill:#D66F87;}
	.st12{fill:#D35A2F;}
	.st13{fill:#E8AE4A;}
	.st14{fill-rule:evenodd;clip-rule:evenodd;fill:#E8AE4A;}
	.st15{fill:#38271B;}
	.st16{fill:#B8986D;}
	.st17{fill-rule:evenodd;clip-rule:evenodd;fill:#B8986D;}
	.st18{fill:#E0922E;}
	.st19{fill:#F9F2B6;}
	.st20{fill-rule:evenodd;clip-rule:evenodd;fill:#F9F2B6;}
	.st21{fill:#32338E;}
	.st22{fill-rule:evenodd;clip-rule:evenodd;fill:#D694BC;}
	.st23{fill-rule:evenodd;clip-rule:evenodd;fill:#38673D;}
	.st24{fill:#5AA69C;}
	.st25{fill:#39665D;}
	.st26{fill-rule:evenodd;clip-rule:evenodd;fill:#39665D;}
	.st27{fill-rule:evenodd;clip-rule:evenodd;fill:#5AA69C;}
	.st28{fill:#6C1E52;}
	.st29{fill-rule:evenodd;clip-rule:evenodd;fill:#6C1E52;}
	.st30{fill:#D694BC;}
	.st31{fill-rule:evenodd;clip-rule:evenodd;fill:#9EC54C;}
	.st32{fill-rule:evenodd;clip-rule:evenodd;fill:#D35A2F;}
	.st33{fill-rule:evenodd;clip-rule:evenodd;fill:#38271B;}
	.st34{fill-rule:evenodd;clip-rule:evenodd;fill:#292660;}
	.st35{fill-rule:evenodd;clip-rule:evenodd;fill:#711B1D;}
	.st36{fill-rule:evenodd;clip-rule:evenodd;fill:#E0922E;}
	.st37{fill-rule:evenodd;clip-rule:evenodd;}
	.st38{fill-rule:evenodd;clip-rule:evenodd;fill:#FFFFFF;}
</style>
<g>
	<path class="st0" d="M37.2,37.8v51.5l-2.9,6.8H0l2.9-6.8V12.8L0,6h34.4l2.9,6.8v21.4l-2.9,1.9L37.2,37.8z M12.9,16v15h14.3V16H12.9
		z M12.9,86.1h14.3V41H12.9V86.1z"/>
	<path class="st0" d="M76.5,96.1H47.8L45,89.3V22.9l2.9-6.8h28.7l2.9,6.8v66.5L76.5,96.1z M69.3,26.1H55v60.1h14.3V26.1z"/>
	<path class="st0" d="M110.6,89.3l2.9,6.8H97.7l2.9-6.8V26.1h-6.7l-6.8,2.9V16h37.2v12.9l-6.9-2.9h-6.7V89.3z"/>
	<path class="st0" d="M140.1,96.1h-15.8l4.2-6.8l13-66.5l-1.4-6.8h15.6l-1.4,6.8l13,66.5l4.2,6.8h-15.8l1.5-6.8l-3.5-18.2H142
		l-3.5,18.2L140.1,96.1z M144,61.1h7.7l-3.9-19.6L144,61.1z"/>
	<path class="st0" d="M214.2,22.9v66.5l2.9,6.8h-15.8l1.7-4L189.9,49v40.3l2.9,6.8H177l2.9-6.8V22.9L177,16h12.9l14.3,47.2V22.9
		l-2.9-6.8h15.8L214.2,22.9z"/>
	<path class="st0" d="M238.4,96.1h-15.8l4.2-6.8l13-66.5l-1.4-6.8H254l-1.4,6.8l13,66.5l4.2,6.8H254l1.5-6.8L252,71.1h-11.7
		l-3.5,18.2L238.4,96.1z M242.3,61.1h7.7l-3.9-19.6L242.3,61.1z"/>
	<path class="st0" d="M297.7,51.1h-19.5l-2.9-6.8V22.9l2.9-6.8h26.7v12.9l-6.8-2.9h-12.7v15h19.5l2.9,6.8v41.4l-2.9,6.8h-26.7
		l-2.9-6.8V61.1h12.9l-2.9,6.8v18.2h12.3V51.1z"/>
</g>
<g>
	<path class="st1" d="M41.2,34.8v51.5l-2.9,6.8H4l2.9-6.8V9.8L4,3h34.4l2.9,6.8v21.4l-2.9,1.9L41.2,34.8z M16.9,13v15h14.3V13H16.9z
		 M16.9,83.1h14.3V38H16.9V83.1z"/>
	<path class="st1" d="M80.5,93.1H51.8L49,86.3V19.9l2.9-6.8h28.7l2.9,6.8v66.5L80.5,93.1z M73.3,23.1H59v60.1h14.3V23.1z"/>
	<path class="st1" d="M114.6,86.3l2.9,6.8h-15.8l2.9-6.8V23.1h-6.7l-6.8,2.9V13h37.2v12.9l-6.9-2.9h-6.7V86.3z"/>
	<path class="st1" d="M144.1,93.1h-15.8l4.2-6.8l13-66.5l-1.4-6.8h15.6l-1.4,6.8l13,66.5l4.2,6.8h-15.8l1.5-6.8l-3.5-18.2H146
		l-3.5,18.2L144.1,93.1z M148,58.1h7.7l-3.9-19.6L148,58.1z"/>
	<path class="st1" d="M218.2,19.9v66.5l2.9,6.8h-15.8l1.7-4L193.9,46v40.3l2.9,6.8H181l2.9-6.8V19.9L181,13h12.9l14.3,47.2V19.9
		l-2.9-6.8h15.8L218.2,19.9z"/>
	<path class="st1" d="M242.4,93.1h-15.8l4.2-6.8l13-66.5l-1.4-6.8H258l-1.4,6.8l13,66.5l4.2,6.8H258l1.5-6.8L256,68.1h-11.7
		l-3.5,18.2L242.4,93.1z M246.3,58.1h7.7l-3.9-19.6L246.3,58.1z"/>
	<path class="st1" d="M301.7,48.1h-19.5l-2.9-6.8V19.9l2.9-6.8h26.7v12.9l-6.8-2.9h-12.7v15h19.5l2.9,6.8v41.4l-2.9,6.8h-26.7
		l-2.9-6.8V58.1h12.9l-2.9,6.8v18.2h12.3V48.1z"/>
</g>
<g>
	<path class="st2" d="M44.2,31.8v51.5l-2.9,6.8H7l2.9-6.8V6.8L7,0h34.4l2.9,6.8v21.4l-2.9,1.9L44.2,31.8z M19.9,10v15h14.3V10H19.9z
		 M19.9,80.1h14.3V35H19.9V80.1z"/>
	<path class="st2" d="M83.5,90.1H54.8L52,83.3V16.9l2.9-6.8h28.7l2.9,6.8v66.5L83.5,90.1z M76.3,20.1H62v60.1h14.3V20.1z"/>
	<path class="st2" d="M117.6,83.3l2.9,6.8h-15.8l2.9-6.8V20.1h-6.7l-6.8,2.9V10h37.2v12.9l-6.9-2.9h-6.7V83.3z"/>
	<path class="st2" d="M147.1,90.1h-15.8l4.2-6.8l13-66.5l-1.4-6.8h15.6l-1.4,6.8l13,66.5l4.2,6.8h-15.8l1.5-6.8l-3.5-18.2H149
		l-3.5,18.2L147.1,90.1z M151,55.1h7.7l-3.9-19.6L151,55.1z"/>
	<path class="st2" d="M221.2,16.9v66.5l2.9,6.8h-15.8l1.7-4L196.9,43v40.3l2.9,6.8H184l2.9-6.8V16.9L184,10h12.9l14.3,47.2V16.9
		l-2.9-6.8h15.8L221.2,16.9z"/>
	<path class="st2" d="M245.4,90.1h-15.8l4.2-6.8l13-66.5l-1.4-6.8H261l-1.4,6.8l13,66.5l4.2,6.8H261l1.5-6.8L259,65.1h-11.7
		l-3.5,18.2L245.4,90.1z M249.3,55.1h7.7l-3.9-19.6L249.3,55.1z"/>
	<path class="st2" d="M304.7,45.1h-19.5l-2.9-6.8V16.9l2.9-6.8h26.7v12.9l-6.8-2.9h-12.7v15h19.5l2.9,6.8v41.4l-2.9,6.8h-26.7
		l-2.9-6.8V55.1h12.9l-2.9,6.8v18.2h12.3V45.1z"/>
</g>
</svg>
