<?xml version="1.0" encoding="utf-8"?>
<!-- Generator: Adobe Illustrator 19.1.0, SVG Export Plug-In . SVG Version: 6.00 Build 0)  -->
<svg version="1.1" id="Layer_1" xmlns="http://www.w3.org/2000/svg" xmlns:xlink="http://www.w3.org/1999/xlink" x="0px" y="0px"
	 viewBox="0 0 453 106.2" style="enable-background:new 0 0 453 106.2;" xml:space="preserve">
<style type="text/css">
	.st0{fill:#D66F87;}
	.st1{fill:#711B1D;}
	.st2{fill:#FFFFFF;}
	.st3{fill:#292660;}
	.st4{fill:#00ACEC;}
	.st5{fill:#71B452;}
	.st6{fill:#AA252A;}
	.st7{fill-rule:evenodd;clip-rule:evenodd;fill:#00ACEC;}
	.st8{fill:#38673D;}
	.st9{fill:#9EC54C;}
	.st10{fill-rule:evenodd;clip-rule:evenodd;fill:#6BB476;}
	.st11{fill-rule:evenodd;clip-rule:evenodd;fill:#D66F87;}
	.st12{fill:#D35A2F;}
	.st13{fill:#E8AE4A;}
	.st14{fill-rule:evenodd;clip-rule:evenodd;fill:#E8AE4A;}
	.st15{fill:#38271B;}
	.st16{fill:#B8986D;}
	.st17{fill-rule:evenodd;clip-rule:evenodd;fill:#B8986D;}
	.st18{fill:#E0922E;}
	.st19{fill:#F9F2B6;}
	.st20{fill-rule:evenodd;clip-rule:evenodd;fill:#F9F2B6;}
	.st21{fill:#32338E;}
	.st22{fill-rule:evenodd;clip-rule:evenodd;fill:#D694BC;}
	.st23{fill-rule:evenodd;clip-rule:evenodd;fill:#38673D;}
	.st24{fill:#5AA69C;}
	.st25{fill:#39665D;}
	.st26{fill-rule:evenodd;clip-rule:evenodd;fill:#39665D;}
	.st27{fill-rule:evenodd;clip-rule:evenodd;fill:#5AA69C;}
	.st28{fill:#6C1E52;}
	.st29{fill-rule:evenodd;clip-rule:evenodd;fill:#6C1E52;}
	.st30{fill:#D694BC;}
	.st31{fill-rule:evenodd;clip-rule:evenodd;fill:#9EC54C;}
	.st32{fill-rule:evenodd;clip-rule:evenodd;fill:#D35A2F;}
	.st33{fill-rule:evenodd;clip-rule:evenodd;fill:#38271B;}
	.st34{fill-rule:evenodd;clip-rule:evenodd;fill:#292660;}
	.st35{fill-rule:evenodd;clip-rule:evenodd;fill:#711B1D;}
	.st36{fill-rule:evenodd;clip-rule:evenodd;fill:#E0922E;}
	.st37{fill-rule:evenodd;clip-rule:evenodd;}
	.st38{fill-rule:evenodd;clip-rule:evenodd;fill:#FFFFFF;}
</style>
<g>
	<path class="st0" d="M0,89.2V12.8L2.9,6h28.7l2.9,6.8v76.4l-2.9,6.9h-4.4l0.4,3.1l4,6.9H15.8l1.8-6.9l-0.4-3.1H2.9L0,89.2z
		 M24.4,16H10v70.1h14.3V16z"/>
	<path class="st0" d="M66.5,22.9L63.6,16h15.8l-2.9,6.8v66.5l-2.9,6.8H47.8L45,89.3V22.9L42.1,16h15.8L55,22.9v63.3h11.5V22.9z"/>
	<path class="st0" d="M87.1,96.1l2.9-6.8V22.9L87.1,16h32.4v12.9l-6.8-2.9H99.9v15h10.7l6.8-2.9v15.8l-6.8-2.9H99.9v35h12.7l6.8-2.9
		l-2.9,12.9H87.1z"/>
	<path class="st0" d="M151.7,51.1h-19.5l-2.9-6.8V22.9l2.9-6.8h26.7v12.9l-6.8-2.9h-12.7v15h19.5l2.9,6.8v41.4l-2.9,6.8h-26.7
		l-2.9-6.8V61.1h12.9l-2.9,6.8v18.2h12.3V51.1z"/>
	<path class="st0" d="M181.9,96.1h-15.8l4.2-6.8l13-66.5l-1.4-6.8h15.6l-1.4,6.8l13,66.5l4.2,6.8h-15.8l1.5-6.8l-3.5-18.2h-11.7
		l-3.5,18.2L181.9,96.1z M185.9,61.1h7.7l-3.9-19.6L185.9,61.1z"/>
	<path class="st0" d="M218.9,16h34.4l2.9,6.8v66.5l-2.9,6.8h-34.4l2.9-6.8V22.9L218.9,16z M231.7,26.1v60.1h14.3V26.1H231.7z"/>
	<path class="st0" d="M276.7,22.9v66.5l2.9,6.8h-15.8l2.9-6.8V22.9l-2.9-6.8h15.8L276.7,22.9z"/>
	<path class="st0" d="M300.2,22.9v63.3h12.7l6.8-2.9l-2.9,12.9h-29.5l2.9-6.8V22.9l-2.9-6.8H303L300.2,22.9z"/>
	<path class="st0" d="M337,22.9v63.3h12.7l6.8-2.9l-2.9,12.9h-29.5l2.9-6.8V22.9l-2.9-6.8h15.8L337,22.9z"/>
	<path class="st0" d="M376.7,96.1h-15.8l4.2-6.8l13-66.5l-1.4-6.8h15.6l-1.4,6.8l13,66.5l4.2,6.8h-15.8l1.5-6.8l-3.5-18.2h-11.7
		l-3.5,18.2L376.7,96.1z M380.6,61.1h7.7l-3.9-19.6L380.6,61.1z"/>
	<path class="st0" d="M435.9,51.1h-19.5l-2.9-6.8V22.9l2.9-6.8h26.7v12.9l-6.8-2.9h-12.7v15h19.5l2.9,6.8v41.4l-2.9,6.8h-26.7
		l-2.9-6.8V61.1h12.9l-2.9,6.8v18.2h12.3V51.1z"/>
</g>
<g>
	<path class="st1" d="M4,86.2V9.8L6.9,3h28.7l2.9,6.8v76.4l-2.9,6.9h-4.4l0.4,3.1l4,6.9H19.8l1.8-6.9l-0.4-3.1H6.9L4,86.2z M28.4,13
		H14v70.1h14.3V13z"/>
	<path class="st1" d="M70.5,19.9L67.6,13h15.8l-2.9,6.8v66.5l-2.9,6.8H51.8L49,86.3V19.9L46.1,13h15.8L59,19.9v63.3h11.5V19.9z"/>
	<path class="st1" d="M91.1,93.1l2.9-6.8V19.9L91.1,13h32.4v12.9l-6.8-2.9h-12.7v15h10.7l6.8-2.9v15.8l-6.8-2.9h-10.7v35h12.7
		l6.8-2.9l-2.9,12.9H91.1z"/>
	<path class="st1" d="M155.7,48.1h-19.5l-2.9-6.8V19.9l2.9-6.8h26.7v12.9l-6.8-2.9h-12.7v15h19.5l2.9,6.8v41.4l-2.9,6.8h-26.7
		l-2.9-6.8V58.1h12.9l-2.9,6.8v18.2h12.3V48.1z"/>
	<path class="st1" d="M185.9,93.1h-15.8l4.2-6.8l13-66.5l-1.4-6.8h15.6l-1.4,6.8l13,66.5l4.2,6.8h-15.8l1.5-6.8l-3.5-18.2h-11.7
		l-3.5,18.2L185.9,93.1z M189.9,58.1h7.7l-3.9-19.6L189.9,58.1z"/>
	<path class="st1" d="M222.9,13h34.4l2.9,6.8v66.5l-2.9,6.8h-34.4l2.9-6.8V19.9L222.9,13z M235.7,23.1v60.1h14.3V23.1H235.7z"/>
	<path class="st1" d="M280.7,19.9v66.5l2.9,6.8h-15.8l2.9-6.8V19.9l-2.9-6.8h15.8L280.7,19.9z"/>
	<path class="st1" d="M304.2,19.9v63.3h12.7l6.8-2.9l-2.9,12.9h-29.5l2.9-6.8V19.9l-2.9-6.8H307L304.2,19.9z"/>
	<path class="st1" d="M341,19.9v63.3h12.7l6.8-2.9l-2.9,12.9h-29.5l2.9-6.8V19.9l-2.9-6.8h15.8L341,19.9z"/>
	<path class="st1" d="M380.7,93.1h-15.8l4.2-6.8l13-66.5l-1.4-6.8h15.6l-1.4,6.8l13,66.5l4.2,6.8h-15.8l1.5-6.8l-3.5-18.2h-11.7
		l-3.5,18.2L380.7,93.1z M384.6,58.1h7.7l-3.9-19.6L384.6,58.1z"/>
	<path class="st1" d="M439.9,48.1h-19.5l-2.9-6.8V19.9l2.9-6.8h26.7v12.9l-6.8-2.9h-12.7v15h19.5l2.9,6.8v41.4l-2.9,6.8h-26.7
		l-2.9-6.8V58.1h12.9l-2.9,6.8v18.2h12.3V48.1z"/>
</g>
<g>
	<path class="st2" d="M7,83.2V6.8L9.9,0h28.7l2.9,6.8v76.4l-2.9,6.9h-4.4l0.4,3.1l4,6.9H22.8l1.8-6.9l-0.4-3.1H9.9L7,83.2z M31.4,10
		H17v70.1h14.3V10z"/>
	<path class="st2" d="M73.5,16.9L70.6,10h15.8l-2.9,6.8v66.5l-2.9,6.8H54.8L52,83.3V16.9L49.1,10h15.8L62,16.9v63.3h11.5V16.9z"/>
	<path class="st2" d="M94.1,90.1l2.9-6.8V16.9L94.1,10h32.4v12.9l-6.8-2.9h-12.7v15h10.7l6.8-2.9v15.8l-6.8-2.9h-10.7v35h12.7
		l6.8-2.9l-2.9,12.9H94.1z"/>
	<path class="st2" d="M158.7,45.1h-19.5l-2.9-6.8V16.9l2.9-6.8h26.7v12.9l-6.8-2.9h-12.7v15h19.5l2.9,6.8v41.4l-2.9,6.8h-26.7
		l-2.9-6.8V55.1h12.9l-2.9,6.8v18.2h12.3V45.1z"/>
	<path class="st2" d="M188.9,90.1h-15.8l4.2-6.8l13-66.5l-1.4-6.8h15.6l-1.4,6.8l13,66.5l4.2,6.8h-15.8l1.5-6.8l-3.5-18.2h-11.7
		l-3.5,18.2L188.9,90.1z M192.9,55.1h7.7l-3.9-19.6L192.9,55.1z"/>
	<path class="st2" d="M225.9,10h34.4l2.9,6.8v66.5l-2.9,6.8h-34.4l2.9-6.8V16.9L225.9,10z M238.7,20.1v60.1h14.3V20.1H238.7z"/>
	<path class="st2" d="M283.7,16.9v66.5l2.9,6.8h-15.8l2.9-6.8V16.9l-2.9-6.8h15.8L283.7,16.9z"/>
	<path class="st2" d="M307.2,16.9v63.3h12.7l6.8-2.9l-2.9,12.9h-29.5l2.9-6.8V16.9l-2.9-6.8H310L307.2,16.9z"/>
	<path class="st2" d="M344,16.9v63.3h12.7l6.8-2.9l-2.9,12.9h-29.5l2.9-6.8V16.9l-2.9-6.8h15.8L344,16.9z"/>
	<path class="st2" d="M383.7,90.1h-15.8l4.2-6.8l13-66.5l-1.4-6.8h15.6l-1.4,6.8l13,66.5l4.2,6.8h-15.8l1.5-6.8l-3.5-18.2h-11.7
		l-3.5,18.2L383.7,90.1z M387.6,55.1h7.7l-3.9-19.6L387.6,55.1z"/>
	<path class="st2" d="M442.9,45.1h-19.5l-2.9-6.8V16.9l2.9-6.8h26.7v12.9l-6.8-2.9h-12.7v15h19.5l2.9,6.8v41.4l-2.9,6.8h-26.7
		l-2.9-6.8V55.1h12.9l-2.9,6.8v18.2h12.3V45.1z"/>
</g>
</svg>
