<?xml version="1.0" encoding="utf-8"?>
<!-- Generator: Adobe Illustrator 19.1.0, SVG Export Plug-In . SVG Version: 6.00 Build 0)  -->
<svg version="1.1" id="Layer_1" xmlns="http://www.w3.org/2000/svg" xmlns:xlink="http://www.w3.org/1999/xlink" x="0px" y="0px"
	 viewBox="0 0 259.6 96.1" style="enable-background:new 0 0 259.6 96.1;" xml:space="preserve">
<style type="text/css">
	.st0{fill:#D66F87;}
	.st1{fill:#711B1D;}
	.st2{fill:#FFFFFF;}
	.st3{fill:#292660;}
	.st4{fill:#00ACEC;}
	.st5{fill:#71B452;}
	.st6{fill:#AA252A;}
	.st7{fill-rule:evenodd;clip-rule:evenodd;fill:#00ACEC;}
	.st8{fill:#38673D;}
	.st9{fill:#9EC54C;}
	.st10{fill-rule:evenodd;clip-rule:evenodd;fill:#6BB476;}
	.st11{fill-rule:evenodd;clip-rule:evenodd;fill:#D66F87;}
	.st12{fill:#D35A2F;}
	.st13{fill:#E8AE4A;}
	.st14{fill-rule:evenodd;clip-rule:evenodd;fill:#E8AE4A;}
	.st15{fill:#38271B;}
	.st16{fill:#B8986D;}
	.st17{fill-rule:evenodd;clip-rule:evenodd;fill:#B8986D;}
	.st18{fill:#E0922E;}
	.st19{fill:#F9F2B6;}
	.st20{fill-rule:evenodd;clip-rule:evenodd;fill:#F9F2B6;}
	.st21{fill:#32338E;}
	.st22{fill-rule:evenodd;clip-rule:evenodd;fill:#D694BC;}
	.st23{fill-rule:evenodd;clip-rule:evenodd;fill:#38673D;}
	.st24{fill:#5AA69C;}
	.st25{fill:#39665D;}
	.st26{fill-rule:evenodd;clip-rule:evenodd;fill:#39665D;}
	.st27{fill-rule:evenodd;clip-rule:evenodd;fill:#5AA69C;}
	.st28{fill:#6C1E52;}
	.st29{fill-rule:evenodd;clip-rule:evenodd;fill:#6C1E52;}
	.st30{fill:#D694BC;}
	.st31{fill-rule:evenodd;clip-rule:evenodd;fill:#9EC54C;}
	.st32{fill-rule:evenodd;clip-rule:evenodd;fill:#D35A2F;}
	.st33{fill-rule:evenodd;clip-rule:evenodd;fill:#38271B;}
	.st34{fill-rule:evenodd;clip-rule:evenodd;fill:#292660;}
	.st35{fill-rule:evenodd;clip-rule:evenodd;fill:#711B1D;}
	.st36{fill-rule:evenodd;clip-rule:evenodd;fill:#E0922E;}
	.st37{fill-rule:evenodd;clip-rule:evenodd;}
	.st38{fill-rule:evenodd;clip-rule:evenodd;fill:#FFFFFF;}
</style>
<g>
	<path class="st0" d="M22.4,41H2.9L0,34.2V12.8L2.9,6h26.7v12.9L22.7,16H10v15h19.5l2.9,6.8v51.5l-2.9,6.8H2.9L0,89.3V51.1h12.9
		L10,57.9v28.2h12.3V41z"/>
	<path class="st0" d="M53.7,96.1H37.9l4.2-6.8l13-66.5L53.7,16h15.6l-1.4,6.8l13,66.5l4.2,6.8H69.3l1.5-6.8l-3.5-18.2H55.7
		l-3.5,18.2L53.7,96.1z M57.6,61.1h7.7l-3.9-19.6L57.6,61.1z"/>
	<path class="st0" d="M103.5,22.9v63.3h12.7l6.8-2.9l-2.9,12.9H90.6l2.9-6.8V22.9L90.6,16h15.8L103.5,22.9z"/>
	<path class="st0" d="M153.1,51.1h-19.5l-2.9-6.8V22.9l2.9-6.8h26.7v12.9l-6.8-2.9h-12.7v15h19.5l2.9,6.8v41.4l-2.9,6.8h-26.7
		l-2.9-6.8V61.1h12.9l-2.9,6.8v18.2h12.3V51.1z"/>
	<path class="st0" d="M183.3,96.1h-15.8l4.2-6.8l13-66.5l-1.4-6.8h15.6l-1.4,6.8l13,66.5l4.2,6.8h-15.8l1.5-6.8l-3.5-18.2h-11.7
		l-3.5,18.2L183.3,96.1z M187.2,61.1h7.7l-3.9-19.6L187.2,61.1z"/>
	<path class="st0" d="M242.6,51.1H223l-2.9-6.8V22.9L223,16h26.7v12.9l-6.8-2.9h-12.7v15h19.5l2.9,6.8v41.4l-2.9,6.8H223l-2.9-6.8
		V61.1h12.9l-2.9,6.8v18.2h12.3V51.1z"/>
</g>
<g>
	<path class="st1" d="M26.4,38H6.9L4,31.2V9.8L6.9,3h26.7v12.9L26.7,13H14v15h19.5l2.9,6.8v51.5l-2.9,6.8H6.9L4,86.3V48.1h12.9
		L14,54.9v28.2h12.3V38z"/>
	<path class="st1" d="M57.7,93.1H41.9l4.2-6.8l13-66.5L57.7,13h15.6l-1.4,6.8l13,66.5l4.2,6.8H73.3l1.5-6.8l-3.5-18.2H59.7
		l-3.5,18.2L57.7,93.1z M61.6,58.1h7.7l-3.9-19.6L61.6,58.1z"/>
	<path class="st1" d="M107.5,19.9v63.3h12.7l6.8-2.9l-2.9,12.9H94.6l2.9-6.8V19.9L94.6,13h15.8L107.5,19.9z"/>
	<path class="st1" d="M157.1,48.1h-19.5l-2.9-6.8V19.9l2.9-6.8h26.7v12.9l-6.8-2.9h-12.7v15h19.5l2.9,6.8v41.4l-2.9,6.8h-26.7
		l-2.9-6.8V58.1h12.9l-2.9,6.8v18.2h12.3V48.1z"/>
	<path class="st1" d="M187.3,93.1h-15.8l4.2-6.8l13-66.5l-1.4-6.8h15.6l-1.4,6.8l13,66.5l4.2,6.8h-15.8l1.5-6.8l-3.5-18.2h-11.7
		l-3.5,18.2L187.3,93.1z M191.2,58.1h7.7l-3.9-19.6L191.2,58.1z"/>
	<path class="st1" d="M246.6,48.1H227l-2.9-6.8V19.9L227,13h26.7v12.9l-6.8-2.9h-12.7v15h19.5l2.9,6.8v41.4l-2.9,6.8H227l-2.9-6.8
		V58.1h12.9l-2.9,6.8v18.2h12.3V48.1z"/>
</g>
<g>
	<path class="st2" d="M29.4,35H9.9L7,28.2V6.8L9.9,0h26.7v12.9L29.7,10H17v15h19.5l2.9,6.8v51.5l-2.9,6.8H9.9L7,83.3V45.1h12.9
		L17,51.9v28.2h12.3V35z"/>
	<path class="st2" d="M60.7,90.1H44.9l4.2-6.8l13-66.5L60.7,10h15.6l-1.4,6.8l13,66.5l4.2,6.8H76.3l1.5-6.8l-3.5-18.2H62.7
		l-3.5,18.2L60.7,90.1z M64.6,55.1h7.7l-3.9-19.6L64.6,55.1z"/>
	<path class="st2" d="M110.5,16.9v63.3h12.7l6.8-2.9l-2.9,12.9H97.6l2.9-6.8V16.9L97.6,10h15.8L110.5,16.9z"/>
	<path class="st2" d="M160.1,45.1h-19.5l-2.9-6.8V16.9l2.9-6.8h26.7v12.9l-6.8-2.9h-12.7v15h19.5l2.9,6.8v41.4l-2.9,6.8h-26.7
		l-2.9-6.8V55.1h12.9l-2.9,6.8v18.2h12.3V45.1z"/>
	<path class="st2" d="M190.3,90.1h-15.8l4.2-6.8l13-66.5l-1.4-6.8h15.6l-1.4,6.8l13,66.5l4.2,6.8h-15.8l1.5-6.8l-3.5-18.2h-11.7
		l-3.5,18.2L190.3,90.1z M194.2,55.1h7.7l-3.9-19.6L194.2,55.1z"/>
	<path class="st2" d="M249.6,45.1H230l-2.9-6.8V16.9L230,10h26.7v12.9l-6.8-2.9h-12.7v15h19.5l2.9,6.8v41.4l-2.9,6.8H230l-2.9-6.8
		V55.1h12.9l-2.9,6.8v18.2h12.3V45.1z"/>
</g>
</svg>
