<?xml version="1.0" encoding="utf-8"?>
<!-- Generator: Adobe Illustrator 19.1.0, SVG Export Plug-In . SVG Version: 6.00 Build 0)  -->
<svg version="1.1" id="Layer_1" xmlns="http://www.w3.org/2000/svg" xmlns:xlink="http://www.w3.org/1999/xlink" x="0px" y="0px"
	 viewBox="-1068.9 775.6 298.9 96.1" style="enable-background:new -1068.9 775.6 298.9 96.1;" xml:space="preserve">
<style type="text/css">
	.st0{fill:#D66F87;}
	.st1{fill:#711B1D;}
	.st2{fill:#FFFFFF;}
	.st3{fill:#CE7689;}
	.st4{fill:#6F1717;}
</style>
<g>
	<path class="st0" d="M-433.2,449H-449l4.1-6.8l13.9-79.6l-2.2-3.7h15.6l-2.2,3.7l13.9,79.6l4.1,6.8h-15.8l1.8-6.8l-5-28.2h-9.2
		l-4.8,28.2L-433.2,449z M-428.3,404h5.7l-2.9-16.4L-428.3,404z"/>
	<path class="st0" d="M-359.1,375.8v66.5l2.9,6.8H-372l1.7-4l-13.1-43.2v40.3l2.9,6.8h-15.8l2.9-6.8v-66.4l-2.9-6.9h12.9l14.3,47.2
		v-40.3l-2.9-6.9h15.8L-359.1,375.8z"/>
	<path class="st0" d="M-324.9,442.2l2.9,6.8h-15.8l2.9-6.8V379h-6.7l-6.8,2.9v-13h37.2v12.9l-6.9-2.9h-6.7v63.3H-324.9z"/>
	<path class="st0" d="M-272,449h-28.7l-2.9-6.8v-66.4l2.9-6.8h28.7l2.9,6.8v66.5L-272,449z M-279.2,379h-14.3v60.1h14.3V379z"/>
	<path class="st0" d="M-241.9,375.8l-2.9-6.8h15.8l-2.9,6.8v66.5l-2.9,6.8h-23.8l-2.9-6.8V414h12.9l-2.9,6.8V439h9.5L-241.9,375.8
		L-241.9,375.8z"/>
	<path class="st0" d="M-208.4,375.8v66.5l2.9,6.8h-15.8l2.9-6.8v-66.5l-2.9-6.8h15.8L-208.4,375.8z"/>
	<path class="st0" d="M-174.3,442.2l2.9,6.8h-15.8l2.9-6.8V379h-6.7l-6.8,2.9v-13h37.2v12.9l-6.9-2.9h-6.7L-174.3,442.2
		L-174.3,442.2z"/>
	<path class="st0" d="M-121.4,449H-150l-2.9-6.8v-66.4l2.9-6.9h28.7l2.9,6.8v66.5L-121.4,449z M-128.5,379h-14.3v60.1h14.3V379z"/>
	<path class="st0" d="M-86.2,404h-19.5l-2.9-6.8v-21.4l2.9-6.8H-79v12.9l-6.8-2.9h-12.7v15H-79l2.9,6.8v41.4L-79,449h-26.7l-2.9-6.8
		V414h12.9l-2.9,6.8V439h12.3v-35H-86.2z"/>
</g>
<g>
	<path class="st1" d="M-429.2,446H-445l4.1-6.8l13.9-79.6l-2.2-3.7h15.6l-2.2,3.7l13.9,79.6l4.1,6.8h-15.8l1.8-6.8l-5-28.2h-9.2
		l-4.8,28.2L-429.2,446z M-424.3,401h5.7l-2.9-16.4L-424.3,401z"/>
	<path class="st1" d="M-355.1,372.8v66.5l2.9,6.8H-368l1.7-4l-13.1-43.2v40.3l2.9,6.8h-15.8l2.9-6.8v-66.4l-2.9-6.9h12.9l14.3,47.2
		v-40.3l-2.9-6.9h15.8L-355.1,372.8z"/>
	<path class="st1" d="M-320.9,439.2l2.9,6.8h-15.8l2.9-6.8V376h-6.7l-6.8,2.9v-13h37.2v12.9l-6.9-2.9h-6.7v63.3H-320.9z"/>
	<path class="st1" d="M-268,446h-28.7l-2.9-6.8v-66.4l2.9-6.8h28.7l2.9,6.8v66.5L-268,446z M-275.2,376h-14.3v60.1h14.3V376z"/>
	<path class="st1" d="M-237.9,372.8l-2.9-6.8h15.8l-2.9,6.8v66.5l-2.9,6.8h-23.8l-2.9-6.8V411h12.9l-2.9,6.8V436h9.5L-237.9,372.8
		L-237.9,372.8z"/>
	<path class="st1" d="M-204.4,372.8v66.5l2.9,6.8h-15.8l2.9-6.8v-66.5l-2.9-6.8h15.8L-204.4,372.8z"/>
	<path class="st1" d="M-170.3,439.2l2.9,6.8h-15.8l2.9-6.8V376h-6.7l-6.8,2.9v-13h37.2v12.9l-6.9-2.9h-6.7L-170.3,439.2
		L-170.3,439.2z"/>
	<path class="st1" d="M-117.4,446H-146l-2.9-6.8v-66.4l2.9-6.9h28.7l2.9,6.8v66.5L-117.4,446z M-124.5,376h-14.3v60.1h14.3V376z"/>
	<path class="st1" d="M-82.2,401h-19.5l-2.9-6.8v-21.4l2.9-6.8H-75v12.9l-6.8-2.9h-12.7v15H-75l2.9,6.8v41.4L-75,446h-26.7l-2.9-6.8
		V411h12.9l-2.9,6.8V436h12.3v-35H-82.2z"/>
</g>
<g>
	<path class="st2" d="M-426.2,443H-442l4.1-6.8l13.9-79.6l-2.2-3.7h15.6l-2.2,3.7l13.9,79.6l4.1,6.8h-15.8l1.8-6.8l-5-28.2h-9.2
		l-4.8,28.2L-426.2,443z M-421.3,398h5.7l-2.9-16.4L-421.3,398z"/>
	<path class="st2" d="M-352.1,369.8v66.5l2.9,6.8H-365l1.7-4l-13.1-43.2v40.3l2.9,6.8h-15.8l2.9-6.8v-66.4l-2.9-6.9h12.9l14.3,47.2
		v-40.3l-2.9-6.9h15.8L-352.1,369.8z"/>
	<path class="st2" d="M-317.9,436.2l2.9,6.8h-15.8l2.9-6.8V373h-6.7l-6.8,2.9v-13h37.2v12.9l-6.9-2.9h-6.7v63.3H-317.9z"/>
	<path class="st2" d="M-265,443h-28.7l-2.9-6.8v-66.4l2.9-6.8h28.7l2.9,6.8v66.5L-265,443z M-272.2,373h-14.3v60.1h14.3V373z"/>
	<path class="st2" d="M-234.9,369.8l-2.9-6.8h15.8l-2.9,6.8v66.5l-2.9,6.8h-23.8l-2.9-6.8V408h12.9l-2.9,6.8V433h9.5L-234.9,369.8
		L-234.9,369.8z"/>
	<path class="st2" d="M-201.4,369.8v66.5l2.9,6.8h-15.8l2.9-6.8v-66.5l-2.9-6.8h15.8L-201.4,369.8z"/>
	<path class="st2" d="M-167.3,436.2l2.9,6.8h-15.8l2.9-6.8V373h-6.7l-6.8,2.9v-13h37.2v12.9l-6.9-2.9h-6.7v63.3H-167.3z"/>
	<path class="st2" d="M-114.4,443H-143l-2.9-6.8v-66.4l2.9-6.9h28.7l2.9,6.8v66.5L-114.4,443z M-121.5,373h-14.3v60.1h14.3V373z"/>
	<path class="st2" d="M-79.2,398h-19.5l-2.9-6.8v-21.4l2.9-6.8H-72v12.9l-6.8-2.9h-12.7v15H-72l2.9,6.8v41.4L-72,443h-26.7l-2.9-6.8
		V408h12.9l-2.9,6.8V433h12.3v-35H-79.2z"/>
</g>
<g>
	<g>
		<path class="st3" d="M-1056,864.9l2.9,6.8h-15.8l2.9-6.8v-76.5l-2.9-6.8h34.4l2.9,6.8v21.4l-2.9,6.8h-21.5V864.9z M-1056,791.7v15
			h14.3v-15H-1056z"/>
		<path class="st3" d="M-992.4,871.8h-28.7l-2.9-6.8v-66.5l2.9-6.8h28.7l2.9,6.8v66.5L-992.4,871.8z M-999.6,801.7h-14.3v60.1h14.3
			V801.7z"/>
		<path class="st3" d="M-957.3,826.7h-19.5l-2.9-6.8v-21.4l2.9-6.8h26.7v12.9l-6.8-2.9h-12.7v15h19.5l2.9,6.8v41.4l-2.9,6.8h-26.7
			l-2.9-6.8v-28.2h12.9l-2.9,6.8v18.2h12.3V826.7z"/>
		<path class="st3" d="M-918.2,864.9l2.9,6.8h-15.8l2.9-6.8v-63.3h-6.7l-6.8,2.9v-12.9h37.2v12.9l-6.9-2.9h-6.7V864.9z"/>
		<path class="st3" d="M-863.5,864.9l4,6.8h-15.8l1.8-6.8l-6.1-38.2h-4.3v38.2l2.9,6.8h-15.8l2.9-6.8v-66.5l-2.9-6.8h34.4l2.9,6.8
			v21.4l-2.9,6.8h-7.2L-863.5,864.9z M-883.9,801.7v15h14.3v-15H-883.9z"/>
		<path class="st3" d="M-851.8,871.8l2.9-6.8v-66.5l-2.9-6.8h32.4v12.9l-6.8-2.9h-12.7v15h10.7l6.8-2.9v15.8l-6.8-2.9h-10.7v35h12.7
			l6.8-2.9l-2.9,12.9H-851.8z"/>
		<path class="st3" d="M-787.1,826.7h-19.5l-2.9-6.8v-21.4l2.9-6.8h26.7v12.9l-6.8-2.9h-12.7v15h19.5l2.9,6.8v41.4l-2.9,6.8h-26.7
			l-2.9-6.8v-28.2h12.9l-2.9,6.8v18.2h12.3V826.7z"/>
	</g>
	<g>
		<path class="st4" d="M-1052,861.9l2.9,6.8h-15.8l2.9-6.8v-76.5l-2.9-6.8h34.4l2.9,6.8v21.4l-2.9,6.8h-21.5V861.9z M-1052,788.7v15
			h14.3v-15H-1052z"/>
		<path class="st4" d="M-988.4,868.8h-28.7l-2.9-6.8v-66.5l2.9-6.8h28.7l2.9,6.8v66.5L-988.4,868.8z M-995.6,798.7h-14.3v60.1h14.3
			V798.7z"/>
		<path class="st4" d="M-953.3,823.7h-19.5l-2.9-6.8v-21.4l2.9-6.8h26.7v12.9l-6.8-2.9h-12.7v15h19.5l2.9,6.8v41.4l-2.9,6.8h-26.7
			l-2.9-6.8v-28.2h12.9l-2.9,6.8v18.2h12.3V823.7z"/>
		<path class="st4" d="M-914.2,861.9l2.9,6.8h-15.8l2.9-6.8v-63.3h-6.7l-6.8,2.9v-12.9h37.2v12.9l-6.9-2.9h-6.7V861.9z"/>
		<path class="st4" d="M-859.5,861.9l4,6.8h-15.8l1.8-6.8l-6.1-38.2h-4.3v38.2l2.9,6.8h-15.8l2.9-6.8v-66.5l-2.9-6.8h34.4l2.9,6.8
			v21.4l-2.9,6.8h-7.2L-859.5,861.9z M-879.9,798.7v15h14.3v-15H-879.9z"/>
		<path class="st4" d="M-847.8,868.8l2.9-6.8v-66.5l-2.9-6.8h32.4v12.9l-6.8-2.9h-12.7v15h10.7l6.8-2.9v15.8l-6.8-2.9h-10.7v35h12.7
			l6.8-2.9l-2.9,12.9H-847.8z"/>
		<path class="st4" d="M-783.1,823.7h-19.5l-2.9-6.8v-21.4l2.9-6.8h26.7v12.9l-6.8-2.9h-12.7v15h19.5l2.9,6.8v41.4l-2.9,6.8h-26.7
			l-2.9-6.8v-28.2h12.9l-2.9,6.8v18.2h12.3V823.7z"/>
	</g>
	<g>
		<path class="st2" d="M-1048.9,858.9l2.9,6.8h-15.8l2.9-6.8v-76.5l-2.9-6.8h34.4l2.9,6.8v21.4l-2.9,6.8h-21.5V858.9z
			 M-1048.9,785.7v15h14.3v-15H-1048.9z"/>
		<path class="st2" d="M-985.3,865.8h-28.7l-2.9-6.8v-66.5l2.9-6.8h28.7l2.9,6.8v66.5L-985.3,865.8z M-992.5,795.7h-14.3v60.1h14.3
			V795.7z"/>
		<path class="st2" d="M-950.2,820.7h-19.5l-2.9-6.8v-21.4l2.9-6.8h26.7v12.9l-6.8-2.9h-12.7v15h19.5l2.9,6.8v41.4l-2.9,6.8h-26.7
			l-2.9-6.8v-28.2h12.9l-2.9,6.8v18.2h12.3V820.7z"/>
		<path class="st2" d="M-911,858.9l2.9,6.8h-15.8l2.9-6.8v-63.3h-6.7l-6.8,2.9v-12.9h37.2v12.9l-6.9-2.9h-6.7V858.9z"/>
		<path class="st2" d="M-856.4,858.9l4,6.8h-15.8l1.8-6.8l-6.1-38.2h-4.3v38.2l2.9,6.8h-15.8l2.9-6.8v-66.5l-2.9-6.8h34.4l2.9,6.8
			v21.4l-2.9,6.8h-7.2L-856.4,858.9z M-876.8,795.7v15h14.3v-15H-876.8z"/>
		<path class="st2" d="M-844.7,865.8l2.9-6.8v-66.5l-2.9-6.8h32.4v12.9l-6.8-2.9h-12.7v15h10.7l6.8-2.9v15.8l-6.8-2.9h-10.7v35h12.7
			l6.8-2.9l-2.9,12.9H-844.7z"/>
		<path class="st2" d="M-780,820.7h-19.5l-2.9-6.8v-21.4l2.9-6.8h26.7v12.9l-6.8-2.9h-12.7v15h19.5l2.9,6.8v41.4l-2.9,6.8h-26.7
			l-2.9-6.8v-28.2h12.9l-2.9,6.8v18.2h12.3V820.7z"/>
	</g>
</g>
<g>
	<g>
		<path class="st3" d="M257.3,667.2l7.3-26.6h15.8l-2.9,6.8v76.5l2.9,6.8h-15.8l2.9-6.8v-57.3l-10.1,37.7l-10.1-37.7v57.3l2.9,6.8
			h-15.8l2.9-6.8v-76.5l-2.9-6.8H250L257.3,667.2z"/>
		<path class="st3" d="M288,730.8l2.9-6.8v-66.5l-2.9-6.8h32.4v12.9l-6.8-2.9h-12.7v15h10.7l6.8-2.9v15.8l-6.8-2.9h-10.7v35h12.7
			l6.8-2.9l-2.9,12.9H288z"/>
		<path class="st3" d="M363.2,657.5v66.5l2.9,6.8h-15.8l1.7-4l-13.1-43.2v40.3l2.9,6.8h-15.8l2.9-6.8v-66.5l-2.9-6.8h12.9l14.3,47.2
			v-40.3l-2.9-6.8H366L363.2,657.5z"/>
		<path class="st3" d="M398.1,657.5l-2.9-6.8H411l-2.9,6.8v66.5l-2.9,6.8h-25.8l-2.9-6.8v-66.5l-2.9-6.8h15.8l-2.9,6.8v63.3h11.5
			V657.5z"/>
		<path class="st3" d="M443,650.6h34.4l2.9,6.8v66.5l-2.9,6.8H443l2.9-6.8v-66.5L443,650.6z M455.8,660.7v60.1h14.3v-60.1H455.8z"/>
		<path class="st3" d="M487.9,730.8l2.9-6.8v-66.5l-2.9-6.8h32.4v12.9l-6.8-2.9h-12.7v15h10.7l6.8-2.9v15.8l-6.8-2.9h-10.7v35h12.7
			l6.8-2.9l-2.9,12.9H487.9z"/>
		<path class="st3" d="M540.9,657.5v63.3h12.7l6.8-2.9l-2.9,12.9H528l2.9-6.8v-66.5l-2.9-6.8h15.8L540.9,657.5z"/>
		<path class="st3" d="M592.4,640.6h34.4l2.9,6.8v76.5l-2.9,6.8h-34.4l2.9-6.8v-76.5L592.4,640.6z M605.3,650.6v70.1h14.3v-70.1
			H605.3z"/>
		<path class="st3" d="M650.2,657.5v66.5l2.9,6.8h-15.8l2.9-6.8v-66.5l-2.9-6.8h15.8L650.2,657.5z"/>
		<path class="st3" d="M674.4,730.8h-15.8l4.2-6.8l13-66.5l-1.4-6.8H690l-1.4,6.8l13,66.5l4.2,6.8H690l1.5-6.8l-3.5-18.2h-11.7
			l-3.5,18.2L674.4,730.8z M678.3,695.7h7.7l-3.9-19.6L678.3,695.7z"/>
	</g>
	<g>
		<path class="st4" d="M261.3,664.2l7.3-26.6h15.8l-2.9,6.8v76.5l2.9,6.8h-15.8l2.9-6.8v-57.3l-10.1,37.7l-10.1-37.7v57.3l2.9,6.8
			h-15.8l2.9-6.8v-76.5l-2.9-6.8H254L261.3,664.2z"/>
		<path class="st4" d="M292,727.8l2.9-6.8v-66.5l-2.9-6.8h32.4v12.9l-6.8-2.9h-12.7v15h10.7l6.8-2.9v15.8l-6.8-2.9h-10.7v35h12.7
			l6.8-2.9l-2.9,12.9H292z"/>
		<path class="st4" d="M367.2,654.5v66.5l2.9,6.8h-15.8l1.7-4l-13.1-43.2v40.3l2.9,6.8h-15.8l2.9-6.8v-66.5l-2.9-6.8h12.9l14.3,47.2
			v-40.3l-2.9-6.8H370L367.2,654.5z"/>
		<path class="st4" d="M402.1,654.5l-2.9-6.8H415l-2.9,6.8v66.5l-2.9,6.8h-25.8l-2.9-6.8v-66.5l-2.9-6.8h15.8l-2.9,6.8v63.3h11.5
			V654.5z"/>
		<path class="st4" d="M447,647.6h34.4l2.9,6.8v66.5l-2.9,6.8H447l2.9-6.8v-66.5L447,647.6z M459.8,657.7v60.1h14.3v-60.1H459.8z"/>
		<path class="st4" d="M491.9,727.8l2.9-6.8v-66.5l-2.9-6.8h32.4v12.9l-6.8-2.9h-12.7v15h10.7l6.8-2.9v15.8l-6.8-2.9h-10.7v35h12.7
			l6.8-2.9l-2.9,12.9H491.9z"/>
		<path class="st4" d="M544.9,654.5v63.3h12.7l6.8-2.9l-2.9,12.9H532l2.9-6.8v-66.5l-2.9-6.8h15.8L544.9,654.5z"/>
		<path class="st4" d="M596.4,637.6h34.4l2.9,6.8v76.5l-2.9,6.8h-34.4l2.9-6.8v-76.5L596.4,637.6z M609.3,647.6v70.1h14.3v-70.1
			H609.3z"/>
		<path class="st4" d="M654.2,654.5v66.5l2.9,6.8h-15.8l2.9-6.8v-66.5l-2.9-6.8h15.8L654.2,654.5z"/>
		<path class="st4" d="M678.4,727.8h-15.8l4.2-6.8l13-66.5l-1.4-6.8H694l-1.4,6.8l13,66.5l4.2,6.8H694l1.5-6.8l-3.5-18.2h-11.7
			l-3.5,18.2L678.4,727.8z M682.3,692.7h7.7l-3.9-19.6L682.3,692.7z"/>
	</g>
	<g>
		<path class="st2" d="M264.3,661.2l7.3-26.6h15.8l-2.9,6.8v76.5l2.9,6.8h-15.8l2.9-6.8v-57.3l-10.1,37.7l-10.1-37.7v57.3l2.9,6.8
			h-15.8l2.9-6.8v-76.5l-2.9-6.8H257L264.3,661.2z"/>
		<path class="st2" d="M295,724.8l2.9-6.8v-66.5l-2.9-6.8h32.4v12.9l-6.8-2.9h-12.7v15h10.7l6.8-2.9v15.8l-6.8-2.9h-10.7v35h12.7
			l6.8-2.9l-2.9,12.9H295z"/>
		<path class="st2" d="M370.2,651.5v66.5l2.9,6.8h-15.8l1.7-4l-13.1-43.2v40.3l2.9,6.8h-15.8l2.9-6.8v-66.5l-2.9-6.8h12.9l14.3,47.2
			v-40.3l-2.9-6.8H373L370.2,651.5z"/>
		<path class="st2" d="M405.1,651.5l-2.9-6.8H418l-2.9,6.8v66.5l-2.9,6.8h-25.8l-2.9-6.8v-66.5l-2.9-6.8h15.8l-2.9,6.8v63.3h11.5
			V651.5z"/>
		<path class="st2" d="M450,644.6h34.4l2.9,6.8v66.5l-2.9,6.8H450l2.9-6.8v-66.5L450,644.6z M462.8,654.7v60.1h14.3v-60.1H462.8z"/>
		<path class="st2" d="M494.9,724.8l2.9-6.8v-66.5l-2.9-6.8h32.4v12.9l-6.8-2.9h-12.7v15h10.7l6.8-2.9v15.8l-6.8-2.9h-10.7v35h12.7
			l6.8-2.9l-2.9,12.9H494.9z"/>
		<path class="st2" d="M547.9,651.5v63.3h12.7l6.8-2.9l-2.9,12.9H535l2.9-6.8v-66.5l-2.9-6.8h15.8L547.9,651.5z"/>
		<path class="st2" d="M599.4,634.6h34.4l2.9,6.8v76.5l-2.9,6.8h-34.4l2.9-6.8v-76.5L599.4,634.6z M612.3,644.6v70.1h14.3v-70.1
			H612.3z"/>
		<path class="st2" d="M657.2,651.5v66.5l2.9,6.8h-15.8l2.9-6.8v-66.5l-2.9-6.8h15.8L657.2,651.5z"/>
		<path class="st2" d="M681.4,724.8h-15.8l4.2-6.8l13-66.5l-1.4-6.8H697l-1.4,6.8l13,66.5l4.2,6.8H697l1.5-6.8l-3.5-18.2h-11.7
			l-3.5,18.2L681.4,724.8z M685.3,689.7h7.7l-3.9-19.6L685.3,689.7z"/>
	</g>
</g>
<g>
	<g>
		<path class="st3" d="M-451,868.8h-15.8l4.1-6.8l13.9-79.6l-2.2-3.7h15.6l-2.2,3.7l13.9,79.6l4.1,6.8h-15.8l1.8-6.8l-5-28.2h-9.3
			l-4.8,28.2L-451,868.8z M-446,823.7h5.7l-2.9-16.4L-446,823.7z"/>
		<path class="st3" d="M-380.8,861.9l4,6.8h-15.8l1.8-6.8l-6.1-38.2h-4.3v38.2l2.9,6.8h-15.8l2.9-6.8v-66.5l-2.9-6.8h34.4l2.9,6.8
			v21.4l-2.9,6.8h-7.2L-380.8,861.9z M-401.2,798.7v15h14.3v-15H-401.2z"/>
		<path class="st3" d="M-346.1,815.2l7.3-26.6h15.8l-2.9,6.8v66.5l2.9,6.8h-15.8l2.9-6.8v-47.3l-10.1,37.6l-10.1-37.6v47.3l2.9,6.8
			h-15.8l2.9-6.8v-66.5l-2.9-6.8h15.8L-346.1,815.2z"/>
		<path class="st3" d="M-301.8,868.8h-15.8l4.2-6.8l13-66.5l-1.4-6.8h15.6l-1.4,6.8l13,66.5l4.2,6.8h-15.8l1.5-6.8l-3.5-18.2h-11.7
			l-3.5,18.2L-301.8,868.8z M-297.8,833.7h7.7l-3.9-19.6L-297.8,833.7z"/>
		<path class="st3" d="M-214.8,861.9l2.9,6.8h-15.8l2.9-6.8v-63.3h-6.7l-6.8,2.9v-12.9h37.2v12.9l-6.9-2.9h-6.7V861.9z"/>
		<path class="st3" d="M-169.1,795.5l-2.9-6.8h15.8l-2.9,6.8v66.5l-2.9,6.8h-25.8l-2.9-6.8v-66.5l-2.9-6.8h15.8l-2.9,6.8v63.3h11.5
			V795.5z"/>
		<path class="st3" d="M-100.7,861.9l2.9,6.8h-15.8l2.9-6.8v-73.3h-6.7l-6.8,2.9v-12.9H-87v12.9l-6.9-2.9h-6.7V861.9z"/>
		<path class="st3" d="M-71.2,868.8H-87l4.2-6.8l13-66.5l-1.4-6.8h15.6l-1.4,6.8l13,66.5l4.2,6.8h-15.8l1.5-6.8l-3.5-18.2h-11.7
			l-3.5,18.2L-71.2,868.8z M-67.3,833.7h7.7l-3.9-19.6L-67.3,833.7z"/>
		<path class="st3" d="M-1.9,788.7v12.9l-6.8-2.9h-15.5v60.1h15.5l6.8-2.9l-2.9,12.9h-26.7l-2.9-6.8v-66.5l2.9-6.8H-1.9z"/>
		<path class="st3" d="M39.5,868.8H10.9L8,861.9v-66.5l2.9-6.8h28.7l2.9,6.8v66.5L39.5,868.8z M32.3,798.7H18v60.1h14.3V798.7z"/>
	</g>
	<g>
		<path class="st4" d="M-447,865.8h-15.8l4.1-6.8l13.9-79.6l-2.2-3.7h15.6l-2.2,3.7l13.9,79.6l4.1,6.8h-15.8l1.8-6.8l-5-28.2h-9.3
			l-4.8,28.2L-447,865.8z M-442,820.7h5.7l-2.9-16.4L-442,820.7z"/>
		<path class="st4" d="M-376.8,858.9l4,6.8h-15.8l1.8-6.8l-6.1-38.2h-4.3v38.2l2.9,6.8h-15.8l2.9-6.8v-66.5l-2.9-6.8h34.4l2.9,6.8
			v21.4l-2.9,6.8h-7.2L-376.8,858.9z M-397.2,795.7v15h14.3v-15H-397.2z"/>
		<path class="st4" d="M-342.1,812.2l7.3-26.6h15.8l-2.9,6.8v66.5l2.9,6.8h-15.8l2.9-6.8v-47.3l-10.1,37.6l-10.1-37.6v47.3l2.9,6.8
			h-15.8l2.9-6.8v-66.5l-2.9-6.8h15.8L-342.1,812.2z"/>
		<path class="st4" d="M-297.8,865.8h-15.8l4.2-6.8l13-66.5l-1.4-6.8h15.6l-1.4,6.8l13,66.5l4.2,6.8h-15.8l1.5-6.8l-3.5-18.2h-11.7
			l-3.5,18.2L-297.8,865.8z M-293.8,830.7h7.7l-3.9-19.6L-293.8,830.7z"/>
		<path class="st4" d="M-210.8,858.9l2.9,6.8h-15.8l2.9-6.8v-63.3h-6.7l-6.8,2.9v-12.9h37.2v12.9l-6.9-2.9h-6.7V858.9z"/>
		<path class="st4" d="M-165.1,792.5l-2.9-6.8h15.8l-2.9,6.8v66.5l-2.9,6.8h-25.8l-2.9-6.8v-66.5l-2.9-6.8h15.8l-2.9,6.8v63.3h11.5
			V792.5z"/>
		<path class="st4" d="M-96.7,858.9l2.9,6.8h-15.8l2.9-6.8v-73.3h-6.7l-6.8,2.9v-12.9H-83v12.9l-6.9-2.9h-6.7V858.9z"/>
		<path class="st4" d="M-67.2,865.8H-83l4.2-6.8l13-66.5l-1.4-6.8h15.6l-1.4,6.8l13,66.5l4.2,6.8h-15.8l1.5-6.8l-3.5-18.2h-11.7
			l-3.5,18.2L-67.2,865.8z M-63.3,830.7h7.7l-3.9-19.6L-63.3,830.7z"/>
		<path class="st4" d="M2.1,785.7v12.9l-6.8-2.9h-15.5v60.1h15.5l6.8-2.9l-2.9,12.9h-26.7l-2.9-6.8v-66.5l2.9-6.8H2.1z"/>
		<path class="st4" d="M43.5,865.8H14.9l-2.9-6.8v-66.5l2.9-6.8h28.7l2.9,6.8v66.5L43.5,865.8z M36.3,795.7H22v60.1h14.3V795.7z"/>
	</g>
	<g>
		<path class="st2" d="M-444,862.8h-15.8l4.1-6.8l13.9-79.6l-2.2-3.7h15.6l-2.2,3.7l13.9,79.6l4.1,6.8h-15.8l1.8-6.8l-5-28.2h-9.3
			l-4.8,28.2L-444,862.8z M-439,817.7h5.7l-2.9-16.4L-439,817.7z"/>
		<path class="st2" d="M-373.8,855.9l4,6.8h-15.8l1.8-6.8l-6.1-38.2h-4.3v38.2l2.9,6.8h-15.8l2.9-6.8v-66.5l-2.9-6.8h34.4l2.9,6.8
			v21.4l-2.9,6.8h-7.2L-373.8,855.9z M-394.2,792.7v15h14.3v-15H-394.2z"/>
		<path class="st2" d="M-339.1,809.2l7.3-26.6h15.8l-2.9,6.8v66.5l2.9,6.8h-15.8l2.9-6.8v-47.3l-10.1,37.6l-10.1-37.6v47.3l2.9,6.8
			h-15.8l2.9-6.8v-66.5l-2.9-6.8h15.8L-339.1,809.2z"/>
		<path class="st2" d="M-294.8,862.8h-15.8l4.2-6.8l13-66.5l-1.4-6.8h15.6l-1.4,6.8l13,66.5l4.2,6.8h-15.8l1.5-6.8l-3.5-18.2h-11.7
			l-3.5,18.2L-294.8,862.8z M-290.8,827.7h7.7l-3.9-19.6L-290.8,827.7z"/>
		<path class="st2" d="M-207.8,855.9l2.9,6.8h-15.8l2.9-6.8v-63.3h-6.7l-6.8,2.9v-12.9h37.2v12.9l-6.9-2.9h-6.7V855.9z"/>
		<path class="st2" d="M-162.1,789.5l-2.9-6.8h15.8l-2.9,6.8v66.5l-2.9,6.8h-25.8l-2.9-6.8v-66.5l-2.9-6.8h15.8l-2.9,6.8v63.3h11.5
			V789.5z"/>
		<path class="st2" d="M-93.7,855.9l2.9,6.8h-15.8l2.9-6.8v-73.3h-6.7l-6.8,2.9v-12.9H-80v12.9l-6.9-2.9h-6.7V855.9z"/>
		<path class="st2" d="M-64.2,862.8H-80l4.2-6.8l13-66.5l-1.4-6.8h15.6l-1.4,6.8l13,66.5l4.2,6.8h-15.8l1.5-6.8l-3.5-18.2h-11.7
			l-3.5,18.2L-64.2,862.8z M-60.3,827.7h7.7l-3.9-19.6L-60.3,827.7z"/>
		<path class="st2" d="M5.1,782.7v12.9l-6.8-2.9h-15.5v60.1h15.5l6.8-2.9l-2.9,12.9h-26.7l-2.9-6.8v-66.5l2.9-6.8H5.1z"/>
		<path class="st2" d="M46.5,862.8H17.9l-2.9-6.8v-66.5l2.9-6.8h28.7l2.9,6.8v66.5L46.5,862.8z M39.3,792.7H25v60.1h14.3V792.7z"/>
	</g>
</g>
<g>
	<g>
		<path class="st3" d="M-474.7,724.8h-15.8l4.1-6.8l13.9-79.6l-2.2-3.7h15.6l-2.2,3.7l13.9,79.6l4.1,6.8H-459l1.8-6.8l-5-28.2h-9.3
			l-4.8,28.2L-474.7,724.8z M-469.7,679.7h5.7l-2.9-16.4L-469.7,679.7z"/>
		<path class="st3" d="M-404.5,717.9l4,6.8h-15.8l1.8-6.8l-6.1-38.2h-4.3v38.2l2.9,6.8h-15.8l2.9-6.8v-66.5l-2.9-6.8h34.4l2.9,6.8
			v21.4l-2.9,6.8h-7.2L-404.5,717.9z M-424.9,654.7v15h14.3v-15H-424.9z"/>
		<path class="st3" d="M-369.8,671.2l7.3-26.6h15.8l-2.9,6.8v66.5l2.9,6.8h-15.8l2.9-6.8v-47.3l-10.1,37.6l-10.1-37.6v47.3l2.9,6.8
			h-15.8l2.9-6.8v-66.5l-2.9-6.8h15.8L-369.8,671.2z"/>
		<path class="st3" d="M-325.5,724.8h-15.8l4.2-6.8l13-66.5l-1.4-6.8h15.6l-1.4,6.8l13,66.5l4.2,6.8h-15.8l1.5-6.8l-3.5-18.2h-11.7
			l-3.5,18.2L-325.5,724.8z M-321.5,689.7h7.7l-3.9-19.6L-321.5,689.7z"/>
		<path class="st3" d="M-238.5,717.9l2.9,6.8h-15.8l2.9-6.8v-63.3h-6.7l-6.8,2.9v-12.9h37.2v12.9l-6.9-2.9h-6.7V717.9z"/>
		<path class="st3" d="M-192.8,651.5l-2.9-6.8h15.8l-2.9,6.8v66.5l-2.9,6.8h-25.8l-2.9-6.8v-66.5l-2.9-6.8h15.8l-2.9,6.8v63.3h11.5
			V651.5z"/>
		<path class="st3" d="M-135,717.9l2.9,6.8h-15.8l2.9-6.8v-76.5l-2.9-6.8h34.4l2.9,6.8v21.4l-2.9,6.8H-135V717.9z M-135,644.6v15
			h14.3v-15H-135z"/>
		<path class="st3" d="M-90.1,651.5v63.3h12.7l6.8-2.9l-2.9,12.9H-103l2.9-6.8v-66.5l-2.9-6.8h15.8L-90.1,651.5z"/>
		<path class="st3" d="M-50.4,724.8h-15.8l4.2-6.8l13-66.5l-1.4-6.8h15.6l-1.4,6.8l13,66.5l4.2,6.8h-15.8l1.5-6.8l-3.5-18.2h-11.7
			l-3.5,18.2L-50.4,724.8z M-46.4,689.7h7.7l-3.9-19.6L-46.4,689.7z"/>
		<path class="st3" d="M4.6,717.9l2.9,6.8H-8.3l2.9-6.8v-63.3h-6.7l-6.8,2.9v-12.9h37.2v12.9l-6.9-2.9H4.6V717.9z"/>
		<path class="st3" d="M57.5,724.8H28.8l-2.9-6.8v-66.5l2.9-6.8h28.7l2.9,6.8v66.5L57.5,724.8z M50.3,654.7H36v60.1h14.3V654.7z"/>
	</g>
	<g>
		<path class="st4" d="M-470.7,721.8h-15.8l4.1-6.8l13.9-79.6l-2.2-3.7h15.6l-2.2,3.7l13.9,79.6l4.1,6.8H-455l1.8-6.8l-5-28.2h-9.3
			l-4.8,28.2L-470.7,721.8z M-465.7,676.7h5.7l-2.9-16.4L-465.7,676.7z"/>
		<path class="st4" d="M-400.5,714.9l4,6.8h-15.8l1.8-6.8l-6.1-38.2h-4.3v38.2l2.9,6.8h-15.8l2.9-6.8v-66.5l-2.9-6.8h34.4l2.9,6.8
			v21.4l-2.9,6.8h-7.2L-400.5,714.9z M-420.9,651.7v15h14.3v-15H-420.9z"/>
		<path class="st4" d="M-365.8,668.2l7.3-26.6h15.8l-2.9,6.8v66.5l2.9,6.8h-15.8l2.9-6.8v-47.3l-10.1,37.6l-10.1-37.6v47.3l2.9,6.8
			h-15.8l2.9-6.8v-66.5l-2.9-6.8h15.8L-365.8,668.2z"/>
		<path class="st4" d="M-321.5,721.8h-15.8l4.2-6.8l13-66.5l-1.4-6.8h15.6l-1.4,6.8l13,66.5l4.2,6.8h-15.8l1.5-6.8l-3.5-18.2h-11.7
			l-3.5,18.2L-321.5,721.8z M-317.5,686.7h7.7l-3.9-19.6L-317.5,686.7z"/>
		<path class="st4" d="M-234.5,714.9l2.9,6.8h-15.8l2.9-6.8v-63.3h-6.7l-6.8,2.9v-12.9h37.2v12.9l-6.9-2.9h-6.7V714.9z"/>
		<path class="st4" d="M-188.8,648.5l-2.9-6.8h15.8l-2.9,6.8v66.5l-2.9,6.8h-25.8l-2.9-6.8v-66.5l-2.9-6.8h15.8l-2.9,6.8v63.3h11.5
			V648.5z"/>
		<path class="st4" d="M-131,714.9l2.9,6.8h-15.8l2.9-6.8v-76.5l-2.9-6.8h34.4l2.9,6.8v21.4l-2.9,6.8H-131V714.9z M-131,641.6v15
			h14.3v-15H-131z"/>
		<path class="st4" d="M-86.1,648.5v63.3h12.7l6.8-2.9l-2.9,12.9H-99l2.9-6.8v-66.5l-2.9-6.8h15.8L-86.1,648.5z"/>
		<path class="st4" d="M-46.4,721.8h-15.8l4.2-6.8l13-66.5l-1.4-6.8h15.6l-1.4,6.8l13,66.5l4.2,6.8h-15.8l1.5-6.8l-3.5-18.2h-11.7
			l-3.5,18.2L-46.4,721.8z M-42.4,686.7h7.7l-3.9-19.6L-42.4,686.7z"/>
		<path class="st4" d="M8.6,714.9l2.9,6.8H-4.3l2.9-6.8v-63.3h-6.7l-6.8,2.9v-12.9h37.2v12.9l-6.9-2.9H8.6V714.9z"/>
		<path class="st4" d="M61.5,721.8H32.8l-2.9-6.8v-66.5l2.9-6.8h28.7l2.9,6.8v66.5L61.5,721.8z M54.3,651.7H40v60.1h14.3V651.7z"/>
	</g>
	<g>
		<path class="st2" d="M-467.7,718.8h-15.8l4.1-6.8l13.9-79.6l-2.2-3.7h15.6l-2.2,3.7l13.9,79.6l4.1,6.8H-452l1.8-6.8l-5-28.2h-9.3
			l-4.8,28.2L-467.7,718.8z M-462.7,673.7h5.7l-2.9-16.4L-462.7,673.7z"/>
		<path class="st2" d="M-397.5,711.9l4,6.8h-15.8l1.8-6.8l-6.1-38.2h-4.3v38.2l2.9,6.8h-15.8l2.9-6.8v-66.5l-2.9-6.8h34.4l2.9,6.8
			v21.4l-2.9,6.8h-7.2L-397.5,711.9z M-417.9,648.7v15h14.3v-15H-417.9z"/>
		<path class="st2" d="M-362.8,665.2l7.3-26.6h15.8l-2.9,6.8v66.5l2.9,6.8h-15.8l2.9-6.8v-47.3l-10.1,37.6l-10.1-37.6v47.3l2.9,6.8
			h-15.8l2.9-6.8v-66.5l-2.9-6.8h15.8L-362.8,665.2z"/>
		<path class="st2" d="M-318.5,718.8h-15.8l4.2-6.8l13-66.5l-1.4-6.8h15.6l-1.4,6.8l13,66.5l4.2,6.8h-15.8l1.5-6.8l-3.5-18.2h-11.7
			l-3.5,18.2L-318.5,718.8z M-314.5,683.7h7.7l-3.9-19.6L-314.5,683.7z"/>
		<path class="st2" d="M-231.5,711.9l2.9,6.8h-15.8l2.9-6.8v-63.3h-6.7l-6.8,2.9v-12.9h37.2v12.9l-6.9-2.9h-6.7V711.9z"/>
		<path class="st2" d="M-185.8,645.5l-2.9-6.8h15.8l-2.9,6.8v66.5l-2.9,6.8h-25.8l-2.9-6.8v-66.5l-2.9-6.8h15.8l-2.9,6.8v63.3h11.5
			V645.5z"/>
		<path class="st2" d="M-128,711.9l2.9,6.8h-15.8l2.9-6.8v-76.5l-2.9-6.8h34.4l2.9,6.8v21.4l-2.9,6.8H-128V711.9z M-128,638.6v15
			h14.3v-15H-128z"/>
		<path class="st2" d="M-83.1,645.5v63.3h12.7l6.8-2.9l-2.9,12.9H-96l2.9-6.8v-66.5l-2.9-6.8h15.8L-83.1,645.5z"/>
		<path class="st2" d="M-43.4,718.8h-15.8l4.2-6.8l13-66.5l-1.4-6.8h15.6l-1.4,6.8l13,66.5l4.2,6.8h-15.8l1.5-6.8l-3.5-18.2h-11.7
			l-3.5,18.2L-43.4,718.8z M-39.4,683.7h7.7l-3.9-19.6L-39.4,683.7z"/>
		<path class="st2" d="M11.6,711.9l2.9,6.8H-1.3l2.9-6.8v-63.3h-6.7l-6.8,2.9v-12.9h37.2v12.9l-6.9-2.9h-6.7V711.9z"/>
		<path class="st2" d="M64.5,718.8H35.8l-2.9-6.8v-66.5l2.9-6.8h28.7l2.9,6.8v66.5L64.5,718.8z M57.3,648.7H43v60.1h14.3V648.7z"/>
	</g>
</g>
</svg>
