<?xml version="1.0" encoding="utf-8"?>
<!-- Generator: Adobe Illustrator 19.1.0, SVG Export Plug-In . SVG Version: 6.00 Build 0)  -->
<svg version="1.1" id="Layer_1" xmlns="http://www.w3.org/2000/svg" xmlns:xlink="http://www.w3.org/1999/xlink" x="0px" y="0px"
	 viewBox="234.2 634.6 478.5 96.1" style="enable-background:new 234.2 634.6 478.5 96.1;" xml:space="preserve">
<style type="text/css">
	.st0{fill:#D66F87;}
	.st1{fill:#711B1D;}
	.st2{fill:#FFFFFF;}
	.st3{fill:#CE7689;}
	.st4{fill:#6F1717;}
</style>
<g>
	<g>
		<path class="st3" d="M257.3,667.2l7.3-26.6h15.8l-2.9,6.8v76.5l2.9,6.8h-15.8l2.9-6.8v-57.3l-10.1,37.7l-10.1-37.7v57.3l2.9,6.8
			h-15.8l2.9-6.8v-76.5l-2.9-6.8H250L257.3,667.2z"/>
		<path class="st3" d="M288,730.8l2.9-6.8v-66.5l-2.9-6.8h32.4v12.9l-6.8-2.9h-12.7v15h10.7l6.8-2.9v15.8l-6.8-2.9h-10.7v35h12.7
			l6.8-2.9l-2.9,12.9H288z"/>
		<path class="st3" d="M363.2,657.5v66.5l2.9,6.8h-15.8l1.7-4l-13.1-43.2v40.3l2.9,6.8h-15.8l2.9-6.8v-66.5l-2.9-6.8h12.9l14.3,47.2
			v-40.3l-2.9-6.8H366L363.2,657.5z"/>
		<path class="st3" d="M398.1,657.5l-2.9-6.8H411l-2.9,6.8v66.5l-2.9,6.8h-25.8l-2.9-6.8v-66.5l-2.9-6.8h15.8l-2.9,6.8v63.3h11.5
			V657.5z"/>
		<path class="st3" d="M443,650.6h34.4l2.9,6.8v66.5l-2.9,6.8H443l2.9-6.8v-66.5L443,650.6z M455.8,660.7v60.1h14.3v-60.1H455.8z"/>
		<path class="st3" d="M487.9,730.8l2.9-6.8v-66.5l-2.9-6.8h32.4v12.9l-6.8-2.9h-12.7v15h10.7l6.8-2.9v15.8l-6.8-2.9h-10.7v35h12.7
			l6.8-2.9l-2.9,12.9H487.9z"/>
		<path class="st3" d="M540.9,657.5v63.3h12.7l6.8-2.9l-2.9,12.9H528l2.9-6.8v-66.5l-2.9-6.8h15.8L540.9,657.5z"/>
		<path class="st3" d="M592.4,640.6h34.4l2.9,6.8v76.5l-2.9,6.8h-34.4l2.9-6.8v-76.5L592.4,640.6z M605.3,650.6v70.1h14.3v-70.1
			H605.3z"/>
		<path class="st3" d="M650.2,657.5v66.5l2.9,6.8h-15.8l2.9-6.8v-66.5l-2.9-6.8h15.8L650.2,657.5z"/>
		<path class="st3" d="M674.4,730.8h-15.8l4.2-6.8l13-66.5l-1.4-6.8H690l-1.4,6.8l13,66.5l4.2,6.8H690l1.5-6.8l-3.5-18.2h-11.7
			l-3.5,18.2L674.4,730.8z M678.3,695.7h7.7l-3.9-19.6L678.3,695.7z"/>
	</g>
	<g>
		<path class="st4" d="M261.3,664.2l7.3-26.6h15.8l-2.9,6.8v76.5l2.9,6.8h-15.8l2.9-6.8v-57.3l-10.1,37.7l-10.1-37.7v57.3l2.9,6.8
			h-15.8l2.9-6.8v-76.5l-2.9-6.8H254L261.3,664.2z"/>
		<path class="st4" d="M292,727.8l2.9-6.8v-66.5l-2.9-6.8h32.4v12.9l-6.8-2.9h-12.7v15h10.7l6.8-2.9v15.8l-6.8-2.9h-10.7v35h12.7
			l6.8-2.9l-2.9,12.9H292z"/>
		<path class="st4" d="M367.2,654.5v66.5l2.9,6.8h-15.8l1.7-4l-13.1-43.2v40.3l2.9,6.8h-15.8l2.9-6.8v-66.5l-2.9-6.8h12.9l14.3,47.2
			v-40.3l-2.9-6.8H370L367.2,654.5z"/>
		<path class="st4" d="M402.1,654.5l-2.9-6.8H415l-2.9,6.8v66.5l-2.9,6.8h-25.8l-2.9-6.8v-66.5l-2.9-6.8h15.8l-2.9,6.8v63.3h11.5
			V654.5z"/>
		<path class="st4" d="M447,647.6h34.4l2.9,6.8v66.5l-2.9,6.8H447l2.9-6.8v-66.5L447,647.6z M459.8,657.7v60.1h14.3v-60.1H459.8z"/>
		<path class="st4" d="M491.9,727.8l2.9-6.8v-66.5l-2.9-6.8h32.4v12.9l-6.8-2.9h-12.7v15h10.7l6.8-2.9v15.8l-6.8-2.9h-10.7v35h12.7
			l6.8-2.9l-2.9,12.9H491.9z"/>
		<path class="st4" d="M544.9,654.5v63.3h12.7l6.8-2.9l-2.9,12.9H532l2.9-6.8v-66.5l-2.9-6.8h15.8L544.9,654.5z"/>
		<path class="st4" d="M596.4,637.6h34.4l2.9,6.8v76.5l-2.9,6.8h-34.4l2.9-6.8v-76.5L596.4,637.6z M609.3,647.6v70.1h14.3v-70.1
			H609.3z"/>
		<path class="st4" d="M654.2,654.5v66.5l2.9,6.8h-15.8l2.9-6.8v-66.5l-2.9-6.8h15.8L654.2,654.5z"/>
		<path class="st4" d="M678.4,727.8h-15.8l4.2-6.8l13-66.5l-1.4-6.8H694l-1.4,6.8l13,66.5l4.2,6.8H694l1.5-6.8l-3.5-18.2h-11.7
			l-3.5,18.2L678.4,727.8z M682.3,692.7h7.7l-3.9-19.6L682.3,692.7z"/>
	</g>
	<g>
		<path class="st2" d="M264.3,661.2l7.3-26.6h15.8l-2.9,6.8v76.5l2.9,6.8h-15.8l2.9-6.8v-57.3l-10.1,37.7l-10.1-37.7v57.3l2.9,6.8
			h-15.8l2.9-6.8v-76.5l-2.9-6.8H257L264.3,661.2z"/>
		<path class="st2" d="M295,724.8l2.9-6.8v-66.5l-2.9-6.8h32.4v12.9l-6.8-2.9h-12.7v15h10.7l6.8-2.9v15.8l-6.8-2.9h-10.7v35h12.7
			l6.8-2.9l-2.9,12.9H295z"/>
		<path class="st2" d="M370.2,651.5v66.5l2.9,6.8h-15.8l1.7-4l-13.1-43.2v40.3l2.9,6.8h-15.8l2.9-6.8v-66.5l-2.9-6.8h12.9l14.3,47.2
			v-40.3l-2.9-6.8H373L370.2,651.5z"/>
		<path class="st2" d="M405.1,651.5l-2.9-6.8H418l-2.9,6.8v66.5l-2.9,6.8h-25.8l-2.9-6.8v-66.5l-2.9-6.8h15.8l-2.9,6.8v63.3h11.5
			V651.5z"/>
		<path class="st2" d="M450,644.6h34.4l2.9,6.8v66.5l-2.9,6.8H450l2.9-6.8v-66.5L450,644.6z M462.8,654.7v60.1h14.3v-60.1H462.8z"/>
		<path class="st2" d="M494.9,724.8l2.9-6.8v-66.5l-2.9-6.8h32.4v12.9l-6.8-2.9h-12.7v15h10.7l6.8-2.9v15.8l-6.8-2.9h-10.7v35h12.7
			l6.8-2.9l-2.9,12.9H494.9z"/>
		<path class="st2" d="M547.9,651.5v63.3h12.7l6.8-2.9l-2.9,12.9H535l2.9-6.8v-66.5l-2.9-6.8h15.8L547.9,651.5z"/>
		<path class="st2" d="M599.4,634.6h34.4l2.9,6.8v76.5l-2.9,6.8h-34.4l2.9-6.8v-76.5L599.4,634.6z M612.3,644.6v70.1h14.3v-70.1
			H612.3z"/>
		<path class="st2" d="M657.2,651.5v66.5l2.9,6.8h-15.8l2.9-6.8v-66.5l-2.9-6.8h15.8L657.2,651.5z"/>
		<path class="st2" d="M681.4,724.8h-15.8l4.2-6.8l13-66.5l-1.4-6.8H697l-1.4,6.8l13,66.5l4.2,6.8H697l1.5-6.8l-3.5-18.2h-11.7
			l-3.5,18.2L681.4,724.8z M685.3,689.7h7.7l-3.9-19.6L685.3,689.7z"/>
	</g>
</g>
</svg>
