<?xml version="1.0" encoding="utf-8"?>
<!-- Generator: Adobe Illustrator 19.1.0, SVG Export Plug-In . SVG Version: 6.00 Build 0)  -->
<svg version="1.1" id="Layer_1" xmlns="http://www.w3.org/2000/svg" xmlns:xlink="http://www.w3.org/1999/xlink" x="0px" y="0px"
	 viewBox="0 0 423.7 96.1" style="enable-background:new 0 0 423.7 96.1;" xml:space="preserve">
<style type="text/css">
	.st0{fill:#D66F87;}
	.st1{fill:#711B1D;}
	.st2{fill:#FFFFFF;}
	.st3{fill:#292660;}
	.st4{fill:#00ACEC;}
	.st5{fill:#71B452;}
	.st6{fill:#AA252A;}
	.st7{fill-rule:evenodd;clip-rule:evenodd;fill:#00ACEC;}
	.st8{fill:#38673D;}
	.st9{fill:#9EC54C;}
	.st10{fill-rule:evenodd;clip-rule:evenodd;fill:#6BB476;}
	.st11{fill-rule:evenodd;clip-rule:evenodd;fill:#D66F87;}
	.st12{fill:#D35A2F;}
	.st13{fill:#E8AE4A;}
	.st14{fill-rule:evenodd;clip-rule:evenodd;fill:#E8AE4A;}
	.st15{fill:#38271B;}
	.st16{fill:#B8986D;}
	.st17{fill-rule:evenodd;clip-rule:evenodd;fill:#B8986D;}
	.st18{fill:#E0922E;}
	.st19{fill:#F9F2B6;}
	.st20{fill-rule:evenodd;clip-rule:evenodd;fill:#F9F2B6;}
	.st21{fill:#32338E;}
	.st22{fill-rule:evenodd;clip-rule:evenodd;fill:#D694BC;}
	.st23{fill-rule:evenodd;clip-rule:evenodd;fill:#38673D;}
	.st24{fill:#5AA69C;}
	.st25{fill:#39665D;}
	.st26{fill-rule:evenodd;clip-rule:evenodd;fill:#39665D;}
	.st27{fill-rule:evenodd;clip-rule:evenodd;fill:#5AA69C;}
	.st28{fill:#6C1E52;}
	.st29{fill-rule:evenodd;clip-rule:evenodd;fill:#6C1E52;}
	.st30{fill:#D694BC;}
	.st31{fill-rule:evenodd;clip-rule:evenodd;fill:#9EC54C;}
	.st32{fill-rule:evenodd;clip-rule:evenodd;fill:#D35A2F;}
	.st33{fill-rule:evenodd;clip-rule:evenodd;fill:#38271B;}
	.st34{fill-rule:evenodd;clip-rule:evenodd;fill:#292660;}
	.st35{fill-rule:evenodd;clip-rule:evenodd;fill:#711B1D;}
	.st36{fill-rule:evenodd;clip-rule:evenodd;fill:#E0922E;}
	.st37{fill-rule:evenodd;clip-rule:evenodd;}
	.st38{fill-rule:evenodd;clip-rule:evenodd;fill:#FFFFFF;}
</style>
<g>
	<path class="st0" d="M0,96.1l2.9-6.8V12.8L0,6h32.4v12.9L25.6,16H12.9v15h10.7l6.8-2.9v15.8L23.6,41H12.9v45.1h12.7l6.8-2.9
		l-2.9,12.9H0z"/>
	<path class="st0" d="M77.4,22.9v66.5l2.9,6.8H64.5l1.7-4L53,49v40.3l2.9,6.8H40.1l2.9-6.8V22.9L40.1,16H53l14.3,47.2V22.9L64.5,16
		h15.8L77.4,22.9z"/>
	<path class="st0" d="M120.3,16v12.9l-6.8-2.9H98v60.1h15.5l6.8-2.9l-2.9,12.9H90.8l-2.9-6.8V22.9l2.9-6.8H120.3z"/>
	<path class="st0" d="M140.9,22.9V41h14.3V22.9l-2.9-6.8h15.8l-2.9,6.8v66.5l2.9,6.8h-15.8l2.9-6.8V51.1h-14.3v38.2l2.9,6.8H128
		l2.9-6.8V22.9L128,16h15.8L140.9,22.9z"/>
	<path class="st0" d="M188.8,22.9v66.5l2.9,6.8h-15.8l2.9-6.8V22.9l-2.9-6.8h15.8L188.8,22.9z"/>
	<path class="st0" d="M212.2,22.9v63.3h12.7l6.8-2.9l-2.9,12.9h-29.5l2.9-6.8V22.9l-2.9-6.8h15.8L212.2,22.9z"/>
	<path class="st0" d="M251.9,96.1h-15.8l4.2-6.8l13-66.5l-1.4-6.8h15.6l-1.4,6.8l13,66.5l4.2,6.8h-15.8l1.5-6.8l-3.5-18.2h-11.7
		l-3.5,18.2L251.9,96.1z M255.9,61.1h7.7l-3.9-19.6L255.9,61.1z"/>
	<path class="st0" d="M288.8,16h34.4l2.9,6.8v66.5l-2.9,6.8h-34.4l2.9-6.8V22.9L288.8,16z M301.7,26.1v60.1h14.3V26.1H301.7z"/>
	<path class="st0" d="M347.3,96.1h-15.8l4.2-6.8l13-66.5l-1.4-6.8H363l-1.4,6.8l13,66.5l4.2,6.8H363l1.5-6.8L361,71.1h-11.7
		l-3.5,18.2L347.3,96.1z M351.3,61.1h7.7l-3.9-19.6L351.3,61.1z"/>
	<path class="st0" d="M406.6,51.1h-19.5l-2.9-6.8V22.9l2.9-6.8h26.7v12.9l-6.8-2.9h-12.7v15h19.5l2.9,6.8v41.4l-2.9,6.8h-26.7
		l-2.9-6.8V61.1h12.9l-2.9,6.8v18.2h12.3V51.1z"/>
</g>
<g>
	<path class="st1" d="M4,93.1l2.9-6.8V9.8L4,3h32.4v12.9L29.6,13H16.9v15h10.7l6.8-2.9v15.8L27.6,38H16.9v45.1h12.7l6.8-2.9
		l-2.9,12.9H4z"/>
	<path class="st1" d="M81.4,19.9v66.5l2.9,6.8H68.5l1.7-4L57,46v40.3l2.9,6.8H44.1l2.9-6.8V19.9L44.1,13H57l14.3,47.2V19.9L68.5,13
		h15.8L81.4,19.9z"/>
	<path class="st1" d="M124.3,13v12.9l-6.8-2.9H102v60.1h15.5l6.8-2.9l-2.9,12.9H94.8l-2.9-6.8V19.9l2.9-6.8H124.3z"/>
	<path class="st1" d="M144.9,19.9V38h14.3V19.9l-2.9-6.8h15.8l-2.9,6.8v66.5l2.9,6.8h-15.8l2.9-6.8V48.1h-14.3v38.2l2.9,6.8H132
		l2.9-6.8V19.9L132,13h15.8L144.9,19.9z"/>
	<path class="st1" d="M192.8,19.9v66.5l2.9,6.8h-15.8l2.9-6.8V19.9l-2.9-6.8h15.8L192.8,19.9z"/>
	<path class="st1" d="M216.2,19.9v63.3h12.7l6.8-2.9l-2.9,12.9h-29.5l2.9-6.8V19.9l-2.9-6.8h15.8L216.2,19.9z"/>
	<path class="st1" d="M255.9,93.1h-15.8l4.2-6.8l13-66.5l-1.4-6.8h15.6l-1.4,6.8l13,66.5l4.2,6.8h-15.8l1.5-6.8l-3.5-18.2h-11.7
		l-3.5,18.2L255.9,93.1z M259.9,58.1h7.7l-3.9-19.6L259.9,58.1z"/>
	<path class="st1" d="M292.8,13h34.4l2.9,6.8v66.5l-2.9,6.8h-34.4l2.9-6.8V19.9L292.8,13z M305.7,23.1v60.1h14.3V23.1H305.7z"/>
	<path class="st1" d="M351.3,93.1h-15.8l4.2-6.8l13-66.5l-1.4-6.8H367l-1.4,6.8l13,66.5l4.2,6.8H367l1.5-6.8L365,68.1h-11.7
		l-3.5,18.2L351.3,93.1z M355.3,58.1h7.7l-3.9-19.6L355.3,58.1z"/>
	<path class="st1" d="M410.6,48.1h-19.5l-2.9-6.8V19.9l2.9-6.8h26.7v12.9l-6.8-2.9h-12.7v15h19.5l2.9,6.8v41.4l-2.9,6.8h-26.7
		l-2.9-6.8V58.1h12.9l-2.9,6.8v18.2h12.3V48.1z"/>
</g>
<g>
	<path class="st2" d="M7,90.1l2.9-6.8V6.8L7,0h32.4v12.9L32.6,10H19.9v15h10.7l6.8-2.9v15.8L30.6,35H19.9v45.1h12.7l6.8-2.9
		l-2.9,12.9H7z"/>
	<path class="st2" d="M84.4,16.9v66.5l2.9,6.8H71.5l1.7-4L60,43v40.3l2.9,6.8H47.1l2.9-6.8V16.9L47.1,10H60l14.3,47.2V16.9L71.5,10
		h15.8L84.4,16.9z"/>
	<path class="st2" d="M127.3,10v12.9l-6.8-2.9H105v60.1h15.5l6.8-2.9l-2.9,12.9H97.8l-2.9-6.8V16.9l2.9-6.8H127.3z"/>
	<path class="st2" d="M147.9,16.9V35h14.3V16.9l-2.9-6.8h15.8l-2.9,6.8v66.5l2.9,6.8h-15.8l2.9-6.8V45.1h-14.3v38.2l2.9,6.8H135
		l2.9-6.8V16.9L135,10h15.8L147.9,16.9z"/>
	<path class="st2" d="M195.8,16.9v66.5l2.9,6.8h-15.8l2.9-6.8V16.9l-2.9-6.8h15.8L195.8,16.9z"/>
	<path class="st2" d="M219.2,16.9v63.3h12.7l6.8-2.9l-2.9,12.9h-29.5l2.9-6.8V16.9l-2.9-6.8h15.8L219.2,16.9z"/>
	<path class="st2" d="M258.9,90.1h-15.8l4.2-6.8l13-66.5l-1.4-6.8h15.6l-1.4,6.8l13,66.5l4.2,6.8h-15.8l1.5-6.8l-3.5-18.2h-11.7
		l-3.5,18.2L258.9,90.1z M262.9,55.1h7.7l-3.9-19.6L262.9,55.1z"/>
	<path class="st2" d="M295.8,10h34.4l2.9,6.8v66.5l-2.9,6.8h-34.4l2.9-6.8V16.9L295.8,10z M308.7,20.1v60.1h14.3V20.1H308.7z"/>
	<path class="st2" d="M354.3,90.1h-15.8l4.2-6.8l13-66.5l-1.4-6.8H370l-1.4,6.8l13,66.5l4.2,6.8H370l1.5-6.8L368,65.1h-11.7
		l-3.5,18.2L354.3,90.1z M358.3,55.1h7.7l-3.9-19.6L358.3,55.1z"/>
	<path class="st2" d="M413.6,45.1h-19.5l-2.9-6.8V16.9l2.9-6.8h26.7v12.9l-6.8-2.9h-12.7v15h19.5l2.9,6.8v41.4l-2.9,6.8h-26.7
		l-2.9-6.8V55.1h12.9l-2.9,6.8v18.2h12.3V45.1z"/>
</g>
</svg>
