<?xml version="1.0" encoding="utf-8"?>
<!-- Generator: Adobe Illustrator 19.1.0, SVG Export Plug-In . SVG Version: 6.00 Build 0)  -->
<svg version="1.1" id="Layer_1" xmlns="http://www.w3.org/2000/svg" xmlns:xlink="http://www.w3.org/1999/xlink" x="0px" y="0px"
	 viewBox="0 0 329.8 96.1" style="enable-background:new 0 0 329.8 96.1;" xml:space="preserve">
<style type="text/css">
	.st0{fill:#D66F87;}
	.st1{fill:#711B1D;}
	.st2{fill:#FFFFFF;}
	.st3{fill:#292660;}
	.st4{fill:#00ACEC;}
	.st5{fill:#71B452;}
	.st6{fill:#AA252A;}
	.st7{fill-rule:evenodd;clip-rule:evenodd;fill:#00ACEC;}
	.st8{fill:#38673D;}
	.st9{fill:#9EC54C;}
	.st10{fill-rule:evenodd;clip-rule:evenodd;fill:#6BB476;}
	.st11{fill-rule:evenodd;clip-rule:evenodd;fill:#D66F87;}
	.st12{fill:#D35A2F;}
	.st13{fill:#E8AE4A;}
	.st14{fill-rule:evenodd;clip-rule:evenodd;fill:#E8AE4A;}
	.st15{fill:#38271B;}
	.st16{fill:#B8986D;}
	.st17{fill-rule:evenodd;clip-rule:evenodd;fill:#B8986D;}
	.st18{fill:#E0922E;}
	.st19{fill:#F9F2B6;}
	.st20{fill-rule:evenodd;clip-rule:evenodd;fill:#F9F2B6;}
	.st21{fill:#32338E;}
	.st22{fill-rule:evenodd;clip-rule:evenodd;fill:#D694BC;}
	.st23{fill-rule:evenodd;clip-rule:evenodd;fill:#38673D;}
	.st24{fill:#5AA69C;}
	.st25{fill:#39665D;}
	.st26{fill-rule:evenodd;clip-rule:evenodd;fill:#39665D;}
	.st27{fill-rule:evenodd;clip-rule:evenodd;fill:#5AA69C;}
	.st28{fill:#6C1E52;}
	.st29{fill-rule:evenodd;clip-rule:evenodd;fill:#6C1E52;}
	.st30{fill:#D694BC;}
	.st31{fill-rule:evenodd;clip-rule:evenodd;fill:#9EC54C;}
	.st32{fill-rule:evenodd;clip-rule:evenodd;fill:#D35A2F;}
	.st33{fill-rule:evenodd;clip-rule:evenodd;fill:#38271B;}
	.st34{fill-rule:evenodd;clip-rule:evenodd;fill:#292660;}
	.st35{fill-rule:evenodd;clip-rule:evenodd;fill:#711B1D;}
	.st36{fill-rule:evenodd;clip-rule:evenodd;fill:#E0922E;}
	.st37{fill-rule:evenodd;clip-rule:evenodd;}
	.st38{fill-rule:evenodd;clip-rule:evenodd;fill:#FFFFFF;}
</style>
<g>
	<path class="st0" d="M37.2,37.8v51.5l-2.9,6.8H0l2.9-6.8V12.8L0,6h34.4l2.9,6.8v21.4l-2.9,1.9L37.2,37.8z M12.9,16v15h14.3V16H12.9
		z M12.9,86.1h14.3V41H12.9V86.1z"/>
	<path class="st0" d="M69.3,22.9L66.4,16h15.8l-2.9,6.8v66.5l-2.9,6.8H50.7l-2.9-6.8V22.9L45,16h15.8l-2.9,6.8v63.3h11.5V22.9z"/>
	<path class="st0" d="M121,89.3l4,6.8h-15.8l1.8-6.8l-6.1-38.2h-4.3v38.2l2.9,6.8H87.7l2.9-6.8V22.9L87.7,16h34.4l2.9,6.8v21.4
		l-2.9,6.8h-7.2L121,89.3z M100.6,26.1v15h14.3v-15H100.6z"/>
	<path class="st0" d="M166,89.3l4,6.8h-15.8l1.8-6.8l-6.1-38.2h-4.3v38.2l2.9,6.8h-15.8l2.9-6.8V22.9l-2.9-6.8h34.4l2.9,6.8v21.4
		l-2.9,6.8h-7.2L166,89.3z M145.6,26.1v15h14.3v-15H145.6z"/>
	<path class="st0" d="M190.5,22.9v66.5l2.9,6.8h-15.8l2.9-6.8V22.9l-2.9-6.8h15.8L190.5,22.9z"/>
	<path class="st0" d="M224.7,89.3l2.9,6.8h-15.8l2.9-6.8V26.1h-6.7l-6.8,2.9V16h37.2v12.9l-6.9-2.9h-6.7V89.3z"/>
	<path class="st0" d="M277.6,96.1h-28.7l-2.9-6.8V22.9l2.9-6.8h28.7l2.9,6.8v66.5L277.6,96.1z M270.4,26.1h-14.3v60.1h14.3V26.1z"/>
	<path class="st0" d="M312.7,51.1h-19.5l-2.9-6.8V22.9l2.9-6.8h26.7v12.9l-6.8-2.9h-12.7v15h19.5l2.9,6.8v41.4l-2.9,6.8h-26.7
		l-2.9-6.8V61.1h12.9l-2.9,6.8v18.2h12.3V51.1z"/>
</g>
<g>
	<path class="st1" d="M41.2,34.8v51.5l-2.9,6.8H4l2.9-6.8V9.8L4,3h34.4l2.9,6.8v21.4l-2.9,1.9L41.2,34.8z M16.9,13v15h14.3V13H16.9z
		 M16.9,83.1h14.3V38H16.9V83.1z"/>
	<path class="st1" d="M73.3,19.9L70.4,13h15.8l-2.9,6.8v66.5l-2.9,6.8H54.7l-2.9-6.8V19.9L49,13h15.8l-2.9,6.8v63.3h11.5V19.9z"/>
	<path class="st1" d="M125,86.3l4,6.8h-15.8l1.8-6.8l-6.1-38.2h-4.3v38.2l2.9,6.8H91.7l2.9-6.8V19.9L91.7,13h34.4l2.9,6.8v21.4
		l-2.9,6.8h-7.2L125,86.3z M104.6,23.1v15h14.3v-15H104.6z"/>
	<path class="st1" d="M170,86.3l4,6.8h-15.8l1.8-6.8l-6.1-38.2h-4.3v38.2l2.9,6.8h-15.8l2.9-6.8V19.9l-2.9-6.8h34.4l2.9,6.8v21.4
		l-2.9,6.8h-7.2L170,86.3z M149.6,23.1v15h14.3v-15H149.6z"/>
	<path class="st1" d="M194.5,19.9v66.5l2.9,6.8h-15.8l2.9-6.8V19.9l-2.9-6.8h15.8L194.5,19.9z"/>
	<path class="st1" d="M228.7,86.3l2.9,6.8h-15.8l2.9-6.8V23.1h-6.7l-6.8,2.9V13h37.2v12.9l-6.9-2.9h-6.7V86.3z"/>
	<path class="st1" d="M281.6,93.1h-28.7l-2.9-6.8V19.9l2.9-6.8h28.7l2.9,6.8v66.5L281.6,93.1z M274.4,23.1h-14.3v60.1h14.3V23.1z"/>
	<path class="st1" d="M316.7,48.1h-19.5l-2.9-6.8V19.9l2.9-6.8h26.7v12.9l-6.8-2.9h-12.7v15h19.5l2.9,6.8v41.4l-2.9,6.8h-26.7
		l-2.9-6.8V58.1h12.9l-2.9,6.8v18.2h12.3V48.1z"/>
</g>
<g>
	<path class="st2" d="M44.2,31.8v51.5l-2.9,6.8H7l2.9-6.8V6.8L7,0h34.4l2.9,6.8v21.4l-2.9,1.9L44.2,31.8z M19.9,10v15h14.3V10H19.9z
		 M19.9,80.1h14.3V35H19.9V80.1z"/>
	<path class="st2" d="M76.3,16.9L73.4,10h15.8l-2.9,6.8v66.5l-2.9,6.8H57.7l-2.9-6.8V16.9L52,10h15.8l-2.9,6.8v63.3h11.5V16.9z"/>
	<path class="st2" d="M128,83.3l4,6.8h-15.8l1.8-6.8l-6.1-38.2h-4.3v38.2l2.9,6.8H94.7l2.9-6.8V16.9L94.7,10h34.4l2.9,6.8v21.4
		l-2.9,6.8h-7.2L128,83.3z M107.6,20.1v15h14.3v-15H107.6z"/>
	<path class="st2" d="M173,83.3l4,6.8h-15.8l1.8-6.8l-6.1-38.2h-4.3v38.2l2.9,6.8h-15.8l2.9-6.8V16.9l-2.9-6.8h34.4l2.9,6.8v21.4
		l-2.9,6.8h-7.2L173,83.3z M152.6,20.1v15h14.3v-15H152.6z"/>
	<path class="st2" d="M197.5,16.9v66.5l2.9,6.8h-15.8l2.9-6.8V16.9l-2.9-6.8h15.8L197.5,16.9z"/>
	<path class="st2" d="M231.7,83.3l2.9,6.8h-15.8l2.9-6.8V20.1h-6.7l-6.8,2.9V10h37.2v12.9l-6.9-2.9h-6.7V83.3z"/>
	<path class="st2" d="M284.6,90.1h-28.7l-2.9-6.8V16.9l2.9-6.8h28.7l2.9,6.8v66.5L284.6,90.1z M277.4,20.1h-14.3v60.1h14.3V20.1z"/>
	<path class="st2" d="M319.7,45.1h-19.5l-2.9-6.8V16.9l2.9-6.8h26.7v12.9l-6.8-2.9h-12.7v15h19.5l2.9,6.8v41.4l-2.9,6.8h-26.7
		l-2.9-6.8V55.1h12.9l-2.9,6.8v18.2h12.3V45.1z"/>
</g>
</svg>
