<?xml version="1.0" encoding="utf-8"?>
<!-- Generator: Adobe Illustrator 19.1.0, SVG Export Plug-In . SVG Version: 6.00 Build 0)  -->
<svg version="1.1" id="Layer_1" xmlns="http://www.w3.org/2000/svg" xmlns:xlink="http://www.w3.org/1999/xlink" x="0px" y="0px"
	 viewBox="0 0 530.8 96.1" style="enable-background:new 0 0 530.8 96.1;" xml:space="preserve">
<style type="text/css">
	.st0{fill:#D66F87;}
	.st1{fill:#711B1D;}
	.st2{fill:#FFFFFF;}
	.st3{fill:#292660;}
	.st4{fill:#00ACEC;}
	.st5{fill:#71B452;}
	.st6{fill:#AA252A;}
	.st7{fill-rule:evenodd;clip-rule:evenodd;fill:#00ACEC;}
	.st8{fill:#38673D;}
	.st9{fill:#9EC54C;}
	.st10{fill-rule:evenodd;clip-rule:evenodd;fill:#6BB476;}
	.st11{fill-rule:evenodd;clip-rule:evenodd;fill:#D66F87;}
	.st12{fill:#D35A2F;}
	.st13{fill:#E8AE4A;}
	.st14{fill-rule:evenodd;clip-rule:evenodd;fill:#E8AE4A;}
	.st15{fill:#38271B;}
	.st16{fill:#B8986D;}
	.st17{fill-rule:evenodd;clip-rule:evenodd;fill:#B8986D;}
	.st18{fill:#E0922E;}
	.st19{fill:#F9F2B6;}
	.st20{fill-rule:evenodd;clip-rule:evenodd;fill:#F9F2B6;}
	.st21{fill:#32338E;}
	.st22{fill-rule:evenodd;clip-rule:evenodd;fill:#D694BC;}
	.st23{fill-rule:evenodd;clip-rule:evenodd;fill:#38673D;}
	.st24{fill:#5AA69C;}
	.st25{fill:#39665D;}
	.st26{fill-rule:evenodd;clip-rule:evenodd;fill:#39665D;}
	.st27{fill-rule:evenodd;clip-rule:evenodd;fill:#5AA69C;}
	.st28{fill:#6C1E52;}
	.st29{fill-rule:evenodd;clip-rule:evenodd;fill:#6C1E52;}
	.st30{fill:#D694BC;}
	.st31{fill-rule:evenodd;clip-rule:evenodd;fill:#9EC54C;}
	.st32{fill-rule:evenodd;clip-rule:evenodd;fill:#D35A2F;}
	.st33{fill-rule:evenodd;clip-rule:evenodd;fill:#38271B;}
	.st34{fill-rule:evenodd;clip-rule:evenodd;fill:#292660;}
	.st35{fill-rule:evenodd;clip-rule:evenodd;fill:#711B1D;}
	.st36{fill-rule:evenodd;clip-rule:evenodd;fill:#E0922E;}
	.st37{fill-rule:evenodd;clip-rule:evenodd;}
	.st38{fill-rule:evenodd;clip-rule:evenodd;fill:#FFFFFF;}
</style>
<g>
	<g>
		<path class="st0" d="M0,6h34.4l2.9,6.8v76.5l-2.9,6.8H0l2.9-6.8V12.8L0,6z M12.9,16v70.1h14.3V16H12.9z"/>
		<path class="st0" d="M45,96.1l2.9-6.8V22.9L45,16h32.4v12.9l-6.8-2.9H57.9v15h10.7l6.8-2.9v15.8l-6.8-2.9H57.9v35h12.7l6.8-2.9
			l-2.9,12.9H45z"/>
		<path class="st0" d="M122.2,22.9v63.3h12.7l6.8-2.9l-2.9,12.9h-29.5l2.9-6.8V22.9l-2.9-6.8h15.8L122.2,22.9z"/>
		<path class="st0" d="M161.9,96.1h-15.8l4.2-6.8l13-66.5l-1.4-6.8h15.6l-1.4,6.8l13,66.5l4.2,6.8h-15.8l1.5-6.8l-3.5-18.2h-11.7
			l-3.5,18.2L161.9,96.1z M165.8,61.1h7.7l-3.9-19.6L165.8,61.1z"/>
		<path class="st0" d="M257.6,6v12.9l-6.8-2.9h-15.5v70.1h15.5l6.8-2.9l-2.9,12.9h-26.7l-2.9-6.8V12.8l2.9-6.8H257.6z"/>
		<path class="st0" d="M277.8,96.1h-15.8l4.2-6.8l13-66.5l-1.4-6.8h15.6l-1.4,6.8l13,66.5l4.2,6.8h-15.8l1.5-6.8l-3.5-18.2h-11.7
			l-3.5,18.2L277.8,96.1z M281.8,61.1h7.7l-3.9-19.6L281.8,61.1z"/>
		<path class="st0" d="M352,22.9v66.5l2.9,6.8h-15.8l1.7-4L327.6,49v40.3l2.9,6.8h-15.8l2.9-6.8V22.9l-2.9-6.8h12.9l14.3,47.2V22.9
			l-2.9-6.8h15.8L352,22.9z"/>
		<path class="st0" d="M386.1,89.3l2.9,6.8h-15.8l2.9-6.8V26.1h-6.7l-6.8,2.9V16h37.2v12.9l-6.9-2.9h-6.7V89.3z"/>
		<path class="st0" d="M420.4,22.9v66.5l2.9,6.8h-15.8l2.9-6.8V22.9l-2.9-6.8h15.8L420.4,22.9z"/>
		<path class="st0" d="M468.2,22.9v66.5l2.9,6.8h-15.8l1.7-4L443.9,49v40.3l2.9,6.8H431l2.9-6.8V22.9L431,16h12.9l14.3,47.2V22.9
			l-2.9-6.8h15.8L468.2,22.9z"/>
		<path class="st0" d="M492.4,96.1h-15.8l4.2-6.8l13-66.5l-1.4-6.8H508l-1.4,6.8l13,66.5l4.2,6.8H508l1.5-6.8L506,71.1h-11.7
			l-3.5,18.2L492.4,96.1z M496.3,61.1h7.7l-3.9-19.6L496.3,61.1z"/>
	</g>
	<g>
		<path class="st1" d="M4,3h34.4l2.9,6.8v76.5l-2.9,6.8H4l2.9-6.8V9.8L4,3z M16.9,13v70.1h14.3V13H16.9z"/>
		<path class="st1" d="M49,93.1l2.9-6.8V19.9L49,13h32.4v12.9l-6.8-2.9H61.9v15h10.7l6.8-2.9v15.8l-6.8-2.9H61.9v35h12.7l6.8-2.9
			l-2.9,12.9H49z"/>
		<path class="st1" d="M126.2,19.9v63.3h12.7l6.8-2.9l-2.9,12.9h-29.5l2.9-6.8V19.9l-2.9-6.8h15.8L126.2,19.9z"/>
		<path class="st1" d="M165.9,93.1h-15.8l4.2-6.8l13-66.5l-1.4-6.8h15.6l-1.4,6.8l13,66.5l4.2,6.8h-15.8l1.5-6.8l-3.5-18.2h-11.7
			l-3.5,18.2L165.9,93.1z M169.8,58.1h7.7l-3.9-19.6L169.8,58.1z"/>
		<path class="st1" d="M261.6,3v12.9l-6.8-2.9h-15.5v70.1h15.5l6.8-2.9l-2.9,12.9h-26.7l-2.9-6.8V9.8l2.9-6.8H261.6z"/>
		<path class="st1" d="M281.8,93.1h-15.8l4.2-6.8l13-66.5l-1.4-6.8h15.6l-1.4,6.8l13,66.5l4.2,6.8h-15.8l1.5-6.8l-3.5-18.2h-11.7
			l-3.5,18.2L281.8,93.1z M285.8,58.1h7.7l-3.9-19.6L285.8,58.1z"/>
		<path class="st1" d="M356,19.9v66.5l2.9,6.8h-15.8l1.7-4L331.6,46v40.3l2.9,6.8h-15.8l2.9-6.8V19.9l-2.9-6.8h12.9l14.3,47.2V19.9
			l-2.9-6.8h15.8L356,19.9z"/>
		<path class="st1" d="M390.1,86.3l2.9,6.8h-15.8l2.9-6.8V23.1h-6.7l-6.8,2.9V13h37.2v12.9l-6.9-2.9h-6.7V86.3z"/>
		<path class="st1" d="M424.4,19.9v66.5l2.9,6.8h-15.8l2.9-6.8V19.9l-2.9-6.8h15.8L424.4,19.9z"/>
		<path class="st1" d="M472.2,19.9v66.5l2.9,6.8h-15.8l1.7-4L447.9,46v40.3l2.9,6.8H435l2.9-6.8V19.9L435,13h12.9l14.3,47.2V19.9
			l-2.9-6.8h15.8L472.2,19.9z"/>
		<path class="st1" d="M496.4,93.1h-15.8l4.2-6.8l13-66.5l-1.4-6.8H512l-1.4,6.8l13,66.5l4.2,6.8H512l1.5-6.8L510,68.1h-11.7
			l-3.5,18.2L496.4,93.1z M500.3,58.1h7.7l-3.9-19.6L500.3,58.1z"/>
	</g>
	<g>
		<path class="st2" d="M7,0h34.4l2.9,6.8v76.5l-2.9,6.8H7l2.9-6.8V6.8L7,0z M19.9,10v70.1h14.3V10H19.9z"/>
		<path class="st2" d="M52,90.1l2.9-6.8V16.9L52,10h32.4v12.9l-6.8-2.9H64.9v15h10.7l6.8-2.9v15.8l-6.8-2.9H64.9v35h12.7l6.8-2.9
			l-2.9,12.9H52z"/>
		<path class="st2" d="M129.2,16.9v63.3h12.7l6.8-2.9l-2.9,12.9h-29.5l2.9-6.8V16.9l-2.9-6.8h15.8L129.2,16.9z"/>
		<path class="st2" d="M168.9,90.1h-15.8l4.2-6.8l13-66.5l-1.4-6.8h15.6l-1.4,6.8l13,66.5l4.2,6.8h-15.8l1.5-6.8l-3.5-18.2h-11.7
			l-3.5,18.2L168.9,90.1z M172.8,55.1h7.7l-3.9-19.6L172.8,55.1z"/>
		<path class="st2" d="M264.6,0v12.9l-6.8-2.9h-15.5v70.1h15.5l6.8-2.9l-2.9,12.9h-26.7l-2.9-6.8V6.8l2.9-6.8H264.6z"/>
		<path class="st2" d="M284.8,90.1h-15.8l4.2-6.8l13-66.5l-1.4-6.8h15.6l-1.4,6.8l13,66.5l4.2,6.8h-15.8l1.5-6.8l-3.5-18.2h-11.7
			l-3.5,18.2L284.8,90.1z M288.8,55.1h7.7l-3.9-19.6L288.8,55.1z"/>
		<path class="st2" d="M359,16.9v66.5l2.9,6.8h-15.8l1.7-4L334.6,43v40.3l2.9,6.8h-15.8l2.9-6.8V16.9l-2.9-6.8h12.9l14.3,47.2V16.9
			l-2.9-6.8h15.8L359,16.9z"/>
		<path class="st2" d="M393.1,83.3l2.9,6.8h-15.8l2.9-6.8V20.1h-6.7l-6.8,2.9V10h37.2v12.9l-6.9-2.9h-6.7V83.3z"/>
		<path class="st2" d="M427.4,16.9v66.5l2.9,6.8h-15.8l2.9-6.8V16.9l-2.9-6.8h15.8L427.4,16.9z"/>
		<path class="st2" d="M475.2,16.9v66.5l2.9,6.8h-15.8l1.7-4L450.9,43v40.3l2.9,6.8H438l2.9-6.8V16.9L438,10h12.9l14.3,47.2V16.9
			l-2.9-6.8h15.8L475.2,16.9z"/>
		<path class="st2" d="M499.4,90.1h-15.8l4.2-6.8l13-66.5l-1.4-6.8H515l-1.4,6.8l13,66.5l4.2,6.8H515l1.5-6.8L513,65.1h-11.7
			l-3.5,18.2L499.4,90.1z M503.3,55.1h7.7l-3.9-19.6L503.3,55.1z"/>
	</g>
</g>
</svg>
