<?xml version="1.0" encoding="utf-8"?>
<!-- Generator: Adobe Illustrator 19.1.0, SVG Export Plug-In . SVG Version: 6.00 Build 0)  -->
<svg version="1.1" id="Layer_1" xmlns="http://www.w3.org/2000/svg" xmlns:xlink="http://www.w3.org/1999/xlink" x="0px" y="0px"
	 viewBox="-490.4 628.6 557.8 96.1" style="enable-background:new -490.4 628.6 557.8 96.1;" xml:space="preserve">
<style type="text/css">
	.st0{fill:#D66F87;}
	.st1{fill:#711B1D;}
	.st2{fill:#FFFFFF;}
	.st3{fill:#CE7689;}
	.st4{fill:#6F1717;}
</style>
<g>
	<g>
		<path class="st3" d="M-474.7,724.8h-15.8l4.1-6.8l13.9-79.6l-2.2-3.7h15.6l-2.2,3.7l13.9,79.6l4.1,6.8H-459l1.8-6.8l-5-28.2h-9.3
			l-4.8,28.2L-474.7,724.8z M-469.7,679.7h5.7l-2.9-16.4L-469.7,679.7z"/>
		<path class="st3" d="M-404.5,717.9l4,6.8h-15.8l1.8-6.8l-6.1-38.2h-4.3v38.2l2.9,6.8h-15.8l2.9-6.8v-66.5l-2.9-6.8h34.4l2.9,6.8
			v21.4l-2.9,6.8h-7.2L-404.5,717.9z M-424.9,654.7v15h14.3v-15H-424.9z"/>
		<path class="st3" d="M-369.8,671.2l7.3-26.6h15.8l-2.9,6.8v66.5l2.9,6.8h-15.8l2.9-6.8v-47.3l-10.1,37.6l-10.1-37.6v47.3l2.9,6.8
			h-15.8l2.9-6.8v-66.5l-2.9-6.8h15.8L-369.8,671.2z"/>
		<path class="st3" d="M-325.5,724.8h-15.8l4.2-6.8l13-66.5l-1.4-6.8h15.6l-1.4,6.8l13,66.5l4.2,6.8h-15.8l1.5-6.8l-3.5-18.2h-11.7
			l-3.5,18.2L-325.5,724.8z M-321.5,689.7h7.7l-3.9-19.6L-321.5,689.7z"/>
		<path class="st3" d="M-238.5,717.9l2.9,6.8h-15.8l2.9-6.8v-63.3h-6.7l-6.8,2.9v-12.9h37.2v12.9l-6.9-2.9h-6.7V717.9z"/>
		<path class="st3" d="M-192.8,651.5l-2.9-6.8h15.8l-2.9,6.8v66.5l-2.9,6.8h-25.8l-2.9-6.8v-66.5l-2.9-6.8h15.8l-2.9,6.8v63.3h11.5
			V651.5z"/>
		<path class="st3" d="M-135,717.9l2.9,6.8h-15.8l2.9-6.8v-76.5l-2.9-6.8h34.4l2.9,6.8v21.4l-2.9,6.8H-135V717.9z M-135,644.6v15
			h14.3v-15H-135z"/>
		<path class="st3" d="M-90.1,651.5v63.3h12.7l6.8-2.9l-2.9,12.9H-103l2.9-6.8v-66.5l-2.9-6.8h15.8L-90.1,651.5z"/>
		<path class="st3" d="M-50.4,724.8h-15.8l4.2-6.8l13-66.5l-1.4-6.8h15.6l-1.4,6.8l13,66.5l4.2,6.8h-15.8l1.5-6.8l-3.5-18.2h-11.7
			l-3.5,18.2L-50.4,724.8z M-46.4,689.7h7.7l-3.9-19.6L-46.4,689.7z"/>
		<path class="st3" d="M4.6,717.9l2.9,6.8H-8.3l2.9-6.8v-63.3h-6.7l-6.8,2.9v-12.9h37.2v12.9l-6.9-2.9H4.6V717.9z"/>
		<path class="st3" d="M57.5,724.8H28.8l-2.9-6.8v-66.5l2.9-6.8h28.7l2.9,6.8v66.5L57.5,724.8z M50.3,654.7H36v60.1h14.3V654.7z"/>
	</g>
	<g>
		<path class="st4" d="M-470.7,721.8h-15.8l4.1-6.8l13.9-79.6l-2.2-3.7h15.6l-2.2,3.7l13.9,79.6l4.1,6.8H-455l1.8-6.8l-5-28.2h-9.3
			l-4.8,28.2L-470.7,721.8z M-465.7,676.7h5.7l-2.9-16.4L-465.7,676.7z"/>
		<path class="st4" d="M-400.5,714.9l4,6.8h-15.8l1.8-6.8l-6.1-38.2h-4.3v38.2l2.9,6.8h-15.8l2.9-6.8v-66.5l-2.9-6.8h34.4l2.9,6.8
			v21.4l-2.9,6.8h-7.2L-400.5,714.9z M-420.9,651.7v15h14.3v-15H-420.9z"/>
		<path class="st4" d="M-365.8,668.2l7.3-26.6h15.8l-2.9,6.8v66.5l2.9,6.8h-15.8l2.9-6.8v-47.3l-10.1,37.6l-10.1-37.6v47.3l2.9,6.8
			h-15.8l2.9-6.8v-66.5l-2.9-6.8h15.8L-365.8,668.2z"/>
		<path class="st4" d="M-321.5,721.8h-15.8l4.2-6.8l13-66.5l-1.4-6.8h15.6l-1.4,6.8l13,66.5l4.2,6.8h-15.8l1.5-6.8l-3.5-18.2h-11.7
			l-3.5,18.2L-321.5,721.8z M-317.5,686.7h7.7l-3.9-19.6L-317.5,686.7z"/>
		<path class="st4" d="M-234.5,714.9l2.9,6.8h-15.8l2.9-6.8v-63.3h-6.7l-6.8,2.9v-12.9h37.2v12.9l-6.9-2.9h-6.7V714.9z"/>
		<path class="st4" d="M-188.8,648.5l-2.9-6.8h15.8l-2.9,6.8v66.5l-2.9,6.8h-25.8l-2.9-6.8v-66.5l-2.9-6.8h15.8l-2.9,6.8v63.3h11.5
			V648.5z"/>
		<path class="st4" d="M-131,714.9l2.9,6.8h-15.8l2.9-6.8v-76.5l-2.9-6.8h34.4l2.9,6.8v21.4l-2.9,6.8H-131V714.9z M-131,641.6v15
			h14.3v-15H-131z"/>
		<path class="st4" d="M-86.1,648.5v63.3h12.7l6.8-2.9l-2.9,12.9H-99l2.9-6.8v-66.5l-2.9-6.8h15.8L-86.1,648.5z"/>
		<path class="st4" d="M-46.4,721.8h-15.8l4.2-6.8l13-66.5l-1.4-6.8h15.6l-1.4,6.8l13,66.5l4.2,6.8h-15.8l1.5-6.8l-3.5-18.2h-11.7
			l-3.5,18.2L-46.4,721.8z M-42.4,686.7h7.7l-3.9-19.6L-42.4,686.7z"/>
		<path class="st4" d="M8.6,714.9l2.9,6.8H-4.3l2.9-6.8v-63.3h-6.7l-6.8,2.9v-12.9h37.2v12.9l-6.9-2.9H8.6V714.9z"/>
		<path class="st4" d="M61.5,721.8H32.8l-2.9-6.8v-66.5l2.9-6.8h28.7l2.9,6.8v66.5L61.5,721.8z M54.3,651.7H40v60.1h14.3V651.7z"/>
	</g>
	<g>
		<path class="st2" d="M-467.7,718.8h-15.8l4.1-6.8l13.9-79.6l-2.2-3.7h15.6l-2.2,3.7l13.9,79.6l4.1,6.8H-452l1.8-6.8l-5-28.2h-9.3
			l-4.8,28.2L-467.7,718.8z M-462.7,673.7h5.7l-2.9-16.4L-462.7,673.7z"/>
		<path class="st2" d="M-397.5,711.9l4,6.8h-15.8l1.8-6.8l-6.1-38.2h-4.3v38.2l2.9,6.8h-15.8l2.9-6.8v-66.5l-2.9-6.8h34.4l2.9,6.8
			v21.4l-2.9,6.8h-7.2L-397.5,711.9z M-417.9,648.7v15h14.3v-15H-417.9z"/>
		<path class="st2" d="M-362.8,665.2l7.3-26.6h15.8l-2.9,6.8v66.5l2.9,6.8h-15.8l2.9-6.8v-47.3l-10.1,37.6l-10.1-37.6v47.3l2.9,6.8
			h-15.8l2.9-6.8v-66.5l-2.9-6.8h15.8L-362.8,665.2z"/>
		<path class="st2" d="M-318.5,718.8h-15.8l4.2-6.8l13-66.5l-1.4-6.8h15.6l-1.4,6.8l13,66.5l4.2,6.8h-15.8l1.5-6.8l-3.5-18.2h-11.7
			l-3.5,18.2L-318.5,718.8z M-314.5,683.7h7.7l-3.9-19.6L-314.5,683.7z"/>
		<path class="st2" d="M-231.5,711.9l2.9,6.8h-15.8l2.9-6.8v-63.3h-6.7l-6.8,2.9v-12.9h37.2v12.9l-6.9-2.9h-6.7V711.9z"/>
		<path class="st2" d="M-185.8,645.5l-2.9-6.8h15.8l-2.9,6.8v66.5l-2.9,6.8h-25.8l-2.9-6.8v-66.5l-2.9-6.8h15.8l-2.9,6.8v63.3h11.5
			V645.5z"/>
		<path class="st2" d="M-128,711.9l2.9,6.8h-15.8l2.9-6.8v-76.5l-2.9-6.8h34.4l2.9,6.8v21.4l-2.9,6.8H-128V711.9z M-128,638.6v15
			h14.3v-15H-128z"/>
		<path class="st2" d="M-83.1,645.5v63.3h12.7l6.8-2.9l-2.9,12.9H-96l2.9-6.8v-66.5l-2.9-6.8h15.8L-83.1,645.5z"/>
		<path class="st2" d="M-43.4,718.8h-15.8l4.2-6.8l13-66.5l-1.4-6.8h15.6l-1.4,6.8l13,66.5l4.2,6.8h-15.8l1.5-6.8l-3.5-18.2h-11.7
			l-3.5,18.2L-43.4,718.8z M-39.4,683.7h7.7l-3.9-19.6L-39.4,683.7z"/>
		<path class="st2" d="M11.6,711.9l2.9,6.8H-1.3l2.9-6.8v-63.3h-6.7l-6.8,2.9v-12.9h37.2v12.9l-6.9-2.9h-6.7V711.9z"/>
		<path class="st2" d="M64.5,718.8H35.8l-2.9-6.8v-66.5l2.9-6.8h28.7l2.9,6.8v66.5L64.5,718.8z M57.3,648.7H43v60.1h14.3V648.7z"/>
	</g>
</g>
</svg>
