<?xml version="1.0" encoding="utf-8"?>
<!-- Generator: Adobe Illustrator 19.1.0, SVG Export Plug-In . SVG Version: 6.00 Build 0)  -->
<svg version="1.1" id="Layer_1" xmlns="http://www.w3.org/2000/svg" xmlns:xlink="http://www.w3.org/1999/xlink" x="0px" y="0px"
	 viewBox="0 0 660.3 116.2" style="enable-background:new 0 0 660.3 116.2;" xml:space="preserve">
<style type="text/css">
	.st0{fill:#D66F87;}
	.st1{fill:#711B1D;}
	.st2{fill:#FFFFFF;}
	.st3{fill:#292660;}
	.st4{fill:#00ACEC;}
	.st5{fill:#71B452;}
	.st6{fill:#AA252A;}
	.st7{fill-rule:evenodd;clip-rule:evenodd;fill:#00ACEC;}
	.st8{fill:#38673D;}
	.st9{fill:#9EC54C;}
	.st10{fill-rule:evenodd;clip-rule:evenodd;fill:#6BB476;}
	.st11{fill-rule:evenodd;clip-rule:evenodd;fill:#D66F87;}
	.st12{fill:#D35A2F;}
	.st13{fill:#E8AE4A;}
	.st14{fill-rule:evenodd;clip-rule:evenodd;fill:#E8AE4A;}
	.st15{fill:#38271B;}
	.st16{fill:#B8986D;}
	.st17{fill-rule:evenodd;clip-rule:evenodd;fill:#B8986D;}
	.st18{fill:#E0922E;}
	.st19{fill:#F9F2B6;}
	.st20{fill-rule:evenodd;clip-rule:evenodd;fill:#F9F2B6;}
	.st21{fill:#32338E;}
	.st22{fill-rule:evenodd;clip-rule:evenodd;fill:#D694BC;}
	.st23{fill-rule:evenodd;clip-rule:evenodd;fill:#38673D;}
	.st24{fill:#5AA69C;}
	.st25{fill:#39665D;}
	.st26{fill-rule:evenodd;clip-rule:evenodd;fill:#39665D;}
	.st27{fill-rule:evenodd;clip-rule:evenodd;fill:#5AA69C;}
	.st28{fill:#6C1E52;}
	.st29{fill-rule:evenodd;clip-rule:evenodd;fill:#6C1E52;}
	.st30{fill:#D694BC;}
	.st31{fill-rule:evenodd;clip-rule:evenodd;fill:#9EC54C;}
	.st32{fill-rule:evenodd;clip-rule:evenodd;fill:#D35A2F;}
	.st33{fill-rule:evenodd;clip-rule:evenodd;fill:#38271B;}
	.st34{fill-rule:evenodd;clip-rule:evenodd;fill:#292660;}
	.st35{fill-rule:evenodd;clip-rule:evenodd;fill:#711B1D;}
	.st36{fill-rule:evenodd;clip-rule:evenodd;fill:#E0922E;}
	.st37{fill-rule:evenodd;clip-rule:evenodd;}
	.st38{fill-rule:evenodd;clip-rule:evenodd;fill:#FFFFFF;}
</style>
<g>
	<path class="st0" d="M23.6,99.3l2.9,6.8H10.7l2.9-6.8V26.1H6.8L0,28.9V16h37.2v12.9l-6.9-2.9h-6.7V99.3z"/>
	<path class="st0" d="M53,106.2H37.2l4.2-6.8l13-66.5L53,26.1h15.6l-1.4,6.8l13,66.5l4.2,6.8H68.7l1.5-6.8l-3.5-18.2H55l-3.5,18.2
		L53,106.2z M57,71.1h7.7l-3.9-19.6L57,71.1z"/>
	<path class="st0" d="M127.2,57.9v41.4l-2.9,6.8H89.9l2.9-6.8V32.9l-2.9-6.8h34.4l2.9,6.8v21.4l-2.9,1.9L127.2,57.9z M102.8,36.1v15
		h14.3v-15H102.8z M102.8,96.1h14.3v-35h-14.3V96.1z"/>
	<path class="st0" d="M147.8,32.9v63.3h12.7l6.8-2.9l-2.9,12.9h-29.5l2.9-6.8V32.9l-2.9-6.8h15.8L147.8,32.9z"/>
	<path class="st0" d="M187.4,106.2h-15.8l4.2-6.8l13-66.5l-1.4-6.8h15.6l-1.4,6.8l13,66.5l4.2,6.8h-15.8l1.5-6.8l-3.5-18.2h-11.7
		l-3.5,18.2L187.4,106.2z M191.4,71.1h7.7l-3.9-19.6L191.4,71.1z"/>
	<path class="st0" d="M246.7,61.1h-19.5l-2.9-6.8V32.9l2.9-6.8h26.7V39l-6.8-2.9h-12.7v15h19.5l2.9,6.8v41.4l-2.9,6.8h-26.7
		l-2.9-6.8V71.1h12.9l-2.9,6.8v18.2h12.3V61.1z"/>
	<path class="st0" d="M301.6,12.8v96.5l2.9,6.8h-15.8l2.9-6.8V12.8L288.7,6h15.8L301.6,12.8z"/>
	<path class="st0" d="M349.3,99.3l2.9,6.8h-15.8l2.9-6.8V22.9l-2.9-6.8h34.4l2.9,6.8v21.4l-2.9,6.8h-21.5V99.3z M349.3,26.1v15h14.3
		v-15H349.3z"/>
	<path class="st0" d="M394.3,32.9v66.5l2.9,6.8h-15.8l2.9-6.8V32.9l-2.9-6.8h15.8L394.3,32.9z"/>
	<path class="st0" d="M437.3,26.1V39l-6.8-2.9h-15.5v60.1h15.5l6.8-2.9l-2.9,12.9h-26.7l-2.9-6.8V32.9l2.9-6.8H437.3z"/>
	<path class="st0" d="M478.7,106.2h-28.7l-2.9-6.8V32.9l2.9-6.8h28.7l2.9,6.8v66.5L478.7,106.2z M471.5,36.1h-14.3v60.1h14.3V36.1z"
		/>
	<path class="st0" d="M512.9,99.3l2.9,6.8H500l2.9-6.8V36.1h-6.7l-6.8,2.9V26.1h37.2V39l-6.9-2.9h-6.7V99.3z"/>
	<path class="st0" d="M534.2,106.2l2.9-6.8V32.9l-2.9-6.8h32.4V39l-6.8-2.9h-12.7v15h10.7l6.8-2.9V64l-6.8-2.9h-10.7v35h12.7
		l6.8-2.9l-2.9,12.9H534.2z"/>
	<path class="st0" d="M608.1,106.2h-28.7l-2.9-6.8V32.9l2.9-6.8h28.7l2.9,6.8v66.5L608.1,106.2z M600.9,36.1h-14.3v60.1h14.3V36.1z"
		/>
	<path class="st0" d="M643.2,61.1h-19.5l-2.9-6.8V32.9l2.9-6.8h26.7V39l-6.8-2.9h-12.7v15h19.5l2.9,6.8v41.4l-2.9,6.8h-26.7
		l-2.9-6.8V71.1h12.9l-2.9,6.8v18.2h12.3V61.1z"/>
</g>
<g>
	<path class="st1" d="M27.6,96.3l2.9,6.8H14.7l2.9-6.8V23.1h-6.7L4,25.9V13h37.2v12.9l-6.9-2.9h-6.7V96.3z"/>
	<path class="st1" d="M57,103.2H41.2l4.2-6.8l13-66.5L57,23.1h15.6l-1.4,6.8l13,66.5l4.2,6.8H72.7l1.5-6.8l-3.5-18.2H59l-3.5,18.2
		L57,103.2z M61,68.1h7.7l-3.9-19.6L61,68.1z"/>
	<path class="st1" d="M131.2,54.9v41.4l-2.9,6.8H93.9l2.9-6.8V29.9l-2.9-6.8h34.4l2.9,6.8v21.4l-2.9,1.9L131.2,54.9z M106.8,33.1v15
		h14.3v-15H106.8z M106.8,93.1h14.3v-35h-14.3V93.1z"/>
	<path class="st1" d="M151.8,29.9v63.3h12.7l6.8-2.9l-2.9,12.9h-29.5l2.9-6.8V29.9l-2.9-6.8h15.8L151.8,29.9z"/>
	<path class="st1" d="M191.4,103.2h-15.8l4.2-6.8l13-66.5l-1.4-6.8h15.6l-1.4,6.8l13,66.5l4.2,6.8h-15.8l1.5-6.8l-3.5-18.2h-11.7
		l-3.5,18.2L191.4,103.2z M195.4,68.1h7.7l-3.9-19.6L195.4,68.1z"/>
	<path class="st1" d="M250.7,58.1h-19.5l-2.9-6.8V29.9l2.9-6.8h26.7V36l-6.8-2.9h-12.7v15h19.5l2.9,6.8v41.4l-2.9,6.8h-26.7
		l-2.9-6.8V68.1h12.9l-2.9,6.8v18.2h12.3V58.1z"/>
	<path class="st1" d="M305.6,9.8v96.5l2.9,6.8h-15.8l2.9-6.8V9.8L292.7,3h15.8L305.6,9.8z"/>
	<path class="st1" d="M353.3,96.3l2.9,6.8h-15.8l2.9-6.8V19.9l-2.9-6.8h34.4l2.9,6.8v21.4l-2.9,6.8h-21.5V96.3z M353.3,23.1v15h14.3
		v-15H353.3z"/>
	<path class="st1" d="M398.3,29.9v66.5l2.9,6.8h-15.8l2.9-6.8V29.9l-2.9-6.8h15.8L398.3,29.9z"/>
	<path class="st1" d="M441.3,23.1V36l-6.8-2.9h-15.5v60.1h15.5l6.8-2.9l-2.9,12.9h-26.7l-2.9-6.8V29.9l2.9-6.8H441.3z"/>
	<path class="st1" d="M482.7,103.2h-28.7l-2.9-6.8V29.9l2.9-6.8h28.7l2.9,6.8v66.5L482.7,103.2z M475.5,33.1h-14.3v60.1h14.3V33.1z"
		/>
	<path class="st1" d="M516.9,96.3l2.9,6.8H504l2.9-6.8V33.1h-6.7l-6.8,2.9V23.1h37.2V36l-6.9-2.9h-6.7V96.3z"/>
	<path class="st1" d="M538.2,103.2l2.9-6.8V29.9l-2.9-6.8h32.4V36l-6.8-2.9h-12.7v15h10.7l6.8-2.9V61l-6.8-2.9h-10.7v35h12.7
		l6.8-2.9l-2.9,12.9H538.2z"/>
	<path class="st1" d="M612.1,103.2h-28.7l-2.9-6.8V29.9l2.9-6.8h28.7l2.9,6.8v66.5L612.1,103.2z M604.9,33.1h-14.3v60.1h14.3V33.1z"
		/>
	<path class="st1" d="M647.2,58.1h-19.5l-2.9-6.8V29.9l2.9-6.8h26.7V36l-6.8-2.9h-12.7v15h19.5l2.9,6.8v41.4l-2.9,6.8h-26.7
		l-2.9-6.8V68.1h12.9l-2.9,6.8v18.2h12.3V58.1z"/>
</g>
<g>
	<path class="st2" d="M30.6,93.3l2.9,6.8H17.7l2.9-6.8V20.1h-6.7L7,22.9V10h37.2v12.9l-6.9-2.9h-6.7V93.3z"/>
	<path class="st2" d="M60,100.2H44.2l4.2-6.8l13-66.5L60,20.1h15.6l-1.4,6.8l13,66.5l4.2,6.8H75.7l1.5-6.8l-3.5-18.2H62l-3.5,18.2
		L60,100.2z M64,65.1h7.7l-3.9-19.6L64,65.1z"/>
	<path class="st2" d="M134.2,51.9v41.4l-2.9,6.8H96.9l2.9-6.8V26.9l-2.9-6.8h34.4l2.9,6.8v21.4l-2.9,1.9L134.2,51.9z M109.8,30.1v15
		h14.3v-15H109.8z M109.8,90.1h14.3v-35h-14.3V90.1z"/>
	<path class="st2" d="M154.8,26.9v63.3h12.7l6.8-2.9l-2.9,12.9h-29.5l2.9-6.8V26.9l-2.9-6.8h15.8L154.8,26.9z"/>
	<path class="st2" d="M194.4,100.2h-15.8l4.2-6.8l13-66.5l-1.4-6.8h15.6l-1.4,6.8l13,66.5l4.2,6.8h-15.8l1.5-6.8l-3.5-18.2h-11.7
		l-3.5,18.2L194.4,100.2z M198.4,65.1h7.7l-3.9-19.6L198.4,65.1z"/>
	<path class="st2" d="M253.7,55.1h-19.5l-2.9-6.8V26.9l2.9-6.8h26.7V33l-6.8-2.9h-12.7v15h19.5l2.9,6.8v41.4l-2.9,6.8h-26.7
		l-2.9-6.8V65.1h12.9l-2.9,6.8v18.2h12.3V55.1z"/>
	<path class="st2" d="M308.6,6.8v96.5l2.9,6.8h-15.8l2.9-6.8V6.8L295.7,0h15.8L308.6,6.8z"/>
	<path class="st2" d="M356.3,93.3l2.9,6.8h-15.8l2.9-6.8V16.9l-2.9-6.8h34.4l2.9,6.8v21.4l-2.9,6.8h-21.5V93.3z M356.3,20.1v15h14.3
		v-15H356.3z"/>
	<path class="st2" d="M401.3,26.9v66.5l2.9,6.8h-15.8l2.9-6.8V26.9l-2.9-6.8h15.8L401.3,26.9z"/>
	<path class="st2" d="M444.3,20.1V33l-6.8-2.9h-15.5v60.1h15.5l6.8-2.9l-2.9,12.9h-26.7l-2.9-6.8V26.9l2.9-6.8H444.3z"/>
	<path class="st2" d="M485.7,100.2h-28.7l-2.9-6.8V26.9l2.9-6.8h28.7l2.9,6.8v66.5L485.7,100.2z M478.5,30.1h-14.3v60.1h14.3V30.1z"
		/>
	<path class="st2" d="M519.9,93.3l2.9,6.8H507l2.9-6.8V30.1h-6.7l-6.8,2.9V20.1h37.2V33l-6.9-2.9h-6.7V93.3z"/>
	<path class="st2" d="M541.2,100.2l2.9-6.8V26.9l-2.9-6.8h32.4V33l-6.8-2.9h-12.7v15h10.7l6.8-2.9V58l-6.8-2.9h-10.7v35h12.7
		l6.8-2.9l-2.9,12.9H541.2z"/>
	<path class="st2" d="M615.1,100.2h-28.7l-2.9-6.8V26.9l2.9-6.8h28.7l2.9,6.8v66.5L615.1,100.2z M607.9,30.1h-14.3v60.1h14.3V30.1z"
		/>
	<path class="st2" d="M650.2,55.1h-19.5l-2.9-6.8V26.9l2.9-6.8h26.7V33l-6.8-2.9h-12.7v15h19.5l2.9,6.8v41.4l-2.9,6.8h-26.7
		l-2.9-6.8V65.1h12.9l-2.9,6.8v18.2h12.3V55.1z"/>
</g>
</svg>
