<?xml version="1.0" encoding="utf-8"?>
<!-- Generator: Adobe Illustrator 19.1.0, SVG Export Plug-In . SVG Version: 6.00 Build 0)  -->
<svg version="1.1" id="Layer_1" xmlns="http://www.w3.org/2000/svg" xmlns:xlink="http://www.w3.org/1999/xlink" x="0px" y="0px"
	 viewBox="0 0 337.5 106.2" style="enable-background:new 0 0 337.5 106.2;" xml:space="preserve">
<style type="text/css">
	.st0{fill:#D66F87;}
	.st1{fill:#711B1D;}
	.st2{fill:#FFFFFF;}
	.st3{fill:#292660;}
	.st4{fill:#00ACEC;}
	.st5{fill:#71B452;}
	.st6{fill:#AA252A;}
	.st7{fill-rule:evenodd;clip-rule:evenodd;fill:#00ACEC;}
	.st8{fill:#38673D;}
	.st9{fill:#9EC54C;}
	.st10{fill-rule:evenodd;clip-rule:evenodd;fill:#6BB476;}
	.st11{fill-rule:evenodd;clip-rule:evenodd;fill:#D66F87;}
	.st12{fill:#D35A2F;}
	.st13{fill:#E8AE4A;}
	.st14{fill-rule:evenodd;clip-rule:evenodd;fill:#E8AE4A;}
	.st15{fill:#38271B;}
	.st16{fill:#B8986D;}
	.st17{fill-rule:evenodd;clip-rule:evenodd;fill:#B8986D;}
	.st18{fill:#E0922E;}
	.st19{fill:#F9F2B6;}
	.st20{fill-rule:evenodd;clip-rule:evenodd;fill:#F9F2B6;}
	.st21{fill:#32338E;}
	.st22{fill-rule:evenodd;clip-rule:evenodd;fill:#D694BC;}
	.st23{fill-rule:evenodd;clip-rule:evenodd;fill:#38673D;}
	.st24{fill:#5AA69C;}
	.st25{fill:#39665D;}
	.st26{fill-rule:evenodd;clip-rule:evenodd;fill:#39665D;}
	.st27{fill-rule:evenodd;clip-rule:evenodd;fill:#5AA69C;}
	.st28{fill:#6C1E52;}
	.st29{fill-rule:evenodd;clip-rule:evenodd;fill:#6C1E52;}
	.st30{fill:#D694BC;}
	.st31{fill-rule:evenodd;clip-rule:evenodd;fill:#9EC54C;}
	.st32{fill-rule:evenodd;clip-rule:evenodd;fill:#D35A2F;}
	.st33{fill-rule:evenodd;clip-rule:evenodd;fill:#38271B;}
	.st34{fill-rule:evenodd;clip-rule:evenodd;fill:#292660;}
	.st35{fill-rule:evenodd;clip-rule:evenodd;fill:#711B1D;}
	.st36{fill-rule:evenodd;clip-rule:evenodd;fill:#E0922E;}
	.st37{fill-rule:evenodd;clip-rule:evenodd;}
	.st38{fill-rule:evenodd;clip-rule:evenodd;fill:#FFFFFF;}
</style>
<g>
	<path class="st0" d="M23.6,89.3l2.9,6.8H10.7l2.9-6.8V16H6.8L0,18.9V6h37.2v12.9L30.3,16h-6.7V89.3z"/>
	<path class="st0" d="M53,96.1H37.2l4.2-6.8l13-66.5L53,16h15.6l-1.4,6.8l13,66.5l4.2,6.8H68.7l1.5-6.8l-3.5-18.2H55l-3.5,18.2
		L53,96.1z M57,61.1h7.7l-3.9-19.6L57,61.1z"/>
	<path class="st0" d="M89.9,89.3V22.9l2.9-6.8h28.7l2.9,6.8v66.5l-2.9,6.8H117l0.4,3.2l4,6.8h-15.8l1.8-6.8l-0.4-3.2H92.8L89.9,89.3
		z M114.3,26.1H100v60.1h14.3V26.1z"/>
	<path class="st0" d="M156.4,22.9l-2.9-6.8h15.8l-2.9,6.8v66.5l-2.9,6.8h-25.8l-2.9-6.8V22.9L132,16h15.8l-2.9,6.8v63.3h11.5V22.9z"
		/>
	<path class="st0" d="M177,96.1l2.9-6.8V22.9L177,16h32.4v12.9l-6.8-2.9h-12.7v15h10.7l6.8-2.9v15.8l-6.8-2.9h-10.7v35h12.7l6.8-2.9
		l-2.9,12.9H177z"/>
	<path class="st0" d="M250.4,89.3l4,6.8h-15.8l1.8-6.8l-6.1-38.2H230v38.2l2.9,6.8h-15.8l2.9-6.8V22.9l-2.9-6.8h34.4l2.9,6.8v21.4
		l-2.9,6.8h-7.2L250.4,89.3z M230,26.1v15h14.3v-15H230z"/>
	<path class="st0" d="M274.9,22.9v66.5l2.9,6.8h-15.8l2.9-6.8V22.9l-2.9-6.8h15.8L274.9,22.9z"/>
	<path class="st0" d="M299.1,96.1h-15.8l4.2-6.8l13-66.5l-1.4-6.8h15.6l-1.4,6.8l13,66.5l4.2,6.8h-15.8l1.5-6.8l-3.5-18.2h-11.7
		l-3.5,18.2L299.1,96.1z M303,61.1h7.7l-3.9-19.6L303,61.1z"/>
</g>
<g>
	<path class="st1" d="M27.6,86.3l2.9,6.8H14.7l2.9-6.8V13h-6.7L4,15.9V3h37.2v12.9L34.3,13h-6.7V86.3z"/>
	<path class="st1" d="M57,93.1H41.2l4.2-6.8l13-66.5L57,13h15.6l-1.4,6.8l13,66.5l4.2,6.8H72.7l1.5-6.8l-3.5-18.2H59l-3.5,18.2
		L57,93.1z M61,58.1h7.7l-3.9-19.6L61,58.1z"/>
	<path class="st1" d="M93.9,86.3V19.9l2.9-6.8h28.7l2.9,6.8v66.5l-2.9,6.8H121l0.4,3.2l4,6.8h-15.8l1.8-6.8l-0.4-3.2H96.8L93.9,86.3
		z M118.3,23.1H104v60.1h14.3V23.1z"/>
	<path class="st1" d="M160.4,19.9l-2.9-6.8h15.8l-2.9,6.8v66.5l-2.9,6.8h-25.8l-2.9-6.8V19.9L136,13h15.8l-2.9,6.8v63.3h11.5V19.9z"
		/>
	<path class="st1" d="M181,93.1l2.9-6.8V19.9L181,13h32.4v12.9l-6.8-2.9h-12.7v15h10.7l6.8-2.9v15.8l-6.8-2.9h-10.7v35h12.7l6.8-2.9
		l-2.9,12.9H181z"/>
	<path class="st1" d="M254.4,86.3l4,6.8h-15.8l1.8-6.8l-6.1-38.2H234v38.2l2.9,6.8h-15.8l2.9-6.8V19.9l-2.9-6.8h34.4l2.9,6.8v21.4
		l-2.9,6.8h-7.2L254.4,86.3z M234,23.1v15h14.3v-15H234z"/>
	<path class="st1" d="M278.9,19.9v66.5l2.9,6.8h-15.8l2.9-6.8V19.9l-2.9-6.8h15.8L278.9,19.9z"/>
	<path class="st1" d="M303.1,93.1h-15.8l4.2-6.8l13-66.5l-1.4-6.8h15.6l-1.4,6.8l13,66.5l4.2,6.8h-15.8l1.5-6.8l-3.5-18.2h-11.7
		l-3.5,18.2L303.1,93.1z M307,58.1h7.7l-3.9-19.6L307,58.1z"/>
</g>
<g>
	<path class="st2" d="M30.6,83.3l2.9,6.8H17.7l2.9-6.8V10h-6.7L7,12.9V0h37.2v12.9L37.3,10h-6.7V83.3z"/>
	<path class="st2" d="M60,90.1H44.2l4.2-6.8l13-66.5L60,10h15.6l-1.4,6.8l13,66.5l4.2,6.8H75.7l1.5-6.8l-3.5-18.2H62l-3.5,18.2
		L60,90.1z M64,55.1h7.7l-3.9-19.6L64,55.1z"/>
	<path class="st2" d="M96.9,83.3V16.9l2.9-6.8h28.7l2.9,6.8v66.5l-2.9,6.8H124l0.4,3.2l4,6.8h-15.8l1.8-6.8l-0.4-3.2H99.8L96.9,83.3
		z M121.3,20.1H107v60.1h14.3V20.1z"/>
	<path class="st2" d="M163.4,16.9l-2.9-6.8h15.8l-2.9,6.8v66.5l-2.9,6.8h-25.8l-2.9-6.8V16.9L139,10h15.8l-2.9,6.8v63.3h11.5V16.9z"
		/>
	<path class="st2" d="M184,90.1l2.9-6.8V16.9L184,10h32.4v12.9l-6.8-2.9h-12.7v15h10.7l6.8-2.9v15.8l-6.8-2.9h-10.7v35h12.7l6.8-2.9
		l-2.9,12.9H184z"/>
	<path class="st2" d="M257.4,83.3l4,6.8h-15.8l1.8-6.8l-6.1-38.2H237v38.2l2.9,6.8h-15.8l2.9-6.8V16.9l-2.9-6.8h34.4l2.9,6.8v21.4
		l-2.9,6.8h-7.2L257.4,83.3z M237,20.1v15h14.3v-15H237z"/>
	<path class="st2" d="M281.9,16.9v66.5l2.9,6.8h-15.8l2.9-6.8V16.9l-2.9-6.8h15.8L281.9,16.9z"/>
	<path class="st2" d="M306.1,90.1h-15.8l4.2-6.8l13-66.5l-1.4-6.8h15.6l-1.4,6.8l13,66.5l4.2,6.8h-15.8l1.5-6.8l-3.5-18.2h-11.7
		l-3.5,18.2L306.1,90.1z M310,55.1h7.7l-3.9-19.6L310,55.1z"/>
</g>
</svg>
