<?xml version="1.0" encoding="utf-8"?>
<!-- Generator: Adobe Illustrator 19.1.0, SVG Export Plug-In . SVG Version: 6.00 Build 0)  -->
<svg version="1.1" id="Layer_1" xmlns="http://www.w3.org/2000/svg" xmlns:xlink="http://www.w3.org/1999/xlink" x="0px" y="0px"
	 viewBox="692 334.5 631.7 160.1" style="enable-background:new 692 334.5 631.7 160.1;" xml:space="preserve">
<style type="text/css">
	.st0{fill:#6F1717;}
	.st1{fill:#D66F87;}
	.st2{fill:#711B1D;}
	.st3{fill:#FFFFFF;}
</style>
<g>
	<path class="st0" d="M1310.3,494.6h-605c-7.4,0-13.3-6.1-13.3-13.6V348.1c0-7.5,6-13.6,13.3-13.6h605c7.4,0,13.3,6.1,13.3,13.6V481
		C1323.6,488.5,1317.7,494.6,1310.3,494.6z"/>
	<g id="_x31_V7nqP.tif_4_">
		<g>
			<path class="st3" d="M725.5,344.5c94.7,0,469.4,0,564,0c0,5.5,0,11.1,0,16.6c2.2,0,3.9,0,6.1,0c0-2.7,0-5.3,0-7.8
				c3.7,0,7.1,0,10.6,0c0,3.4,0,6.7,0,10.3c-2.8,0-5.6,0-8.4,0c0,2.1,0,4,0,6.1c5.7,0,11.2,0,16.8,0c0,46.9,0,43.8,0,90.8
				c-5.5,0-11.1,0-16.6,0c0,2.1,0,3.9,0,6.1c2.7,0,5.2,0,7.8,0c0,3.8,0,7.2,0,10.7c-3.5,0-6.7,0-10.3,0c0-2.9,0-5.6,0-8.4
				c-2.1,0-4,0-6,0c0,5.7,0,11.2,0,16.7c-94.7,0-469.4,0-564,0c0-5.5,0-11,0-16.5c-2.1,0-3.9,0-6.1,0c0,2.7,0,5.3,0,7.8
				c-3.7,0-7.1,0-10.6,0c0-3.5,0-6.7,0-10.3c2.9,0,5.6,0,8.4,0c0-2.2,0-4,0-6.2c-5.7,0-11.1,0-16.5,0c0-46.9,0-43.5,0-90.5
				c5.5,0,10.9,0,16.2,0c0-2.2,0-4,0-6.2c-2.8,0-5.3,0-7.8,0c0-3.7,0-7.1,0-10.6c3.4,0,6.7,0,10.3,0c0,2.8,0,5.6,0,8.4
				c2.2,0,4,0,6.1,0C725.5,355.4,725.5,350,725.5,344.5z M727.9,482.8c93.3,0,466.3,0,559.5,0c0-5.5,0-10.8,0-16.4
				c2.9,0,5.5,0,8.4,0c0-2.9,0-5.5,0-8.5c5.6,0,11,0,16.3,0c0-45.5,0-40.6,0-86c-5.5,0-10.9,0-16.5,0c0-3,0-5.6,0-8.5
				c-2.9,0-5.5,0-8.3,0c0-5.6,0-10.9,0-16.3c-93.3,0-466.3,0-559.5,0c0,5.5,0,10.8,0,16.4c-2.9,0-5.5,0-8.4,0c0,2.9,0,5.5,0,8.5
				c-5.6,0-11,0-16.3,0c0,45.5,0,40.6,0,86c5.5,0,10.9,0,16.5,0c0,3,0,5.6,0,8.5c2.9,0,5.5,0,8.3,0
				C727.9,472.1,727.9,477.4,727.9,482.8z M711.2,361.1c2.1,0,3.9,0,5.8,0c0-2.2,0-4.1,0-6.1c-2,0-3.8,0-5.8,0
				C711.2,357.1,711.2,359,711.2,361.1z M1298,474.8c2.1,0,3.9,0,5.8,0c0-2.1,0-4,0-6.1c-2,0-3.9,0-5.8,0
				C1298,470.8,1298,472.7,1298,474.8z M717.3,474.4c0-2,0-3.8,0-5.6c-2.2,0-4.2,0-6.3,0c0,2,0,3.7,0,5.6
				C713.1,474.4,715,474.4,717.3,474.4z M1304,355.4c-2.1,0-4.2,0-6.2,0c0,2,0,3.8,0,5.7c2.2,0,4.1,0,6.2,0
				C1304,359.1,1304,357.3,1304,355.4z"/>
		</g>
	</g>
</g>
<g>
	<g>
		<path class="st1" d="M742.4,372.4h34.4l2.9,6.8v76.5l-2.9,6.8h-34.4l2.9-6.8v-76.5L742.4,372.4z M755.3,382.4v70.1h14.3v-70.1
			H755.3z"/>
		<path class="st1" d="M787.4,462.5l2.9-6.8v-66.4l-2.9-6.9h32.4v12.9l-6.8-2.9h-12.7v15H811l6.8-2.9v15.8l-6.8-2.9h-10.7v35H813
			l6.8-2.9l-2.9,12.9h-29.5V462.5z"/>
		<path class="st1" d="M864.6,389.3v63.3h12.7l6.8-2.9l-2.9,12.9h-29.5l2.9-6.8v-66.5l-2.9-6.8h15.8L864.6,389.3z"/>
		<path class="st1" d="M904.3,462.5h-15.8l4.2-6.8l13-66.5l-1.4-6.8h15.6l-1.4,6.8l13,66.5l4.2,6.8h-15.8l1.5-6.8l-3.5-18.2h-11.7
			l-3.5,18.2L904.3,462.5z M908.2,427.5h7.7l-3.9-19.6L908.2,427.5z"/>
		<path class="st1" d="M1000,372.4v12.9l-6.8-2.9h-15.5v70.1h15.5l6.8-2.9l-2.9,12.9h-26.7l-2.9-6.8v-76.5l2.9-6.8H1000z"/>
		<path class="st1" d="M1020.2,462.5h-15.8l4.2-6.8l13-66.5l-1.4-6.8h15.6l-1.4,6.8l13,66.5l4.2,6.8h-15.8l1.5-6.8l-3.5-18.2h-11.7
			l-3.5,18.2L1020.2,462.5z M1024.2,427.5h7.7l-3.9-19.6L1024.2,427.5z"/>
		<path class="st1" d="M1094.4,389.3v66.5l2.9,6.8h-15.8l1.7-4l-13.2-43.2v40.3l2.9,6.8h-15.8l2.9-6.8v-66.4l-2.9-6.8h12.9
			l14.3,47.2v-40.4l-2.9-6.8h15.8L1094.4,389.3z"/>
		<path class="st1" d="M1128.5,455.7l2.9,6.8h-15.8l2.9-6.8v-63.2h-6.7l-6.8,2.9v-13h37.2v12.9l-6.9-2.9h-6.7L1128.5,455.7
			L1128.5,455.7z"/>
		<path class="st1" d="M1162.8,389.3v66.5l2.9,6.8h-15.8l2.9-6.8v-66.5l-2.9-6.8h15.8L1162.8,389.3z"/>
		<path class="st1" d="M1210.6,389.3v66.5l2.9,6.8h-15.8l1.7-4l-13.1-43.2v40.3l2.9,6.8h-15.8l2.9-6.8v-66.4l-2.9-6.9h12.9
			l14.3,47.2v-40.3l-2.9-6.8h15.8L1210.6,389.3z"/>
		<path class="st1" d="M1234.8,462.5H1219l4.2-6.8l13-66.5l-1.4-6.8h15.6l-1.4,6.8l13,66.5l4.2,6.8h-15.8l1.5-6.8l-3.5-18.2h-11.7
			l-3.5,18.2L1234.8,462.5z M1238.7,427.5h7.7l-3.9-19.6L1238.7,427.5z"/>
	</g>
	<g>
		<path class="st2" d="M746.4,369.4h34.4l2.9,6.8v76.5l-2.9,6.8h-34.4l2.9-6.8v-76.5L746.4,369.4z M759.3,379.4v70.1h14.3v-70.1
			H759.3z"/>
		<path class="st2" d="M791.4,459.5l2.9-6.8v-66.4l-2.9-6.9h32.4v12.9l-6.8-2.9h-12.7v15H815l6.8-2.9v15.8l-6.8-2.9h-10.7v35H817
			l6.8-2.9l-2.9,12.9h-29.5V459.5z"/>
		<path class="st2" d="M868.6,386.3v63.3h12.7l6.8-2.9l-2.9,12.9h-29.5l2.9-6.8v-66.5l-2.9-6.8h15.8L868.6,386.3z"/>
		<path class="st2" d="M908.3,459.5h-15.8l4.2-6.8l13-66.5l-1.4-6.8h15.6l-1.4,6.8l13,66.5l4.2,6.8h-15.8l1.5-6.8l-3.5-18.2h-11.7
			l-3.5,18.2L908.3,459.5z M912.2,424.5h7.7l-3.9-19.6L912.2,424.5z"/>
		<path class="st2" d="M1004,369.4v12.9l-6.8-2.9h-15.5v70.1h15.5l6.8-2.9l-2.9,12.9h-26.7l-2.9-6.8v-76.5l2.9-6.8H1004z"/>
		<path class="st2" d="M1024.2,459.5h-15.8l4.2-6.8l13-66.5l-1.4-6.8h15.6l-1.4,6.8l13,66.5l4.2,6.8h-15.8l1.5-6.8l-3.5-18.2h-11.7
			l-3.5,18.2L1024.2,459.5z M1028.2,424.5h7.7l-3.9-19.6L1028.2,424.5z"/>
		<path class="st2" d="M1098.4,386.3v66.5l2.9,6.8h-15.8l1.7-4l-13.2-43.2v40.3l2.9,6.8h-15.8l2.9-6.8v-66.4l-2.9-6.8h12.9
			l14.3,47.2v-40.4l-2.9-6.8h15.8L1098.4,386.3z"/>
		<path class="st2" d="M1132.5,452.7l2.9,6.8h-15.8l2.9-6.8v-63.2h-6.7l-6.8,2.9v-13h37.2v12.9l-6.9-2.9h-6.7L1132.5,452.7
			L1132.5,452.7z"/>
		<path class="st2" d="M1166.8,386.3v66.5l2.9,6.8h-15.8l2.9-6.8v-66.5l-2.9-6.8h15.8L1166.8,386.3z"/>
		<path class="st2" d="M1214.6,386.3v66.5l2.9,6.8h-15.8l1.7-4l-13.1-43.2v40.3l2.9,6.8h-15.8l2.9-6.8v-66.4l-2.9-6.9h12.9
			l14.3,47.2v-40.3l-2.9-6.8h15.8L1214.6,386.3z"/>
		<path class="st2" d="M1238.8,459.5H1223l4.2-6.8l13-66.5l-1.4-6.8h15.6l-1.4,6.8l13,66.5l4.2,6.8h-15.8l1.5-6.8l-3.5-18.2h-11.7
			l-3.5,18.2L1238.8,459.5z M1242.7,424.5h7.7l-3.9-19.6L1242.7,424.5z"/>
	</g>
	<g>
		<path class="st3" d="M749.4,366.4h34.4l2.9,6.8v76.5l-2.9,6.8h-34.4l2.9-6.8v-76.5L749.4,366.4z M762.3,376.4v70.1h14.3v-70.1
			H762.3z"/>
		<path class="st3" d="M794.4,456.5l2.9-6.8v-66.4l-2.9-6.9h32.4v12.9l-6.8-2.9h-12.7v15H818l6.8-2.9v15.8l-6.8-2.9h-10.7v35H820
			l6.8-2.9l-2.9,12.9h-29.5V456.5z"/>
		<path class="st3" d="M871.6,383.3v63.3h12.7l6.8-2.9l-2.9,12.9h-29.5l2.9-6.8v-66.5l-2.9-6.8h15.8L871.6,383.3z"/>
		<path class="st3" d="M911.3,456.5h-15.8l4.2-6.8l13-66.5l-1.4-6.8h15.6l-1.4,6.8l13,66.5l4.2,6.8h-15.8l1.5-6.8l-3.5-18.2h-11.7
			l-3.5,18.2L911.3,456.5z M915.2,421.5h7.7l-3.9-19.6L915.2,421.5z"/>
		<path class="st3" d="M1007,366.4v12.9l-6.8-2.9h-15.5v70.1h15.5l6.8-2.9l-2.9,12.9h-26.7l-2.9-6.8v-76.5l2.9-6.8H1007z"/>
		<path class="st3" d="M1027.2,456.5h-15.8l4.2-6.8l13-66.5l-1.4-6.8h15.6l-1.4,6.8l13,66.5l4.2,6.8h-15.8l1.5-6.8l-3.5-18.2h-11.7
			l-3.5,18.2L1027.2,456.5z M1031.2,421.5h7.7l-3.9-19.6L1031.2,421.5z"/>
		<path class="st3" d="M1101.4,383.3v66.5l2.9,6.8h-15.8l1.7-4l-13.2-43.2v40.3l2.9,6.8h-15.8l2.9-6.8v-66.4l-2.9-6.8h12.9
			l14.3,47.2v-40.4l-2.9-6.8h15.8L1101.4,383.3z"/>
		<path class="st3" d="M1135.5,449.7l2.9,6.8h-15.8l2.9-6.8v-63.2h-6.7l-6.8,2.9v-13h37.2v12.9l-6.9-2.9h-6.7L1135.5,449.7
			L1135.5,449.7z"/>
		<path class="st3" d="M1169.8,383.3v66.5l2.9,6.8h-15.8l2.9-6.8v-66.5l-2.9-6.8h15.8L1169.8,383.3z"/>
		<path class="st3" d="M1217.6,383.3v66.5l2.9,6.8h-15.8l1.7-4l-13.1-43.2v40.3l2.9,6.8h-15.8l2.9-6.8v-66.4l-2.9-6.9h12.9
			l14.3,47.2v-40.3l-2.9-6.8h15.8L1217.6,383.3z"/>
		<path class="st3" d="M1241.8,456.5H1226l4.2-6.8l13-66.5l-1.4-6.8h15.6l-1.4,6.8l13,66.5l4.2,6.8h-15.8l1.5-6.8l-3.5-18.2h-11.7
			l-3.5,18.2L1241.8,456.5z M1245.7,421.5h7.7l-3.9-19.6L1245.7,421.5z"/>
	</g>
</g>
</svg>
