<?xml version="1.0" encoding="utf-8"?>
<!-- Generator: Adobe Illustrator 19.1.0, SVG Export Plug-In . SVG Version: 6.00 Build 0)  -->
<svg version="1.1" id="Layer_1" xmlns="http://www.w3.org/2000/svg" xmlns:xlink="http://www.w3.org/1999/xlink" x="0px" y="0px"
	 viewBox="1977.7 349.5 681.7 160.1" style="enable-background:new 1977.7 349.5 681.7 160.1;" xml:space="preserve">
<style type="text/css">
	.st0{fill:#6F1717;}
	.st1{fill:#FFFFFF;}
	.st2{fill:#CE7689;}
	.st3{fill:#D66F87;}
	.st4{fill:#711B1D;}
</style>
<g>
	<path class="st0" d="M2646.1,509.7h-655c-7.4,0-13.3-6.1-13.3-13.6V363.2c0-7.5,6-13.6,13.3-13.6h655c7.4,0,13.3,6.1,13.3,13.6
		v132.9C2659.4,503.6,2653.4,509.7,2646.1,509.7z"/>
	<g id="_x31_V7nqP.tif_17_">
		<g>
			<path class="st1" d="M2011.3,359.5c94.7,0,519.4,0,614,0c0,5.5,0,11.1,0,16.6c2.2,0,3.9,0,6.1,0c0-2.7,0-5.3,0-7.8
				c3.7,0,7.1,0,10.6,0c0,3.4,0,6.7,0,10.3c-2.8,0-5.6,0-8.4,0c0,2.1,0,4,0,6.1c5.7,0,11.2,0,16.8,0c0,46.9,0,43.8,0,90.8
				c-5.5,0-11.1,0-16.6,0c0,2.1,0,3.9,0,6.1c2.7,0,5.2,0,7.8,0c0,3.8,0,7.2,0,10.7c-3.5,0-6.7,0-10.3,0c0-2.9,0-5.6,0-8.4
				c-2.1,0-4,0-6,0c0,5.7,0,11.2,0,16.7c-94.7,0-519.4,0-614,0c0-5.5,0-11,0-16.5c-2.1,0-3.9,0-6.1,0c0,2.7,0,5.3,0,7.8
				c-3.7,0-7.1,0-10.6,0c0-3.5,0-6.7,0-10.3c2.9,0,5.6,0,8.4,0c0-2.2,0-4,0-6.2c-5.7,0-11.1,0-16.5,0c0-46.9,0-43.5,0-90.5
				c5.5,0,10.9,0,16.2,0c0-2.2,0-4,0-6.2c-2.8,0-5.3,0-7.8,0c0-3.7,0-7.1,0-10.6c3.4,0,6.7,0,10.3,0c0,2.8,0,5.6,0,8.4
				c2.2,0,4,0,6.1,0C2011.3,370.5,2011.3,365,2011.3,359.5z M2013.6,497.8c93.3,0,516.3,0,609.5,0c0-5.5,0-10.8,0-16.4
				c2.9,0,5.5,0,8.4,0c0-2.9,0-5.5,0-8.5c5.6,0,11,0,16.3,0c0-45.5,0-40.6,0-86c-5.5,0-10.9,0-16.5,0c0-3,0-5.6,0-8.5
				c-2.9,0-5.5,0-8.3,0c0-5.6,0-10.9,0-16.3c-93.3,0-516.3,0-609.5,0c0,5.5,0,10.8,0,16.4c-2.9,0-5.5,0-8.4,0c0,2.9,0,5.5,0,8.5
				c-5.6,0-11,0-16.3,0c0,45.5,0,40.6,0,86c5.5,0,10.9,0,16.5,0c0,3,0,5.6,0,8.5c2.9,0,5.5,0,8.3,0
				C2013.6,487.1,2013.6,492.5,2013.6,497.8z M1997,376.1c2.1,0,3.9,0,5.8,0c0-2.2,0-4.1,0-6.1c-2,0-3.8,0-5.8,0
				C1997,372.1,1997,374,1997,376.1z M2633.7,489.9c2.1,0,3.9,0,5.8,0c0-2.1,0-4,0-6.1c-2,0-3.9,0-5.8,0
				C2633.7,485.9,2633.7,487.8,2633.7,489.9z M2003,489.5c0-2,0-3.8,0-5.6c-2.2,0-4.2,0-6.3,0c0,2,0,3.7,0,5.6
				C1998.8,489.5,2000.8,489.5,2003,489.5z M2639.8,370.4c-2.1,0-4.2,0-6.2,0c0,2,0,3.8,0,5.7c2.2,0,4.1,0,6.2,0
				C2639.8,374.2,2639.8,372.4,2639.8,370.4z"/>
		</g>
	</g>
</g>
<g>
	<g>
		<path class="st2" d="M2056.7,477.7H2041l4.1-6.8l13.9-79.6l-2.2-3.7h15.6l-2.2,3.7l13.9,79.6l4.1,6.8h-15.8l1.8-6.8l-5-28.2h-9.3
			l-4.8,28.2L2056.7,477.7z M2061.7,432.6h5.7l-2.9-16.4L2061.7,432.6z"/>
		<path class="st2" d="M2126.9,470.9l4,6.8h-15.8l1.8-6.8l-6.1-38.2h-4.3v38.2l2.9,6.8h-15.8l2.9-6.8v-66.5l-2.9-6.8h34.4l2.9,6.8
			v21.4l-2.9,6.8h-7.2L2126.9,470.9z M2106.5,407.6v15h14.3v-15H2106.5z"/>
		<path class="st2" d="M2161.6,424.1l7.3-26.6h15.8l-2.9,6.8v66.5l2.9,6.8h-15.8l2.9-6.8v-47.3l-10.1,37.6l-10.1-37.6v47.3l2.9,6.8
			h-15.8l2.9-6.8v-66.5l-2.9-6.8h15.8L2161.6,424.1z"/>
		<path class="st2" d="M2205.9,477.7h-15.8l4.2-6.8l13-66.5l-1.4-6.8h15.6l-1.4,6.8l13,66.5l4.2,6.8h-15.8l1.5-6.8l-3.5-18.2h-11.7
			l-3.5,18.2L2205.9,477.7z M2209.9,442.6h7.7l-3.9-19.6L2209.9,442.6z"/>
		<path class="st2" d="M2292.9,470.9l2.9,6.8H2280l2.9-6.8v-63.3h-6.7l-6.8,2.9v-12.9h37.2v12.9l-6.9-2.9h-6.7V470.9z"/>
		<path class="st2" d="M2338.6,404.4l-2.9-6.8h15.8l-2.9,6.8v66.5l-2.9,6.8H2320l-2.9-6.8v-66.5l-2.9-6.8h15.8l-2.9,6.8v63.3h11.5
			V404.4z"/>
		<path class="st2" d="M2396.4,470.9l2.9,6.8h-15.8l2.9-6.8v-76.5l-2.9-6.8h34.4l2.9,6.8v21.4l-2.9,6.8h-21.5V470.9z M2396.4,397.6
			v15h14.3v-15H2396.4z"/>
		<path class="st2" d="M2441.3,404.4v63.3h12.7l6.8-2.9l-2.9,12.9h-29.5l2.9-6.8v-66.5l-2.9-6.8h15.8L2441.3,404.4z"/>
		<path class="st2" d="M2481,477.7h-15.8l4.2-6.8l13-66.5l-1.4-6.8h15.6l-1.4,6.8l13,66.5l4.2,6.8h-15.8l1.5-6.8l-3.5-18.2H2483
			l-3.5,18.2L2481,477.7z M2485,442.6h7.7l-3.9-19.6L2485,442.6z"/>
		<path class="st2" d="M2536,470.9l2.9,6.8h-15.8l2.9-6.8v-63.3h-6.7l-6.8,2.9v-12.9h37.2v12.9l-6.9-2.9h-6.7V470.9z"/>
		<path class="st2" d="M2588.9,477.7h-28.7l-2.9-6.8v-66.5l2.9-6.8h28.7l2.9,6.8v66.5L2588.9,477.7z M2581.7,407.6h-14.3v60.1h14.3
			V407.6z"/>
	</g>
	<g>
		<path class="st0" d="M2060.7,474.7H2045l4.1-6.8l13.9-79.6l-2.2-3.7h15.6l-2.2,3.7l13.9,79.6l4.1,6.8h-15.8l1.8-6.8l-5-28.2h-9.3
			l-4.8,28.2L2060.7,474.7z M2065.7,429.6h5.7l-2.9-16.4L2065.7,429.6z"/>
		<path class="st0" d="M2130.9,467.9l4,6.8h-15.8l1.8-6.8l-6.1-38.2h-4.3v38.2l2.9,6.8h-15.8l2.9-6.8v-66.5l-2.9-6.8h34.4l2.9,6.8
			v21.4l-2.9,6.8h-7.2L2130.9,467.9z M2110.5,404.6v15h14.3v-15H2110.5z"/>
		<path class="st0" d="M2165.6,421.1l7.3-26.6h15.8l-2.9,6.8v66.5l2.9,6.8h-15.8l2.9-6.8v-47.3l-10.1,37.6l-10.1-37.6v47.3l2.9,6.8
			h-15.8l2.9-6.8v-66.5l-2.9-6.8h15.8L2165.6,421.1z"/>
		<path class="st0" d="M2209.9,474.7h-15.8l4.2-6.8l13-66.5l-1.4-6.8h15.6l-1.4,6.8l13,66.5l4.2,6.8h-15.8l1.5-6.8l-3.5-18.2h-11.7
			l-3.5,18.2L2209.9,474.7z M2213.9,439.6h7.7l-3.9-19.6L2213.9,439.6z"/>
		<path class="st0" d="M2296.9,467.9l2.9,6.8H2284l2.9-6.8v-63.3h-6.7l-6.8,2.9v-12.9h37.2v12.9l-6.9-2.9h-6.7V467.9z"/>
		<path class="st0" d="M2342.6,401.4l-2.9-6.8h15.8l-2.9,6.8v66.5l-2.9,6.8H2324l-2.9-6.8v-66.5l-2.9-6.8h15.8l-2.9,6.8v63.3h11.5
			V401.4z"/>
		<path class="st0" d="M2400.4,467.9l2.9,6.8h-15.8l2.9-6.8v-76.5l-2.9-6.8h34.4l2.9,6.8v21.4l-2.9,6.8h-21.5V467.9z M2400.4,394.6
			v15h14.3v-15H2400.4z"/>
		<path class="st0" d="M2445.3,401.4v63.3h12.7l6.8-2.9l-2.9,12.9h-29.5l2.9-6.8v-66.5l-2.9-6.8h15.8L2445.3,401.4z"/>
		<path class="st0" d="M2485,474.7h-15.8l4.2-6.8l13-66.5l-1.4-6.8h15.6l-1.4,6.8l13,66.5l4.2,6.8h-15.8l1.5-6.8l-3.5-18.2H2487
			l-3.5,18.2L2485,474.7z M2489,439.6h7.7l-3.9-19.6L2489,439.6z"/>
		<path class="st0" d="M2540,467.9l2.9,6.8h-15.8l2.9-6.8v-63.3h-6.7l-6.8,2.9v-12.9h37.2v12.9l-6.9-2.9h-6.7V467.9z"/>
		<path class="st0" d="M2592.9,474.7h-28.7l-2.9-6.8v-66.5l2.9-6.8h28.7l2.9,6.8v66.5L2592.9,474.7z M2585.7,404.6h-14.3v60.1h14.3
			V404.6z"/>
	</g>
	<g>
		<path class="st1" d="M2063.7,471.7H2048l4.1-6.8l13.9-79.6l-2.2-3.7h15.6l-2.2,3.7l13.9,79.6l4.1,6.8h-15.8l1.8-6.8l-5-28.2h-9.3
			l-4.8,28.2L2063.7,471.7z M2068.7,426.6h5.7l-2.9-16.4L2068.7,426.6z"/>
		<path class="st1" d="M2133.9,464.9l4,6.8h-15.8l1.8-6.8l-6.1-38.2h-4.3v38.2l2.9,6.8h-15.8l2.9-6.8v-66.5l-2.9-6.8h34.4l2.9,6.8
			v21.4l-2.9,6.8h-7.2L2133.9,464.9z M2113.5,401.6v15h14.3v-15H2113.5z"/>
		<path class="st1" d="M2168.6,418.1l7.3-26.6h15.8l-2.9,6.8v66.5l2.9,6.8h-15.8l2.9-6.8v-47.3l-10.1,37.6l-10.1-37.6v47.3l2.9,6.8
			h-15.8l2.9-6.8v-66.5l-2.9-6.8h15.8L2168.6,418.1z"/>
		<path class="st1" d="M2212.9,471.7h-15.8l4.2-6.8l13-66.5l-1.4-6.8h15.6l-1.4,6.8l13,66.5l4.2,6.8h-15.8l1.5-6.8l-3.5-18.2h-11.7
			l-3.5,18.2L2212.9,471.7z M2216.9,436.6h7.7l-3.9-19.6L2216.9,436.6z"/>
		<path class="st1" d="M2299.9,464.9l2.9,6.8H2287l2.9-6.8v-63.3h-6.7l-6.8,2.9v-12.9h37.2v12.9l-6.9-2.9h-6.7V464.9z"/>
		<path class="st1" d="M2345.6,398.4l-2.9-6.8h15.8l-2.9,6.8v66.5l-2.9,6.8H2327l-2.9-6.8v-66.5l-2.9-6.8h15.8l-2.9,6.8v63.3h11.5
			V398.4z"/>
		<path class="st1" d="M2403.4,464.9l2.9,6.8h-15.8l2.9-6.8v-76.5l-2.9-6.8h34.4l2.9,6.8v21.4l-2.9,6.8h-21.5V464.9z M2403.4,391.6
			v15h14.3v-15H2403.4z"/>
		<path class="st1" d="M2448.3,398.4v63.3h12.7l6.8-2.9l-2.9,12.9h-29.5l2.9-6.8v-66.5l-2.9-6.8h15.8L2448.3,398.4z"/>
		<path class="st1" d="M2488,471.7h-15.8l4.2-6.8l13-66.5l-1.4-6.8h15.6l-1.4,6.8l13,66.5l4.2,6.8h-15.8l1.5-6.8l-3.5-18.2H2490
			l-3.5,18.2L2488,471.7z M2492,436.6h7.7l-3.9-19.6L2492,436.6z"/>
		<path class="st1" d="M2543,464.9l2.9,6.8h-15.8l2.9-6.8v-63.3h-6.7l-6.8,2.9v-12.9h37.2v12.9l-6.9-2.9h-6.7V464.9z"/>
		<path class="st1" d="M2595.9,471.7h-28.7l-2.9-6.8v-66.5l2.9-6.8h28.7l2.9,6.8v66.5L2595.9,471.7z M2588.7,401.6h-14.3v60.1h14.3
			V401.6z"/>
	</g>
</g>
</svg>
