<?xml version="1.0" encoding="utf-8"?>
<!-- Generator: Adobe Illustrator 19.1.0, SVG Export Plug-In . SVG Version: 6.00 Build 0)  -->
<svg version="1.1" id="Layer_1" xmlns="http://www.w3.org/2000/svg" xmlns:xlink="http://www.w3.org/1999/xlink" x="0px" y="0px"
	 viewBox="1998 614.4 652.4 160.1" style="enable-background:new 1998 614.4 652.4 160.1;" xml:space="preserve">
<style type="text/css">
	.st0{fill:#6F1717;}
	.st1{fill:#FFFFFF;}
	.st2{fill:#CE7689;}
	.st3{fill:#D66F87;}
	.st4{fill:#711B1D;}
</style>
<g>
	<path class="st0" d="M2636.4,774.5h-625c-7.4,0-13.3-6.1-13.3-13.6V628c0-7.5,6-13.6,13.3-13.6h625c7.4,0,13.3,6.1,13.3,13.6v132.9
		C2649.7,768.4,2643.7,774.5,2636.4,774.5z"/>
	<g id="_x31_V7nqP.tif_15_">
		<g>
			<path class="st1" d="M2031.6,624.4c94.7,0,489.4,0,584,0c0,5.5,0,11.1,0,16.6c2.2,0,3.9,0,6.1,0c0-2.7,0-5.3,0-7.8
				c3.7,0,7.1,0,10.6,0c0,3.4,0,6.7,0,10.3c-2.8,0-5.6,0-8.4,0c0,2.1,0,4,0,6.1c5.7,0,11.2,0,16.8,0c0,46.9,0,43.8,0,90.8
				c-5.5,0-11.1,0-16.6,0c0,2.1,0,3.9,0,6.1c2.7,0,5.2,0,7.8,0c0,3.8,0,7.2,0,10.7c-3.5,0-6.7,0-10.3,0c0-2.9,0-5.6,0-8.4
				c-2.1,0-4,0-6,0c0,5.7,0,11.2,0,16.7c-94.7,0-489.4,0-584,0c0-5.5,0-11,0-16.5c-2.1,0-3.9,0-6.1,0c0,2.7,0,5.3,0,7.8
				c-3.7,0-7.1,0-10.6,0c0-3.5,0-6.7,0-10.3c2.9,0,5.6,0,8.4,0c0-2.2,0-4,0-6.2c-5.7,0-11.1,0-16.5,0c0-46.9,0-43.5,0-90.5
				c5.5,0,10.9,0,16.2,0c0-2.2,0-4,0-6.2c-2.8,0-5.3,0-7.8,0c0-3.7,0-7.1,0-10.6c3.4,0,6.7,0,10.3,0c0,2.8,0,5.6,0,8.4
				c2.2,0,4,0,6.1,0C2031.6,635.4,2031.6,629.9,2031.6,624.4z M2033.9,762.7c93.3,0,486.3,0,579.5,0c0-5.5,0-10.8,0-16.4
				c2.9,0,5.5,0,8.4,0c0-2.9,0-5.5,0-8.5c5.6,0,11,0,16.3,0c0-45.5,0-40.6,0-86c-5.5,0-10.9,0-16.5,0c0-3,0-5.6,0-8.5
				c-2.9,0-5.5,0-8.3,0c0-5.6,0-10.9,0-16.3c-93.3,0-486.3,0-579.5,0c0,5.5,0,10.8,0,16.4c-2.9,0-5.5,0-8.4,0c0,2.9,0,5.5,0,8.5
				c-5.6,0-11,0-16.3,0c0,45.5,0,40.6,0,86c5.5,0,10.9,0,16.5,0c0,3,0,5.6,0,8.5c2.9,0,5.5,0,8.3,0
				C2033.9,752,2033.9,757.3,2033.9,762.7z M2017.3,641c2.1,0,3.9,0,5.8,0c0-2.2,0-4.1,0-6.1c-2,0-3.8,0-5.8,0
				C2017.3,637,2017.3,638.9,2017.3,641z M2624,754.7c2.1,0,3.9,0,5.8,0c0-2.1,0-4,0-6.1c-2,0-3.9,0-5.8,0
				C2624,750.7,2624,752.6,2624,754.7z M2023.3,754.3c0-2,0-3.8,0-5.6c-2.2,0-4.2,0-6.3,0c0,2,0,3.7,0,5.6
				C2019.1,754.3,2021.1,754.3,2023.3,754.3z M2630.1,635.3c-2.1,0-4.2,0-6.2,0c0,2,0,3.8,0,5.7c2.2,0,4.1,0,6.2,0
				C2630.1,639,2630.1,637.2,2630.1,635.3z"/>
		</g>
	</g>
</g>
<g>
	<g>
		<path class="st2" d="M2080.2,742.9h-15.8l4.1-6.8l13.9-79.6l-2.2-3.7h15.6l-2.2,3.7l13.9,79.6l4.1,6.8h-15.8l1.8-6.8l-5-28.2h-9.3
			l-4.8,28.2L2080.2,742.9z M2085.2,697.8h5.7l-2.9-16.4L2085.2,697.8z"/>
		<path class="st2" d="M2150.4,736l4,6.8h-15.8l1.8-6.8l-6.1-38.2h-4.3V736l2.9,6.8h-15.8l2.9-6.8v-66.5l-2.9-6.8h34.4l2.9,6.8V691
			l-2.9,6.8h-7.2L2150.4,736z M2130,672.8v15h14.3v-15H2130z"/>
		<path class="st2" d="M2185.1,689.3l7.3-26.6h15.8l-2.9,6.8V736l2.9,6.8h-15.8l2.9-6.8v-47.3l-10.1,37.6l-10.1-37.6V736l2.9,6.8
			h-15.8l2.9-6.8v-66.5l-2.9-6.8h15.8L2185.1,689.3z"/>
		<path class="st2" d="M2229.4,742.9h-15.8l4.2-6.8l13-66.5l-1.4-6.8h15.6l-1.4,6.8l13,66.5l4.2,6.8h-15.8l1.5-6.8l-3.5-18.2h-11.7
			l-3.5,18.2L2229.4,742.9z M2233.4,707.8h7.7l-3.9-19.6L2233.4,707.8z"/>
		<path class="st2" d="M2316.4,736l2.9,6.8h-15.8l2.9-6.8v-63.3h-6.7l-6.8,2.9v-12.9h37.2v12.9l-6.9-2.9h-6.7V736z"/>
		<path class="st2" d="M2362.1,669.6l-2.9-6.8h15.8l-2.9,6.8V736l-2.9,6.8h-25.8l-2.9-6.8v-66.5l-2.9-6.8h15.8l-2.9,6.8v63.3h11.5
			V669.6z"/>
		<path class="st2" d="M2430.5,736l2.9,6.8h-15.8l2.9-6.8v-73.3h-6.7l-6.8,2.9v-12.9h37.2v12.9l-6.9-2.9h-6.7V736z"/>
		<path class="st2" d="M2460,742.9h-15.8l4.2-6.8l13-66.5l-1.4-6.8h15.6l-1.4,6.8l13,66.5l4.2,6.8h-15.8l1.5-6.8l-3.5-18.2h-11.7
			l-3.5,18.2L2460,742.9z M2463.9,707.8h7.7l-3.9-19.6L2463.9,707.8z"/>
		<path class="st2" d="M2529.3,662.8v12.9l-6.8-2.9h-15.5v60.1h15.5l6.8-2.9l-2.9,12.9h-26.7l-2.9-6.8v-66.5l2.9-6.8H2529.3z"/>
		<path class="st2" d="M2570.7,742.9h-28.7l-2.9-6.8v-66.5l2.9-6.8h28.7l2.9,6.8V736L2570.7,742.9z M2563.5,672.8h-14.3v60.1h14.3
			V672.8z"/>
	</g>
	<g>
		<path class="st0" d="M2084.2,739.9h-15.8l4.1-6.8l13.9-79.6l-2.2-3.7h15.6l-2.2,3.7l13.9,79.6l4.1,6.8h-15.8l1.8-6.8l-5-28.2h-9.3
			l-4.8,28.2L2084.2,739.9z M2089.2,694.8h5.7l-2.9-16.4L2089.2,694.8z"/>
		<path class="st0" d="M2154.4,733l4,6.8h-15.8l1.8-6.8l-6.1-38.2h-4.3V733l2.9,6.8h-15.8l2.9-6.8v-66.5l-2.9-6.8h34.4l2.9,6.8V688
			l-2.9,6.8h-7.2L2154.4,733z M2134,669.8v15h14.3v-15H2134z"/>
		<path class="st0" d="M2189.1,686.3l7.3-26.6h15.8l-2.9,6.8V733l2.9,6.8h-15.8l2.9-6.8v-47.3l-10.1,37.6l-10.1-37.6V733l2.9,6.8
			h-15.8l2.9-6.8v-66.5l-2.9-6.8h15.8L2189.1,686.3z"/>
		<path class="st0" d="M2233.4,739.9h-15.8l4.2-6.8l13-66.5l-1.4-6.8h15.6l-1.4,6.8l13,66.5l4.2,6.8h-15.8l1.5-6.8l-3.5-18.2h-11.7
			l-3.5,18.2L2233.4,739.9z M2237.4,704.8h7.7l-3.9-19.6L2237.4,704.8z"/>
		<path class="st0" d="M2320.4,733l2.9,6.8h-15.8l2.9-6.8v-63.3h-6.7l-6.8,2.9v-12.9h37.2v12.9l-6.9-2.9h-6.7V733z"/>
		<path class="st0" d="M2366.1,666.6l-2.9-6.8h15.8l-2.9,6.8V733l-2.9,6.8h-25.8l-2.9-6.8v-66.5l-2.9-6.8h15.8l-2.9,6.8v63.3h11.5
			V666.6z"/>
		<path class="st0" d="M2434.5,733l2.9,6.8h-15.8l2.9-6.8v-73.3h-6.7l-6.8,2.9v-12.9h37.2v12.9l-6.9-2.9h-6.7V733z"/>
		<path class="st0" d="M2464,739.9h-15.8l4.2-6.8l13-66.5l-1.4-6.8h15.6l-1.4,6.8l13,66.5l4.2,6.8h-15.8l1.5-6.8l-3.5-18.2h-11.7
			l-3.5,18.2L2464,739.9z M2467.9,704.8h7.7l-3.9-19.6L2467.9,704.8z"/>
		<path class="st0" d="M2533.3,659.8v12.9l-6.8-2.9h-15.5v60.1h15.5l6.8-2.9l-2.9,12.9h-26.7l-2.9-6.8v-66.5l2.9-6.8H2533.3z"/>
		<path class="st0" d="M2574.7,739.9h-28.7l-2.9-6.8v-66.5l2.9-6.8h28.7l2.9,6.8V733L2574.7,739.9z M2567.5,669.8h-14.3v60.1h14.3
			V669.8z"/>
	</g>
	<g>
		<path class="st1" d="M2087.2,736.9h-15.8l4.1-6.8l13.9-79.6l-2.2-3.7h15.6l-2.2,3.7l13.9,79.6l4.1,6.8h-15.8l1.8-6.8l-5-28.2h-9.3
			l-4.8,28.2L2087.2,736.9z M2092.2,691.8h5.7l-2.9-16.4L2092.2,691.8z"/>
		<path class="st1" d="M2157.4,730l4,6.8h-15.8l1.8-6.8l-6.1-38.2h-4.3V730l2.9,6.8h-15.8l2.9-6.8v-66.5l-2.9-6.8h34.4l2.9,6.8V685
			l-2.9,6.8h-7.2L2157.4,730z M2137,666.8v15h14.3v-15H2137z"/>
		<path class="st1" d="M2192.1,683.3l7.3-26.6h15.8l-2.9,6.8V730l2.9,6.8h-15.8l2.9-6.8v-47.3l-10.1,37.6l-10.1-37.6V730l2.9,6.8
			h-15.8l2.9-6.8v-66.5l-2.9-6.8h15.8L2192.1,683.3z"/>
		<path class="st1" d="M2236.4,736.9h-15.8l4.2-6.8l13-66.5l-1.4-6.8h15.6l-1.4,6.8l13,66.5l4.2,6.8h-15.8l1.5-6.8l-3.5-18.2h-11.7
			l-3.5,18.2L2236.4,736.9z M2240.4,701.8h7.7l-3.9-19.6L2240.4,701.8z"/>
		<path class="st1" d="M2323.4,730l2.9,6.8h-15.8l2.9-6.8v-63.3h-6.7l-6.8,2.9v-12.9h37.2v12.9l-6.9-2.9h-6.7V730z"/>
		<path class="st1" d="M2369.1,663.6l-2.9-6.8h15.8l-2.9,6.8V730l-2.9,6.8h-25.8l-2.9-6.8v-66.5l-2.9-6.8h15.8l-2.9,6.8v63.3h11.5
			V663.6z"/>
		<path class="st1" d="M2437.5,730l2.9,6.8h-15.8l2.9-6.8v-73.3h-6.7l-6.8,2.9v-12.9h37.2v12.9l-6.9-2.9h-6.7V730z"/>
		<path class="st1" d="M2467,736.9h-15.8l4.2-6.8l13-66.5l-1.4-6.8h15.6l-1.4,6.8l13,66.5l4.2,6.8h-15.8l1.5-6.8l-3.5-18.2h-11.7
			l-3.5,18.2L2467,736.9z M2470.9,701.8h7.7l-3.9-19.6L2470.9,701.8z"/>
		<path class="st1" d="M2536.3,656.8v12.9l-6.8-2.9h-15.5v60.1h15.5l6.8-2.9l-2.9,12.9h-26.7l-2.9-6.8v-66.5l2.9-6.8H2536.3z"/>
		<path class="st1" d="M2577.7,736.9h-28.7l-2.9-6.8v-66.5l2.9-6.8h28.7l2.9,6.8V730L2577.7,736.9z M2570.5,666.8h-14.3v60.1h14.3
			V666.8z"/>
	</g>
</g>
</svg>
