<?xml version="1.0" encoding="utf-8"?>
<!-- Generator: Adobe Illustrator 19.1.0, SVG Export Plug-In . SVG Version: 6.00 Build 0)  -->
<svg version="1.1" id="Layer_1" xmlns="http://www.w3.org/2000/svg" xmlns:xlink="http://www.w3.org/1999/xlink" x="0px" y="0px"
	 viewBox="1997.7 909.5 632.1 160.1" style="enable-background:new 1997.7 909.5 632.1 160.1;" xml:space="preserve">
<style type="text/css">
	.st0{fill:#6F1717;}
	.st1{fill:#FFFFFF;}
	.st2{fill:#CE7689;}
	.st3{fill:#D66F87;}
	.st4{fill:#711B1D;}
</style>
<g>
	<path class="st0" d="M2616.1,1069.7h-605c-7.4,0-13.3-6.1-13.3-13.6V923.2c0-7.5,6-13.6,13.3-13.6h605c7.4,0,13.3,6.1,13.3,13.6
		v132.9C2629.4,1063.6,2623.4,1069.7,2616.1,1069.7z"/>
	<g id="_x31_V7nqP.tif_16_">
		<g>
			<path class="st1" d="M2031.3,919.5c94.7,0,469.4,0,564,0c0,5.5,0,11.1,0,16.6c2.2,0,3.9,0,6.1,0c0-2.7,0-5.3,0-7.8
				c3.7,0,7.1,0,10.6,0c0,3.4,0,6.7,0,10.3c-2.8,0-5.6,0-8.4,0c0,2.1,0,4,0,6.1c5.7,0,11.2,0,16.8,0c0,46.9,0,43.8,0,90.8
				c-5.5,0-11.1,0-16.6,0c0,2.1,0,3.9,0,6.1c2.7,0,5.2,0,7.8,0c0,3.8,0,7.2,0,10.7c-3.5,0-6.7,0-10.3,0c0-2.9,0-5.6,0-8.4
				c-2.1,0-4,0-6,0c0,5.7,0,11.2,0,16.7c-94.7,0-469.4,0-564,0c0-5.5,0-11,0-16.5c-2.1,0-3.9,0-6.1,0c0,2.7,0,5.3,0,7.8
				c-3.7,0-7.1,0-10.6,0c0-3.5,0-6.7,0-10.3c2.9,0,5.6,0,8.4,0c0-2.2,0-4,0-6.2c-5.7,0-11.1,0-16.5,0c0-46.9,0-43.5,0-90.5
				c5.5,0,10.9,0,16.2,0c0-2.2,0-4,0-6.2c-2.8,0-5.3,0-7.8,0c0-3.7,0-7.1,0-10.6c3.4,0,6.7,0,10.3,0c0,2.8,0,5.6,0,8.4
				c2.2,0,4,0,6.1,0C2031.3,930.5,2031.3,925,2031.3,919.5z M2033.6,1057.8c93.3,0,466.3,0,559.5,0c0-5.5,0-10.8,0-16.4
				c2.9,0,5.5,0,8.4,0c0-2.9,0-5.5,0-8.5c5.6,0,11,0,16.3,0c0-45.5,0-40.6,0-86c-5.5,0-10.9,0-16.5,0c0-3,0-5.6,0-8.5
				c-2.9,0-5.5,0-8.3,0c0-5.6,0-10.9,0-16.3c-93.3,0-466.3,0-559.5,0c0,5.5,0,10.8,0,16.4c-2.9,0-5.5,0-8.4,0c0,2.9,0,5.5,0,8.5
				c-5.6,0-11,0-16.3,0c0,45.5,0,40.6,0,86c5.5,0,10.9,0,16.5,0c0,3,0,5.6,0,8.5c2.9,0,5.5,0,8.3,0
				C2033.6,1047.1,2033.6,1052.5,2033.6,1057.8z M2017,936.1c2.1,0,3.9,0,5.8,0c0-2.2,0-4.1,0-6.1c-2,0-3.8,0-5.8,0
				C2017,932.1,2017,934,2017,936.1z M2603.7,1049.9c2.1,0,3.9,0,5.8,0c0-2.1,0-4,0-6.1c-2,0-3.9,0-5.8,0
				C2603.7,1045.9,2603.7,1047.8,2603.7,1049.9z M2023,1049.5c0-2,0-3.8,0-5.6c-2.2,0-4.2,0-6.3,0c0,2,0,3.7,0,5.6
				C2018.8,1049.5,2020.8,1049.5,2023,1049.5z M2609.8,930.4c-2.1,0-4.2,0-6.2,0c0,2,0,3.8,0,5.7c2.2,0,4.1,0,6.2,0
				C2609.8,934.2,2609.8,932.4,2609.8,930.4z"/>
		</g>
	</g>
</g>
<g>
	<g>
		<path class="st2" d="M2100.2,974.4l7.3-26.6h15.8l-2.9,6.8v76.5l2.9,6.8h-15.8l2.9-6.8v-57.3l-10.1,37.7l-10.1-37.7v57.3l2.9,6.8
			h-15.8l2.9-6.8v-76.5l-2.9-6.8h15.8L2100.2,974.4z"/>
		<path class="st2" d="M2130.9,1038l2.9-6.8v-66.5l-2.9-6.8h32.4v12.9l-6.8-2.9h-12.7v15h10.7l6.8-2.9v15.8l-6.8-2.9h-10.7v35h12.7
			l6.8-2.9l-2.9,12.9H2130.9z"/>
		<path class="st2" d="M2206.1,964.7v66.5l2.9,6.8h-15.8l1.7-4l-13.1-43.2v40.3l2.9,6.8h-15.8l2.9-6.8v-66.5l-2.9-6.8h12.9
			l14.3,47.2v-40.3l-2.9-6.8h15.8L2206.1,964.7z"/>
		<path class="st2" d="M2241,964.7l-2.9-6.8h15.8l-2.9,6.8v66.5l-2.9,6.8h-25.8l-2.9-6.8v-66.5l-2.9-6.8h15.8l-2.9,6.8v63.3h11.5
			V964.7z"/>
		<path class="st2" d="M2285.9,957.9h34.4l2.9,6.8v66.5l-2.9,6.8h-34.4l2.9-6.8v-66.5L2285.9,957.9z M2298.7,967.9v60.1h14.3v-60.1
			H2298.7z"/>
		<path class="st2" d="M2330.8,1038l2.9-6.8v-66.5l-2.9-6.8h32.4v12.9l-6.8-2.9h-12.7v15h10.7l6.8-2.9v15.8l-6.8-2.9h-10.7v35h12.7
			l6.8-2.9l-2.9,12.9H2330.8z"/>
		<path class="st2" d="M2383.8,964.7v63.3h12.7l6.8-2.9l-2.9,12.9h-29.5l2.9-6.8v-66.5l-2.9-6.8h15.8L2383.8,964.7z"/>
		<path class="st2" d="M2435.3,947.9h34.4l2.9,6.8v76.5l-2.9,6.8h-34.4l2.9-6.8v-76.5L2435.3,947.9z M2448.2,957.9v70.1h14.3v-70.1
			H2448.2z"/>
		<path class="st2" d="M2493.1,964.7v66.5l2.9,6.8h-15.8l2.9-6.8v-66.5l-2.9-6.8h15.8L2493.1,964.7z"/>
		<path class="st2" d="M2517.3,1038h-15.8l4.2-6.8l13-66.5l-1.4-6.8h15.6l-1.4,6.8l13,66.5l4.2,6.8h-15.8l1.5-6.8l-3.5-18.2h-11.7
			l-3.5,18.2L2517.3,1038z M2521.2,1003h7.7l-3.9-19.6L2521.2,1003z"/>
	</g>
	<g>
		<path class="st0" d="M2104.2,971.4l7.3-26.6h15.8l-2.9,6.8v76.5l2.9,6.8h-15.8l2.9-6.8v-57.3l-10.1,37.7l-10.1-37.7v57.3l2.9,6.8
			h-15.8l2.9-6.8v-76.5l-2.9-6.8h15.8L2104.2,971.4z"/>
		<path class="st0" d="M2134.9,1035l2.9-6.8v-66.5l-2.9-6.8h32.4v12.9l-6.8-2.9h-12.7v15h10.7l6.8-2.9v15.8l-6.8-2.9h-10.7v35h12.7
			l6.8-2.9l-2.9,12.9H2134.9z"/>
		<path class="st0" d="M2210.1,961.7v66.5l2.9,6.8h-15.8l1.7-4l-13.1-43.2v40.3l2.9,6.8h-15.8l2.9-6.8v-66.5l-2.9-6.8h12.9
			l14.3,47.2v-40.3l-2.9-6.8h15.8L2210.1,961.7z"/>
		<path class="st0" d="M2245,961.7l-2.9-6.8h15.8l-2.9,6.8v66.5l-2.9,6.8h-25.8l-2.9-6.8v-66.5l-2.9-6.8h15.8l-2.9,6.8v63.3h11.5
			V961.7z"/>
		<path class="st0" d="M2289.9,954.9h34.4l2.9,6.8v66.5l-2.9,6.8h-34.4l2.9-6.8v-66.5L2289.9,954.9z M2302.7,964.9v60.1h14.3v-60.1
			H2302.7z"/>
		<path class="st0" d="M2334.8,1035l2.9-6.8v-66.5l-2.9-6.8h32.4v12.9l-6.8-2.9h-12.7v15h10.7l6.8-2.9v15.8l-6.8-2.9h-10.7v35h12.7
			l6.8-2.9l-2.9,12.9H2334.8z"/>
		<path class="st0" d="M2387.8,961.7v63.3h12.7l6.8-2.9l-2.9,12.9h-29.5l2.9-6.8v-66.5l-2.9-6.8h15.8L2387.8,961.7z"/>
		<path class="st0" d="M2439.3,944.9h34.4l2.9,6.8v76.5l-2.9,6.8h-34.4l2.9-6.8v-76.5L2439.3,944.9z M2452.2,954.9v70.1h14.3v-70.1
			H2452.2z"/>
		<path class="st0" d="M2497.1,961.7v66.5l2.9,6.8h-15.8l2.9-6.8v-66.5l-2.9-6.8h15.8L2497.1,961.7z"/>
		<path class="st0" d="M2521.3,1035h-15.8l4.2-6.8l13-66.5l-1.4-6.8h15.6l-1.4,6.8l13,66.5l4.2,6.8h-15.8l1.5-6.8l-3.5-18.2h-11.7
			l-3.5,18.2L2521.3,1035z M2525.2,1000h7.7l-3.9-19.6L2525.2,1000z"/>
	</g>
	<g>
		<path class="st1" d="M2107.2,968.4l7.3-26.6h15.8l-2.9,6.8v76.5l2.9,6.8h-15.8l2.9-6.8v-57.3l-10.1,37.7l-10.1-37.7v57.3l2.9,6.8
			h-15.8l2.9-6.8v-76.5l-2.9-6.8h15.8L2107.2,968.4z"/>
		<path class="st1" d="M2137.9,1032l2.9-6.8v-66.5l-2.9-6.8h32.4v12.9l-6.8-2.9h-12.7v15h10.7l6.8-2.9v15.8l-6.8-2.9h-10.7v35h12.7
			l6.8-2.9l-2.9,12.9H2137.9z"/>
		<path class="st1" d="M2213.1,958.7v66.5l2.9,6.8h-15.8l1.7-4l-13.1-43.2v40.3l2.9,6.8h-15.8l2.9-6.8v-66.5l-2.9-6.8h12.9
			l14.3,47.2v-40.3l-2.9-6.8h15.8L2213.1,958.7z"/>
		<path class="st1" d="M2248,958.7l-2.9-6.8h15.8l-2.9,6.8v66.5l-2.9,6.8h-25.8l-2.9-6.8v-66.5l-2.9-6.8h15.8l-2.9,6.8v63.3h11.5
			V958.7z"/>
		<path class="st1" d="M2292.9,951.9h34.4l2.9,6.8v66.5l-2.9,6.8h-34.4l2.9-6.8v-66.5L2292.9,951.9z M2305.7,961.9v60.1h14.3v-60.1
			H2305.7z"/>
		<path class="st1" d="M2337.8,1032l2.9-6.8v-66.5l-2.9-6.8h32.4v12.9l-6.8-2.9h-12.7v15h10.7l6.8-2.9v15.8l-6.8-2.9h-10.7v35h12.7
			l6.8-2.9l-2.9,12.9H2337.8z"/>
		<path class="st1" d="M2390.8,958.7v63.3h12.7l6.8-2.9l-2.9,12.9h-29.5l2.9-6.8v-66.5l-2.9-6.8h15.8L2390.8,958.7z"/>
		<path class="st1" d="M2442.3,941.9h34.4l2.9,6.8v76.5l-2.9,6.8h-34.4l2.9-6.8v-76.5L2442.3,941.9z M2455.2,951.9v70.1h14.3v-70.1
			H2455.2z"/>
		<path class="st1" d="M2500.1,958.7v66.5l2.9,6.8h-15.8l2.9-6.8v-66.5l-2.9-6.8h15.8L2500.1,958.7z"/>
		<path class="st1" d="M2524.3,1032h-15.8l4.2-6.8l13-66.5l-1.4-6.8h15.6l-1.4,6.8l13,66.5l4.2,6.8h-15.8l1.5-6.8l-3.5-18.2h-11.7
			l-3.5,18.2L2524.3,1032z M2528.2,997h7.7l-3.9-19.6L2528.2,997z"/>
	</g>
</g>
</svg>
