<?xml version="1.0" encoding="utf-8"?>
<!-- Generator: Adobe Illustrator 19.1.0, SVG Export Plug-In . SVG Version: 6.00 Build 0)  -->
<svg version="1.1" id="Layer_1" xmlns="http://www.w3.org/2000/svg" xmlns:xlink="http://www.w3.org/1999/xlink" x="0px" y="0px"
	 viewBox="855.1 1494 551.7 160.1" style="enable-background:new 855.1 1494 551.7 160.1;" xml:space="preserve">
<style type="text/css">
	.st0{fill:#6F1717;}
	.st1{fill:#FFFFFF;}
	.st2{fill:#CE7689;}
	.st3{fill:#D66F87;}
	.st4{fill:#711B1D;}
</style>
<g>
	<path class="st0" d="M1393.4,1654.1h-525c-7.4,0-13.3-6.1-13.3-13.6v-132.9c0-7.5,6-13.6,13.3-13.6h525c7.4,0,13.3,6.1,13.3,13.6
		v132.9C1406.8,1648,1400.8,1654.1,1393.4,1654.1z"/>
	<g id="_x31_V7nqP.tif_14_">
		<g>
			<path class="st1" d="M888.6,1504c94.7,0,389.4,0,484,0c0,5.5,0,11.1,0,16.6c2.2,0,3.9,0,6.1,0c0-2.7,0-5.3,0-7.8
				c3.7,0,7.1,0,10.6,0c0,3.4,0,6.7,0,10.3c-2.8,0-5.6,0-8.4,0c0,2.1,0,4,0,6.1c5.7,0,11.2,0,16.8,0c0,46.9,0,43.8,0,90.8
				c-5.5,0-11.1,0-16.6,0c0,2.1,0,3.9,0,6.1c2.7,0,5.2,0,7.8,0c0,3.8,0,7.2,0,10.7c-3.5,0-6.7,0-10.3,0c0-2.9,0-5.6,0-8.4
				c-2.1,0-4,0-6,0c0,5.7,0,11.2,0,16.7c-94.7,0-389.4,0-484,0c0-5.5,0-11,0-16.5c-2.1,0-3.9,0-6.1,0c0,2.7,0,5.3,0,7.8
				c-3.7,0-7.1,0-10.6,0c0-3.5,0-6.7,0-10.3c2.9,0,5.6,0,8.4,0c0-2.2,0-4,0-6.2c-5.7,0-11.1,0-16.5,0c0-46.9,0-43.5,0-90.5
				c5.5,0,10.9,0,16.2,0c0-2.2,0-4,0-6.2c-2.8,0-5.3,0-7.8,0c0-3.7,0-7.1,0-10.6c3.4,0,6.7,0,10.3,0c0,2.8,0,5.6,0,8.4
				c2.2,0,4,0,6.1,0C888.6,1514.9,888.6,1509.4,888.6,1504z M891,1642.3c93.3,0,386.3,0,479.5,0c0-5.5,0-10.8,0-16.4
				c2.9,0,5.5,0,8.4,0c0-2.9,0-5.5,0-8.5c5.6,0,11,0,16.3,0c0-45.5,0-40.6,0-86c-5.5,0-10.9,0-16.5,0c0-3,0-5.6,0-8.5
				c-2.9,0-5.5,0-8.3,0c0-5.6,0-10.9,0-16.3c-93.3,0-386.3,0-479.5,0c0,5.5,0,10.8,0,16.4c-2.9,0-5.5,0-8.4,0c0,2.9,0,5.5,0,8.5
				c-5.6,0-11,0-16.3,0c0,45.5,0,40.6,0,86c5.5,0,10.9,0,16.5,0c0,3,0,5.6,0,8.5c2.9,0,5.5,0,8.3,0
				C891,1631.6,891,1636.9,891,1642.3z M874.3,1520.6c2.1,0,3.9,0,5.8,0c0-2.2,0-4.1,0-6.1c-2,0-3.8,0-5.8,0
				C874.3,1516.6,874.3,1518.4,874.3,1520.6z M1381.1,1634.3c2.1,0,3.9,0,5.8,0c0-2.1,0-4,0-6.1c-2,0-3.9,0-5.8,0
				C1381.1,1630.3,1381.1,1632.2,1381.1,1634.3z M880.4,1633.9c0-2,0-3.8,0-5.6c-2.2,0-4.2,0-6.3,0c0,2,0,3.7,0,5.6
				C876.2,1633.9,878.1,1633.9,880.4,1633.9z M1387.2,1514.9c-2.1,0-4.2,0-6.2,0c0,2,0,3.8,0,5.7c2.2,0,4.1,0,6.2,0
				C1387.2,1518.6,1387.2,1516.8,1387.2,1514.9z"/>
		</g>
	</g>
</g>
<g>
	<g>
		<path class="st2" d="M913.7,1532h34.4l2.9,6.8v76.5l-2.9,6.8h-34.4l2.9-6.8v-76.5L913.7,1532z M926.6,1542v70.1H941V1542H926.6z"
			/>
		<path class="st2" d="M958.7,1622.1l2.9-6.8v-76.5l-2.9-6.8h32.4v12.9l-6.8-2.9h-12.7v15h10.7l6.8-2.9v15.8l-6.8-2.9h-10.7v45.1
			h12.7l6.8-2.9l-2.9,12.9H958.7z"/>
		<path class="st2" d="M1021.2,1567h-19.5l-2.9-6.8v-21.4l2.9-6.8h26.7v12.9l-6.8-2.9h-12.7v15h19.5l2.9,6.8v51.5l-2.9,6.8h-26.7
			l-2.9-6.8V1577h12.9l-2.9,6.8v28.2h12.3V1567z"/>
		<path class="st2" d="M1059.2,1615.3l2.9,6.8h-15.8l2.9-6.8V1542h-6.7l-6.8,2.9V1532h37.2v12.9l-6.9-2.9h-6.7V1615.3z"/>
		<path class="st2" d="M1090.8,1622.1h-15.8l4.1-6.8l13.9-79.6l-2.2-3.7h15.6l-2.2,3.7l13.9,79.6l4.1,6.8h-15.8l1.8-6.8l-5-28.2
			h-9.3l-4.8,28.2L1090.8,1622.1z M1095.8,1577h5.7l-2.9-16.4L1095.8,1577z"/>
		<path class="st2" d="M1160.2,1532v12.9l-6.8-2.9h-15.5v70.1h15.5l6.8-2.9l-2.9,12.9h-26.7l-2.9-6.8v-76.5l2.9-6.8H1160.2z"/>
		<path class="st2" d="M1180.3,1622.1h-15.8l4.1-6.8l13.9-79.6l-2.2-3.7h15.6l-2.2,3.7l13.9,79.6l4.1,6.8H1196l1.8-6.8l-5-28.2h-9.3
			l-4.8,28.2L1180.3,1622.1z M1185.3,1577h5.7l-2.9-16.4L1185.3,1577z"/>
		<path class="st2" d="M1217.2,1532h34.4l2.9,6.8v76.5l-2.9,6.8h-34.4l2.9-6.8v-76.5L1217.2,1532z M1230.1,1542v70.1h14.3V1542
			H1230.1z"/>
		<path class="st2" d="M1295.9,1622.1h-28.7l-2.9-6.8v-76.5l2.9-6.8h28.7l2.9,6.8v76.5L1295.9,1622.1z M1288.8,1542h-14.3v70.1h14.3
			V1542z"/>
		<path class="st2" d="M1331.1,1567h-19.5l-2.9-6.8v-21.4l2.9-6.8h26.7v12.9l-6.8-2.9h-12.7v15h19.5l2.9,6.8v51.5l-2.9,6.8h-26.7
			l-2.9-6.8V1577h12.9l-2.9,6.8v28.2h12.3V1567z"/>
	</g>
	<g>
		<path class="st0" d="M917.7,1529h34.4l2.9,6.8v76.5l-2.9,6.8h-34.4l2.9-6.8v-76.5L917.7,1529z M930.6,1539v70.1H945V1539H930.6z"
			/>
		<path class="st0" d="M962.7,1619.1l2.9-6.8v-76.5l-2.9-6.8h32.4v12.9l-6.8-2.9h-12.7v15h10.7l6.8-2.9v15.8l-6.8-2.9h-10.7v45.1
			h12.7l6.8-2.9l-2.9,12.9H962.7z"/>
		<path class="st0" d="M1025.2,1564h-19.5l-2.9-6.8v-21.4l2.9-6.8h26.7v12.9l-6.8-2.9h-12.7v15h19.5l2.9,6.8v51.5l-2.9,6.8h-26.7
			l-2.9-6.8V1574h12.9l-2.9,6.8v28.2h12.3V1564z"/>
		<path class="st0" d="M1063.2,1612.3l2.9,6.8h-15.8l2.9-6.8V1539h-6.7l-6.8,2.9V1529h37.2v12.9l-6.9-2.9h-6.7V1612.3z"/>
		<path class="st0" d="M1094.8,1619.1h-15.8l4.1-6.8l13.9-79.6l-2.2-3.7h15.6l-2.2,3.7l13.9,79.6l4.1,6.8h-15.8l1.8-6.8l-5-28.2
			h-9.3l-4.8,28.2L1094.8,1619.1z M1099.8,1574h5.7l-2.9-16.4L1099.8,1574z"/>
		<path class="st0" d="M1164.2,1529v12.9l-6.8-2.9h-15.5v70.1h15.5l6.8-2.9l-2.9,12.9h-26.7l-2.9-6.8v-76.5l2.9-6.8H1164.2z"/>
		<path class="st0" d="M1184.3,1619.1h-15.8l4.1-6.8l13.9-79.6l-2.2-3.7h15.6l-2.2,3.7l13.9,79.6l4.1,6.8H1200l1.8-6.8l-5-28.2h-9.3
			l-4.8,28.2L1184.3,1619.1z M1189.3,1574h5.7l-2.9-16.4L1189.3,1574z"/>
		<path class="st0" d="M1221.2,1529h34.4l2.9,6.8v76.5l-2.9,6.8h-34.4l2.9-6.8v-76.5L1221.2,1529z M1234.1,1539v70.1h14.3V1539
			H1234.1z"/>
		<path class="st0" d="M1299.9,1619.1h-28.7l-2.9-6.8v-76.5l2.9-6.8h28.7l2.9,6.8v76.5L1299.9,1619.1z M1292.8,1539h-14.3v70.1h14.3
			V1539z"/>
		<path class="st0" d="M1335.1,1564h-19.5l-2.9-6.8v-21.4l2.9-6.8h26.7v12.9l-6.8-2.9h-12.7v15h19.5l2.9,6.8v51.5l-2.9,6.8h-26.7
			l-2.9-6.8V1574h12.9l-2.9,6.8v28.2h12.3V1564z"/>
	</g>
	<g>
		<path class="st1" d="M920.7,1526h34.4l2.9,6.8v76.5l-2.9,6.8h-34.4l2.9-6.8v-76.5L920.7,1526z M933.6,1536v70.1H948V1536H933.6z"
			/>
		<path class="st1" d="M965.7,1616.1l2.9-6.8v-76.5l-2.9-6.8h32.4v12.9l-6.8-2.9h-12.7v15h10.7l6.8-2.9v15.8l-6.8-2.9h-10.7v45.1
			h12.7l6.8-2.9l-2.9,12.9H965.7z"/>
		<path class="st1" d="M1028.2,1561h-19.5l-2.9-6.8v-21.4l2.9-6.8h26.7v12.9l-6.8-2.9h-12.7v15h19.5l2.9,6.8v51.5l-2.9,6.8h-26.7
			l-2.9-6.8V1571h12.9l-2.9,6.8v28.2h12.3V1561z"/>
		<path class="st1" d="M1066.2,1609.3l2.9,6.8h-15.8l2.9-6.8V1536h-6.7l-6.8,2.9V1526h37.2v12.9l-6.9-2.9h-6.7V1609.3z"/>
		<path class="st1" d="M1097.8,1616.1h-15.8l4.1-6.8l13.9-79.6l-2.2-3.7h15.6l-2.2,3.7l13.9,79.6l4.1,6.8h-15.8l1.8-6.8l-5-28.2
			h-9.3l-4.8,28.2L1097.8,1616.1z M1102.8,1571h5.7l-2.9-16.4L1102.8,1571z"/>
		<path class="st1" d="M1167.2,1526v12.9l-6.8-2.9h-15.5v70.1h15.5l6.8-2.9l-2.9,12.9h-26.7l-2.9-6.8v-76.5l2.9-6.8H1167.2z"/>
		<path class="st1" d="M1187.3,1616.1h-15.8l4.1-6.8l13.9-79.6l-2.2-3.7h15.6l-2.2,3.7l13.9,79.6l4.1,6.8H1203l1.8-6.8l-5-28.2h-9.3
			l-4.8,28.2L1187.3,1616.1z M1192.3,1571h5.7l-2.9-16.4L1192.3,1571z"/>
		<path class="st1" d="M1224.2,1526h34.4l2.9,6.8v76.5l-2.9,6.8h-34.4l2.9-6.8v-76.5L1224.2,1526z M1237.1,1536v70.1h14.3V1536
			H1237.1z"/>
		<path class="st1" d="M1302.9,1616.1h-28.7l-2.9-6.8v-76.5l2.9-6.8h28.7l2.9,6.8v76.5L1302.9,1616.1z M1295.8,1536h-14.3v70.1h14.3
			V1536z"/>
		<path class="st1" d="M1338.1,1561h-19.5l-2.9-6.8v-21.4l2.9-6.8h26.7v12.9l-6.8-2.9h-12.7v15h19.5l2.9,6.8v51.5l-2.9,6.8h-26.7
			l-2.9-6.8V1571h12.9l-2.9,6.8v28.2h12.3V1561z"/>
	</g>
</g>
</svg>
