<?xml version="1.0" encoding="utf-8"?>
<!-- Generator: Adobe Illustrator 19.1.0, SVG Export Plug-In . SVG Version: 6.00 Build 0)  -->
<svg version="1.1" id="Layer_1" xmlns="http://www.w3.org/2000/svg" xmlns:xlink="http://www.w3.org/1999/xlink" x="0px" y="0px"
	 viewBox="781.1 705.2 561.6 160.1" style="enable-background:new 781.1 705.2 561.6 160.1;" xml:space="preserve">
<style type="text/css">
	.st0{fill:#6F1717;}
	.st1{fill:#D66F87;}
	.st2{fill:#711B1D;}
	.st3{fill:#FFFFFF;}
</style>
<g>
	<path class="st0" d="M1329.4,865.3h-535c-7.4,0-13.3-6.1-13.3-13.6V718.8c0-7.5,6-13.6,13.3-13.6h535c7.4,0,13.3,6.1,13.3,13.6
		v132.9C1342.8,859.2,1336.8,865.3,1329.4,865.3z"/>
	<g id="_x31_V7nqP.tif_8_">
		<g>
			<path class="st3" d="M814.6,715.1c94.7,0,399.4,0,494,0c0,5.5,0,11.1,0,16.6c2.2,0,3.9,0,6.1,0c0-2.7,0-5.3,0-7.8
				c3.7,0,7.1,0,10.6,0c0,3.4,0,6.7,0,10.3c-2.8,0-5.6,0-8.4,0c0,2.1,0,4,0,6.1c5.7,0,11.2,0,16.8,0c0,46.9,0,43.8,0,90.8
				c-5.5,0-11.1,0-16.6,0c0,2.1,0,3.9,0,6.1c2.7,0,5.2,0,7.8,0c0,3.8,0,7.2,0,10.7c-3.5,0-6.7,0-10.3,0c0-2.9,0-5.6,0-8.4
				c-2.1,0-4,0-6,0c0,5.7,0,11.2,0,16.7c-94.7,0-399.4,0-494,0c0-5.5,0-11,0-16.5c-2.1,0-3.9,0-6.1,0c0,2.7,0,5.3,0,7.8
				c-3.7,0-7.1,0-10.6,0c0-3.5,0-6.7,0-10.3c2.9,0,5.6,0,8.4,0c0-2.2,0-4,0-6.2c-5.7,0-11.1,0-16.5,0c0-46.9,0-43.5,0-90.5
				c5.5,0,10.9,0,16.2,0c0-2.2,0-4,0-6.2c-2.8,0-5.3,0-7.8,0c0-3.7,0-7.1,0-10.6c3.4,0,6.7,0,10.3,0c0,2.8,0,5.6,0,8.4
				c2.2,0,4,0,6.1,0C814.6,726.1,814.6,720.6,814.6,715.1z M817,853.4c93.3,0,396.3,0,489.5,0c0-5.5,0-10.8,0-16.4
				c2.9,0,5.5,0,8.4,0c0-2.9,0-5.5,0-8.5c5.6,0,11,0,16.3,0c0-45.5,0-40.6,0-86c-5.5,0-10.9,0-16.5,0c0-3,0-5.6,0-8.5
				c-2.9,0-5.5,0-8.3,0c0-5.6,0-10.9,0-16.3c-93.3,0-396.3,0-489.5,0c0,5.5,0,10.8,0,16.4c-2.9,0-5.5,0-8.4,0c0,2.9,0,5.5,0,8.5
				c-5.6,0-11,0-16.3,0c0,45.5,0,40.6,0,86c5.5,0,10.9,0,16.5,0c0,3,0,5.6,0,8.5c2.9,0,5.5,0,8.3,0C817,842.8,817,848.1,817,853.4z
				 M800.3,731.7c2.1,0,3.9,0,5.8,0c0-2.2,0-4.1,0-6.1c-2,0-3.8,0-5.8,0C800.3,727.7,800.3,729.6,800.3,731.7z M1317.1,845.5
				c2.1,0,3.9,0,5.8,0c0-2.1,0-4,0-6.1c-2,0-3.9,0-5.8,0C1317.1,841.5,1317.1,843.4,1317.1,845.5z M806.4,845.1c0-2,0-3.8,0-5.6
				c-2.2,0-4.2,0-6.3,0c0,2,0,3.7,0,5.6C802.2,845.1,804.1,845.1,806.4,845.1z M1323.2,726.1c-2.1,0-4.2,0-6.2,0c0,2,0,3.8,0,5.7
				c2.2,0,4.1,0,6.2,0C1323.2,729.8,1323.2,728,1323.2,726.1z"/>
		</g>
	</g>
</g>
<g>
	<g>
		<path class="st1" d="M835.4,821.4V745l2.9-6.8H867l2.9,6.8v76.4l-2.9,6.9h-4.4l0.4,3.1l4,6.9h-15.8l1.8-6.9l-0.4-3.1h-14.3
			L835.4,821.4z M859.8,748.2h-14.4v70.1h14.3L859.8,748.2L859.8,748.2z"/>
		<path class="st1" d="M901.9,755.1l-2.9-6.9h15.8l-2.9,6.8v66.5l-2.9,6.8h-25.8l-2.8-6.8v-66.4l-2.9-6.9h15.8l-2.9,6.9v63.3h11.5
			V755.1z"/>
		<path class="st1" d="M922.5,828.3l2.9-6.8v-66.4l-2.9-6.9h32.4v12.9l-6.8-2.9h-12.8v15H946l6.8-2.9v15.8l-6.8-2.9h-10.7v35H948
			l6.8-2.9l-2.9,12.9h-29.4V828.3z"/>
		<path class="st1" d="M987.1,783.3h-19.5l-2.9-6.8v-21.4l2.9-6.8h26.7v12.9l-6.8-2.9h-12.7v15h19.5l2.9,6.8v41.4l-2.9,6.8h-26.7
			l-2.9-6.8v-28.2h12.9l-2.9,6.8v18.2H987L987.1,783.3L987.1,783.3z"/>
		<path class="st1" d="M1017.3,828.3h-15.8l4.2-6.8l13-66.5l-1.4-6.8h15.6l-1.4,6.8l13,66.5l4.2,6.8h-15.8l1.5-6.8l-3.5-18.2h-11.7
			l-3.5,18.2L1017.3,828.3z M1021.3,793.3h7.7l-3.9-19.6L1021.3,793.3z"/>
		<path class="st1" d="M1054.3,748.2h34.4l2.9,6.8v66.5l-2.9,6.8h-34.4l2.9-6.8v-66.4L1054.3,748.2z M1067.1,758.3v60.1h14.3v-60.1
			H1067.1z"/>
		<path class="st1" d="M1112.1,755.1v66.5l2.9,6.8h-15.8l2.9-6.8v-66.5l-2.9-6.8h15.8L1112.1,755.1z"/>
		<path class="st1" d="M1135.6,755.1v63.3h12.7l6.8-2.9l-2.9,12.9h-29.5l2.9-6.8v-66.5l-2.9-6.8h15.7L1135.6,755.1z"/>
		<path class="st1" d="M1172.4,755.1v63.3h12.7l6.8-2.9l-2.9,12.9h-29.5l2.9-6.8v-66.5l-2.9-6.8h15.8L1172.4,755.1z"/>
		<path class="st1" d="M1212.1,828.3h-15.8l4.2-6.8l13-66.5l-1.4-6.8h15.6l-1.4,6.8l13,66.5l4.2,6.8h-15.8l1.5-6.8l-3.5-18.2H1214
			l-3.5,18.2L1212.1,828.3z M1216,793.3h7.7l-3.9-19.6L1216,793.3z"/>
		<path class="st1" d="M1271.3,783.3h-19.5l-2.9-6.8v-21.4l2.9-6.8h26.7v12.9l-6.8-2.9H1259v15h19.5l2.9,6.8v41.4l-2.9,6.8h-26.7
			l-2.9-6.8v-28.2h12.9l-2.9,6.8v18.2h12.3L1271.3,783.3L1271.3,783.3z"/>
	</g>
	<g>
		<path class="st2" d="M839.4,818.4V742l2.9-6.8H871l2.9,6.8v76.4l-2.9,6.9h-4.4l0.4,3.1l4,6.9h-15.8l1.8-6.9l-0.4-3.1h-14.3
			L839.4,818.4z M863.8,745.2h-14.4v70.1h14.3L863.8,745.2L863.8,745.2z"/>
		<path class="st2" d="M905.9,752.1l-2.9-6.9h15.8l-2.9,6.8v66.5l-2.9,6.8h-25.8l-2.8-6.8v-66.4l-2.9-6.9h15.8l-2.9,6.9v63.3h11.5
			V752.1z"/>
		<path class="st2" d="M926.5,825.3l2.9-6.8v-66.4l-2.9-6.9h32.4v12.9l-6.8-2.9h-12.7v15h10.7l6.8-2.9v15.8l-6.8-2.9h-10.7v35h12.7
			l6.8-2.9l-2.9,12.9h-29.5V825.3z"/>
		<path class="st2" d="M991.1,780.3h-19.5l-2.9-6.8v-21.4l2.9-6.8h26.7v12.9l-6.8-2.9h-12.7v15h19.5l2.9,6.8v41.4l-2.9,6.8h-26.7
			l-2.9-6.8v-28.2h12.9l-2.9,6.8v18.2H991L991.1,780.3L991.1,780.3z"/>
		<path class="st2" d="M1021.3,825.3h-15.8l4.2-6.8l13-66.5l-1.4-6.8h15.6l-1.4,6.8l13,66.5l4.2,6.8h-15.8l1.5-6.8l-3.5-18.2h-11.7
			l-3.5,18.2L1021.3,825.3z M1025.3,790.3h7.7l-3.9-19.6L1025.3,790.3z"/>
		<path class="st2" d="M1058.3,745.2h34.4l2.9,6.8v66.5l-2.9,6.8h-34.4l2.9-6.8v-66.4L1058.3,745.2z M1071.1,755.3v60.1h14.3v-60.1
			H1071.1z"/>
		<path class="st2" d="M1116.1,752.1v66.5l2.9,6.8h-15.8l2.9-6.8v-66.5l-2.9-6.8h15.8L1116.1,752.1z"/>
		<path class="st2" d="M1139.6,752.1v63.3h12.7l6.8-2.9l-2.9,12.9h-29.5l2.9-6.8v-66.5l-2.9-6.8h15.7L1139.6,752.1z"/>
		<path class="st2" d="M1176.4,752.1v63.3h12.7l6.8-2.9l-2.9,12.9h-29.5l2.9-6.8v-66.5l-2.9-6.8h15.8L1176.4,752.1z"/>
		<path class="st2" d="M1216.1,825.3h-15.8l4.2-6.8l13-66.5l-1.4-6.8h15.6l-1.4,6.8l13,66.5l4.2,6.8h-15.8l1.5-6.8l-3.5-18.2H1218
			l-3.5,18.2L1216.1,825.3z M1220,790.3h7.7l-3.9-19.6L1220,790.3z"/>
		<path class="st2" d="M1275.3,780.3h-19.5l-2.9-6.8v-21.4l2.9-6.8h26.7v12.9l-6.8-2.9H1263v15h19.5l2.9,6.8v41.4l-2.9,6.8h-26.7
			l-2.9-6.8v-28.2h12.9l-2.9,6.8v18.2h12.3L1275.3,780.3L1275.3,780.3z"/>
	</g>
	<g>
		<path class="st3" d="M842.4,815.4V739l2.9-6.8H874l2.9,6.8v76.4l-2.9,6.9h-4.4l0.4,3.1l4,6.9h-15.8l1.8-6.9l-0.4-3.1h-14.3
			L842.4,815.4z M866.8,742.2h-14.4v70.1h14.3L866.8,742.2L866.8,742.2z"/>
		<path class="st3" d="M908.9,749.1l-2.9-6.9h15.8l-2.9,6.8v66.5l-2.9,6.8h-25.8l-2.8-6.8v-66.4l-2.9-6.9h15.8l-2.9,6.9v63.3h11.5
			V749.1z"/>
		<path class="st3" d="M929.5,822.3l2.9-6.8v-66.4l-2.9-6.9h32.4v12.9l-6.8-2.9h-12.7v15h10.7l6.8-2.9v15.8l-6.8-2.9h-10.7v35h12.7
			l6.8-2.9l-2.9,12.9h-29.5V822.3z"/>
		<path class="st3" d="M994.1,777.3h-19.5l-2.9-6.8v-21.4l2.9-6.8h26.7v12.9l-6.8-2.9h-12.7v15h19.5l2.9,6.8v41.4l-2.9,6.8h-26.7
			l-2.9-6.8v-28.2h12.9l-2.9,6.8v18.2H994L994.1,777.3L994.1,777.3z"/>
		<path class="st3" d="M1024.3,822.3h-15.8l4.2-6.8l13-66.5l-1.4-6.8h15.6l-1.4,6.8l13,66.5l4.2,6.8h-15.8l1.5-6.8l-3.5-18.2h-11.7
			l-3.5,18.2L1024.3,822.3z M1028.3,787.3h7.7l-3.9-19.6L1028.3,787.3z"/>
		<path class="st3" d="M1061.3,742.2h34.4l2.9,6.8v66.5l-2.9,6.8h-34.4l2.9-6.8v-66.4L1061.3,742.2z M1074.1,752.3v60.1h14.3v-60.1
			H1074.1z"/>
		<path class="st3" d="M1119.1,749.1v66.5l2.9,6.8h-15.8l2.9-6.8v-66.5l-2.9-6.8h15.8L1119.1,749.1z"/>
		<path class="st3" d="M1142.6,749.1v63.3h12.7l6.8-2.9l-2.9,12.9h-29.5l2.9-6.8v-66.5l-2.9-6.8h15.7L1142.6,749.1z"/>
		<path class="st3" d="M1179.4,749.1v63.3h12.7l6.8-2.9l-2.9,12.9h-29.5l2.9-6.8v-66.5l-2.9-6.8h15.8L1179.4,749.1z"/>
		<path class="st3" d="M1219.1,822.3h-15.8l4.2-6.8l13-66.5l-1.4-6.8h15.6l-1.4,6.8l13,66.5l4.2,6.8h-15.8l1.5-6.8l-3.5-18.2H1221
			l-3.5,18.2L1219.1,822.3z M1223,787.3h7.7l-3.9-19.6L1223,787.3z"/>
		<path class="st3" d="M1278.3,777.3h-19.5l-2.9-6.8v-21.4l2.9-6.8h26.7v12.9l-6.8-2.9H1266v15h19.5l2.9,6.8v41.4l-2.9,6.8h-26.7
			l-2.9-6.8v-28.2h12.9l-2.9,6.8v18.2h12.3L1278.3,777.3L1278.3,777.3z"/>
	</g>
</g>
</svg>
