<?xml version="1.0" encoding="utf-8"?>
<!-- Generator: Adobe Illustrator 19.1.0, SVG Export Plug-In . SVG Version: 6.00 Build 0)  -->
<svg version="1.1" id="Layer_1" xmlns="http://www.w3.org/2000/svg" xmlns:xlink="http://www.w3.org/1999/xlink" x="0px" y="0px"
	 viewBox="722.3 1196.1 961.7 160.1" style="enable-background:new 722.3 1196.1 961.7 160.1;" xml:space="preserve">
<style type="text/css">
	.st0{fill:#6F1717;}
	.st1{fill:#FFFFFF;}
	.st2{fill:#CE7689;}
	.st3{fill:#D66F87;}
	.st4{fill:#711B1D;}
</style>
<g>
	<path class="st0" d="M1670.6,1356.2h-935c-7.4,0-13.3-6.1-13.3-13.6v-132.9c0-7.5,6-13.6,13.3-13.6h935c7.4,0,13.3,6.1,13.3,13.6
		v132.9C1683.9,1350.1,1678,1356.2,1670.6,1356.2z"/>
	<g id="_x31_V7nqP.tif_13_">
		<g>
			<path class="st1" d="M755.8,1206.1c94.7,0,799.4,0,894,0c0,5.5,0,11.1,0,16.6c2.2,0,3.9,0,6.1,0c0-2.7,0-5.3,0-7.8
				c3.7,0,7.1,0,10.6,0c0,3.4,0,6.7,0,10.3c-2.8,0-5.6,0-8.4,0c0,2.1,0,4,0,6.1c5.7,0,11.2,0,16.8,0c0,46.9,0,43.8,0,90.8
				c-5.5,0-11.1,0-16.6,0c0,2.1,0,3.9,0,6.1c2.7,0,5.2,0,7.8,0c0,3.8,0,7.2,0,10.7c-3.5,0-6.7,0-10.3,0c0-2.9,0-5.6,0-8.4
				c-2.1,0-4,0-6,0c0,5.7,0,11.2,0,16.7c-94.7,0-799.4,0-894,0c0-5.5,0-11,0-16.5c-2.1,0-3.9,0-6.1,0c0,2.7,0,5.3,0,7.8
				c-3.7,0-7.1,0-10.6,0c0-3.5,0-6.7,0-10.3c2.9,0,5.6,0,8.4,0c0-2.2,0-4,0-6.2c-5.7,0-11.1,0-16.5,0c0-46.9,0-43.5,0-90.5
				c5.5,0,10.9,0,16.2,0c0-2.2,0-4,0-6.2c-2.8,0-5.3,0-7.8,0c0-3.7,0-7.1,0-10.6c3.4,0,6.7,0,10.3,0c0,2.8,0,5.6,0,8.4
				c2.2,0,4,0,6.1,0C755.8,1217.1,755.8,1211.6,755.8,1206.1z M758.1,1344.4c93.3,0,796.3,0,889.5,0c0-5.5,0-10.8,0-16.4
				c2.9,0,5.5,0,8.4,0c0-2.9,0-5.5,0-8.5c5.6,0,11,0,16.3,0c0-45.5,0-40.6,0-86c-5.5,0-10.9,0-16.5,0c0-3,0-5.6,0-8.5
				c-2.9,0-5.5,0-8.3,0c0-5.6,0-10.9,0-16.3c-93.3,0-796.3,0-889.5,0c0,5.5,0,10.8,0,16.4c-2.9,0-5.5,0-8.4,0c0,2.9,0,5.5,0,8.5
				c-5.6,0-11,0-16.3,0c0,45.5,0,40.6,0,86c5.5,0,10.9,0,16.5,0c0,3,0,5.6,0,8.5c2.9,0,5.5,0,8.3,0
				C758.1,1333.7,758.1,1339,758.1,1344.4z M741.5,1222.7c2.1,0,3.9,0,5.8,0c0-2.2,0-4.1,0-6.1c-2,0-3.8,0-5.8,0
				C741.5,1218.7,741.5,1220.6,741.5,1222.7z M1658.3,1336.4c2.1,0,3.9,0,5.8,0c0-2.1,0-4,0-6.1c-2,0-3.9,0-5.8,0
				C1658.3,1332.4,1658.3,1334.3,1658.3,1336.4z M747.5,1336c0-2,0-3.8,0-5.6c-2.2,0-4.2,0-6.3,0c0,2,0,3.7,0,5.6
				C743.4,1336,745.3,1336,747.5,1336z M1664.3,1217c-2.1,0-4.2,0-6.2,0c0,2,0,3.8,0,5.7c2.2,0,4.1,0,6.2,0
				C1664.3,1220.7,1664.3,1218.9,1664.3,1217z"/>
		</g>
	</g>
</g>
<g>
	<g>
		<path class="st2" d="M789.9,1317.4l2.9,6.8H777l2.9-6.8v-76.5l-2.9-6.8h34.4l2.9,6.8v21.4l-2.9,6.8h-21.5V1317.4z M789.9,1244.1
			v15h14.3v-15H789.9z"/>
		<path class="st2" d="M855.2,1317.4l4,6.8h-15.8l1.8-6.8l-7.6-48.3h-2.8v48.3l2.9,6.8h-15.8l2.9-6.8v-76.5l-2.9-6.8h34.4l2.9,6.8
			v21.4l-2.9,6.8h-8.7L855.2,1317.4z M834.8,1244.1v15h14.3v-15H834.8z"/>
		<path class="st2" d="M900.6,1324.2H872l-2.9-6.8v-76.5l2.9-6.8h28.7l2.9,6.8v76.5L900.6,1324.2z M893.5,1244.1h-14.3v70.1h14.3
			V1244.1z"/>
		<path class="st2" d="M911.2,1234.1h34.4l2.9,6.8v76.5l-2.9,6.8h-34.4l2.9-6.8v-76.5L911.2,1234.1z M924.1,1244.1v70.1h14.3v-70.1
			H924.1z"/>
		<path class="st2" d="M980.5,1240.9l-2.9-6.8h15.8l-2.9,6.8v76.5l-2.9,6.8h-25.8l-2.9-6.8v-76.5l-2.9-6.8h15.8l-2.9,6.8v73.3h11.5
			V1240.9z"/>
		<path class="st2" d="M1033.5,1234.1v12.9l-6.8-2.9h-15.5v70.1h15.5l6.8-2.9l-2.9,12.9H1004l-2.9-6.8v-76.5l2.9-6.8H1033.5z"/>
		<path class="st2" d="M1064.8,1317.4l2.9,6.8h-15.8l2.9-6.8v-73.3h-6.7l-6.8,2.9v-12.9h37.2v12.9l-6.9-2.9h-6.7V1317.4z"/>
		<path class="st2" d="M1117.7,1324.2h-28.7l-2.9-6.8v-76.5l2.9-6.8h28.7l2.9,6.8v76.5L1117.7,1324.2z M1110.6,1244.1h-14.3v70.1
			h14.3V1244.1z"/>
		<path class="st2" d="M1152.9,1269.1h-19.5l-2.9-6.8v-21.4l2.9-6.8h26.7v12.9l-6.8-2.9h-12.7v15h19.5l2.9,6.8v51.5l-2.9,6.8h-26.7
			l-2.9-6.8v-38.2h12.9l-2.9,6.8v28.2h12.3V1269.1z"/>
		<path class="st2" d="M1194.9,1234.1h34.4l2.9,6.8v76.5l-2.9,6.8h-34.4l2.9-6.8v-76.5L1194.9,1234.1z M1207.7,1244.1v70.1h14.3
			v-70.1H1207.7z"/>
		<path class="st2" d="M1239.8,1324.2l2.9-6.8v-76.5l-2.9-6.8h32.4v12.9l-6.8-2.9h-12.7v15h10.7l6.8-2.9v15.8l-6.8-2.9h-10.7v45.1
			h12.7l6.8-2.9l-2.9,12.9H1239.8z"/>
		<path class="st2" d="M1302.3,1269.1h-19.5l-2.9-6.8v-21.4l2.9-6.8h26.7v12.9l-6.8-2.9H1290v15h19.5l2.9,6.8v51.5l-2.9,6.8h-26.7
			l-2.9-6.8v-38.2h12.9l-2.9,6.8v28.2h12.3V1269.1z"/>
		<path class="st2" d="M1340.3,1317.4l2.9,6.8h-15.8l2.9-6.8v-73.3h-6.7l-6.8,2.9v-12.9h37.2v12.9l-6.9-2.9h-6.7V1317.4z"/>
		<path class="st2" d="M1371.9,1324.2h-15.8l4.1-6.8l13.9-79.6l-2.2-3.7h15.6l-2.2,3.7l13.9,79.6l4.1,6.8h-15.8l1.8-6.8l-5-28.2
			h-9.3l-4.8,28.2L1371.9,1324.2z M1376.9,1279.2h5.7l-2.9-16.4L1376.9,1279.2z"/>
		<path class="st2" d="M1441.3,1234.1v12.9l-6.8-2.9h-15.5v70.1h15.5l6.8-2.9l-2.9,12.9h-26.7l-2.9-6.8v-76.5l2.9-6.8H1441.3z"/>
		<path class="st2" d="M1461.4,1324.2h-15.8l4.1-6.8l13.9-79.6l-2.2-3.7h15.6l-2.2,3.7l13.9,79.6l4.1,6.8h-15.8l1.8-6.8l-5-28.2
			h-9.3l-4.8,28.2L1461.4,1324.2z M1466.4,1279.2h5.7l-2.9-16.4L1466.4,1279.2z"/>
		<path class="st2" d="M1498.3,1234.1h34.4l2.9,6.8v76.5l-2.9,6.8h-34.4l2.9-6.8v-76.5L1498.3,1234.1z M1511.2,1244.1v70.1h14.3
			v-70.1H1511.2z"/>
		<path class="st2" d="M1577,1324.2h-28.7l-2.9-6.8v-76.5l2.9-6.8h28.7l2.9,6.8v76.5L1577,1324.2z M1569.9,1244.1h-14.3v70.1h14.3
			V1244.1z"/>
		<path class="st2" d="M1612.2,1269.1h-19.5l-2.9-6.8v-21.4l2.9-6.8h26.7v12.9l-6.8-2.9h-12.7v15h19.5l2.9,6.8v51.5l-2.9,6.8h-26.7
			l-2.9-6.8v-38.2h12.9l-2.9,6.8v28.2h12.3V1269.1z"/>
	</g>
	<g>
		<path class="st0" d="M793.9,1314.4l2.9,6.8H781l2.9-6.8v-76.5l-2.9-6.8h34.4l2.9,6.8v21.4l-2.9,6.8h-21.5V1314.4z M793.9,1241.1
			v15h14.3v-15H793.9z"/>
		<path class="st0" d="M859.2,1314.4l4,6.8h-15.8l1.8-6.8l-7.6-48.3h-2.8v48.3l2.9,6.8h-15.8l2.9-6.8v-76.5l-2.9-6.8h34.4l2.9,6.8
			v21.4l-2.9,6.8h-8.7L859.2,1314.4z M838.8,1241.1v15h14.3v-15H838.8z"/>
		<path class="st0" d="M904.6,1321.2H876l-2.9-6.8v-76.5l2.9-6.8h28.7l2.9,6.8v76.5L904.6,1321.2z M897.5,1241.1h-14.3v70.1h14.3
			V1241.1z"/>
		<path class="st0" d="M915.2,1231.1h34.4l2.9,6.8v76.5l-2.9,6.8h-34.4l2.9-6.8v-76.5L915.2,1231.1z M928.1,1241.1v70.1h14.3v-70.1
			H928.1z"/>
		<path class="st0" d="M984.5,1237.9l-2.9-6.8h15.8l-2.9,6.8v76.5l-2.9,6.8h-25.8l-2.9-6.8v-76.5l-2.9-6.8h15.8l-2.9,6.8v73.3h11.5
			V1237.9z"/>
		<path class="st0" d="M1037.5,1231.1v12.9l-6.8-2.9h-15.5v70.1h15.5l6.8-2.9l-2.9,12.9H1008l-2.9-6.8v-76.5l2.9-6.8H1037.5z"/>
		<path class="st0" d="M1068.8,1314.4l2.9,6.8h-15.8l2.9-6.8v-73.3h-6.7l-6.8,2.9v-12.9h37.2v12.9l-6.9-2.9h-6.7V1314.4z"/>
		<path class="st0" d="M1121.7,1321.2h-28.7l-2.9-6.8v-76.5l2.9-6.8h28.7l2.9,6.8v76.5L1121.7,1321.2z M1114.6,1241.1h-14.3v70.1
			h14.3V1241.1z"/>
		<path class="st0" d="M1156.9,1266.1h-19.5l-2.9-6.8v-21.4l2.9-6.8h26.7v12.9l-6.8-2.9h-12.7v15h19.5l2.9,6.8v51.5l-2.9,6.8h-26.7
			l-2.9-6.8v-38.2h12.9l-2.9,6.8v28.2h12.3V1266.1z"/>
		<path class="st0" d="M1198.9,1231.1h34.4l2.9,6.8v76.5l-2.9,6.8h-34.4l2.9-6.8v-76.5L1198.9,1231.1z M1211.7,1241.1v70.1h14.3
			v-70.1H1211.7z"/>
		<path class="st0" d="M1243.8,1321.2l2.9-6.8v-76.5l-2.9-6.8h32.4v12.9l-6.8-2.9h-12.7v15h10.7l6.8-2.9v15.8l-6.8-2.9h-10.7v45.1
			h12.7l6.8-2.9l-2.9,12.9H1243.8z"/>
		<path class="st0" d="M1306.3,1266.1h-19.5l-2.9-6.8v-21.4l2.9-6.8h26.7v12.9l-6.8-2.9H1294v15h19.5l2.9,6.8v51.5l-2.9,6.8h-26.7
			l-2.9-6.8v-38.2h12.9l-2.9,6.8v28.2h12.3V1266.1z"/>
		<path class="st0" d="M1344.3,1314.4l2.9,6.8h-15.8l2.9-6.8v-73.3h-6.7l-6.8,2.9v-12.9h37.2v12.9l-6.9-2.9h-6.7V1314.4z"/>
		<path class="st0" d="M1375.9,1321.2h-15.8l4.1-6.8l13.9-79.6l-2.2-3.7h15.6l-2.2,3.7l13.9,79.6l4.1,6.8h-15.8l1.8-6.8l-5-28.2
			h-9.3l-4.8,28.2L1375.9,1321.2z M1380.9,1276.2h5.7l-2.9-16.4L1380.9,1276.2z"/>
		<path class="st0" d="M1445.3,1231.1v12.9l-6.8-2.9h-15.5v70.1h15.5l6.8-2.9l-2.9,12.9h-26.7l-2.9-6.8v-76.5l2.9-6.8H1445.3z"/>
		<path class="st0" d="M1465.4,1321.2h-15.8l4.1-6.8l13.9-79.6l-2.2-3.7h15.6l-2.2,3.7l13.9,79.6l4.1,6.8h-15.8l1.8-6.8l-5-28.2
			h-9.3l-4.8,28.2L1465.4,1321.2z M1470.4,1276.2h5.7l-2.9-16.4L1470.4,1276.2z"/>
		<path class="st0" d="M1502.3,1231.1h34.4l2.9,6.8v76.5l-2.9,6.8h-34.4l2.9-6.8v-76.5L1502.3,1231.1z M1515.2,1241.1v70.1h14.3
			v-70.1H1515.2z"/>
		<path class="st0" d="M1581,1321.2h-28.7l-2.9-6.8v-76.5l2.9-6.8h28.7l2.9,6.8v76.5L1581,1321.2z M1573.9,1241.1h-14.3v70.1h14.3
			V1241.1z"/>
		<path class="st0" d="M1616.2,1266.1h-19.5l-2.9-6.8v-21.4l2.9-6.8h26.7v12.9l-6.8-2.9h-12.7v15h19.5l2.9,6.8v51.5l-2.9,6.8h-26.7
			l-2.9-6.8v-38.2h12.9l-2.9,6.8v28.2h12.3V1266.1z"/>
	</g>
	<g>
		<path class="st1" d="M796.9,1311.4l2.9,6.8H784l2.9-6.8v-76.5l-2.9-6.8h34.4l2.9,6.8v21.4l-2.9,6.8h-21.5V1311.4z M796.9,1238.1
			v15h14.3v-15H796.9z"/>
		<path class="st1" d="M862.2,1311.4l4,6.8h-15.8l1.8-6.8l-7.6-48.3h-2.8v48.3l2.9,6.8h-15.8l2.9-6.8v-76.5l-2.9-6.8h34.4l2.9,6.8
			v21.4l-2.9,6.8h-8.7L862.2,1311.4z M841.8,1238.1v15h14.3v-15H841.8z"/>
		<path class="st1" d="M907.6,1318.2H879l-2.9-6.8v-76.5l2.9-6.8h28.7l2.9,6.8v76.5L907.6,1318.2z M900.5,1238.1h-14.3v70.1h14.3
			V1238.1z"/>
		<path class="st1" d="M918.2,1228.1h34.4l2.9,6.8v76.5l-2.9,6.8h-34.4l2.9-6.8v-76.5L918.2,1228.1z M931.1,1238.1v70.1h14.3v-70.1
			H931.1z"/>
		<path class="st1" d="M987.5,1234.9l-2.9-6.8h15.8l-2.9,6.8v76.5l-2.9,6.8h-25.8l-2.9-6.8v-76.5l-2.9-6.8h15.8l-2.9,6.8v73.3h11.5
			V1234.9z"/>
		<path class="st1" d="M1040.5,1228.1v12.9l-6.8-2.9h-15.5v70.1h15.5l6.8-2.9l-2.9,12.9H1011l-2.9-6.8v-76.5l2.9-6.8H1040.5z"/>
		<path class="st1" d="M1071.8,1311.4l2.9,6.8h-15.8l2.9-6.8v-73.3h-6.7l-6.8,2.9v-12.9h37.2v12.9l-6.9-2.9h-6.7V1311.4z"/>
		<path class="st1" d="M1124.7,1318.2h-28.7l-2.9-6.8v-76.5l2.9-6.8h28.7l2.9,6.8v76.5L1124.7,1318.2z M1117.6,1238.1h-14.3v70.1
			h14.3V1238.1z"/>
		<path class="st1" d="M1159.9,1263.1h-19.5l-2.9-6.8v-21.4l2.9-6.8h26.7v12.9l-6.8-2.9h-12.7v15h19.5l2.9,6.8v51.5l-2.9,6.8h-26.7
			l-2.9-6.8v-38.2h12.9l-2.9,6.8v28.2h12.3V1263.1z"/>
		<path class="st1" d="M1201.9,1228.1h34.4l2.9,6.8v76.5l-2.9,6.8h-34.4l2.9-6.8v-76.5L1201.9,1228.1z M1214.7,1238.1v70.1h14.3
			v-70.1H1214.7z"/>
		<path class="st1" d="M1246.8,1318.2l2.9-6.8v-76.5l-2.9-6.8h32.4v12.9l-6.8-2.9h-12.7v15h10.7l6.8-2.9v15.8l-6.8-2.9h-10.7v45.1
			h12.7l6.8-2.9l-2.9,12.9H1246.8z"/>
		<path class="st1" d="M1309.3,1263.1h-19.5l-2.9-6.8v-21.4l2.9-6.8h26.7v12.9l-6.8-2.9H1297v15h19.5l2.9,6.8v51.5l-2.9,6.8h-26.7
			l-2.9-6.8v-38.2h12.9l-2.9,6.8v28.2h12.3V1263.1z"/>
		<path class="st1" d="M1347.3,1311.4l2.9,6.8h-15.8l2.9-6.8v-73.3h-6.7l-6.8,2.9v-12.9h37.2v12.9l-6.9-2.9h-6.7V1311.4z"/>
		<path class="st1" d="M1378.9,1318.2h-15.8l4.1-6.8l13.9-79.6l-2.2-3.7h15.6l-2.2,3.7l13.9,79.6l4.1,6.8h-15.8l1.8-6.8l-5-28.2
			h-9.3l-4.8,28.2L1378.9,1318.2z M1383.9,1273.2h5.7l-2.9-16.4L1383.9,1273.2z"/>
		<path class="st1" d="M1448.3,1228.1v12.9l-6.8-2.9h-15.5v70.1h15.5l6.8-2.9l-2.9,12.9h-26.7l-2.9-6.8v-76.5l2.9-6.8H1448.3z"/>
		<path class="st1" d="M1468.4,1318.2h-15.8l4.1-6.8l13.9-79.6l-2.2-3.7h15.6l-2.2,3.7l13.9,79.6l4.1,6.8h-15.8l1.8-6.8l-5-28.2
			h-9.3l-4.8,28.2L1468.4,1318.2z M1473.4,1273.2h5.7l-2.9-16.4L1473.4,1273.2z"/>
		<path class="st1" d="M1505.3,1228.1h34.4l2.9,6.8v76.5l-2.9,6.8h-34.4l2.9-6.8v-76.5L1505.3,1228.1z M1518.2,1238.1v70.1h14.3
			v-70.1H1518.2z"/>
		<path class="st1" d="M1584,1318.2h-28.7l-2.9-6.8v-76.5l2.9-6.8h28.7l2.9,6.8v76.5L1584,1318.2z M1576.9,1238.1h-14.3v70.1h14.3
			V1238.1z"/>
		<path class="st1" d="M1619.2,1263.1h-19.5l-2.9-6.8v-21.4l2.9-6.8h26.7v12.9l-6.8-2.9h-12.7v15h19.5l2.9,6.8v51.5l-2.9,6.8h-26.7
			l-2.9-6.8v-38.2h12.9l-2.9,6.8v28.2h12.3V1263.1z"/>
	</g>
</g>
</svg>
