<?xml version="1.0" encoding="utf-8"?>
<!-- Generator: Adobe Illustrator 19.1.0, SVG Export Plug-In . SVG Version: 6.00 Build 0)  -->
<svg version="1.1" id="Layer_1" xmlns="http://www.w3.org/2000/svg" xmlns:xlink="http://www.w3.org/1999/xlink" x="0px" y="0px"
	 viewBox="211.5 1278.8 321.7 160.1" style="enable-background:new 211.5 1278.8 321.7 160.1;" xml:space="preserve">
<style type="text/css">
	.st0{fill:#6F1717;}
	.st1{fill:#D66F87;}
	.st2{fill:#711B1D;}
	.st3{fill:#FFFFFF;}
</style>
<g>
	<path class="st0" d="M519.8,1438.9h-295c-7.4,0-13.3-6.1-13.3-13.6v-132.9c0-7.5,6-13.6,13.3-13.6h295c7.4,0,13.3,6.1,13.3,13.6
		v132.9C533.1,1432.8,527.2,1438.9,519.8,1438.9z"/>
	<g id="_x31_V7nqP.tif_12_">
		<g>
			<path class="st3" d="M245,1288.7c94.7,0,159.4,0,254,0c0,5.5,0,11.1,0,16.6c2.2,0,3.9,0,6.1,0c0-2.7,0-5.3,0-7.8
				c3.7,0,7.1,0,10.6,0c0,3.4,0,6.7,0,10.3c-2.8,0-5.6,0-8.4,0c0,2.1,0,4,0,6.1c5.7,0,11.2,0,16.8,0c0,46.9,0,43.8,0,90.8
				c-5.5,0-11.1,0-16.6,0c0,2.1,0,3.9,0,6.1c2.7,0,5.2,0,7.8,0c0,3.8,0,7.2,0,10.7c-3.5,0-6.7,0-10.3,0c0-2.9,0-5.6,0-8.4
				c-2.1,0-4,0-6,0c0,5.7,0,11.2,0,16.7c-94.7,0-159.4,0-254,0c0-5.5,0-11,0-16.5c-2.1,0-3.9,0-6.1,0c0,2.7,0,5.3,0,7.8
				c-3.7,0-7.1,0-10.6,0c0-3.5,0-6.7,0-10.3c2.9,0,5.6,0,8.4,0c0-2.2,0-4,0-6.2c-5.7,0-11.1,0-16.5,0c0-46.9,0-43.5,0-90.5
				c5.5,0,10.9,0,16.2,0c0-2.2,0-4,0-6.2c-2.8,0-5.3,0-7.8,0c0-3.7,0-7.1,0-10.6c3.4,0,6.7,0,10.3,0c0,2.8,0,5.6,0,8.4
				c2.2,0,4,0,6.1,0C245,1299.7,245,1294.2,245,1288.7z M247.4,1427c93.3,0,156.3,0,249.5,0c0-5.5,0-10.8,0-16.4c2.9,0,5.5,0,8.4,0
				c0-2.9,0-5.5,0-8.5c5.6,0,11,0,16.3,0c0-45.5,0-40.6,0-86c-5.5,0-10.9,0-16.5,0c0-3,0-5.6,0-8.5c-2.9,0-5.5,0-8.3,0
				c0-5.6,0-10.9,0-16.3c-93.3,0-156.3,0-249.5,0c0,5.5,0,10.8,0,16.4c-2.9,0-5.5,0-8.4,0c0,2.9,0,5.5,0,8.5c-5.6,0-11,0-16.3,0
				c0,45.5,0,40.6,0,86c5.5,0,10.9,0,16.5,0c0,3,0,5.6,0,8.5c2.9,0,5.5,0,8.3,0C247.4,1416.4,247.4,1421.7,247.4,1427z
				 M230.7,1305.3c2.1,0,3.9,0,5.8,0c0-2.2,0-4.1,0-6.1c-2,0-3.8,0-5.8,0C230.7,1301.3,230.7,1303.2,230.7,1305.3z M507.5,1419.1
				c2.1,0,3.9,0,5.8,0c0-2.1,0-4,0-6.1c-2,0-3.9,0-5.8,0C507.5,1415.1,507.5,1417,507.5,1419.1z M236.8,1418.7c0-2,0-3.8,0-5.6
				c-2.2,0-4.2,0-6.3,0c0,2,0,3.7,0,5.6C232.6,1418.7,234.5,1418.7,236.8,1418.7z M513.5,1299.7c-2.1,0-4.2,0-6.2,0c0,2,0,3.8,0,5.7
				c2.2,0,4.1,0,6.2,0C513.5,1303.4,513.5,1301.6,513.5,1299.7z"/>
		</g>
	</g>
</g>
<g>
	<g>
		<path class="st1" d="M287.8,1351.8h-19.5l-2.9-6.8v-21.4l2.9-6.8H295v12.9l-6.9-2.9h-12.7v15h19.5l2.9,6.8v51.5l-2.9,6.8h-26.6
			l-2.9-6.8v-38.2h12.9l-2.9,6.8v28.2h12.3v-45.1H287.8z"/>
		<path class="st1" d="M339.2,1406.9h-28.6l-2.9-6.8v-66.4l2.9-6.8h28.7l2.9,6.8v66.5L339.2,1406.9z M332.1,1336.9h-14.4v60.1H332
			v-60.1H332.1z"/>
		<path class="st1" d="M362.7,1400.1l2.9,6.8h-15.8l2.9-6.8v-66.4l-2.9-6.9h34.4l2.9,6.8v21.4l-2.9,6.8h-21.5V1400.1z M362.7,1336.9
			v15H377v-15C377,1336.9,362.7,1336.9,362.7,1336.9z"/>
		<path class="st1" d="M402.8,1406.9H387l4.2-6.8l13-66.5l-1.4-6.8h15.6l-1.4,6.8l13,66.5l4.2,6.8h-15.8l1.5-6.8l-3.5-18.2h-11.7
			l-3.5,18.2L402.8,1406.9z M406.8,1371.9h7.7l-3.9-19.6L406.8,1371.9z"/>
		<path class="st1" d="M462.1,1361.9h-19.5l-2.9-6.8v-21.4l2.9-6.8h26.7v12.9l-6.8-2.9h-12.7v15h19.5l2.9,6.8v41.4l-2.9,6.8h-26.7
			l-2.9-6.8v-28.2h12.9l-2.9,6.8v18.2H462v-35H462.1z"/>
	</g>
	<g>
		<path class="st2" d="M291.8,1348.8h-19.5l-2.9-6.8v-21.4l2.9-6.8H299v12.9l-6.9-2.9h-12.7v15h19.5l2.9,6.8v51.5l-2.9,6.8h-26.6
			l-2.9-6.8v-38.2h12.9l-2.9,6.8v28.2h12.3v-45.1H291.8z"/>
		<path class="st2" d="M343.2,1403.9h-28.6l-2.9-6.8v-66.4l2.9-6.8h28.7l2.9,6.8v66.5L343.2,1403.9z M336.1,1333.9h-14.4v60.1H336
			v-60.1H336.1z"/>
		<path class="st2" d="M366.7,1397.1l2.9,6.8h-15.8l2.9-6.8v-66.4l-2.9-6.9h34.4l2.9,6.8v21.4l-2.9,6.8h-21.5V1397.1z M366.7,1333.9
			v15H381v-15C381,1333.9,366.7,1333.9,366.7,1333.9z"/>
		<path class="st2" d="M406.8,1403.9H391l4.2-6.8l13-66.5l-1.4-6.8h15.6l-1.4,6.8l13,66.5l4.2,6.8h-15.8l1.5-6.8l-3.5-18.2h-11.7
			l-3.5,18.2L406.8,1403.9z M410.8,1368.9h7.7l-3.9-19.6L410.8,1368.9z"/>
		<path class="st2" d="M466.1,1358.9h-19.5l-2.9-6.8v-21.4l2.9-6.8h26.7v12.9l-6.8-2.9h-12.7v15h19.5l2.9,6.8v41.4l-2.9,6.8h-26.7
			l-2.9-6.8v-28.2h12.9l-2.9,6.8v18.2H466v-35H466.1z"/>
	</g>
	<g>
		<path class="st3" d="M294.8,1345.8h-19.5l-2.9-6.8v-21.4l2.9-6.8H302v12.9l-6.9-2.9h-12.7v15h19.5l2.9,6.8v51.5l-2.9,6.8h-26.6
			l-2.9-6.8v-38.2h12.9l-2.9,6.8v28.2h12.3v-45.1H294.8z"/>
		<path class="st3" d="M346.2,1400.9h-28.6l-2.9-6.8v-66.4l2.9-6.8h28.7l2.9,6.8v66.5L346.2,1400.9z M339.1,1330.9h-14.4v60.1H339
			v-60.1H339.1z"/>
		<path class="st3" d="M369.7,1394.1l2.9,6.8h-15.8l2.9-6.8v-66.4l-2.9-6.9h34.4l2.9,6.8v21.4l-2.9,6.8h-21.5
			C369.7,1355.8,369.7,1394.1,369.7,1394.1z M369.7,1330.9v15H384v-15C384,1330.9,369.7,1330.9,369.7,1330.9z"/>
		<path class="st3" d="M409.8,1400.9H394l4.2-6.8l13-66.5l-1.4-6.8h15.6l-1.4,6.8l13,66.5l4.2,6.8h-15.8l1.5-6.8l-3.5-18.2h-11.7
			l-3.5,18.2L409.8,1400.9z M413.8,1365.9h7.7l-3.9-19.6L413.8,1365.9z"/>
		<path class="st3" d="M469.1,1355.9h-19.5l-2.9-6.8v-21.4l2.9-6.8h26.7v12.9l-6.8-2.9h-12.7v15h19.5l2.9,6.8v41.4l-2.9,6.8h-26.7
			l-2.9-6.8v-28.2h12.9l-2.9,6.8v18.2H469v-35H469.1z"/>
	</g>
</g>
</svg>
