<?xml version="1.0" encoding="utf-8"?>
<!-- Generator: Adobe Illustrator 19.1.0, SVG Export Plug-In . SVG Version: 6.00 Build 0)  -->
<svg version="1.1" id="Layer_1" xmlns="http://www.w3.org/2000/svg" xmlns:xlink="http://www.w3.org/1999/xlink" x="0px" y="0px"
	 viewBox="166.4 333.9 411.7 160.1" style="enable-background:new 166.4 333.9 411.7 160.1;" xml:space="preserve">
<style type="text/css">
	.st0{fill:#6F1717;}
	.st1{fill:#D66F87;}
	.st2{fill:#711B1D;}
	.st3{fill:#FFFFFF;}
</style>
<path class="st0" d="M564.8,494.1h-385c-7.4,0-13.3-6.1-13.3-13.6V347.6c0-7.5,6-13.6,13.3-13.6h385c7.4,0,13.3,6.1,13.3,13.6v132.9
	C578.1,488,572.1,494.1,564.8,494.1z"/>
<g>
	<g>
		<path class="st1" d="M253.4,404v51.5l-2.9,6.8h-34.3l2.9-6.8V379l-2.9-6.8h34.4l2.9,6.8v21.4l-2.9,1.9L253.4,404z M229.1,382.2v15
			h14.3v-15H229.1z M229.1,452.3h14.3v-45.1h-14.3V452.3z"/>
		<path class="st1" d="M292.7,462.3H264l-2.8-6.8v-66.4l2.9-6.8h28.7l2.9,6.8v66.5L292.7,462.3z M285.5,392.3h-14.3v60.1h14.3V392.3
			z"/>
		<path class="st1" d="M326.8,455.5l2.9,6.8h-15.8l2.9-6.8v-63.2h-6.7l-6.8,2.9v-13h37.2v12.9l-6.9-2.9h-6.7v63.3H326.8z"/>
		<path class="st1" d="M356.3,462.3h-15.8l4.2-6.8l13-66.5l-1.4-6.8h15.6l-1.4,6.8l13,66.5l4.2,6.8h-15.8l1.5-6.8l-3.5-18.2h-11.7
			l-3.5,18.2L356.3,462.3z M360.2,427.3h7.7l-3.9-19.6L360.2,427.3z"/>
		<path class="st1" d="M430.4,389.1v66.5l2.9,6.8h-15.8l1.7-4l-13.1-43.2v40.3l2.9,6.8h-15.8l2.9-6.8v-66.4l-2.9-6.9h12.9l14.3,47.2
			v-40.3l-2.9-6.8h15.8L430.4,389.1z"/>
		<path class="st1" d="M454.6,462.3h-15.8l4.2-6.8l13-66.5l-1.4-6.8h15.6l-1.4,6.8l13,66.5l4.2,6.8h-15.8l1.5-6.8l-3.5-18.2h-11.7
			l-3.5,18.2L454.6,462.3z M458.5,427.3h7.7l-3.9-19.6L458.5,427.3z"/>
		<path class="st1" d="M513.9,417.3h-19.5l-2.9-6.8v-21.4l2.9-6.8h26.7v12.9l-6.8-2.9h-12.7v15h19.5l2.9,6.8v41.4l-2.9,6.8h-26.7
			l-2.9-6.8v-28.2h12.9l-2.9,6.8v18.2h12.3v-35H513.9z"/>
	</g>
	<g>
		<path class="st2" d="M257.4,401v51.5l-2.9,6.8h-34.3l2.9-6.8V376l-2.9-6.8h34.4l2.9,6.8v21.4l-2.9,1.9L257.4,401z M233.1,379.2v15
			h14.3v-15H233.1z M233.1,449.3h14.3v-45.1h-14.3V449.3z"/>
		<path class="st2" d="M296.7,459.3H268l-2.8-6.8v-66.4l2.9-6.8h28.7l2.9,6.8v66.5L296.7,459.3z M289.5,389.3h-14.3v60.1h14.3V389.3
			z"/>
		<path class="st2" d="M330.8,452.5l2.9,6.8h-15.8l2.9-6.8v-63.2h-6.7l-6.8,2.9v-13h37.2v12.9l-6.9-2.9h-6.7v63.3H330.8z"/>
		<path class="st2" d="M360.3,459.3h-15.8l4.2-6.8l13-66.5l-1.4-6.8h15.6l-1.4,6.8l13,66.5l4.2,6.8h-15.8l1.5-6.8l-3.5-18.2h-11.7
			l-3.5,18.2L360.3,459.3z M364.2,424.3h7.7l-3.9-19.6L364.2,424.3z"/>
		<path class="st2" d="M434.4,386.1v66.5l2.9,6.8h-15.8l1.7-4l-13.1-43.2v40.3l2.9,6.8h-15.8l2.9-6.8v-66.4l-2.9-6.9h12.9l14.3,47.2
			v-40.3l-2.9-6.8h15.8L434.4,386.1z"/>
		<path class="st2" d="M458.6,459.3h-15.8l4.2-6.8l13-66.5l-1.4-6.8h15.6l-1.4,6.8l13,66.5l4.2,6.8h-15.8l1.5-6.8l-3.5-18.2h-11.7
			l-3.5,18.2L458.6,459.3z M462.5,424.3h7.7l-3.9-19.6L462.5,424.3z"/>
		<path class="st2" d="M517.9,414.3h-19.5l-2.9-6.8v-21.4l2.9-6.8h26.7v12.9l-6.8-2.9h-12.7v15h19.5l2.9,6.8v41.4l-2.9,6.8h-26.7
			l-2.9-6.8v-28.2h12.9l-2.9,6.8v18.2h12.3v-35H517.9z"/>
	</g>
	<g>
		<path class="st3" d="M260.4,398v51.5l-2.9,6.8h-34.3l2.9-6.8V373l-2.9-6.8h34.4l2.9,6.8v21.4l-2.9,1.9L260.4,398z M236.1,376.2v15
			h14.3v-15H236.1z M236.1,446.3h14.3v-45.1h-14.3V446.3z"/>
		<path class="st3" d="M299.7,456.3H271l-2.8-6.8v-66.4l2.9-6.8h28.7l2.9,6.8v66.5L299.7,456.3z M292.5,386.3h-14.3v60.1h14.3V386.3
			z"/>
		<path class="st3" d="M333.8,449.5l2.9,6.8h-15.8l2.9-6.8v-63.2h-6.7l-6.8,2.9v-13h37.2v12.9l-6.9-2.9h-6.7v63.3H333.8z"/>
		<path class="st3" d="M363.3,456.3h-15.8l4.2-6.8l13-66.5l-1.4-6.8h15.6l-1.4,6.8l13,66.5l4.2,6.8h-15.8l1.5-6.8l-3.5-18.2h-11.7
			l-3.5,18.2L363.3,456.3z M367.2,421.3h7.7l-3.9-19.6L367.2,421.3z"/>
		<path class="st3" d="M437.4,383.1v66.5l2.9,6.8h-15.8l1.7-4l-13.1-43.2v40.3l2.9,6.8h-15.8l2.9-6.8v-66.4l-2.9-6.9h12.9l14.3,47.2
			v-40.3l-2.9-6.8h15.8L437.4,383.1z"/>
		<path class="st3" d="M461.6,456.3h-15.8l4.2-6.8l13-66.5l-1.4-6.8h15.6l-1.4,6.8l13,66.5l4.2,6.8h-15.8l1.5-6.8l-3.5-18.2h-11.7
			l-3.5,18.2L461.6,456.3z M465.5,421.3h7.7l-3.9-19.6L465.5,421.3z"/>
		<path class="st3" d="M520.9,411.3h-19.5l-2.9-6.8v-21.4l2.9-6.8h26.7v12.9l-6.8-2.9h-12.7v15h19.5l2.9,6.8v41.4l-2.9,6.8h-26.7
			l-2.9-6.8v-28.2h12.9l-2.9,6.8v18.2h12.3v-35H520.9z"/>
	</g>
</g>
<g id="_x31_V7nqP.tif_3_">
	<g>
		<path class="st3" d="M200,343.9c94.7,0,249.4,0,344,0c0,5.5,0,11.1,0,16.6c2.2,0,3.9,0,6.1,0c0-2.7,0-5.3,0-7.8
			c3.7,0,7.1,0,10.6,0c0,3.4,0,6.7,0,10.3c-2.8,0-5.6,0-8.4,0c0,2.1,0,4,0,6.1c5.7,0,11.2,0,16.8,0c0,46.9,0,43.8,0,90.8
			c-5.5,0-11.1,0-16.6,0c0,2.1,0,3.9,0,6.1c2.7,0,5.2,0,7.8,0c0,3.8,0,7.2,0,10.7c-3.5,0-6.7,0-10.3,0c0-2.9,0-5.6,0-8.4
			c-2.1,0-4,0-6,0c0,5.7,0,11.2,0,16.7c-94.7,0-249.4,0-344,0c0-5.5,0-11,0-16.5c-2.1,0-3.9,0-6.1,0c0,2.7,0,5.3,0,7.8
			c-3.7,0-7.1,0-10.6,0c0-3.5,0-6.7,0-10.3c2.9,0,5.6,0,8.4,0c0-2.2,0-4,0-6.2c-5.7,0-11.1,0-16.5,0c0-46.9,0-43.5,0-90.5
			c5.5,0,10.9,0,16.2,0c0-2.2,0-4,0-6.2c-2.8,0-5.3,0-7.8,0c0-3.7,0-7.1,0-10.6c3.4,0,6.7,0,10.3,0c0,2.8,0,5.6,0,8.4
			c2.2,0,4,0,6.1,0C200,354.9,200,349.4,200,343.9z M202.3,482.2c93.3,0,246.3,0,339.5,0c0-5.5,0-10.8,0-16.4c2.9,0,5.5,0,8.4,0
			c0-2.9,0-5.5,0-8.5c5.6,0,11,0,16.3,0c0-45.5,0-40.6,0-86c-5.5,0-10.9,0-16.5,0c0-3,0-5.6,0-8.5c-2.9,0-5.5,0-8.3,0
			c0-5.6,0-10.9,0-16.3c-93.3,0-246.3,0-339.5,0c0,5.5,0,10.8,0,16.4c-2.9,0-5.5,0-8.4,0c0,2.9,0,5.5,0,8.5c-5.6,0-11,0-16.3,0
			c0,45.5,0,40.6,0,86c5.5,0,10.9,0,16.5,0c0,3,0,5.6,0,8.5c2.9,0,5.5,0,8.3,0C202.3,471.5,202.3,476.8,202.3,482.2z M185.7,360.5
			c2.1,0,3.9,0,5.8,0c0-2.2,0-4.1,0-6.1c-2,0-3.8,0-5.8,0C185.7,356.5,185.7,358.4,185.7,360.5z M552.4,474.3c2.1,0,3.9,0,5.8,0
			c0-2.1,0-4,0-6.1c-2,0-3.9,0-5.8,0C552.4,470.3,552.4,472.1,552.4,474.3z M191.7,473.9c0-2,0-3.8,0-5.6c-2.2,0-4.2,0-6.3,0
			c0,2,0,3.7,0,5.6C187.5,473.9,189.5,473.9,191.7,473.9z M558.5,354.8c-2.1,0-4.2,0-6.2,0c0,2,0,3.8,0,5.7c2.2,0,4.1,0,6.2,0
			C558.5,358.6,558.5,356.8,558.5,354.8z"/>
	</g>
</g>
</svg>
