<?xml version="1.0" encoding="utf-8"?>
<!-- Generator: Adobe Illustrator 19.1.0, SVG Export Plug-In . SVG Version: 6.00 Build 0)  -->
<svg version="1.1" id="Layer_1" xmlns="http://www.w3.org/2000/svg" xmlns:xlink="http://www.w3.org/1999/xlink" x="0px" y="0px"
	 viewBox="151.4 695.7 431.7 160.1" style="enable-background:new 151.4 695.7 431.7 160.1;" xml:space="preserve">
<style type="text/css">
	.st0{fill:#6F1717;}
	.st1{fill:#D66F87;}
	.st2{fill:#711B1D;}
	.st3{fill:#FFFFFF;}
</style>
<g>
	<g>
		<path class="st0" d="M569.7,855.8h-405c-7.4,0-13.3-6.1-13.3-13.6V709.3c0-7.5,6-13.6,13.3-13.6h405c7.4,0,13.3,6.1,13.3,13.6
			v132.9C583,849.7,577.1,855.8,569.7,855.8z"/>
		<g id="_x31_V7nqP.tif_5_">
			<g>
				<path class="st3" d="M184.9,705.7c94.7,0,269.4,0,364,0c0,5.5,0,11.1,0,16.6c2.2,0,3.9,0,6.1,0c0-2.7,0-5.3,0-7.8
					c3.7,0,7.1,0,10.6,0c0,3.4,0,6.7,0,10.3c-2.8,0-5.6,0-8.4,0c0,2.1,0,4,0,6.1c5.7,0,11.2,0,16.8,0c0,46.9,0,43.8,0,90.8
					c-5.5,0-11.1,0-16.6,0c0,2.1,0,3.9,0,6.1c2.7,0,5.2,0,7.8,0c0,3.8,0,7.2,0,10.7c-3.5,0-6.7,0-10.3,0c0-2.9,0-5.6,0-8.4
					c-2.1,0-4,0-6,0c0,5.7,0,11.2,0,16.7c-94.7,0-269.4,0-364,0c0-5.5,0-11,0-16.5c-2.1,0-3.9,0-6.1,0c0,2.7,0,5.3,0,7.8
					c-3.7,0-7.1,0-10.6,0c0-3.5,0-6.7,0-10.3c2.9,0,5.6,0,8.4,0c0-2.2,0-4,0-6.2c-5.7,0-11.1,0-16.5,0c0-46.9,0-43.5,0-90.5
					c5.5,0,10.9,0,16.2,0c0-2.2,0-4,0-6.2c-2.8,0-5.3,0-7.8,0c0-3.7,0-7.1,0-10.6c3.4,0,6.7,0,10.3,0c0,2.8,0,5.6,0,8.4
					c2.2,0,4,0,6.1,0C184.9,716.7,184.9,711.2,184.9,705.7z M187.3,844c93.3,0,266.3,0,359.5,0c0-5.5,0-10.8,0-16.4
					c2.9,0,5.5,0,8.4,0c0-2.9,0-5.5,0-8.5c5.6,0,11,0,16.3,0c0-45.5,0-40.6,0-86c-5.5,0-10.9,0-16.5,0c0-3,0-5.6,0-8.5
					c-2.9,0-5.5,0-8.3,0c0-5.6,0-10.9,0-16.3c-93.3,0-266.3,0-359.5,0c0,5.5,0,10.8,0,16.4c-2.9,0-5.5,0-8.4,0c0,2.9,0,5.5,0,8.5
					c-5.6,0-11,0-16.3,0c0,45.5,0,40.6,0,86c5.5,0,10.9,0,16.5,0c0,3,0,5.6,0,8.5c2.9,0,5.5,0,8.3,0
					C187.3,833.3,187.3,838.6,187.3,844z M170.6,722.3c2.1,0,3.9,0,5.8,0c0-2.2,0-4.1,0-6.1c-2,0-3.8,0-5.8,0
					C170.6,718.3,170.6,720.2,170.6,722.3z M557.4,836c2.1,0,3.9,0,5.8,0c0-2.1,0-4,0-6.1c-2,0-3.9,0-5.8,0
					C557.4,832,557.4,833.9,557.4,836z M176.7,835.7c0-2,0-3.8,0-5.6c-2.2,0-4.2,0-6.3,0c0,2,0,3.7,0,5.6
					C172.5,835.7,174.4,835.7,176.7,835.7z M563.4,716.6c-2.1,0-4.2,0-6.2,0c0,2,0,3.8,0,5.7c2.2,0,4.1,0,6.2,0
					C563.4,720.3,563.4,718.5,563.4,716.6z"/>
			</g>
		</g>
	</g>
	<g>
		<g>
			<path class="st1" d="M239.5,765.5V817l-2.9,6.8h-34.3l2.9-6.8v-76.5l-2.9-6.8h34.4l2.9,6.8v21.4l-2.9,1.9L239.5,765.5z
				 M215.2,743.7v15h14.3v-15H215.2z M215.2,813.8h14.3v-45.1h-14.3V813.8z"/>
			<path class="st1" d="M271.6,750.6l-2.9-6.9h15.8l-2.9,6.8V817l-2.9,6.8H253l-2.9-6.8v-66.4l-2.8-6.9h15.8l-2.9,6.8v63.3h11.5
				v-63.2H271.6z"/>
			<path class="st1" d="M323.3,817l4,6.8h-15.8l1.8-6.8l-6.1-38.2h-4.3V817l2.9,6.8H290l2.9-6.8v-66.4l-2.9-6.9h34.4l2.9,6.8v21.4
				l-2.9,6.8h-7.2L323.3,817z M302.9,753.8v15h14.3v-15C317.2,753.8,302.9,753.8,302.9,753.8z"/>
			<path class="st1" d="M368.3,817l4,6.8h-15.8l1.8-6.8l-6.1-38.2h-4.3V817l2.9,6.8H335l2.9-6.8v-66.4l-2.9-6.8h34.4l2.9,6.8V772
				l-2.9,6.8h-7.2L368.3,817z M347.9,753.8v15h14.3v-15C362.2,753.8,347.9,753.8,347.9,753.8z"/>
			<path class="st1" d="M392.8,750.6v66.5l2.9,6.8h-15.8l2.9-6.8v-66.5l-2.9-6.8h15.8L392.8,750.6z"/>
			<path class="st1" d="M427,817l2.9,6.8h-15.8l2.9-6.8v-63.2h-6.7l-6.8,2.9v-13h37.2v12.9l-6.9-2.9h-6.7V817H427z"/>
			<path class="st1" d="M479.9,823.8h-28.7l-2.9-6.8v-66.4l2.9-6.8h28.7l2.9,6.8v66.5L479.9,823.8z M472.7,753.8h-14.3v60.1h14.3
				V753.8z"/>
			<path class="st1" d="M515,778.8h-19.5l-2.9-6.8v-21.4l2.9-6.8h26.7v12.9l-6.8-2.9h-12.7v15h19.5l2.9,6.8V817l-2.9,6.8h-26.7
				l-2.9-6.8v-28.2h12.9l-2.9,6.8v18.2h12.3v-35H515z"/>
		</g>
		<g>
			<path class="st2" d="M243.5,762.5V814l-2.9,6.8h-34.3l2.9-6.8v-76.5l-2.9-6.8h34.4l2.9,6.8v21.4l-2.9,1.9L243.5,762.5z
				 M219.2,740.7v15h14.3v-15H219.2z M219.2,810.8h14.3v-45.1h-14.3V810.8z"/>
			<path class="st2" d="M275.6,747.6l-2.9-6.9h15.8l-2.9,6.8V814l-2.9,6.8H257l-2.9-6.8v-66.4l-2.8-6.9h15.8l-2.9,6.8v63.3h11.5
				v-63.2H275.6z"/>
			<path class="st2" d="M327.3,814l4,6.8h-15.8l1.8-6.8l-6.1-38.2h-4.3V814l2.9,6.8H294l2.9-6.8v-66.4l-2.9-6.9h34.4l2.9,6.8v21.4
				l-2.9,6.8h-7.2L327.3,814z M306.9,750.8v15h14.3v-15C321.2,750.8,306.9,750.8,306.9,750.8z"/>
			<path class="st2" d="M372.3,814l4,6.8h-15.8l1.8-6.8l-6.1-38.2h-4.3V814l2.9,6.8H339l2.9-6.8v-66.4l-2.9-6.8h34.4l2.9,6.8V769
				l-2.9,6.8h-7.2L372.3,814z M351.9,750.8v15h14.3v-15C366.2,750.8,351.9,750.8,351.9,750.8z"/>
			<path class="st2" d="M396.8,747.6v66.5l2.9,6.8h-15.8l2.9-6.8v-66.5l-2.9-6.8h15.8L396.8,747.6z"/>
			<path class="st2" d="M431,814l2.9,6.8h-15.8l2.9-6.8v-63.2h-6.7l-6.8,2.9v-13h37.2v12.9l-6.9-2.9h-6.7V814H431z"/>
			<path class="st2" d="M483.9,820.8h-28.7l-2.9-6.8v-66.4l2.9-6.8h28.7l2.9,6.8v66.5L483.9,820.8z M476.7,750.8h-14.3v60.1h14.3
				V750.8z"/>
			<path class="st2" d="M519,775.8h-19.5l-2.9-6.8v-21.4l2.9-6.8h26.7v12.9l-6.8-2.9h-12.7v15h19.5l2.9,6.8V814l-2.9,6.8h-26.7
				l-2.9-6.8v-28.2h12.9l-2.9,6.8v18.2h12.3v-35H519z"/>
		</g>
		<g>
			<path class="st3" d="M246.5,759.5V811l-2.9,6.8h-34.3l2.9-6.8v-76.5l-2.9-6.8h34.4l2.9,6.8v21.4l-2.9,1.9L246.5,759.5z
				 M222.2,737.7v15h14.3v-15H222.2z M222.2,807.8h14.3v-45.1h-14.3V807.8z"/>
			<path class="st3" d="M278.6,744.6l-2.9-6.9h15.8l-2.9,6.8V811l-2.9,6.8H260l-2.9-6.8v-66.4l-2.8-6.9h15.8l-2.9,6.8v63.3h11.5
				v-63.2H278.6z"/>
			<path class="st3" d="M330.3,811l4,6.8h-15.8l1.8-6.8l-6.1-38.2h-4.3V811l2.9,6.8H297l2.9-6.8v-66.4l-2.9-6.9h34.4l2.9,6.8v21.4
				l-2.9,6.8h-7.2L330.3,811z M309.9,747.8v15h14.3v-15C324.2,747.8,309.9,747.8,309.9,747.8z"/>
			<path class="st3" d="M375.3,811l4,6.8h-15.8l1.8-6.8l-6.1-38.2h-4.3V811l2.9,6.8H342l2.9-6.8v-66.4l-2.9-6.8h34.4l2.9,6.8V766
				l-2.9,6.8h-7.2L375.3,811z M354.9,747.8v15h14.3v-15C369.2,747.8,354.9,747.8,354.9,747.8z"/>
			<path class="st3" d="M399.8,744.6v66.5l2.9,6.8h-15.8l2.9-6.8v-66.5l-2.9-6.8h15.8L399.8,744.6z"/>
			<path class="st3" d="M434,811l2.9,6.8h-15.8l2.9-6.8v-63.2h-6.7l-6.8,2.9v-13h37.2v12.9l-6.9-2.9h-6.7V811H434z"/>
			<path class="st3" d="M486.9,817.8h-28.7l-2.9-6.8v-66.4l2.9-6.8h28.7l2.9,6.8v66.5L486.9,817.8z M479.7,747.8h-14.3v60.1h14.3
				V747.8z"/>
			<path class="st3" d="M522,772.8h-19.5l-2.9-6.8v-21.4l2.9-6.8h26.7v12.9l-6.8-2.9h-12.7v15h19.5l2.9,6.8V811l-2.9,6.8h-26.7
				l-2.9-6.8v-28.2h12.9l-2.9,6.8v18.2h12.3v-35H522z"/>
		</g>
	</g>
</g>
</svg>
