<?xml version="1.0" encoding="utf-8"?>
<!-- Generator: Adobe Illustrator 19.1.0, SVG Export Plug-In . SVG Version: 6.00 Build 0)  -->
<svg version="1.1" id="Layer_1" xmlns="http://www.w3.org/2000/svg" xmlns:xlink="http://www.w3.org/1999/xlink" x="0px" y="0px"
	 viewBox="3057.8 1115.9 671.7 160.1" style="enable-background:new 3057.8 1115.9 671.7 160.1;" xml:space="preserve">
<style type="text/css">
	.st0{fill:#CE7689;}
	.st1{fill:#6F1717;}
	.st2{fill:#FFFFFF;}
	.st3{fill:#D66F87;}
	.st4{fill:#711B1D;}
</style>
<g>
	<g>
		<path class="st1" d="M3716.1,1276h-645c-7.4,0-13.3-6.1-13.3-13.6v-132.9c0-7.5,6-13.6,13.3-13.6h645c7.4,0,13.3,6.1,13.3,13.6
			v132.9C3729.5,1269.9,3723.5,1276,3716.1,1276z"/>
	</g>
	<g id="_x31_V7nqP.tif_19_">
		<g>
			<g>
				<path class="st2" d="M3091.3,1125.8c94.7,0,509.4,0,604,0c0,5.5,0,11.1,0,16.6c2.2,0,3.9,0,6.1,0c0-2.7,0-5.3,0-7.8
					c3.7,0,7.1,0,10.6,0c0,3.4,0,6.7,0,10.3c-2.8,0-5.6,0-8.4,0c0,2.1,0,4,0,6.1c5.7,0,11.2,0,16.8,0c0,46.9,0,43.8,0,90.8
					c-5.5,0-11.1,0-16.6,0c0,2.1,0,3.9,0,6.1c2.7,0,5.2,0,7.8,0c0,3.8,0,7.2,0,10.7c-3.5,0-6.7,0-10.3,0c0-2.9,0-5.6,0-8.4
					c-2.1,0-4,0-6,0c0,5.7,0,11.2,0,16.7c-94.7,0-509.4,0-604,0c0-5.5,0-11,0-16.5c-2.1,0-3.9,0-6.1,0c0,2.7,0,5.3,0,7.8
					c-3.7,0-7.1,0-10.6,0c0-3.5,0-6.7,0-10.3c2.9,0,5.6,0,8.4,0c0-2.2,0-4,0-6.2c-5.7,0-11.1,0-16.5,0c0-46.9,0-43.5,0-90.5
					c5.5,0,10.9,0,16.2,0c0-2.2,0-4,0-6.2c-2.8,0-5.3,0-7.8,0c0-3.7,0-7.1,0-10.6c3.4,0,6.7,0,10.3,0c0,2.8,0,5.6,0,8.4
					c2.2,0,4,0,6.1,0C3091.3,1136.8,3091.3,1131.3,3091.3,1125.8z M3093.7,1264.1c93.3,0,506.3,0,599.5,0c0-5.5,0-10.8,0-16.4
					c2.9,0,5.5,0,8.4,0c0-2.9,0-5.5,0-8.5c5.6,0,11,0,16.3,0c0-45.5,0-40.6,0-86c-5.5,0-10.9,0-16.5,0c0-3,0-5.6,0-8.5
					c-2.9,0-5.5,0-8.3,0c0-5.6,0-10.9,0-16.3c-93.3,0-506.3,0-599.5,0c0,5.5,0,10.8,0,16.4c-2.9,0-5.5,0-8.4,0c0,2.9,0,5.5,0,8.5
					c-5.6,0-11,0-16.3,0c0,45.5,0,40.6,0,86c5.5,0,10.9,0,16.5,0c0,3,0,5.6,0,8.5c2.9,0,5.5,0,8.3,0
					C3093.7,1253.5,3093.7,1258.8,3093.7,1264.1z M3077,1142.4c2.1,0,3.9,0,5.8,0c0-2.2,0-4.1,0-6.1c-2,0-3.8,0-5.8,0
					C3077,1138.4,3077,1140.3,3077,1142.4z M3703.8,1256.2c2.1,0,3.9,0,5.8,0c0-2.1,0-4,0-6.1c-2,0-3.9,0-5.8,0
					C3703.8,1252.2,3703.8,1254.1,3703.8,1256.2z M3083.1,1255.8c0-2,0-3.8,0-5.6c-2.2,0-4.2,0-6.3,0c0,2,0,3.7,0,5.6
					C3078.9,1255.8,3080.8,1255.8,3083.1,1255.8z M3709.9,1136.8c-2.1,0-4.2,0-6.2,0c0,2,0,3.8,0,5.7c2.2,0,4.1,0,6.2,0
					C3709.9,1140.5,3709.9,1138.7,3709.9,1136.8z"/>
			</g>
		</g>
	</g>
</g>
<g>
	<g>
		<path class="st0" d="M3134,1180.4l7.3-26.6h15.8l-2.9,6.8v76.5l2.9,6.8h-15.8l2.9-6.8v-57.3l-10.1,37.7l-10.1-37.7v57.3l2.9,6.8
			H3111l2.9-6.8v-76.5l-2.9-6.8h15.8L3134,1180.4z"/>
		<path class="st0" d="M3164.7,1244l2.9-6.8v-66.5l-2.9-6.8h32.4v12.9l-6.8-2.9h-12.7v15h10.7l6.8-2.9v15.8l-6.8-2.9h-10.7v35h12.7
			l6.8-2.9l-2.9,12.9H3164.7z"/>
		<path class="st0" d="M3239.9,1170.7v66.5l2.9,6.8H3227l1.7-4l-13.1-43.2v40.3l2.9,6.8h-15.8l2.9-6.8v-66.5l-2.9-6.8h12.9
			l14.3,47.2v-40.3l-2.9-6.8h15.8L3239.9,1170.7z"/>
		<path class="st0" d="M3274.8,1170.7l-2.9-6.8h15.8l-2.9,6.8v66.5l-2.9,6.8h-25.8l-2.9-6.8v-66.5l-2.9-6.8h15.8l-2.9,6.8v63.3h11.5
			V1170.7z"/>
		<path class="st0" d="M3335.4,1244h-15.8l4.1-6.8l13.9-79.6l-2.2-3.7h15.6l-2.2,3.7l13.9,79.6l4.1,6.8h-15.8l1.8-6.8l-5-28.2h-9.3
			l-4.8,28.2L3335.4,1244z M3340.4,1198.9h5.7l-2.9-16.4L3340.4,1198.9z"/>
		<path class="st0" d="M3385.3,1170.7v63.3h12.7l6.8-2.9l-2.9,12.9h-29.5l2.9-6.8v-66.5l-2.9-6.8h15.8L3385.3,1170.7z"/>
		<path class="st0" d="M3433.3,1190.4l7.3-26.6h15.8l-2.9,6.8v66.5l2.9,6.8h-15.8l2.9-6.8v-47.3l-10.1,37.6l-10.1-37.6v47.3l2.9,6.8
			h-15.8l2.9-6.8v-66.5l-2.9-6.8h15.8L3433.3,1190.4z"/>
		<path class="st0" d="M3488.4,1170.7l-2.9-6.8h15.8l-2.9,6.8v66.5l-2.9,6.8h-25.8l-2.9-6.8v-66.5l-2.9-6.8h15.8l-2.9,6.8v63.3h11.5
			V1170.7z"/>
		<path class="st0" d="M3509,1244l2.9-6.8v-66.5l-2.9-6.8h32.4v12.9l-6.8-2.9h-12.7v15h10.7l6.8-2.9v15.8l-6.8-2.9h-10.7v35h12.7
			l6.8-2.9l-2.9,12.9H3509z"/>
		<path class="st0" d="M3582.4,1237.2l4,6.8h-15.8l1.8-6.8l-6.1-38.2h-4.3v38.2l2.9,6.8h-15.8l2.9-6.8v-66.5l-2.9-6.8h34.4l2.9,6.8
			v21.4l-2.9,6.8h-7.2L3582.4,1237.2z M3562,1173.9v15h14.3v-15H3562z"/>
		<path class="st0" d="M3624.7,1170.7l-17.3,63.3h15.1l6.9-2.9l-2.9,12.9h-34.7l4.7-6.8l17.2-63.3h-10.4l-6.8,2.9v-12.9h32.8
			L3624.7,1170.7z"/>
		<path class="st0" d="M3668.7,1244H3640l-2.9-6.8v-66.5l2.9-6.8h28.7l2.9,6.8v66.5L3668.7,1244z M3661.5,1173.9h-14.3v60.1h14.3
			V1173.9z"/>
	</g>
	<g>
		<path class="st1" d="M3138,1177.4l7.3-26.6h15.8l-2.9,6.8v76.5l2.9,6.8h-15.8l2.9-6.8v-57.3l-10.1,37.7l-10.1-37.7v57.3l2.9,6.8
			H3115l2.9-6.8v-76.5l-2.9-6.8h15.8L3138,1177.4z"/>
		<path class="st1" d="M3168.7,1241l2.9-6.8v-66.5l-2.9-6.8h32.4v12.9l-6.8-2.9h-12.7v15h10.7l6.8-2.9v15.8l-6.8-2.9h-10.7v35h12.7
			l6.8-2.9l-2.9,12.9H3168.7z"/>
		<path class="st1" d="M3243.9,1167.7v66.5l2.9,6.8H3231l1.7-4l-13.1-43.2v40.3l2.9,6.8h-15.8l2.9-6.8v-66.5l-2.9-6.8h12.9
			l14.3,47.2v-40.3l-2.9-6.8h15.8L3243.9,1167.7z"/>
		<path class="st1" d="M3278.8,1167.7l-2.9-6.8h15.8l-2.9,6.8v66.5l-2.9,6.8h-25.8l-2.9-6.8v-66.5l-2.9-6.8h15.8l-2.9,6.8v63.3h11.5
			V1167.7z"/>
		<path class="st1" d="M3339.4,1241h-15.8l4.1-6.8l13.9-79.6l-2.2-3.7h15.6l-2.2,3.7l13.9,79.6l4.1,6.8h-15.8l1.8-6.8l-5-28.2h-9.3
			l-4.8,28.2L3339.4,1241z M3344.4,1195.9h5.7l-2.9-16.4L3344.4,1195.9z"/>
		<path class="st1" d="M3389.3,1167.7v63.3h12.7l6.8-2.9l-2.9,12.9h-29.5l2.9-6.8v-66.5l-2.9-6.8h15.8L3389.3,1167.7z"/>
		<path class="st1" d="M3437.3,1187.4l7.3-26.6h15.8l-2.9,6.8v66.5l2.9,6.8h-15.8l2.9-6.8v-47.3l-10.1,37.6l-10.1-37.6v47.3l2.9,6.8
			h-15.8l2.9-6.8v-66.5l-2.9-6.8h15.8L3437.3,1187.4z"/>
		<path class="st1" d="M3492.4,1167.7l-2.9-6.8h15.8l-2.9,6.8v66.5l-2.9,6.8h-25.8l-2.9-6.8v-66.5l-2.9-6.8h15.8l-2.9,6.8v63.3h11.5
			V1167.7z"/>
		<path class="st1" d="M3513,1241l2.9-6.8v-66.5l-2.9-6.8h32.4v12.9l-6.8-2.9h-12.7v15h10.7l6.8-2.9v15.8l-6.8-2.9h-10.7v35h12.7
			l6.8-2.9l-2.9,12.9H3513z"/>
		<path class="st1" d="M3586.4,1234.2l4,6.8h-15.8l1.8-6.8l-6.1-38.2h-4.3v38.2l2.9,6.8h-15.8l2.9-6.8v-66.5l-2.9-6.8h34.4l2.9,6.8
			v21.4l-2.9,6.8h-7.2L3586.4,1234.2z M3566,1170.9v15h14.3v-15H3566z"/>
		<path class="st1" d="M3628.7,1167.7l-17.3,63.3h15.1l6.9-2.9l-2.9,12.9h-34.7l4.7-6.8l17.2-63.3h-10.4l-6.8,2.9v-12.9h32.8
			L3628.7,1167.7z"/>
		<path class="st1" d="M3672.7,1241H3644l-2.9-6.8v-66.5l2.9-6.8h28.7l2.9,6.8v66.5L3672.7,1241z M3665.5,1170.9h-14.3v60.1h14.3
			V1170.9z"/>
	</g>
	<g>
		<path class="st2" d="M3141,1174.4l7.3-26.6h15.8l-2.9,6.8v76.5l2.9,6.8h-15.8l2.9-6.8v-57.3l-10.1,37.7l-10.1-37.7v57.3l2.9,6.8
			H3118l2.9-6.8v-76.5l-2.9-6.8h15.8L3141,1174.4z"/>
		<path class="st2" d="M3171.7,1238l2.9-6.8v-66.5l-2.9-6.8h32.4v12.9l-6.8-2.9h-12.7v15h10.7l6.8-2.9v15.8l-6.8-2.9h-10.7v35h12.7
			l6.8-2.9l-2.9,12.9H3171.7z"/>
		<path class="st2" d="M3246.9,1164.7v66.5l2.9,6.8H3234l1.7-4l-13.1-43.2v40.3l2.9,6.8h-15.8l2.9-6.8v-66.5l-2.9-6.8h12.9
			l14.3,47.2v-40.3l-2.9-6.8h15.8L3246.9,1164.7z"/>
		<path class="st2" d="M3281.8,1164.7l-2.9-6.8h15.8l-2.9,6.8v66.5l-2.9,6.8h-25.8l-2.9-6.8v-66.5l-2.9-6.8h15.8l-2.9,6.8v63.3h11.5
			V1164.7z"/>
		<path class="st2" d="M3342.4,1238h-15.8l4.1-6.8l13.9-79.6l-2.2-3.7h15.6l-2.2,3.7l13.9,79.6l4.1,6.8h-15.8l1.8-6.8l-5-28.2h-9.3
			l-4.8,28.2L3342.4,1238z M3347.4,1192.9h5.7l-2.9-16.4L3347.4,1192.9z"/>
		<path class="st2" d="M3392.3,1164.7v63.3h12.7l6.8-2.9l-2.9,12.9h-29.5l2.9-6.8v-66.5l-2.9-6.8h15.8L3392.3,1164.7z"/>
		<path class="st2" d="M3440.3,1184.4l7.3-26.6h15.8l-2.9,6.8v66.5l2.9,6.8h-15.8l2.9-6.8v-47.3l-10.1,37.6l-10.1-37.6v47.3l2.9,6.8
			h-15.8l2.9-6.8v-66.5l-2.9-6.8h15.8L3440.3,1184.4z"/>
		<path class="st2" d="M3495.4,1164.7l-2.9-6.8h15.8l-2.9,6.8v66.5l-2.9,6.8h-25.8l-2.9-6.8v-66.5l-2.9-6.8h15.8l-2.9,6.8v63.3h11.5
			V1164.7z"/>
		<path class="st2" d="M3516,1238l2.9-6.8v-66.5l-2.9-6.8h32.4v12.9l-6.8-2.9h-12.7v15h10.7l6.8-2.9v15.8l-6.8-2.9h-10.7v35h12.7
			l6.8-2.9l-2.9,12.9H3516z"/>
		<path class="st2" d="M3589.4,1231.2l4,6.8h-15.8l1.8-6.8l-6.1-38.2h-4.3v38.2l2.9,6.8h-15.8l2.9-6.8v-66.5l-2.9-6.8h34.4l2.9,6.8
			v21.4l-2.9,6.8h-7.2L3589.4,1231.2z M3569,1167.9v15h14.3v-15H3569z"/>
		<path class="st2" d="M3631.7,1164.7l-17.3,63.3h15.1l6.9-2.9l-2.9,12.9h-34.7l4.7-6.8l17.2-63.3h-10.4l-6.8,2.9v-12.9h32.8
			L3631.7,1164.7z"/>
		<path class="st2" d="M3675.7,1238H3647l-2.9-6.8v-66.5l2.9-6.8h28.7l2.9,6.8v66.5L3675.7,1238z M3668.5,1167.9h-14.3v60.1h14.3
			V1167.9z"/>
	</g>
</g>
</svg>
