<?xml version="1.0" encoding="utf-8"?>
<!-- Generator: Adobe Illustrator 19.1.0, SVG Export Plug-In . SVG Version: 6.00 Build 0)  -->
<svg version="1.1" id="Layer_1" xmlns="http://www.w3.org/2000/svg" xmlns:xlink="http://www.w3.org/1999/xlink" x="0px" y="0px"
	 viewBox="155.5 888 441.7 160.1" style="enable-background:new 155.5 888 441.7 160.1;" xml:space="preserve">
<style type="text/css">
	.st0{fill:#6F1717;}
	.st1{fill:#D66F87;}
	.st2{fill:#711B1D;}
	.st3{fill:#FFFFFF;}
</style>
<g>
	<path class="st0" d="M583.8,1048.1h-415c-7.4,0-13.3-6.1-13.3-13.6V901.6c0-7.5,6-13.6,13.3-13.6h415c7.4,0,13.3,6.1,13.3,13.6
		v132.9C597.1,1042,591.2,1048.1,583.8,1048.1z"/>
	<g id="_x31_V7nqP.tif_10_">
		<g>
			<path class="st3" d="M189,898c94.7,0,279.4,0,374,0c0,5.5,0,11.1,0,16.6c2.2,0,3.9,0,6.1,0c0-2.7,0-5.3,0-7.8c3.7,0,7.1,0,10.6,0
				c0,3.4,0,6.7,0,10.3c-2.8,0-5.6,0-8.4,0c0,2.1,0,4,0,6.1c5.7,0,11.2,0,16.8,0c0,46.9,0,43.8,0,90.8c-5.5,0-11.1,0-16.6,0
				c0,2.1,0,3.9,0,6.1c2.7,0,5.2,0,7.8,0c0,3.8,0,7.2,0,10.7c-3.5,0-6.7,0-10.3,0c0-2.9,0-5.6,0-8.4c-2.1,0-4,0-6,0
				c0,5.7,0,11.2,0,16.7c-94.7,0-279.4,0-374,0c0-5.5,0-11,0-16.5c-2.1,0-3.9,0-6.1,0c0,2.7,0,5.3,0,7.8c-3.7,0-7.1,0-10.6,0
				c0-3.5,0-6.7,0-10.3c2.9,0,5.6,0,8.4,0c0-2.2,0-4,0-6.2c-5.7,0-11.1,0-16.5,0c0-46.9,0-43.5,0-90.5c5.5,0,10.9,0,16.2,0
				c0-2.2,0-4,0-6.2c-2.8,0-5.3,0-7.8,0c0-3.7,0-7.1,0-10.6c3.4,0,6.7,0,10.3,0c0,2.8,0,5.6,0,8.4c2.2,0,4,0,6.1,0
				C189,908.9,189,903.4,189,898z M191.4,1036.3c93.3,0,276.3,0,369.5,0c0-5.5,0-10.8,0-16.4c2.9,0,5.5,0,8.4,0c0-2.9,0-5.5,0-8.5
				c5.6,0,11,0,16.3,0c0-45.5,0-40.6,0-86c-5.5,0-10.9,0-16.5,0c0-3,0-5.6,0-8.5c-2.9,0-5.5,0-8.3,0c0-5.6,0-10.9,0-16.3
				c-93.3,0-276.3,0-369.5,0c0,5.5,0,10.8,0,16.4c-2.9,0-5.5,0-8.4,0c0,2.9,0,5.5,0,8.5c-5.6,0-11,0-16.3,0c0,45.5,0,40.6,0,86
				c5.5,0,10.9,0,16.5,0c0,3,0,5.6,0,8.5c2.9,0,5.5,0,8.3,0C191.4,1025.6,191.4,1030.9,191.4,1036.3z M174.7,914.6
				c2.1,0,3.9,0,5.8,0c0-2.2,0-4.1,0-6.1c-2,0-3.8,0-5.8,0C174.7,910.6,174.7,912.4,174.7,914.6z M571.5,1028.3c2.1,0,3.9,0,5.8,0
				c0-2.1,0-4,0-6.1c-2,0-3.9,0-5.8,0C571.5,1024.3,571.5,1026.2,571.5,1028.3z M180.8,1027.9c0-2,0-3.8,0-5.6c-2.2,0-4.2,0-6.3,0
				c0,2,0,3.7,0,5.6C176.6,1027.9,178.5,1027.9,180.8,1027.9z M577.5,908.9c-2.1,0-4.2,0-6.2,0c0,2,0,3.8,0,5.7c2.2,0,4.1,0,6.2,0
				C577.5,912.6,577.5,910.8,577.5,908.9z"/>
		</g>
	</g>
</g>
<g>
	<g>
		<path class="st1" d="M231.2,1006.2l2.9,6.8h-15.8l2.9-6.8v-73.3h-6.8l-6.8,2.9v-12.9h37.2v12.9l-6.9-2.9h-6.7
			C231.2,932.9,231.2,1006.2,231.2,1006.2z"/>
		<path class="st1" d="M260.6,1013h-15.8l4.2-6.8l13-66.5l-1.4-6.8h15.6l-1.4,6.8l13,66.5l4.2,6.8h-15.7l1.5-6.8l-3.5-18.2h-11.7
			l-3.5,18.2L260.6,1013z M264.6,978h7.7l-3.9-19.6L264.6,978z"/>
		<path class="st1" d="M297.5,1006.2v-66.4l2.9-6.8h28.7l2.9,6.8v66.5l-2.9,6.8h-4.5l0.4,3.2l4,6.8h-15.8l1.8-6.8l-0.4-3.2h-14.2
			L297.5,1006.2z M321.9,943h-14.3v60.1h14.3V943z"/>
		<path class="st1" d="M364,939.8l-2.9-6.8h15.8l-2.9,6.8v66.5l-2.9,6.8h-25.8l-2.9-6.8v-66.5l-2.8-6.9h15.8l-2.9,6.8v63.3H364
			L364,939.8L364,939.8z"/>
		<path class="st1" d="M384.6,1013l2.9-6.8v-66.4l-2.9-6.9H417v12.9l-6.8-2.9h-12.7v15h10.7l6.8-2.9v15.8l-6.8-2.9h-10.7v35h12.7
			l6.8-2.9l-2.9,12.9L384.6,1013L384.6,1013z"/>
		<path class="st1" d="M458,1006.2l4,6.8h-15.8l1.8-6.8l-6.1-38.2h-4.3v38.2l2.9,6.8h-15.8l2.9-6.8v-66.4l-2.9-6.8h34.4l2.9,6.8
			v21.4l-2.9,6.8h-7.2L458,1006.2z M437.6,943v15h14.3v-15C451.9,943,437.6,943,437.6,943z"/>
		<path class="st1" d="M482.5,939.8v66.5l2.9,6.8h-15.8l2.9-6.8v-66.5l-2.9-6.8h15.8L482.5,939.8z"/>
		<path class="st1" d="M506.7,1013h-15.8l4.2-6.8l13-66.5l-1.4-6.8h15.6l-1.4,6.8l13,66.5l4.2,6.8h-15.8l1.5-6.8l-3.5-18.2h-11.7
			l-3.5,18.2L506.7,1013z M510.6,978h7.7l-3.9-19.6L510.6,978z"/>
	</g>
	<g>
		<path class="st2" d="M235.2,1003.2l2.9,6.8h-15.8l2.9-6.8v-73.3h-6.7l-6.9,2.9v-12.9h37.2v12.9l-6.9-2.9h-6.7
			C235.2,929.9,235.2,1003.2,235.2,1003.2z"/>
		<path class="st2" d="M264.6,1010h-15.8l4.2-6.8l13-66.5l-1.4-6.8h15.6l-1.4,6.8l13,66.5l4.2,6.8h-15.7l1.5-6.8l-3.5-18.2h-11.7
			l-3.5,18.2L264.6,1010z M268.6,975h7.7l-3.9-19.6L268.6,975z"/>
		<path class="st2" d="M301.5,1003.2v-66.4l2.9-6.8h28.7l2.9,6.8v66.5l-2.9,6.8h-4.5l0.4,3.2l4,6.8h-15.8l1.8-6.8l-0.4-3.2h-14.2
			L301.5,1003.2z M325.9,940h-14.3v60.1h14.3V940z"/>
		<path class="st2" d="M368,936.8l-2.9-6.8h15.8l-2.9,6.8v66.5l-2.9,6.8h-25.8l-2.9-6.8v-66.5l-2.8-6.9h15.8l-2.9,6.8v63.3H368
			L368,936.8L368,936.8z"/>
		<path class="st2" d="M388.6,1010l2.9-6.8v-66.4l-2.9-6.9H421v12.9l-6.8-2.9h-12.7v15h10.7l6.8-2.9v15.8l-6.8-2.9h-10.7v35h12.7
			l6.8-2.9l-2.9,12.9L388.6,1010L388.6,1010z"/>
		<path class="st2" d="M462,1003.2l4,6.8h-15.8l1.8-6.8l-6.1-38.2h-4.3v38.2l2.9,6.8h-15.8l2.9-6.8v-66.4l-2.9-6.8h34.4l2.9,6.8
			v21.4l-2.9,6.8h-7.2L462,1003.2z M441.6,940v15h14.3v-15C455.9,940,441.6,940,441.6,940z"/>
		<path class="st2" d="M486.5,936.8v66.5l2.9,6.8h-15.8l2.9-6.8v-66.5l-2.9-6.8h15.8L486.5,936.8z"/>
		<path class="st2" d="M510.7,1010h-15.8l4.2-6.8l13-66.5l-1.4-6.8h15.6l-1.4,6.8l13,66.5l4.2,6.8h-15.8l1.5-6.8l-3.5-18.2h-11.7
			l-3.5,18.2L510.7,1010z M514.6,975h7.7l-3.9-19.6L514.6,975z"/>
	</g>
	<g>
		<path class="st3" d="M238.2,1000.2l2.9,6.8h-15.8l2.9-6.8v-73.3h-6.7l-6.9,2.9v-12.9h37.2v12.9l-6.9-2.9h-6.7
			C238.2,926.9,238.2,1000.2,238.2,1000.2z"/>
		<path class="st3" d="M267.6,1007h-15.8l4.2-6.8l13-66.5l-1.4-6.8h15.6l-1.4,6.8l13,66.5l4.2,6.8h-15.7l1.5-6.8l-3.5-18.2h-11.7
			l-3.5,18.2L267.6,1007z M271.6,972h7.7l-3.9-19.6L271.6,972z"/>
		<path class="st3" d="M304.5,1000.2v-66.4l2.9-6.8h28.7l2.9,6.8v66.5l-2.9,6.8h-4.5l0.4,3.2l4,6.8h-15.8l1.8-6.8l-0.4-3.2h-14.2
			L304.5,1000.2z M328.9,937h-14.3v60.1h14.3V937z"/>
		<path class="st3" d="M371,933.8l-2.9-6.8h15.8l-2.9,6.8v66.5l-2.9,6.8h-25.8l-2.9-6.8v-66.5l-2.8-6.9h15.8l-2.9,6.8V997H371
			L371,933.8L371,933.8z"/>
		<path class="st3" d="M391.6,1007l2.9-6.8v-66.4l-2.9-6.9H424v12.9l-6.8-2.9h-12.7v15h10.7l6.8-2.9v15.8l-6.8-2.9h-10.7v35h12.7
			l6.8-2.9l-2.9,12.9L391.6,1007L391.6,1007z"/>
		<path class="st3" d="M465,1000.2l4,6.8h-15.8l1.8-6.8l-6.1-38.2h-4.3v38.2l2.9,6.8h-15.8l2.9-6.8v-66.4l-2.9-6.8h34.4l2.9,6.8
			v21.4l-2.9,6.8h-7.2L465,1000.2z M444.6,937v15h14.3v-15C458.9,937,444.6,937,444.6,937z"/>
		<path class="st3" d="M489.5,933.8v66.5l2.9,6.8h-15.8l2.9-6.8v-66.5l-2.9-6.8h15.8L489.5,933.8z"/>
		<path class="st3" d="M513.7,1007h-15.8l4.2-6.8l13-66.5l-1.4-6.8h15.6l-1.4,6.8l13,66.5l4.2,6.8h-15.8l1.5-6.8l-3.5-18.2h-11.7
			l-3.5,18.2L513.7,1007z M517.6,972h7.7l-3.9-19.6L517.6,972z"/>
	</g>
</g>
</svg>
