<?xml version="1.0" encoding="utf-8"?>
<!-- Generator: Adobe Illustrator 19.1.0, SVG Export Plug-In . SVG Version: 6.00 Build 0)  -->
<svg version="1.1" id="Layer_1" xmlns="http://www.w3.org/2000/svg" xmlns:xlink="http://www.w3.org/1999/xlink" x="0px" y="0px"
	 viewBox="776 901.9 541.7 160.1" style="enable-background:new 776 901.9 541.7 160.1;" xml:space="preserve">
<style type="text/css">
	.st0{fill:#6F1717;}
	.st1{fill:#D66F87;}
	.st2{fill:#711B1D;}
	.st3{fill:#FFFFFF;}
</style>
<g>
	<path class="st0" d="M1304.3,1062.1h-515c-7.4,0-13.3-6.1-13.3-13.6V915.5c0-7.5,6-13.6,13.3-13.6h515c7.4,0,13.3,6.1,13.3,13.6
		v132.9C1317.7,1056,1311.7,1062.1,1304.3,1062.1z"/>
	<g id="_x31_V7nqP.tif_9_">
		<g>
			<path class="st3" d="M809.5,911.9c94.7,0,379.4,0,474,0c0,5.5,0,11.1,0,16.6c2.2,0,3.9,0,6.1,0c0-2.7,0-5.3,0-7.8
				c3.7,0,7.1,0,10.6,0c0,3.4,0,6.7,0,10.3c-2.8,0-5.6,0-8.4,0c0,2.1,0,4,0,6.1c5.7,0,11.2,0,16.8,0c0,46.9,0,43.8,0,90.8
				c-5.5,0-11.1,0-16.6,0c0,2.1,0,3.9,0,6.1c2.7,0,5.2,0,7.8,0c0,3.8,0,7.2,0,10.7c-3.5,0-6.7,0-10.3,0c0-2.9,0-5.6,0-8.4
				c-2.1,0-4,0-6,0c0,5.7,0,11.2,0,16.7c-94.7,0-379.4,0-474,0c0-5.5,0-11,0-16.5c-2.1,0-3.9,0-6.1,0c0,2.7,0,5.3,0,7.8
				c-3.7,0-7.1,0-10.6,0c0-3.5,0-6.7,0-10.3c2.9,0,5.6,0,8.4,0c0-2.2,0-4,0-6.2c-5.7,0-11.1,0-16.5,0c0-46.9,0-43.5,0-90.5
				c5.5,0,10.9,0,16.2,0c0-2.2,0-4,0-6.2c-2.8,0-5.3,0-7.8,0c0-3.7,0-7.1,0-10.6c3.4,0,6.7,0,10.3,0c0,2.8,0,5.6,0,8.4
				c2.2,0,4,0,6.1,0C809.5,922.9,809.5,917.4,809.5,911.9z M811.9,1050.2c93.3,0,376.3,0,469.5,0c0-5.5,0-10.8,0-16.4
				c2.9,0,5.5,0,8.4,0c0-2.9,0-5.5,0-8.5c5.6,0,11,0,16.3,0c0-45.5,0-40.6,0-86c-5.5,0-10.9,0-16.5,0c0-3,0-5.6,0-8.5
				c-2.9,0-5.5,0-8.3,0c0-5.6,0-10.9,0-16.3c-93.3,0-376.3,0-469.5,0c0,5.5,0,10.8,0,16.4c-2.9,0-5.5,0-8.4,0c0,2.9,0,5.5,0,8.5
				c-5.6,0-11,0-16.3,0c0,45.5,0,40.6,0,86c5.5,0,10.9,0,16.5,0c0,3,0,5.6,0,8.5c2.9,0,5.5,0,8.3,0
				C811.9,1039.5,811.9,1044.8,811.9,1050.2z M795.3,928.5c2.1,0,3.9,0,5.8,0c0-2.2,0-4.1,0-6.1c-2,0-3.8,0-5.8,0
				C795.3,924.5,795.3,926.4,795.3,928.5z M1292,1042.3c2.1,0,3.9,0,5.8,0c0-2.1,0-4,0-6.1c-2,0-3.9,0-5.8,0
				C1292,1038.2,1292,1040.1,1292,1042.3z M801.3,1041.9c0-2,0-3.8,0-5.6c-2.2,0-4.2,0-6.3,0c0,2,0,3.7,0,5.6
				C797.1,1041.9,799.1,1041.9,801.3,1041.9z M1298.1,922.8c-2.1,0-4.2,0-6.2,0c0,2,0,3.8,0,5.7c2.2,0,4.1,0,6.2,0
				C1298.1,926.6,1298.1,924.8,1298.1,922.8z"/>
		</g>
	</g>
</g>
<g>
	<g>
		<path class="st1" d="M835,1030l2.9-6.8v-76.5l-2.9-6.8h32.4v12.9l-6.8-2.9h-12.7v15h10.7l6.8-2.9v15.8l-6.8-2.9h-10.7v45.1h12.7
			l6.8-2.9l-2.9,12.9H835z"/>
		<path class="st1" d="M912.4,956.8v66.5l2.9,6.8h-15.8l1.7-4L888,982.9v40.3l2.9,6.8h-15.8l2.9-6.8v-66.4l-2.9-6.9H888l14.3,47.2
			v-40.3l-2.8-6.9h15.8L912.4,956.8z"/>
		<path class="st1" d="M955.3,949.9v12.9l-6.8-2.9H933v60.1h15.5l6.8-2.9l-2.9,12.9h-26.6l-2.9-6.8v-66.4l2.9-6.8L955.3,949.9
			L955.3,949.9z"/>
		<path class="st1" d="M975.9,956.8v18.1h14.3v-18.1l-2.9-6.8h15.8l-2.9,6.8v66.5l2.9,6.8h-15.8l2.9-6.8V985h-14.3v38.2l2.9,6.8H963
			l2.9-6.8v-66.4l-2.9-6.9h15.8L975.9,956.8z"/>
		<path class="st1" d="M1023.8,956.8v66.5l2.9,6.8h-15.8l2.9-6.8v-66.5l-2.9-6.8h15.8L1023.8,956.8z"/>
		<path class="st1" d="M1047.2,956.8v63.3h12.7l6.8-2.9l-2.9,12.9h-29.5l2.9-6.8v-66.5l-2.9-6.8h15.8L1047.2,956.8z"/>
		<path class="st1" d="M1086.9,1030h-15.8l4.2-6.8l13-66.5l-1.4-6.8h15.6l-1.4,6.8l13,66.5l4.2,6.8h-15.8l1.5-6.8l-3.5-18.2h-11.7
			l-3.5,18.2L1086.9,1030z M1090.9,995h7.7l-3.9-19.6L1090.9,995z"/>
		<path class="st1" d="M1123.8,949.9h34.4l2.9,6.8v66.5l-2.9,6.8h-34.4l2.9-6.8v-66.4L1123.8,949.9z M1136.7,960v60.1h14.3V960
			H1136.7z"/>
		<path class="st1" d="M1182.3,1030h-15.8l4.2-6.8l13-66.5l-1.4-6.8h15.7l-1.4,6.8l13,66.5l4.2,6.8H1198l1.5-6.8l-3.5-18.2h-11.7
			l-3.5,18.2L1182.3,1030z M1186.3,995h7.7l-3.9-19.6L1186.3,995z"/>
		<path class="st1" d="M1241.6,985h-19.5l-2.9-6.8v-21.4l2.9-6.8h26.7v12.9l-6.8-2.9h-12.7v15h19.5l2.9,6.8v41.4l-2.9,6.8h-26.7
			l-2.9-6.8V995h12.9l-2.9,6.8v18.2h12.3v-35H1241.6z"/>
	</g>
	<g>
		<path class="st2" d="M839,1027l2.9-6.8v-76.5l-2.9-6.8h32.4v12.9l-6.8-2.9h-12.7v15h10.7l6.8-2.9v15.8l-6.8-2.9h-10.7v45.1h12.7
			l6.8-2.9l-2.9,12.9H839z"/>
		<path class="st2" d="M916.4,953.8v66.5l2.9,6.8h-15.8l1.7-4L892,979.9v40.3l2.9,6.8h-15.8l2.9-6.8v-66.4l-2.9-6.9H892l14.3,47.2
			v-40.3l-2.8-6.9h15.8L916.4,953.8z"/>
		<path class="st2" d="M959.3,946.9v12.9l-6.8-2.9H937v60.1h15.5l6.8-2.9l-2.9,12.9h-26.6l-2.9-6.8v-66.4l2.9-6.8L959.3,946.9
			L959.3,946.9z"/>
		<path class="st2" d="M979.9,953.8v18.1h14.3v-18.1l-2.9-6.8h15.8l-2.9,6.8v66.5l2.9,6.8h-15.8l2.9-6.8V982h-14.3v38.2l2.9,6.8H967
			l2.9-6.8v-66.4l-2.9-6.9h15.8L979.9,953.8z"/>
		<path class="st2" d="M1027.8,953.8v66.5l2.9,6.8h-15.8l2.9-6.8v-66.5l-2.9-6.8h15.8L1027.8,953.8z"/>
		<path class="st2" d="M1051.2,953.8v63.3h12.7l6.8-2.9l-2.9,12.9h-29.5l2.9-6.8v-66.5l-2.9-6.8h15.8L1051.2,953.8z"/>
		<path class="st2" d="M1090.9,1027h-15.8l4.2-6.8l13-66.5l-1.4-6.8h15.6l-1.4,6.8l13,66.5l4.2,6.8h-15.8l1.5-6.8l-3.5-18.2h-11.7
			l-3.5,18.2L1090.9,1027z M1094.9,992h7.7l-3.9-19.6L1094.9,992z"/>
		<path class="st2" d="M1127.8,946.9h34.4l2.9,6.8v66.5l-2.9,6.8h-34.4l2.9-6.8v-66.4L1127.8,946.9z M1140.7,957v60.1h14.3V957
			H1140.7z"/>
		<path class="st2" d="M1186.3,1027h-15.8l4.2-6.8l13-66.5l-1.4-6.8h15.7l-1.4,6.8l13,66.5l4.2,6.8H1202l1.5-6.8l-3.5-18.2h-11.7
			l-3.5,18.2L1186.3,1027z M1190.3,992h7.7l-3.9-19.6L1190.3,992z"/>
		<path class="st2" d="M1245.6,982h-19.5l-2.9-6.8v-21.4l2.9-6.8h26.7v12.9l-6.8-2.9h-12.7v15h19.5l2.9,6.8v41.4l-2.9,6.8h-26.7
			l-2.9-6.8V992h12.9l-2.9,6.8v18.2h12.3v-35H1245.6z"/>
	</g>
	<g>
		<path class="st3" d="M842,1024l2.9-6.8v-76.5l-2.9-6.8h32.4v12.9l-6.8-2.9h-12.7v15h10.7l6.8-2.9v15.8l-6.8-2.9h-10.7v45.1h12.7
			l6.8-2.9l-2.9,12.9H842z"/>
		<path class="st3" d="M919.4,950.8v66.5l2.9,6.8h-15.8l1.7-4L895,976.9v40.3l2.9,6.8h-15.8l2.9-6.8v-66.4l-2.9-6.9H895l14.3,47.2
			v-40.3l-2.8-6.9h15.8L919.4,950.8z"/>
		<path class="st3" d="M962.3,943.9v12.9l-6.8-2.9H940v60.1h15.5l6.8-2.9l-2.9,12.9h-26.6l-2.9-6.8v-66.4l2.9-6.8L962.3,943.9
			L962.3,943.9z"/>
		<path class="st3" d="M982.9,950.8v18.1h14.3v-18.1l-2.9-6.8h15.8l-2.9,6.8v66.5l2.9,6.8h-15.8l2.9-6.8V979h-14.3v38.2l2.9,6.8H970
			l2.9-6.8v-66.4l-2.9-6.9h15.8L982.9,950.8z"/>
		<path class="st3" d="M1030.8,950.8v66.5l2.9,6.8h-15.8l2.9-6.8v-66.5l-2.9-6.8h15.8L1030.8,950.8z"/>
		<path class="st3" d="M1054.2,950.8v63.3h12.7l6.8-2.9l-2.9,12.9h-29.5l2.9-6.8v-66.5l-2.9-6.8h15.8L1054.2,950.8z"/>
		<path class="st3" d="M1093.9,1024h-15.8l4.2-6.8l13-66.5l-1.4-6.8h15.6l-1.4,6.8l13,66.5l4.2,6.8h-15.8l1.5-6.8l-3.5-18.2h-11.7
			l-3.5,18.2L1093.9,1024z M1097.9,989h7.7l-3.9-19.6L1097.9,989z"/>
		<path class="st3" d="M1130.8,943.9h34.4l2.9,6.8v66.5l-2.9,6.8h-34.4l2.9-6.8v-66.4L1130.8,943.9z M1143.7,954v60.1h14.3V954
			H1143.7z"/>
		<path class="st3" d="M1189.3,1024h-15.8l4.2-6.8l13-66.5l-1.4-6.8h15.7l-1.4,6.8l13,66.5l4.2,6.8H1205l1.5-6.8L1203,999h-11.7
			l-3.5,18.2L1189.3,1024z M1193.3,989h7.7l-3.9-19.6L1193.3,989z"/>
		<path class="st3" d="M1248.6,979h-19.5l-2.9-6.8v-21.4l2.9-6.8h26.7v12.9l-6.8-2.9h-12.7v15h19.5l2.9,6.8v41.4l-2.9,6.8h-26.7
			l-2.9-6.8V989h12.9l-2.9,6.8v18.2h12.3v-35H1248.6z"/>
	</g>
</g>
</svg>
