<?xml version="1.0" encoding="utf-8"?>
<!-- Generator: Adobe Illustrator 19.1.0, SVG Export Plug-In . SVG Version: 6.00 Build 0)  -->
<svg version="1.1" id="Layer_1" xmlns="http://www.w3.org/2000/svg" xmlns:xlink="http://www.w3.org/1999/xlink" x="0px" y="0px"
	 viewBox="2144 1183.4 421.7 160.1" style="enable-background:new 2144 1183.4 421.7 160.1;" xml:space="preserve">
<style type="text/css">
	.st0{fill:#6F1717;}
	.st1{fill:#FFFFFF;}
	.st2{fill:#CE7689;}
	.st3{fill:#D66F87;}
	.st4{fill:#711B1D;}
</style>
<g>
	<path class="st0" d="M2552.3,1343.5h-395c-7.4,0-13.3-6.1-13.3-13.6V1197c0-7.5,6-13.6,13.3-13.6h395c7.4,0,13.3,6.1,13.3,13.6
		v132.9C2565.6,1337.4,2559.7,1343.5,2552.3,1343.5z"/>
	<g id="_x31_V7nqP.tif_18_">
		<g>
			<path class="st1" d="M2177.5,1193.4c94.7,0,259.4,0,354,0c0,5.5,0,11.1,0,16.6c2.2,0,3.9,0,6.1,0c0-2.7,0-5.3,0-7.8
				c3.7,0,7.1,0,10.6,0c0,3.4,0,6.7,0,10.3c-2.8,0-5.6,0-8.4,0c0,2.1,0,4,0,6.1c5.7,0,11.2,0,16.8,0c0,46.9,0,43.8,0,90.8
				c-5.5,0-11.1,0-16.6,0c0,2.1,0,3.9,0,6.1c2.7,0,5.2,0,7.8,0c0,3.8,0,7.2,0,10.7c-3.5,0-6.7,0-10.3,0c0-2.9,0-5.6,0-8.4
				c-2.1,0-4,0-6,0c0,5.7,0,11.2,0,16.7c-94.7,0-259.4,0-354,0c0-5.5,0-11,0-16.5c-2.1,0-3.9,0-6.1,0c0,2.7,0,5.3,0,7.8
				c-3.7,0-7.1,0-10.6,0c0-3.5,0-6.7,0-10.3c2.9,0,5.6,0,8.4,0c0-2.2,0-4,0-6.2c-5.7,0-11.1,0-16.5,0c0-46.9,0-43.5,0-90.5
				c5.5,0,10.9,0,16.2,0c0-2.2,0-4,0-6.2c-2.8,0-5.3,0-7.8,0c0-3.7,0-7.1,0-10.6c3.4,0,6.7,0,10.3,0c0,2.8,0,5.6,0,8.4
				c2.2,0,4,0,6.1,0C2177.5,1204.4,2177.5,1198.9,2177.5,1193.4z M2179.9,1331.7c93.3,0,256.3,0,349.5,0c0-5.5,0-10.8,0-16.4
				c2.9,0,5.5,0,8.4,0c0-2.9,0-5.5,0-8.5c5.6,0,11,0,16.3,0c0-45.5,0-40.6,0-86c-5.5,0-10.9,0-16.5,0c0-3,0-5.6,0-8.5
				c-2.9,0-5.5,0-8.3,0c0-5.6,0-10.9,0-16.3c-93.3,0-256.3,0-349.5,0c0,5.5,0,10.8,0,16.4c-2.9,0-5.5,0-8.4,0c0,2.9,0,5.5,0,8.5
				c-5.6,0-11,0-16.3,0c0,45.5,0,40.6,0,86c5.5,0,10.9,0,16.5,0c0,3,0,5.6,0,8.5c2.9,0,5.5,0,8.3,0
				C2179.9,1321,2179.9,1326.3,2179.9,1331.7z M2163.2,1210c2.1,0,3.9,0,5.8,0c0-2.2,0-4.1,0-6.1c-2,0-3.8,0-5.8,0
				C2163.2,1206,2163.2,1207.9,2163.2,1210z M2540,1323.8c2.1,0,3.9,0,5.8,0c0-2.1,0-4,0-6.1c-2,0-3.9,0-5.8,0
				C2540,1319.7,2540,1321.6,2540,1323.8z M2169.3,1323.4c0-2,0-3.8,0-5.6c-2.2,0-4.2,0-6.3,0c0,2,0,3.7,0,5.6
				C2165.1,1323.4,2167,1323.4,2169.3,1323.4z M2546,1204.3c-2.1,0-4.2,0-6.2,0c0,2,0,3.8,0,5.7c2.2,0,4.1,0,6.2,0
				C2546,1208,2546,1206.3,2546,1204.3z"/>
		</g>
	</g>
</g>
<g>
	<g>
		<path class="st2" d="M2219.8,1305.1l2.9,6.8h-15.8l2.9-6.8v-76.5l-2.9-6.8h34.4l2.9,6.8v21.4l-2.9,6.8h-21.5V1305.1z
			 M2219.8,1231.8v15h14.3v-15H2219.8z"/>
		<path class="st2" d="M2283.4,1311.9h-28.7l-2.9-6.8v-66.5l2.9-6.8h28.7l2.9,6.8v66.5L2283.4,1311.9z M2276.2,1241.8h-14.3v60.1
			h14.3V1241.8z"/>
		<path class="st2" d="M2318.5,1266.8H2299l-2.9-6.8v-21.4l2.9-6.8h26.7v12.9l-6.8-2.9h-12.7v15h19.5l2.9,6.8v41.4l-2.9,6.8H2299
			l-2.9-6.8v-28.2h12.9l-2.9,6.8v18.2h12.3V1266.8z"/>
		<path class="st2" d="M2357.7,1305.1l2.9,6.8h-15.8l2.9-6.8v-63.3h-6.7l-6.8,2.9v-12.9h37.2v12.9l-6.9-2.9h-6.7V1305.1z"/>
		<path class="st2" d="M2412.3,1305.1l4,6.8h-15.8l1.8-6.8l-6.1-38.2h-4.3v38.2l2.9,6.8H2379l2.9-6.8v-66.5l-2.9-6.8h34.4l2.9,6.8
			v21.4l-2.9,6.8h-7.2L2412.3,1305.1z M2391.9,1241.8v15h14.3v-15H2391.9z"/>
		<path class="st2" d="M2424,1311.9l2.9-6.8v-66.5l-2.9-6.8h32.4v12.9l-6.8-2.9h-12.7v15h10.7l6.8-2.9v15.8l-6.8-2.9h-10.7v35h12.7
			l6.8-2.9l-2.9,12.9H2424z"/>
		<path class="st2" d="M2488.7,1266.8h-19.5l-2.9-6.8v-21.4l2.9-6.8h26.7v12.9l-6.8-2.9h-12.7v15h19.5l2.9,6.8v41.4l-2.9,6.8h-26.7
			l-2.9-6.8v-28.2h12.9l-2.9,6.8v18.2h12.3V1266.8z"/>
	</g>
	<g>
		<path class="st0" d="M2223.8,1302.1l2.9,6.8h-15.8l2.9-6.8v-76.5l-2.9-6.8h34.4l2.9,6.8v21.4l-2.9,6.8h-21.5V1302.1z
			 M2223.8,1228.8v15h14.3v-15H2223.8z"/>
		<path class="st0" d="M2287.4,1308.9h-28.7l-2.9-6.8v-66.5l2.9-6.8h28.7l2.9,6.8v66.5L2287.4,1308.9z M2280.2,1238.8h-14.3v60.1
			h14.3V1238.8z"/>
		<path class="st0" d="M2322.5,1263.8H2303l-2.9-6.8v-21.4l2.9-6.8h26.7v12.9l-6.8-2.9h-12.7v15h19.5l2.9,6.8v41.4l-2.9,6.8H2303
			l-2.9-6.8v-28.2h12.9l-2.9,6.8v18.2h12.3V1263.8z"/>
		<path class="st0" d="M2361.7,1302.1l2.9,6.8h-15.8l2.9-6.8v-63.3h-6.7l-6.8,2.9v-12.9h37.2v12.9l-6.9-2.9h-6.7V1302.1z"/>
		<path class="st0" d="M2416.3,1302.1l4,6.8h-15.8l1.8-6.8l-6.1-38.2h-4.3v38.2l2.9,6.8H2383l2.9-6.8v-66.5l-2.9-6.8h34.4l2.9,6.8
			v21.4l-2.9,6.8h-7.2L2416.3,1302.1z M2395.9,1238.8v15h14.3v-15H2395.9z"/>
		<path class="st0" d="M2428,1308.9l2.9-6.8v-66.5l-2.9-6.8h32.4v12.9l-6.8-2.9h-12.7v15h10.7l6.8-2.9v15.8l-6.8-2.9h-10.7v35h12.7
			l6.8-2.9l-2.9,12.9H2428z"/>
		<path class="st0" d="M2492.7,1263.8h-19.5l-2.9-6.8v-21.4l2.9-6.8h26.7v12.9l-6.8-2.9h-12.7v15h19.5l2.9,6.8v41.4l-2.9,6.8h-26.7
			l-2.9-6.8v-28.2h12.9l-2.9,6.8v18.2h12.3V1263.8z"/>
	</g>
	<g>
		<path class="st1" d="M2226.9,1299.1l2.9,6.8H2214l2.9-6.8v-76.5l-2.9-6.8h34.4l2.9,6.8v21.4l-2.9,6.8h-21.5V1299.1z
			 M2226.9,1225.8v15h14.3v-15H2226.9z"/>
		<path class="st1" d="M2290.5,1305.9h-28.7l-2.9-6.8v-66.5l2.9-6.8h28.7l2.9,6.8v66.5L2290.5,1305.9z M2283.3,1235.8H2269v60.1
			h14.3V1235.8z"/>
		<path class="st1" d="M2325.7,1260.8h-19.5l-2.9-6.8v-21.4l2.9-6.8h26.7v12.9l-6.8-2.9h-12.7v15h19.5l2.9,6.8v41.4l-2.9,6.8h-26.7
			l-2.9-6.8v-28.2h12.9l-2.9,6.8v18.2h12.3V1260.8z"/>
		<path class="st1" d="M2364.8,1299.1l2.9,6.8h-15.8l2.9-6.8v-63.3h-6.7l-6.8,2.9v-12.9h37.2v12.9l-6.9-2.9h-6.7V1299.1z"/>
		<path class="st1" d="M2419.4,1299.1l4,6.8h-15.8l1.8-6.8l-6.1-38.2h-4.3v38.2l2.9,6.8h-15.8l2.9-6.8v-66.5l-2.9-6.8h34.4l2.9,6.8
			v21.4l-2.9,6.8h-7.2L2419.4,1299.1z M2399,1235.8v15h14.3v-15H2399z"/>
		<path class="st1" d="M2431.1,1305.9l2.9-6.8v-66.5l-2.9-6.8h32.4v12.9l-6.8-2.9H2444v15h10.7l6.8-2.9v15.8l-6.8-2.9H2444v35h12.7
			l6.8-2.9l-2.9,12.9H2431.1z"/>
		<path class="st1" d="M2495.8,1260.8h-19.5l-2.9-6.8v-21.4l2.9-6.8h26.7v12.9l-6.8-2.9h-12.7v15h19.5l2.9,6.8v41.4l-2.9,6.8h-26.7
			l-2.9-6.8v-28.2h12.9l-2.9,6.8v18.2h12.3V1260.8z"/>
	</g>
</g>
</svg>
