<?xml version="1.0" encoding="utf-8"?>
<!-- Generator: Adobe Illustrator 19.1.0, SVG Export Plug-In . SVG Version: 6.00 Build 0)  -->
<svg version="1.1" id="Layer_1" xmlns="http://www.w3.org/2000/svg" xmlns:xlink="http://www.w3.org/1999/xlink" x="0px" y="0px"
	 viewBox="186 1073.6 381.7 160.1" style="enable-background:new 186 1073.6 381.7 160.1;" xml:space="preserve">
<style type="text/css">
	.st0{fill:#6F1717;}
	.st1{fill:#D66F87;}
	.st2{fill:#711B1D;}
	.st3{fill:#FFFFFF;}
</style>
<g>
	<path class="st0" d="M554.4,1233.7h-355c-7.4,0-13.3-6.1-13.3-13.6v-132.9c0-7.5,6-13.6,13.3-13.6h355c7.4,0,13.3,6.1,13.3,13.6
		v132.9C567.7,1227.6,561.7,1233.7,554.4,1233.7z"/>
	<g id="_x31_V7nqP.tif_11_">
		<g>
			<path class="st3" d="M219.6,1083.5c94.7,0,219.4,0,314,0c0,5.5,0,11.1,0,16.6c2.2,0,3.9,0,6.1,0c0-2.7,0-5.3,0-7.8
				c3.7,0,7.1,0,10.6,0c0,3.4,0,6.7,0,10.3c-2.8,0-5.6,0-8.4,0c0,2.1,0,4,0,6.1c5.7,0,11.2,0,16.8,0c0,46.9,0,43.8,0,90.8
				c-5.5,0-11.1,0-16.6,0c0,2.1,0,3.9,0,6.1c2.7,0,5.2,0,7.8,0c0,3.8,0,7.2,0,10.7c-3.5,0-6.7,0-10.3,0c0-2.9,0-5.6,0-8.4
				c-2.1,0-4,0-6,0c0,5.7,0,11.2,0,16.7c-94.7,0-219.4,0-314,0c0-5.5,0-11,0-16.5c-2.1,0-3.9,0-6.1,0c0,2.7,0,5.3,0,7.8
				c-3.7,0-7.1,0-10.6,0c0-3.5,0-6.7,0-10.3c2.9,0,5.6,0,8.4,0c0-2.2,0-4,0-6.2c-5.7,0-11.1,0-16.5,0c0-46.9,0-43.5,0-90.5
				c5.5,0,10.9,0,16.2,0c0-2.2,0-4,0-6.2c-2.8,0-5.3,0-7.8,0c0-3.7,0-7.1,0-10.6c3.4,0,6.7,0,10.3,0c0,2.8,0,5.6,0,8.4
				c2.2,0,4,0,6.1,0C219.6,1094.5,219.6,1089,219.6,1083.5z M221.9,1221.8c93.3,0,216.3,0,309.5,0c0-5.5,0-10.8,0-16.4
				c2.9,0,5.5,0,8.4,0c0-2.9,0-5.5,0-8.5c5.6,0,11,0,16.3,0c0-45.5,0-40.6,0-86c-5.5,0-10.9,0-16.5,0c0-3,0-5.6,0-8.5
				c-2.9,0-5.5,0-8.3,0c0-5.6,0-10.9,0-16.3c-93.3,0-216.3,0-309.5,0c0,5.5,0,10.8,0,16.4c-2.9,0-5.5,0-8.4,0c0,2.9,0,5.5,0,8.5
				c-5.6,0-11,0-16.3,0c0,45.5,0,40.6,0,86c5.5,0,10.9,0,16.5,0c0,3,0,5.6,0,8.5c2.9,0,5.5,0,8.3,0
				C221.9,1211.2,221.9,1216.5,221.9,1221.8z M205.3,1100.1c2.1,0,3.9,0,5.8,0c0-2.2,0-4.1,0-6.1c-2,0-3.8,0-5.8,0
				C205.3,1096.1,205.3,1098,205.3,1100.1z M542,1213.9c2.1,0,3.9,0,5.8,0c0-2.1,0-4,0-6.1c-2,0-3.9,0-5.8,0
				C542,1209.9,542,1211.8,542,1213.9z M211.3,1213.5c0-2,0-3.8,0-5.6c-2.2,0-4.2,0-6.3,0c0,2,0,3.7,0,5.6
				C207.1,1213.5,209.1,1213.5,211.3,1213.5z M548.1,1094.5c-2.1,0-4.2,0-6.2,0c0,2,0,3.8,0,5.7c2.2,0,4.1,0,6.2,0
				C548.1,1098.2,548.1,1096.4,548.1,1094.5z"/>
		</g>
	</g>
</g>
<g>
	<g>
		<path class="st1" d="M269.5,1146.5H250l-2.9-6.8v-21.4l2.9-6.8h26.7v12.9l-6.9-2.9h-12.7v15h19.5l2.9,6.8v51.5l-2.9,6.8H250
			l-2.9-6.8v-38.2H260l-2.9,6.8v28.2h12.3L269.5,1146.5L269.5,1146.5z"/>
		<path class="st1" d="M300.8,1201.6H285l4.2-6.8l13-66.5l-1.4-6.8h15.6l-1.4,6.8l13,66.5l4.2,6.8h-15.8l1.5-6.8l-3.5-18.2h-11.6
			l-3.5,18.2L300.8,1201.6z M304.7,1166.6h7.7l-3.9-19.6L304.7,1166.6z"/>
		<path class="st1" d="M350.6,1128.4v63.3h12.7l6.8-2.9l-2.9,12.9h-29.5l2.9-6.8v-66.5l-2.9-6.9h15.8L350.6,1128.4z"/>
		<path class="st1" d="M400.2,1156.6h-19.5l-2.9-6.8v-21.4l2.9-6.8h26.7v12.9l-6.8-2.9h-12.7v15h19.5l2.9,6.8v41.4l-2.9,6.8h-26.7
			l-2.9-6.8v-28.2h12.9l-2.9,6.8v18.2h12.3L400.2,1156.6L400.2,1156.6z"/>
		<path class="st1" d="M430.4,1201.6h-15.8l4.2-6.8l13-66.5l-1.4-6.8H446l-1.4,6.8l13,66.5l4.2,6.8H446l1.5-6.8l-3.5-18.2h-11.7
			l-3.5,18.2L430.4,1201.6z M434.3,1166.6h7.7l-3.9-19.6L434.3,1166.6z"/>
		<path class="st1" d="M489.7,1156.6h-19.6l-2.9-6.8v-21.4l2.9-6.9h26.7v12.9l-6.8-2.9h-12.7v15h19.5l2.9,6.8v41.4l-2.9,6.8h-26.7
			l-2.9-6.8v-28.1h12.9l-2.9,6.8v18.2h12.3v-35H489.7z"/>
	</g>
	<g>
		<path class="st2" d="M273.5,1143.5H254l-2.9-6.8v-21.4l2.9-6.8h26.7v12.9l-6.9-2.9h-12.7v15h19.5l2.9,6.8v51.5l-2.9,6.8H254
			l-2.9-6.8v-38.2H264l-2.9,6.8v28.2h12.3L273.5,1143.5L273.5,1143.5z"/>
		<path class="st2" d="M304.8,1198.6H289l4.2-6.8l13-66.5l-1.4-6.8h15.6l-1.4,6.8l13,66.5l4.2,6.8h-15.8l1.5-6.8l-3.5-18.2h-11.6
			l-3.5,18.2L304.8,1198.6z M308.7,1163.6h7.7l-3.9-19.6L308.7,1163.6z"/>
		<path class="st2" d="M354.6,1125.4v63.3h12.7l6.8-2.9l-2.9,12.9h-29.5l2.9-6.8v-66.5l-2.9-6.9h15.8L354.6,1125.4z"/>
		<path class="st2" d="M404.2,1153.6h-19.5l-2.9-6.8v-21.4l2.9-6.8h26.7v12.9l-6.8-2.9h-12.7v15h19.5l2.9,6.8v41.4l-2.9,6.8h-26.7
			l-2.9-6.8v-28.2h12.9l-2.9,6.8v18.2h12.3L404.2,1153.6L404.2,1153.6z"/>
		<path class="st2" d="M434.4,1198.6h-15.8l4.2-6.8l13-66.5l-1.4-6.8H450l-1.4,6.8l13,66.5l4.2,6.8H450l1.5-6.8l-3.5-18.2h-11.7
			l-3.5,18.2L434.4,1198.6z M438.3,1163.6h7.7l-3.9-19.6L438.3,1163.6z"/>
		<path class="st2" d="M493.7,1153.6h-19.6l-2.9-6.8v-21.4l2.9-6.9h26.7v12.9l-6.8-2.9h-12.7v15h19.5l2.9,6.8v41.4l-2.9,6.8h-26.7
			l-2.9-6.8v-28.1h12.9l-2.9,6.8v18.2h12.3v-35H493.7z"/>
	</g>
	<g>
		<path class="st3" d="M276.5,1140.5H257l-2.9-6.8v-21.4l2.9-6.8h26.7v12.9l-6.9-2.9h-12.7v15h19.5l2.9,6.8v51.5l-2.9,6.8H257
			l-2.9-6.8v-38.2H267l-2.9,6.8v28.2h12.3L276.5,1140.5L276.5,1140.5z"/>
		<path class="st3" d="M307.8,1195.6H292l4.2-6.8l13-66.5l-1.4-6.8h15.6l-1.4,6.8l13,66.5l4.2,6.8h-15.8l1.5-6.8l-3.5-18.2h-11.6
			l-3.5,18.2L307.8,1195.6z M311.7,1160.6h7.7l-3.9-19.6L311.7,1160.6z"/>
		<path class="st3" d="M357.6,1122.4v63.3h12.7l6.8-2.9l-2.9,12.9h-29.5l2.9-6.8v-66.5l-2.9-6.9h15.8L357.6,1122.4z"/>
		<path class="st3" d="M407.2,1150.6h-19.5l-2.9-6.8v-21.4l2.9-6.8h26.7v12.9l-6.8-2.9h-12.7v15h19.5l2.9,6.8v41.4l-2.9,6.8h-26.7
			l-2.9-6.8v-28.2h12.9l-2.9,6.8v18.2h12.3L407.2,1150.6L407.2,1150.6z"/>
		<path class="st3" d="M437.4,1195.6h-15.8l4.2-6.8l13-66.5l-1.4-6.8H453l-1.4,6.8l13,66.5l4.2,6.8H453l1.5-6.8l-3.5-18.2h-11.7
			l-3.5,18.2L437.4,1195.6z M441.3,1160.6h7.7l-3.9-19.6L441.3,1160.6z"/>
		<path class="st3" d="M496.7,1150.6h-19.6l-2.9-6.8v-21.4l2.9-6.9h26.7v12.9l-6.8-2.9h-12.7v15h19.5l2.9,6.8v41.4l-2.9,6.8h-26.7
			l-2.9-6.8v-28.1h12.9l-2.9,6.8v18.2h12.3v-35H496.7z"/>
	</g>
</g>
</svg>
