<?xml version="1.0" encoding="utf-8"?>
<!-- Generator: Adobe Illustrator 19.1.0, SVG Export Plug-In . SVG Version: 6.00 Build 0)  -->
<svg version="1.1" id="Layer_1" xmlns="http://www.w3.org/2000/svg" xmlns:xlink="http://www.w3.org/1999/xlink" x="0px" y="0px"
	 viewBox="677.1 521.3 781.7 160.1" style="enable-background:new 677.1 521.3 781.7 160.1;" xml:space="preserve">
<style type="text/css">
	.st0{fill:#6F1717;}
	.st1{fill:#D66F87;}
	.st2{fill:#711B1D;}
	.st3{fill:#FFFFFF;}
</style>
<g>
	<g>
		<path class="st0" d="M1445.5,681.5h-755c-7.4,0-13.3-6.1-13.3-13.6V534.9c0-7.5,6-13.6,13.3-13.6h755c7.4,0,13.3,6.1,13.3,13.6
			v132.9C1458.8,675.4,1452.8,681.5,1445.5,681.5z"/>
		<g id="_x31_V7nqP.tif_7_">
			<g>
				<path class="st3" d="M710.7,531.3c94.7,0,619.4,0,714,0c0,5.5,0,11.1,0,16.6c2.2,0,3.9,0,6.1,0c0-2.7,0-5.3,0-7.8
					c3.7,0,7.1,0,10.6,0c0,3.4,0,6.7,0,10.3c-2.8,0-5.6,0-8.4,0c0,2.1,0,4,0,6.1c5.7,0,11.2,0,16.8,0c0,46.9,0,43.8,0,90.8
					c-5.5,0-11.1,0-16.6,0c0,2.1,0,3.9,0,6.1c2.7,0,5.2,0,7.8,0c0,3.8,0,7.2,0,10.7c-3.5,0-6.7,0-10.3,0c0-2.9,0-5.6,0-8.4
					c-2.1,0-4,0-6,0c0,5.7,0,11.2,0,16.7c-94.7,0-619.4,0-714,0c0-5.5,0-11,0-16.5c-2.1,0-3.9,0-6.1,0c0,2.7,0,5.3,0,7.8
					c-3.7,0-7.1,0-10.6,0c0-3.5,0-6.7,0-10.3c2.9,0,5.6,0,8.4,0c0-2.2,0-4,0-6.2c-5.7,0-11.1,0-16.5,0c0-46.9,0-43.5,0-90.5
					c5.5,0,10.9,0,16.2,0c0-2.2,0-4,0-6.2c-2.8,0-5.3,0-7.8,0c0-3.7,0-7.1,0-10.6c3.4,0,6.7,0,10.3,0c0,2.8,0,5.6,0,8.4
					c2.2,0,4,0,6.1,0C710.7,542.3,710.7,536.8,710.7,531.3z M713,669.6c93.3,0,616.3,0,709.5,0c0-5.5,0-10.8,0-16.4
					c2.9,0,5.5,0,8.4,0c0-2.9,0-5.5,0-8.5c5.6,0,11,0,16.3,0c0-45.5,0-40.6,0-86c-5.5,0-10.9,0-16.5,0c0-3,0-5.6,0-8.5
					c-2.9,0-5.5,0-8.3,0c0-5.6,0-10.9,0-16.3c-93.3,0-616.3,0-709.5,0c0,5.5,0,10.8,0,16.4c-2.9,0-5.5,0-8.4,0c0,2.9,0,5.5,0,8.5
					c-5.6,0-11,0-16.3,0c0,45.5,0,40.6,0,86c5.5,0,10.9,0,16.5,0c0,3,0,5.6,0,8.5c2.9,0,5.5,0,8.3,0C713,658.9,713,664.2,713,669.6z
					 M696.4,547.9c2.1,0,3.9,0,5.8,0c0-2.2,0-4.1,0-6.1c-2,0-3.8,0-5.8,0C696.4,543.9,696.4,545.8,696.4,547.9z M1433.1,661.7
					c2.1,0,3.9,0,5.8,0c0-2.1,0-4,0-6.1c-2,0-3.9,0-5.8,0C1433.1,657.6,1433.1,659.5,1433.1,661.7z M702.4,661.3c0-2,0-3.8,0-5.6
					c-2.2,0-4.2,0-6.3,0c0,2,0,3.7,0,5.6C698.2,661.3,700.2,661.3,702.4,661.3z M1439.2,542.2c-2.1,0-4.2,0-6.2,0c0,2,0,3.8,0,5.7
					c2.2,0,4.1,0,6.2,0C1439.2,546,1439.2,544.2,1439.2,542.2z"/>
			</g>
		</g>
	</g>
	<g>
		<g>
			<path class="st1" d="M761.4,642.6l2.9,6.8h-15.8l2.9-6.8v-73.2h-6.8l-6.8,2.8v-12.9H775v12.9l-6.9-2.9h-6.7
				C761.4,569.3,761.4,642.6,761.4,642.6z"/>
			<path class="st1" d="M790.8,649.5H775l4.2-6.8l13-66.5l-1.4-6.8h15.6l-1.4,6.8l13,66.5l4.2,6.8h-15.7l1.5-6.8l-3.5-18.2h-11.7
				l-3.5,18.2L790.8,649.5z M794.8,614.4h7.7l-3.9-19.6L794.8,614.4z"/>
			<path class="st1" d="M865,601.2v41.4l-2.9,6.8h-34.4l2.9-6.8v-66.4l-2.9-6.8h34.4l2.9,6.8v21.4l-2.9,1.9L865,601.2z M840.6,579.4
				v15h14.3v-15H840.6z M840.6,639.4h14.3v-35h-14.3V639.4z"/>
			<path class="st1" d="M885.6,576.2v63.3h12.7l6.8-2.9l-2.9,12.9h-29.5l2.9-6.8v-66.5l-2.9-6.8h15.8L885.6,576.2z"/>
			<path class="st1" d="M925.2,649.5h-15.8l4.2-6.8l13-66.5l-1.4-6.8h15.6l-1.4,6.8l13,66.5l4.2,6.8h-15.8l1.5-6.8l-3.5-18.2h-11.7
				l-3.5,18.2L925.2,649.5z M929.2,614.4h7.7l-3.9-19.6L929.2,614.4z"/>
			<path class="st1" d="M984.5,604.4H965l-2.9-6.8v-21.4l2.9-6.8h26.7v12.9l-6.8-2.9h-12.7v15h19.5l2.9,6.8v41.4l-2.9,6.8H965
				l-2.9-6.8v-28.2H975l-2.9,6.8v18.2h12.3v-35H984.5z"/>
			<path class="st1" d="M1039.4,556.1v96.5l2.9,6.8h-15.8l2.9-6.8v-96.5l-2.9-6.8h15.8L1039.4,556.1z"/>
			<path class="st1" d="M1087.1,642.6l2.9,6.8h-15.8l2.9-6.8v-76.4l-2.9-6.8h34.4l2.9,6.8v21.4l-2.9,6.8h-21.5V642.6z M1087.1,569.4
				v15h14.3v-15C1101.4,569.4,1087.1,569.4,1087.1,569.4z"/>
			<path class="st1" d="M1132.1,576.2v66.5l2.9,6.8h-15.8l2.9-6.8v-66.5l-2.9-6.8h15.8L1132.1,576.2z"/>
			<path class="st1" d="M1175.1,569.4v12.9l-6.8-2.9h-15.5v60.1h15.5l6.8-2.9l-2.9,12.9h-26.7l-2.9-6.8v-66.5l2.9-6.8
				C1145.5,569.4,1175.1,569.4,1175.1,569.4z"/>
			<path class="st1" d="M1216.5,649.5h-28.7l-2.9-6.8v-66.5l2.9-6.8h28.7l2.9,6.8v66.5L1216.5,649.5z M1209.3,579.4H1195v60.1h14.3
				V579.4z"/>
			<path class="st1" d="M1250.7,642.6l2.9,6.8h-15.8l2.9-6.8v-63.2h-6.7l-6.8,2.9v-12.9h37.2v12.9l-6.9-2.9h-6.7L1250.7,642.6
				L1250.7,642.6z"/>
			<path class="st1" d="M1272,649.5l2.9-6.8v-66.5l-2.9-6.8h32.4v12.9l-6.8-2.9h-12.7v15h10.7l6.8-2.9v15.8l-6.8-2.9h-10.7v35h12.7
				l6.8-2.9l-2.9,12.9H1272V649.5z"/>
			<path class="st1" d="M1345.9,649.5h-28.7l-2.9-6.8v-66.5l2.9-6.8h28.7l2.9,6.8v66.5L1345.9,649.5z M1338.7,579.4h-14.3v60.1h14.3
				V579.4z"/>
			<path class="st1" d="M1381,604.4h-19.5l-2.9-6.8v-21.4l2.9-6.8h26.7v12.9l-6.8-2.9h-12.7v15h19.5l2.9,6.8v41.4l-2.9,6.8h-26.7
				l-2.9-6.8v-28.2h12.9l-2.9,6.8v18.2h12.3L1381,604.4L1381,604.4z"/>
		</g>
		<g>
			<path class="st2" d="M765.4,639.6l2.9,6.8h-15.8l2.9-6.8v-73.2h-6.7l-6.9,2.8v-12.9H779v12.9l-6.9-2.9h-6.7
				C765.4,566.3,765.4,639.6,765.4,639.6z"/>
			<path class="st2" d="M794.8,646.5H779l4.2-6.8l13-66.5l-1.4-6.8h15.6l-1.4,6.8l13,66.5l4.2,6.8h-15.7l1.5-6.8l-3.5-18.2h-11.7
				l-3.5,18.2L794.8,646.5z M798.8,611.4h7.7l-3.9-19.6L798.8,611.4z"/>
			<path class="st2" d="M869,598.2v41.4l-2.9,6.8h-34.4l2.9-6.8v-66.4l-2.9-6.8h34.4l2.9,6.8v21.4l-2.9,1.9L869,598.2z M844.6,576.4
				v15h14.3v-15H844.6z M844.6,636.4h14.3v-35h-14.3V636.4z"/>
			<path class="st2" d="M889.6,573.2v63.3h12.7l6.8-2.9l-2.9,12.9h-29.5l2.9-6.8v-66.5l-2.9-6.8h15.8L889.6,573.2z"/>
			<path class="st2" d="M929.2,646.5h-15.8l4.2-6.8l13-66.5l-1.4-6.8h15.6l-1.4,6.8l13,66.5l4.2,6.8h-15.8l1.5-6.8l-3.5-18.2h-11.7
				l-3.5,18.2L929.2,646.5z M933.2,611.4h7.7l-3.9-19.6L933.2,611.4z"/>
			<path class="st2" d="M988.5,601.4H969l-2.9-6.8v-21.4l2.9-6.8h26.7v12.9l-6.8-2.9h-12.7v15h19.5l2.9,6.8v41.4l-2.9,6.8H969
				l-2.9-6.8v-28.2H979l-2.9,6.8v18.2h12.3v-35H988.5z"/>
			<path class="st2" d="M1043.4,553.1v96.5l2.9,6.8h-15.8l2.9-6.8v-96.5l-2.9-6.8h15.8L1043.4,553.1z"/>
			<path class="st2" d="M1091.1,639.6l2.9,6.8h-15.8l2.9-6.8v-76.4l-2.9-6.8h34.4l2.9,6.8v21.4l-2.9,6.8h-21.5V639.6z M1091.1,566.4
				v15h14.3v-15C1105.4,566.4,1091.1,566.4,1091.1,566.4z"/>
			<path class="st2" d="M1136.1,573.2v66.5l2.9,6.8h-15.8l2.9-6.8v-66.5l-2.9-6.8h15.8L1136.1,573.2z"/>
			<path class="st2" d="M1179.1,566.4v12.9l-6.8-2.9h-15.5v60.1h15.5l6.8-2.9l-2.9,12.9h-26.7l-2.9-6.8v-66.5l2.9-6.8
				C1149.5,566.4,1179.1,566.4,1179.1,566.4z"/>
			<path class="st2" d="M1220.5,646.5h-28.7l-2.9-6.8v-66.5l2.9-6.8h28.7l2.9,6.8v66.5L1220.5,646.5z M1213.3,576.4H1199v60.1h14.3
				V576.4z"/>
			<path class="st2" d="M1254.7,639.6l2.9,6.8h-15.8l2.9-6.8v-63.2h-6.7l-6.8,2.9v-12.9h37.2v12.9l-6.9-2.9h-6.7L1254.7,639.6
				L1254.7,639.6z"/>
			<path class="st2" d="M1276,646.5l2.9-6.8v-66.5l-2.9-6.8h32.4v12.9l-6.8-2.9h-12.7v15h10.7l6.8-2.9v15.8l-6.8-2.9h-10.7v35h12.7
				l6.8-2.9l-2.9,12.9H1276V646.5z"/>
			<path class="st2" d="M1349.9,646.5h-28.7l-2.9-6.8v-66.5l2.9-6.8h28.7l2.9,6.8v66.5L1349.9,646.5z M1342.7,576.4h-14.3v60.1h14.3
				V576.4z"/>
			<path class="st2" d="M1385,601.4h-19.5l-2.9-6.8v-21.4l2.9-6.8h26.7v12.9l-6.8-2.9h-12.7v15h19.5l2.9,6.8v41.4l-2.9,6.8h-26.7
				l-2.9-6.8v-28.2h12.9l-2.9,6.8v18.2h12.3L1385,601.4L1385,601.4z"/>
		</g>
		<g>
			<path class="st3" d="M768.4,636.6l2.9,6.8h-15.8l2.9-6.8v-73.2h-6.7l-6.9,2.8v-12.9H782v12.9l-6.9-2.9h-6.7
				C768.4,563.3,768.4,636.6,768.4,636.6z"/>
			<path class="st3" d="M797.8,643.5H782l4.2-6.8l13-66.5l-1.4-6.8h15.6l-1.4,6.8l13,66.5l4.2,6.8h-15.7l1.5-6.8l-3.5-18.2h-11.7
				l-3.5,18.2L797.8,643.5z M801.8,608.4h7.7l-3.9-19.6L801.8,608.4z"/>
			<path class="st3" d="M872,595.2v41.4l-2.9,6.8h-34.4l2.9-6.8v-66.4l-2.9-6.8h34.4l2.9,6.8v21.4l-2.9,1.9L872,595.2z M847.6,573.4
				v15h14.3v-15C861.9,573.4,847.6,573.4,847.6,573.4z M847.6,633.4h14.3v-35h-14.3V633.4z"/>
			<path class="st3" d="M892.6,570.2v63.3h12.7l6.8-2.9l-2.9,12.9h-29.5l2.9-6.8v-66.5l-2.9-6.8h15.8L892.6,570.2z"/>
			<path class="st3" d="M932.2,643.5h-15.8l4.2-6.8l13-66.5l-1.4-6.8h15.6l-1.4,6.8l13,66.5l4.2,6.8h-15.8l1.5-6.8l-3.5-18.2h-11.7
				l-3.5,18.2L932.2,643.5z M936.2,608.4h7.7l-3.9-19.6L936.2,608.4z"/>
			<path class="st3" d="M991.5,598.4H972l-2.9-6.8v-21.4l2.9-6.8h26.7v12.9l-6.8-2.9h-12.7v15h19.5l2.9,6.8v41.4l-2.9,6.8H972
				l-2.9-6.8v-28.2H982l-2.9,6.8v18.2h12.3v-35H991.5z"/>
			<path class="st3" d="M1046.4,550.1v96.5l2.9,6.8h-15.8l2.9-6.8v-96.5l-2.9-6.8h15.8L1046.4,550.1z"/>
			<path class="st3" d="M1094.1,636.6l2.9,6.8h-15.8l2.9-6.8v-76.4l-2.9-6.8h34.4l2.9,6.8v21.4l-2.9,6.8h-21.5V636.6z M1094.1,563.4
				v15h14.3v-15C1108.4,563.4,1094.1,563.4,1094.1,563.4z"/>
			<path class="st3" d="M1139.1,570.2v66.5l2.9,6.8h-15.8l2.9-6.8v-66.5l-2.9-6.8h15.8L1139.1,570.2z"/>
			<path class="st3" d="M1182.1,563.4v12.9l-6.8-2.9h-15.5v60.1h15.5l6.8-2.9l-2.9,12.9h-26.7l-2.9-6.8v-66.5l2.9-6.8
				C1152.5,563.4,1182.1,563.4,1182.1,563.4z"/>
			<path class="st3" d="M1223.5,643.5h-28.7l-2.9-6.8v-66.5l2.9-6.8h28.7l2.9,6.8v66.5L1223.5,643.5z M1216.3,573.4H1202v60.1h14.3
				V573.4z"/>
			<path class="st3" d="M1257.7,636.6l2.9,6.8h-15.8l2.9-6.8v-63.2h-6.7l-6.8,2.9v-12.9h37.2v12.9l-6.9-2.9h-6.7L1257.7,636.6
				L1257.7,636.6z"/>
			<path class="st3" d="M1279,643.5l2.9-6.8v-66.5l-2.9-6.8h32.4v12.9l-6.8-2.9h-12.7v15h10.7l6.8-2.9v15.8l-6.8-2.9h-10.7v35h12.7
				l6.8-2.9l-2.9,12.9H1279V643.5z"/>
			<path class="st3" d="M1352.9,643.5h-28.7l-2.9-6.8v-66.5l2.9-6.8h28.7l2.9,6.8v66.5L1352.9,643.5z M1345.7,573.4h-14.3v60.1h14.3
				V573.4z"/>
			<path class="st3" d="M1388,598.4h-19.5l-2.9-6.8v-21.4l2.9-6.8h26.7v12.9l-6.8-2.9h-12.7v15h19.5l2.9,6.8v41.4l-2.9,6.8h-26.7
				l-2.9-6.8v-28.2h12.9l-2.9,6.8v18.2h12.3L1388,598.4L1388,598.4z"/>
		</g>
	</g>
</g>
</svg>
