<?xml version="1.0" encoding="utf-8"?>
<!-- Generator: Adobe Illustrator 19.1.0, SVG Export Plug-In . SVG Version: 6.00 Build 0)  -->
<svg version="1.1" id="Layer_1" xmlns="http://www.w3.org/2000/svg" xmlns:xlink="http://www.w3.org/1999/xlink" x="0px" y="0px"
	 viewBox="1447.9 1875.4 351.7 160.1" style="enable-background:new 1447.9 1875.4 351.7 160.1;" xml:space="preserve">
<style type="text/css">
	.st0{fill:#6F1717;}
	.st1{fill:#FFFFFF;}
	.st2{fill:#CE7689;}
	.st3{fill:#D66F87;}
	.st4{fill:#711B1D;}
</style>
<g>
	<path class="st0" d="M1786.2,2035.6h-325c-7.4,0-13.3-6.1-13.3-13.6v-132.9c0-7.5,6-13.6,13.3-13.6h325c7.4,0,13.3,6.1,13.3,13.6
		v132.9C1799.6,2029.5,1793.6,2035.6,1786.2,2035.6z"/>
	<g id="_x31_V7nqP.tif_17_">
		<g>
			<path class="st1" d="M1481.4,1885.4c94.7,0,189.4,0,284,0c0,5.5,0,11.1,0,16.6c2.2,0,3.9,0,6.1,0c0-2.7,0-5.3,0-7.8
				c3.7,0,7.1,0,10.6,0c0,3.4,0,6.7,0,10.3c-2.8,0-5.6,0-8.4,0c0,2.1,0,4,0,6.1c5.7,0,11.2,0,16.8,0c0,46.9,0,43.8,0,90.8
				c-5.5,0-11.1,0-16.6,0c0,2.1,0,3.9,0,6.1c2.7,0,5.2,0,7.8,0c0,3.8,0,7.2,0,10.7c-3.5,0-6.7,0-10.3,0c0-2.9,0-5.6,0-8.4
				c-2.1,0-4,0-6,0c0,5.7,0,11.2,0,16.7c-94.7,0-189.4,0-284,0c0-5.5,0-11,0-16.5c-2.1,0-3.9,0-6.1,0c0,2.7,0,5.3,0,7.8
				c-3.7,0-7.1,0-10.6,0c0-3.5,0-6.7,0-10.3c2.9,0,5.6,0,8.4,0c0-2.2,0-4,0-6.2c-5.7,0-11.1,0-16.5,0c0-46.9,0-43.5,0-90.5
				c5.5,0,10.9,0,16.2,0c0-2.2,0-4,0-6.2c-2.8,0-5.3,0-7.8,0c0-3.7,0-7.1,0-10.6c3.4,0,6.7,0,10.3,0c0,2.8,0,5.6,0,8.4
				c2.2,0,4,0,6.1,0C1481.4,1896.4,1481.4,1890.9,1481.4,1885.4z M1483.8,2023.7c93.3,0,186.3,0,279.5,0c0-5.5,0-10.8,0-16.4
				c2.9,0,5.5,0,8.4,0c0-2.9,0-5.5,0-8.5c5.6,0,11,0,16.3,0c0-45.5,0-40.6,0-86c-5.5,0-10.9,0-16.5,0c0-3,0-5.6,0-8.5
				c-2.9,0-5.5,0-8.3,0c0-5.6,0-10.9,0-16.3c-93.3,0-186.3,0-279.5,0c0,5.5,0,10.8,0,16.4c-2.9,0-5.5,0-8.4,0c0,2.9,0,5.5,0,8.5
				c-5.6,0-11,0-16.3,0c0,45.5,0,40.6,0,86c5.5,0,10.9,0,16.5,0c0,3,0,5.6,0,8.5c2.9,0,5.5,0,8.3,0
				C1483.8,2013,1483.8,2018.3,1483.8,2023.7z M1467.1,1902c2.1,0,3.9,0,5.8,0c0-2.2,0-4.1,0-6.1c-2,0-3.8,0-5.8,0
				C1467.1,1898,1467.1,1899.9,1467.1,1902z M1773.9,2015.8c2.1,0,3.9,0,5.8,0c0-2.1,0-4,0-6.1c-2,0-3.9,0-5.8,0
				C1773.9,2011.8,1773.9,2013.6,1773.9,2015.8z M1473.2,2015.4c0-2,0-3.8,0-5.6c-2.2,0-4.2,0-6.3,0c0,2,0,3.7,0,5.6
				C1469,2015.4,1470.9,2015.4,1473.2,2015.4z M1780,1896.3c-2.1,0-4.2,0-6.2,0c0,2,0,3.8,0,5.7c2.2,0,4.1,0,6.2,0
				C1780,1900.1,1780,1898.3,1780,1896.3z"/>
		</g>
	</g>
</g>
<g>
	<g>
		<path class="st2" d="M1515.6,1996.7l2.9,6.8h-15.8l2.9-6.8v-76.5l-2.9-6.8h34.4l2.9,6.8v21.4l-2.9,6.8h-21.5V1996.7z
			 M1515.6,1923.5v15h14.3v-15H1515.6z"/>
		<path class="st2" d="M1547.7,2003.6l2.9-6.8v-76.5l-2.9-6.8h32.4v12.9l-6.8-2.9h-12.7v15h10.7l6.8-2.9v15.8l-6.8-2.9h-10.7v45.1
			h12.7l6.8-2.9l-2.9,12.9H1547.7z"/>
		<path class="st2" d="M1587.8,1913.4h34.4l2.9,6.8v76.5l-2.9,6.8h-34.4l2.9-6.8v-76.5L1587.8,1913.4z M1600.7,1923.5v70.1h14.3
			v-70.1H1600.7z"/>
		<path class="st2" d="M1645.6,1920.3v76.5l2.9,6.8h-15.8l2.9-6.8v-76.5l-2.9-6.8h15.8L1645.6,1920.3z"/>
		<path class="st2" d="M1656.2,1913.4h34.4l2.9,6.8v76.5l-2.9,6.8h-34.4l2.9-6.8v-76.5L1656.2,1913.4z M1669.1,1923.5v70.1h14.3
			v-70.1H1669.1z"/>
		<path class="st2" d="M1734.9,2003.6h-28.7l-2.9-6.8v-76.5l2.9-6.8h28.7l2.9,6.8v76.5L1734.9,2003.6z M1727.7,1923.5h-14.3v70.1
			h14.3V1923.5z"/>
	</g>
	<g>
		<path class="st0" d="M1519.6,1993.7l2.9,6.8h-15.8l2.9-6.8v-76.5l-2.9-6.8h34.4l2.9,6.8v21.4l-2.9,6.8h-21.5V1993.7z
			 M1519.6,1920.5v15h14.3v-15H1519.6z"/>
		<path class="st0" d="M1551.7,2000.6l2.9-6.8v-76.5l-2.9-6.8h32.4v12.9l-6.8-2.9h-12.7v15h10.7l6.8-2.9v15.8l-6.8-2.9h-10.7v45.1
			h12.7l6.8-2.9l-2.9,12.9H1551.7z"/>
		<path class="st0" d="M1591.8,1910.4h34.4l2.9,6.8v76.5l-2.9,6.8h-34.4l2.9-6.8v-76.5L1591.8,1910.4z M1604.7,1920.5v70.1h14.3
			v-70.1H1604.7z"/>
		<path class="st0" d="M1649.6,1917.3v76.5l2.9,6.8h-15.8l2.9-6.8v-76.5l-2.9-6.8h15.8L1649.6,1917.3z"/>
		<path class="st0" d="M1660.2,1910.4h34.4l2.9,6.8v76.5l-2.9,6.8h-34.4l2.9-6.8v-76.5L1660.2,1910.4z M1673.1,1920.5v70.1h14.3
			v-70.1H1673.1z"/>
		<path class="st0" d="M1738.9,2000.6h-28.7l-2.9-6.8v-76.5l2.9-6.8h28.7l2.9,6.8v76.5L1738.9,2000.6z M1731.7,1920.5h-14.3v70.1
			h14.3V1920.5z"/>
	</g>
	<g>
		<path class="st1" d="M1522.6,1990.7l2.9,6.8h-15.8l2.9-6.8v-76.5l-2.9-6.8h34.4l2.9,6.8v21.4l-2.9,6.8h-21.5V1990.7z
			 M1522.6,1917.5v15h14.3v-15H1522.6z"/>
		<path class="st1" d="M1554.7,1997.6l2.9-6.8v-76.5l-2.9-6.8h32.4v12.9l-6.8-2.9h-12.7v15h10.7l6.8-2.9v15.8l-6.8-2.9h-10.7v45.1
			h12.7l6.8-2.9l-2.9,12.9H1554.7z"/>
		<path class="st1" d="M1594.8,1907.4h34.4l2.9,6.8v76.5l-2.9,6.8h-34.4l2.9-6.8v-76.5L1594.8,1907.4z M1607.7,1917.5v70.1h14.3
			v-70.1H1607.7z"/>
		<path class="st1" d="M1652.6,1914.3v76.5l2.9,6.8h-15.8l2.9-6.8v-76.5l-2.9-6.8h15.8L1652.6,1914.3z"/>
		<path class="st1" d="M1663.2,1907.4h34.4l2.9,6.8v76.5l-2.9,6.8h-34.4l2.9-6.8v-76.5L1663.2,1907.4z M1676.1,1917.5v70.1h14.3
			v-70.1H1676.1z"/>
		<path class="st1" d="M1741.9,1997.6h-28.7l-2.9-6.8v-76.5l2.9-6.8h28.7l2.9,6.8v76.5L1741.9,1997.6z M1734.7,1917.5h-14.3v70.1
			h14.3V1917.5z"/>
	</g>
</g>
</svg>
