<?xml version="1.0" encoding="utf-8"?>
<!-- Generator: Adobe Illustrator 19.1.0, SVG Export Plug-In . SVG Version: 6.00 Build 0)  -->
<svg version="1.1" id="Layer_1" xmlns="http://www.w3.org/2000/svg" xmlns:xlink="http://www.w3.org/1999/xlink" x="0px" y="0px"
	 viewBox="127.8 513.3 481.7 160.1" style="enable-background:new 127.8 513.3 481.7 160.1;" xml:space="preserve">
<style type="text/css">
	.st0{fill:#6F1717;}
	.st1{fill:#D66F87;}
	.st2{fill:#711B1D;}
	.st3{fill:#FFFFFF;}
</style>
<g>
	<g>
		<path class="st0" d="M596.2,673.4h-455c-7.4,0-13.3-6.1-13.3-13.6V526.9c0-7.5,6-13.6,13.3-13.6h455c7.4,0,13.3,6.1,13.3,13.6
			v132.9C609.5,667.3,603.5,673.4,596.2,673.4z"/>
		<g id="_x31_V7nqP.tif_6_">
			<g>
				<path class="st3" d="M161.4,523.3c94.7,0,319.4,0,414,0c0,5.5,0,11.1,0,16.6c2.2,0,3.9,0,6.1,0c0-2.7,0-5.3,0-7.8
					c3.7,0,7.1,0,10.6,0c0,3.4,0,6.7,0,10.3c-2.8,0-5.6,0-8.4,0c0,2.1,0,4,0,6.1c5.7,0,11.2,0,16.8,0c0,46.9,0,43.8,0,90.8
					c-5.5,0-11.1,0-16.6,0c0,2.1,0,3.9,0,6.1c2.7,0,5.2,0,7.8,0c0,3.8,0,7.2,0,10.7c-3.5,0-6.7,0-10.3,0c0-2.9,0-5.6,0-8.4
					c-2.1,0-4,0-6,0c0,5.7,0,11.2,0,16.7c-94.7,0-319.4,0-414,0c0-5.5,0-11,0-16.5c-2.1,0-3.9,0-6.1,0c0,2.7,0,5.3,0,7.8
					c-3.7,0-7.1,0-10.6,0c0-3.5,0-6.7,0-10.3c2.9,0,5.6,0,8.4,0c0-2.2,0-4,0-6.2c-5.7,0-11.1,0-16.5,0c0-46.9,0-43.5,0-90.5
					c5.5,0,10.9,0,16.2,0c0-2.2,0-4,0-6.2c-2.8,0-5.3,0-7.8,0c0-3.7,0-7.1,0-10.6c3.4,0,6.7,0,10.3,0c0,2.8,0,5.6,0,8.4
					c2.2,0,4,0,6.1,0C161.4,534.2,161.4,528.8,161.4,523.3z M163.7,661.6c93.3,0,316.3,0,409.5,0c0-5.5,0-10.8,0-16.4
					c2.9,0,5.5,0,8.4,0c0-2.9,0-5.5,0-8.5c5.6,0,11,0,16.3,0c0-45.5,0-40.6,0-86c-5.5,0-10.9,0-16.5,0c0-3,0-5.6,0-8.5
					c-2.9,0-5.5,0-8.3,0c0-5.6,0-10.9,0-16.3c-93.3,0-316.3,0-409.5,0c0,5.5,0,10.8,0,16.4c-2.9,0-5.5,0-8.4,0c0,2.9,0,5.5,0,8.5
					c-5.6,0-11,0-16.3,0c0,45.5,0,40.6,0,86c5.5,0,10.9,0,16.5,0c0,3,0,5.6,0,8.5c2.9,0,5.5,0,8.3,0
					C163.7,650.9,163.7,656.2,163.7,661.6z M147.1,539.9c2.1,0,3.9,0,5.8,0c0-2.2,0-4.1,0-6.1c-2,0-3.8,0-5.8,0
					C147.1,535.9,147.1,537.7,147.1,539.9z M583.8,653.6c2.1,0,3.9,0,5.8,0c0-2.1,0-4,0-6.1c-2,0-3.9,0-5.8,0
					C583.8,649.6,583.8,651.5,583.8,653.6z M153.1,653.2c0-2,0-3.8,0-5.6c-2.2,0-4.2,0-6.3,0c0,2,0,3.7,0,5.6
					C148.9,653.2,150.9,653.2,153.1,653.2z M589.9,534.2c-2.1,0-4.2,0-6.2,0c0,2,0,3.8,0,5.7c2.2,0,4.1,0,6.2,0
					C589.9,537.9,589.9,536.1,589.9,534.2z"/>
			</g>
		</g>
	</g>
	<g>
		<g>
			<path class="st1" d="M194.5,641.3h-15.8l4.1-6.8l13.9-79.6l-2.2-3.7h15.6l-2.2,3.7l13.9,79.6l4.1,6.8h-15.8l1.8-6.8l-5-28.2h-9.2
				l-4.8,28.2L194.5,641.3z M199.4,596.3h5.7l-2.9-16.4L199.4,596.3z"/>
			<path class="st1" d="M268.6,568.1v66.5l2.9,6.8h-15.8l1.7-4l-13.1-43.2v40.3l2.9,6.8h-15.8l2.9-6.8v-66.4l-2.9-6.9h12.9
				l14.3,47.2v-40.3l-2.9-6.9h15.8L268.6,568.1z"/>
			<path class="st1" d="M302.8,634.5l2.9,6.8h-15.8l2.9-6.8v-63.2h-6.7l-6.8,2.9v-13h37.2v12.9l-6.9-2.9h-6.7v63.3H302.8z"/>
			<path class="st1" d="M355.7,641.3H327l-2.9-6.8v-66.4l2.9-6.8h28.7l2.9,6.8v66.5L355.7,641.3z M348.5,571.3h-14.3v60.1h14.3
				V571.3z"/>
			<path class="st1" d="M385.8,568.1l-2.9-6.8h15.8l-2.9,6.8v66.5l-2.9,6.8h-23.8l-2.9-6.8v-28.3h12.9l-2.9,6.8v18.2h9.5v-63.2
				H385.8z"/>
			<path class="st1" d="M419.3,568.1v66.5l2.9,6.8h-15.8l2.9-6.8v-66.5l-2.9-6.8h15.8L419.3,568.1z"/>
			<path class="st1" d="M453.4,634.5l2.9,6.8h-15.8l2.9-6.8v-63.2h-6.7l-6.8,2.9v-13h37.2v12.9l-6.9-2.9h-6.7L453.4,634.5
				L453.4,634.5z"/>
			<path class="st1" d="M506.3,641.3h-28.6l-2.9-6.8v-66.4l2.9-6.9h28.7l2.9,6.8v66.5L506.3,641.3z M499.2,571.3h-14.3v60.1h14.3
				V571.3z"/>
			<path class="st1" d="M541.5,596.3H522l-2.9-6.8v-21.4l2.9-6.8h26.7v12.9l-6.8-2.9h-12.7v15h19.5l2.9,6.8v41.4l-2.9,6.8H522
				l-2.9-6.8v-28.2H532l-2.9,6.8v18.2h12.3L541.5,596.3L541.5,596.3z"/>
		</g>
		<g>
			<path class="st2" d="M198.5,638.3h-15.8l4.1-6.8l13.9-79.6l-2.2-3.7h15.6l-2.2,3.7l13.9,79.6l4.1,6.8h-15.8l1.8-6.8l-5-28.2h-9.2
				l-4.8,28.2L198.5,638.3z M203.4,593.3h5.7l-2.9-16.4L203.4,593.3z"/>
			<path class="st2" d="M272.6,565.1v66.5l2.9,6.8h-15.8l1.7-4l-13.1-43.2v40.3l2.9,6.8h-15.8l2.9-6.8v-66.4l-2.9-6.9h12.9
				l14.3,47.2v-40.3l-2.9-6.9h15.8L272.6,565.1z"/>
			<path class="st2" d="M306.8,631.5l2.9,6.8h-15.8l2.9-6.8v-63.2h-6.7l-6.8,2.9v-13h37.2v12.9l-6.9-2.9h-6.7v63.3H306.8z"/>
			<path class="st2" d="M359.7,638.3H331l-2.9-6.8v-66.4l2.9-6.8h28.7l2.9,6.8v66.5L359.7,638.3z M352.5,568.3h-14.3v60.1h14.3
				V568.3z"/>
			<path class="st2" d="M389.8,565.1l-2.9-6.8h15.8l-2.9,6.8v66.5l-2.9,6.8h-23.8l-2.9-6.8v-28.3h12.9l-2.9,6.8v18.2h9.5v-63.2
				H389.8z"/>
			<path class="st2" d="M423.3,565.1v66.5l2.9,6.8h-15.8l2.9-6.8v-66.5l-2.9-6.8h15.8L423.3,565.1z"/>
			<path class="st2" d="M457.4,631.5l2.9,6.8h-15.8l2.9-6.8v-63.2h-6.7l-6.8,2.9v-13h37.2v12.9l-6.9-2.9h-6.7L457.4,631.5
				L457.4,631.5z"/>
			<path class="st2" d="M510.3,638.3h-28.6l-2.9-6.8v-66.4l2.9-6.9h28.7l2.9,6.8v66.5L510.3,638.3z M503.2,568.3h-14.3v60.1h14.3
				V568.3z"/>
			<path class="st2" d="M545.5,593.3H526l-2.9-6.8v-21.4l2.9-6.8h26.7v12.9l-6.8-2.9h-12.7v15h19.5l2.9,6.8v41.4l-2.9,6.8H526
				l-2.9-6.8v-28.2H536l-2.9,6.8v18.2h12.3L545.5,593.3L545.5,593.3z"/>
		</g>
		<g>
			<path class="st3" d="M201.5,635.3h-15.8l4.1-6.8l13.9-79.6l-2.2-3.7h15.6l-2.2,3.7l13.9,79.6l4.1,6.8h-15.8l1.8-6.8l-5-28.2h-9.2
				l-4.8,28.2L201.5,635.3z M206.4,590.3h5.7l-2.9-16.4L206.4,590.3z"/>
			<path class="st3" d="M275.6,562.1v66.5l2.9,6.8h-15.8l1.7-4l-13.1-43.2v40.3l2.9,6.8h-15.8l2.9-6.8v-66.4l-2.9-6.9h12.9
				l14.3,47.2v-40.3l-2.9-6.9h15.8L275.6,562.1z"/>
			<path class="st3" d="M309.8,628.5l2.9,6.8h-15.8l2.9-6.8v-63.2h-6.7l-6.8,2.9v-13h37.2v12.9l-6.9-2.9h-6.7v63.3H309.8z"/>
			<path class="st3" d="M362.7,635.3H334l-2.9-6.8v-66.4l2.9-6.8h28.7l2.9,6.8v66.5L362.7,635.3z M355.5,565.3h-14.3v60.1h14.3
				V565.3z"/>
			<path class="st3" d="M392.8,562.1l-2.9-6.8h15.8l-2.9,6.8v66.5l-2.9,6.8h-23.8l-2.9-6.8v-28.3h12.9l-2.9,6.8v18.2h9.5v-63.2
				H392.8z"/>
			<path class="st3" d="M426.3,562.1v66.5l2.9,6.8h-15.8l2.9-6.8v-66.5l-2.9-6.8h15.8L426.3,562.1z"/>
			<path class="st3" d="M460.4,628.5l2.9,6.8h-15.8l2.9-6.8v-63.2h-6.7l-6.8,2.9v-13h37.2v12.9l-6.9-2.9h-6.7v63.3H460.4z"/>
			<path class="st3" d="M513.3,635.3h-28.6l-2.9-6.8v-66.4l2.9-6.9h28.7l2.9,6.8v66.5L513.3,635.3z M506.2,565.3h-14.3v60.1h14.3
				V565.3z"/>
			<path class="st3" d="M548.5,590.3H529l-2.9-6.8v-21.4l2.9-6.8h26.7v12.9l-6.8-2.9h-12.7v15h19.5l2.9,6.8v41.4l-2.9,6.8H529
				l-2.9-6.8v-28.2H539l-2.9,6.8v18.2h12.3L548.5,590.3L548.5,590.3z"/>
		</g>
	</g>
</g>
</svg>
