<?xml version="1.0" encoding="utf-8"?>
<!-- Generator: Adobe Illustrator 19.1.0, SVG Export Plug-In . SVG Version: 6.00 Build 0)  -->
<svg version="1.1" id="Layer_1" xmlns="http://www.w3.org/2000/svg" xmlns:xlink="http://www.w3.org/1999/xlink" x="0px" y="0px"
	 viewBox="0 0 300.9 109" style="enable-background:new 0 0 300.9 109;" xml:space="preserve">
<style type="text/css">
	.st0{fill:#E8778C;}
	.st1{fill:#821010;}
	.st2{fill:#FFFFFF;}
	.st3{fill:#00135C;}
	.st4{fill:#009CDE;}
	.st5{fill:#52AA2B;}
	.st6{fill:#C40811;}
	.st7{fill-rule:evenodd;clip-rule:evenodd;fill:#009CDE;}
	.st8{fill:#00652E;}
	.st9{fill:#98BF11;}
	.st10{fill-rule:evenodd;clip-rule:evenodd;fill:#44AC6C;}
	.st11{fill-rule:evenodd;clip-rule:evenodd;fill:#E8778C;}
	.st12{fill:#006459;}
	.st13{fill:#E76112;}
	.st14{fill:#F6B63E;}
	.st15{fill-rule:evenodd;clip-rule:evenodd;fill:#F6B63E;}
	.st16{fill:#3F280D;}
	.st17{fill:#C89F6A;}
	.st18{fill-rule:evenodd;clip-rule:evenodd;fill:#C89F6A;}
	.st19{fill:#F19800;}
	.st20{fill:#FEF7BA;}
	.st21{fill-rule:evenodd;clip-rule:evenodd;fill:#FEF7BA;}
	.st22{fill:#001781;}
	.st23{fill-rule:evenodd;clip-rule:evenodd;fill:#EBA1C7;}
	.st24{fill-rule:evenodd;clip-rule:evenodd;fill:#00652E;}
	.st25{fill:#1FA29B;}
	.st26{fill-rule:evenodd;clip-rule:evenodd;fill:#006459;}
	.st27{fill-rule:evenodd;clip-rule:evenodd;fill:#1FA29B;}
	.st28{fill:#7C0A4C;}
	.st29{fill-rule:evenodd;clip-rule:evenodd;fill:#7C0A4C;}
	.st30{fill:#EBA1C7;}
	.st31{fill-rule:evenodd;clip-rule:evenodd;fill:#98BF11;}
	.st32{fill-rule:evenodd;clip-rule:evenodd;fill:#E76112;}
	.st33{fill-rule:evenodd;clip-rule:evenodd;fill:#3F280D;}
	.st34{fill-rule:evenodd;clip-rule:evenodd;fill:#00135C;}
	.st35{fill-rule:evenodd;clip-rule:evenodd;fill:#821010;}
	.st36{fill-rule:evenodd;clip-rule:evenodd;fill:#F19800;}
	.st37{fill-rule:evenodd;clip-rule:evenodd;}
	.st38{fill-rule:evenodd;clip-rule:evenodd;fill:#FFFFFF;}
	.st39{fill:none;stroke:#5D5D5D;stroke-width:2;stroke-miterlimit:10;}
</style>
<g>
	<path style="fill:#CF778A;" d="M30.6,19.8l9.5,54.7l9.6-54.7l-1.8-6.8h15.8l-4.1,6.8L45.7,99.3l2.2,3.7H32.3l2.2-3.7L20.6,19.8
		l-4.1-6.8h15.8L30.6,19.8z"/>
	<path style="fill:#CF778A;" d="M99.6,103.1H70.9l-2.9-6.8V19.8l2.9-6.8h28.7l2.9,6.8v76.5L99.6,103.1z M92.4,22.9H78.1V93h14.3
		V22.9z"/>
	<path style="fill:#CF778A;" d="M123.1,19.8V93h12.7l6.8-2.9l-2.9,12.9h-29.5l2.9-6.8V19.8l-2.9-6.8h15.8L123.1,19.8z"/>
	<path style="fill:#CF778A;" d="M158.9,19.8l9.5,54.7l9.6-54.7l-1.8-6.8h15.8l-4.1,6.8L174,99.3l2.2,3.7h-15.6l2.2-3.7l-13.9-79.6
		l-4.1-6.8h15.8L158.9,19.8z"/>
	<path style="fill:#CF778A;" d="M197.5,103.1l2.9-6.8V19.8l-2.9-6.8h32.4v12.9l-6.8-2.9h-12.7v15H221l6.8-2.9v15.8L221,48h-10.7V93
		H223l6.8-2.9l-2.9,12.9H197.5z"/>
	<path style="fill:#CF778A;" d="M270.9,96.2l4,6.8h-15.8l1.8-6.8L253.2,48h-2.8v48.3l2.9,6.8h-15.8l2.9-6.8V19.8l-2.9-6.8H272
		l2.9,6.8v21.4L272,48h-8.7L270.9,96.2z M250.5,22.9v15h14.3v-15H250.5z"/>
</g>
<g>
	<path style="fill:#6F1717;" d="M34.6,16.8l9.5,54.7l9.6-54.7l-1.8-6.8h15.8l-4.1,6.8L49.7,96.3l2.2,3.7H36.3l2.2-3.7L24.6,16.8
		l-4.1-6.8h15.8L34.6,16.8z"/>
	<path style="fill:#6F1717;" d="M103.6,100.1H74.9l-2.9-6.8V16.8l2.9-6.8h28.7l2.9,6.8v76.5L103.6,100.1z M96.4,19.9H82.1V90h14.3
		V19.9z"/>
	<path style="fill:#6F1717;" d="M127.1,16.8V90h12.7l6.8-2.9l-2.9,12.9h-29.5l2.9-6.8V16.8l-2.9-6.8h15.8L127.1,16.8z"/>
	<path style="fill:#6F1717;" d="M162.9,16.8l9.5,54.7l9.6-54.7l-1.8-6.8h15.8l-4.1,6.8L178,96.3l2.2,3.7h-15.6l2.2-3.7l-13.9-79.6
		l-4.1-6.8h15.8L162.9,16.8z"/>
	<path style="fill:#6F1717;" d="M201.5,100.1l2.9-6.8V16.8l-2.9-6.8h32.4v12.9l-6.8-2.9h-12.7v15H225l6.8-2.9v15.8L225,45h-10.7V90
		H227l6.8-2.9l-2.9,12.9H201.5z"/>
	<path style="fill:#6F1717;" d="M274.9,93.2l4,6.8h-15.8l1.8-6.8L257.2,45h-2.8v48.3l2.9,6.8h-15.8l2.9-6.8V16.8l-2.9-6.8H276
		l2.9,6.8v21.4L276,45h-8.7L274.9,93.2z M254.5,19.9v15h14.3v-15H254.5z"/>
</g>
<g>
	<path class="st2" d="M37.6,13.8l9.5,54.7l9.6-54.7l-1.8-6.8h15.8l-4.1,6.8L52.7,93.3l2.2,3.7H39.3l2.2-3.7L27.6,13.8l-4.1-6.8h15.8
		L37.6,13.8z"/>
	<path class="st2" d="M106.6,97.1H77.9l-2.9-6.8V13.8l2.9-6.8h28.7l2.9,6.8v76.5L106.6,97.1z M99.4,16.9H85.1V87h14.3V16.9z"/>
	<path class="st2" d="M130.1,13.8V87h12.7l6.8-2.9l-2.9,12.9h-29.5l2.9-6.8V13.8l-2.9-6.8h15.8L130.1,13.8z"/>
	<path class="st2" d="M165.9,13.8l9.5,54.7l9.6-54.7l-1.8-6.8h15.8l-4.1,6.8L181,93.3l2.2,3.7h-15.6l2.2-3.7l-13.9-79.6l-4.1-6.8
		h15.8L165.9,13.8z"/>
	<path class="st2" d="M204.5,97.1l2.9-6.8V13.8l-2.9-6.8h32.4v12.9l-6.8-2.9h-12.7v15H228l6.8-2.9v15.8L228,42h-10.7V87H230l6.8-2.9
		L234,97.1H204.5z"/>
	<path class="st2" d="M277.9,90.2l4,6.8h-15.8l1.8-6.8L260.2,42h-2.8v48.3l2.9,6.8h-15.8l2.9-6.8V13.8l-2.9-6.8H279l2.9,6.8v21.4
		L279,42h-8.7L277.9,90.2z M257.5,16.9v15h14.3v-15H257.5z"/>
</g>
</svg>
